<svg id="Слой_1" data-name="Слой 1" xmlns="http://www.w3.org/2000/svg" viewBox="0 0 200 200"><title>page_Монтажная область 1</title><path d="M200,92.06q0,28.62,0,57.23A20.23,20.23,0,0,1,178.83,170H117.39c-8.11,0-12.59,4-13.49,12.11A4,4,0,0,1,99.85,186c-2-.06-3.56-1.78-3.78-4.2A12.22,12.22,0,0,0,82.69,170q-31,0-62,0A20.24,20.24,0,0,1,0,149Q0,92,0,34.93C0,22.66,8.68,14,21,14q31,0,62,0c6.36,0,11.75,2.15,15.91,7,1,1.13,1.45.85,2.27-.09A19.78,19.78,0,0,1,116.72,14q31.32,0,62.63,0c11.88,0,20.59,8.7,20.62,20.59C200,53.78,200,72.92,200,92.06Zm-96.07,74.31a2.56,2.56,0,0,0,1.36-.54,21.67,21.67,0,0,1,12.82-3.73c20.48.09,41,.05,61.43,0,7.46,0,12.59-5,12.6-12.34q.06-57.82,0-115.67c0-7.13-5.15-12.22-12.29-12.24q-31.82-.06-63.64,0A11.75,11.75,0,0,0,111,23c-5.09,2.47-7.08,6.67-7.07,12.17Q103.95,100.78,103.92,166.37Zm-7.84.12q0-65.67,0-131.31c0-8.44-4.86-13.31-13.25-13.31q-30.72,0-61.44,0c-8.71,0-13.53,4.78-13.53,13.44q0,56.75,0,113.47c0,8.57,4.81,13.35,13.41,13.36q30.81,0,61.63,0C87.92,162,91.74,163.92,96.08,166.49Z"/><path d="M155.63,46.05c3.26-.25,5.8,3.86,3.41,6.37a4.16,4.16,0,0,1-3.36,1.47q-18,0-36,0a3.84,3.84,0,0,1-4.06-4,3.92,3.92,0,0,1,4.21-3.84C125.84,46,149.7,46.05,155.63,46.05Z"/><path d="M137.75,86.08c5.8,0,11.6,0,17.4,0,2.91,0,4.81,1.57,4.82,3.91s-1.84,3.91-4.8,3.92q-17.5,0-35,0c-2.81,0-4.56-1.53-4.54-3.9s1.75-3.93,4.52-3.94C126,86.07,131.88,86.08,137.75,86.08Z"/><path d="M120.22,73.9c-6.21.2-6.08-8.1.08-7.83,11.53,0,35.26,0,35.59,0,5.4.36,5.43,7.66-.08,7.81C151.41,73.94,126,73.91,120.22,73.9Z"/><path d="M137.68,113.93H120.29c-2.86,0-4.63-1.45-4.66-3.78,0-2.48,1.74-4.05,4.61-4.05h35.19a4.24,4.24,0,0,1,4.28,2.66c1.25,2.82-1.68,5.46-4.44,5.2C149.41,113.92,143.54,113.93,137.68,113.93Z"/><path d="M137.66,134c-5.8,0-11.6,0-17.4,0-2.85,0-4.61-1.47-4.63-3.82s1.75-4,4.64-4q17.6,0,35.19,0c2.68,0,4.56,1.74,4.51,4,0,2.86-3.06,4.1-5.92,3.8Z"/><path d="M173.72,46.08a24.85,24.85,0,0,1,2.59,0,4,4,0,0,1,3.67,4c-.31,4.46-5.41,3.89-8.72,3.74a3.84,3.84,0,0,1-3.59-4C167.83,46.55,170.91,45.72,173.72,46.08Z"/><path d="M173.73,93.91c-3,.31-6-.52-6.06-4,.21-4.58,5-4,8.37-3.84a4,4,0,0,1,3.94,4C179.9,93.35,176.66,94.2,173.73,93.91Z"/><path d="M173.8,66.08c4.2-.08,6,.59,6.18,3.93-.23,4.49-5,4-8.4,3.88A3.88,3.88,0,0,1,167.67,70C167.75,66.55,169.59,66.17,173.8,66.08Z"/><path d="M173.81,106.13a20.34,20.34,0,0,1,2.59,0,4.07,4.07,0,0,1,3.58,3.9c-.24,4.62-5.43,4-8.81,3.84a3.83,3.83,0,0,1-3.5-3.89C167.77,106.56,171,105.74,173.81,106.13Z"/><path d="M173.69,133.94c-2.85.31-5.93-.55-6-3.8a3.87,3.87,0,0,1,3.82-4c3.45-.14,8.33-.57,8.49,4C179.86,133.4,176.62,134.23,173.69,133.94Z"/><path d="M40,115.65c0-6.87,0-13.74,0-20.61a3.17,3.17,0,0,0-1.28-2.93C28.6,84.91,27.06,74.59,28.55,63.29c.95-7.26,3-14.22,7.09-20.39,6.09-9.79,18.18-12.31,26.4-2.51,5.83,7,8.32,15.2,9.48,24C72.75,74,71,85.17,62.42,91a5.65,5.65,0,0,0-2.59,5.32c.11,11.46.08,22.93,0,34.4a42,42,0,0,1-1.46,12.46c-2.52,9.17-14.32,9.1-16.78-.06C39.18,134.16,40.31,124.77,40,115.65Zm7.83-1.89c.26,8.46-.61,17.12.83,25.54.18,1,0,2.59,1.21,2.63s1.16-1.54,1.34-2.54a49.13,49.13,0,0,0,.78-9.14c.13-12.39-.24-24.81.17-37.19.47-4,3.21-6.45,6.16-8.7a13.23,13.23,0,0,0,5.37-9.21,45.21,45.21,0,0,0-2.87-21.76,22.23,22.23,0,0,0-6-9.32c-5.1-4.71-10.59-1-13.36,4.15a45.5,45.5,0,0,0-5.55,25c.45,12.46,12,10.54,11.93,22.14C47.82,101.49,47.87,107.63,47.87,113.76Z"/></svg>