<svg id="Слой_1" data-name="Слой 1" xmlns="http://www.w3.org/2000/svg" viewBox="0 0 200 200"><title>page_boy</title><path d="M171.06,160.23l-1-.14c-5.09-.92-6.27,1.61-8.56,5.7-9.87,17.57-25.55,27.53-44.88,31.28-24.61,4.76-49.88-.06-68.28-17.88-5.22-5.05-9.72-10.77-12.49-17.52-.79-1.92-1.62-2.29-3.73-1.91-10.76,2-20.17-4.55-21.9-14.87-1.66-9.82,4.84-18.84,15.31-20.72,2.83-.51,3.6-1.4,3.63-4.26A70.28,70.28,0,0,1,90.46,50.47c10.1-1.38,20.38,0,30.37-2.52,5.25-1.3,10.72-2.81,14.89-6.45a8.07,8.07,0,0,0,2.3-3.13c.26-.72.39-1.49.7-2.2,1.12-2.57,3.38-1,4.84.27,6.75,6.05,11.24,14.4,8.62,23.63-1,3.51-5.09,7.66-1.94,10.93a73.19,73.19,0,0,1,18.23,32.9,57.26,57.26,0,0,1,2,15.51c-.09,3.38.92,4.62,4.39,5.1,8.62,1.2,14.77,8.58,15.14,17.42C190.39,151.76,180.94,161.3,171.06,160.23ZM140.94,49.86a42.52,42.52,0,0,1-17.32,8.56c-7.07,1.64-14.21,1.07-21.34,1.38C86,60.52,71.19,65.34,59.12,76.71,45,90,39.9,107.3,38.66,126c-.23,3.5-1.22,4.84-4.59,5A17.34,17.34,0,0,0,25,133.71c-3.59,2.43-5.52,5.66-4.24,10.11s4.31,6.86,8.91,7.17a23.25,23.25,0,0,0,9.47-1c2.2-.8,3.1-.53,4.05,1.69C56,181.44,85.59,191.47,113.71,186c20.22-3.93,34.65-15.47,43.79-33.73,1.32-2.65,2.43-3.69,5.48-2.4a18.33,18.33,0,0,0,9,1.08c4.94-.48,8.09-3.29,8.79-7.78s-1.41-8.32-5.76-10.3a29,29,0,0,0-10.17-2.34c-2.82-.18-3.71-1.16-3.74-4.12-.23-21.28-7.88-39.41-23.73-53.79-2.34-2.13-2.51-3.13,0-5.33C143.63,61.74,144.59,56.43,140.94,49.86Z"/><path d="M69.52,142.55a8.76,8.76,0,0,1-8.37-9,8,8,0,0,1,8.34-8.19,8.7,8.7,0,0,1,8.23,9.08A8.37,8.37,0,0,1,69.52,142.55Z"/><path d="M138.91,134.08a8.24,8.24,0,0,1-8.22,8.46,8.84,8.84,0,0,1-8.33-8.55,8.08,8.08,0,0,1,8-8.6A8.62,8.62,0,0,1,138.91,134.08Z"/></svg>