<svg id="Слой_1" data-name="Слой 1" xmlns="http://www.w3.org/2000/svg" viewBox="0 0 50 50"><defs><style>.cls-1{fill:#fff;}.cls-2{fill:#ed1e79;}</style></defs><title>page_Монтажная область 1</title><path class="cls-1" d="M45,25V4.08a4,4,0,0,0-4.05-4Q28.79,0,16.66,0a1.09,1.09,0,0,0-.83.32Q10.6,5.6,5.34,10.84a.93.93,0,0,0-.32.72c0,2.76,0,5.55,0,8.34V46a4.09,4.09,0,0,0,4.05,4c4.32,0,8.61,0,12.93,0,6.25,0,12.53,0,18.78,0A4.16,4.16,0,0,0,45,45.76C44.93,38.84,45,31.92,45,25Zm-38.44-14A5.79,5.79,0,0,0,7,10.43L15.4,2c.13-.13.24-.43.48-.32s.08.38.08.56c0,1.8,0,3.6,0,5.4a3.09,3.09,0,0,1-3.36,3.29ZM35.14,26.15a16.69,16.69,0,0,1-3.38,3.54c-1.23,1-2.47,2-3.7,3-.19.16-.38.32-.57.51a6.44,6.44,0,0,0-2.41,4.16c-.27-.3-.21-.62-.29-.92a7.67,7.67,0,0,0-2.42-3.4c-1.64-1.45-3.43-2.71-5.07-4.19a12.75,12.75,0,0,1-2.71-3.22,6.35,6.35,0,0,1,3.92-9.28,5.39,5.39,0,0,1,6.28,3.54c.05.22.1.41.21.78a5.4,5.4,0,0,1,4-4.26,5.72,5.72,0,0,1,6.65,3.32A6.2,6.2,0,0,1,35.14,26.15Z"/><path class="cls-2" d="M35.14,26.15a16.69,16.69,0,0,1-3.38,3.54c-1.23,1-2.47,2-3.7,3-.19.16-.38.32-.57.51a6.44,6.44,0,0,0-2.41,4.16c-.27-.3-.21-.62-.29-.92a7.67,7.67,0,0,0-2.42-3.4c-1.64-1.45-3.43-2.71-5.07-4.19a12.75,12.75,0,0,1-2.71-3.22,6.35,6.35,0,0,1,3.92-9.28,5.39,5.39,0,0,1,6.28,3.54c.05.22.1.41.21.78a5.4,5.4,0,0,1,4-4.26,5.72,5.72,0,0,1,6.65,3.32A6.2,6.2,0,0,1,35.14,26.15Z"/></svg>