<svg id="Слой_1" data-name="Слой 1" xmlns="http://www.w3.org/2000/svg" viewBox="0 0 200 200"><title>page_Монтажная область 1</title><path d="M179.78,99.92c0,27.7-.15,55.41.1,83.12a16.6,16.6,0,0,1-16.71,16.79q-37.56,0-75.13,0c-17.22,0-34.44,0-51.66.09a16.29,16.29,0,0,1-16.19-16.08q0-52.12,0-104.25c0-11.11,0-22.23-.07-33.34a3.74,3.74,0,0,1,1.22-2.88q21-21,42-42A4.25,4.25,0,0,1,66.67.08q48.48,0,97,0a15.9,15.9,0,0,1,16.14,16.22Q179.8,58.12,179.78,99.92ZM100,82.68c-.42-1.42-.64-2.24-.9-3A21.4,21.4,0,0,0,74,65.5C58,69.31,50.12,88.06,58.33,102.62c2.8,5,6.7,9,10.88,12.83,6.49,5.9,13.69,10.94,20.23,16.77,4.23,3.78,8,7.91,9.69,13.56.35,1.16.09,2.52,1.17,3.68.61-7.16,4.79-12.12,9.63-16.67.74-.7,1.5-1.38,2.29-2,4.92-4,9.88-7.93,14.76-12,5.07-4.2,9.88-8.67,13.55-14.22,5.42-8.18,6-16.72,1.9-25.59-4.84-10.55-15.93-16.2-26.6-13.33C107.37,67.93,102.36,73.73,100,82.68ZM26.08,43.79h24.5c8.26,0,13.31-5,13.32-13.22q0-10.78,0-21.57c0-.75.4-1.82-.32-2.17-1-.46-1.42.7-2,1.26Q44.73,24.92,27.92,41.76C27.44,42.24,27,42.77,26.08,43.79Z"/></svg>