<svg id="Слой_1" data-name="Слой 1" xmlns="http://www.w3.org/2000/svg" viewBox="0 0 200 200"><title>page_girl</title><path d="M190,145.31c-1.9,6.76-5.74,11.83-12.53,14.26a13.52,13.52,0,0,1-7.43.59c-3-.62-5.47.32-6.95,3.12-13.28,25-35.28,34.87-62.36,35.49-23.65.54-43.48-7.76-58.59-26.35a41.17,41.17,0,0,1-6.3-10.7,2.82,2.82,0,0,0-3.45-1.94c-11.55,1.66-18.89-3.19-22.16-14.58,0-.09-.15-.16-.23-.24v-6c2.18-8.56,7.73-13.47,16.36-15,2.05-.36,2.75-1.76,2.79-3.67C29.44,104.59,33.71,90,44,77.85a.62.62,0,0,1,.36-.26c.27,0,.44.27.53.53C46,81.24,49,87,49,87s-2,4.19-2.9,5.7a30.1,30.1,0,0,0-3,6.54c-2,6-2.59,12.47-3.59,18.68-.46,2.89-.66,5.82-.89,8.73S37,131,34.09,131.1A16.23,16.23,0,0,0,24,134.59c-3.24,2.65-4.24,5.72-3.09,9.5a9.08,9.08,0,0,0,8.22,6.84,23.34,23.34,0,0,0,10.39-1.1c1.77-.68,2.93-.1,3.64,1.6,18.84,45,76.66,43.73,101.21,19.08a68.77,68.77,0,0,0,13.12-18.33c1.32-2.69,3.06-3.4,5.81-2.24a16.65,16.65,0,0,0,10.34.69,8.66,8.66,0,0,0,7.16-7.85,9.16,9.16,0,0,0-4.91-9.35,26.85,26.85,0,0,0-11.15-2.82c-2.41-.15-3.59-1.18-3.64-3.7-.24-12.71-2.53-25-9.22-36-8.18-13.47-20.23-22-35.27-26.4a3.75,3.75,0,0,1-3-2.68c-.84-2.61-1.91-5.15-3-7.7-.5-1.22-.58-1.74,1.1-1.45a72.59,72.59,0,0,1,41.76,22.8C165.1,88,170,103,170.48,119.64c.06,2.17.5,4.19,3,4.53,9.21,1.3,14.45,6.71,16.57,15.52Z"/><path d="M95.14,70.29c.37,0-.28.06-.91,0-3.69-.36-6.85-.3-9.58,3.27-2.38,3.11-6.43,3.59-10.34,2.52a2.14,2.14,0,0,0-2.35.6c-3.26,3.2-6.56,6.35-9.87,9.5-2.52,2.41-4.68,2-5.91-1.26Q52.3,74.76,48.44,64.58c-1-2.61.29-4.47,3.08-4.41,4.39.1,8.78.24,13.16.45a2.49,2.49,0,0,0,2.56-1.31c3.36-5.37,8-7.09,14-5.21a2,2,0,0,0,2.3-.54Q88.2,48.94,93,44.41c2.34-2.21,4.51-1.72,5.68,1.3q3.89,10.07,7.71,20.16c1.15,3-.23,4.88-3.54,4.77C100.6,70.57,98.38,70.44,95.14,70.29Z"/><path d="M70,33.55c.5-14.76,6.42-25.33,19.22-31.62a6,6,0,0,1,8.18,2.41,5.8,5.8,0,0,1-2.64,8.2C83.37,18,80.74,28.23,83,40.08c.63,3.25.63,6.28-2.67,8.13-2.56,1.44-5,.88-7.07-1.11-1.59-1.51-1.92-3.6-2.25-5.6C70.53,38.62,70.28,35.71,70,33.55Z"/><path d="M45.58,31c8.8.21,16.49,4.76,21.17,14.07,1.76,3.52.64,7.35-2.39,8.83-3.26,1.59-6.66.16-8.45-3.57-3.2-6.63-9.77-8.88-18.39-6.29-.9.27-1.78.59-2.68.84A6,6,0,0,1,31,33.54,38.82,38.82,0,0,1,45.58,31Z"/><path d="M69.66,142.65a8.89,8.89,0,0,1-8.61-8.88,8.2,8.2,0,0,1,8.1-8.43A8.87,8.87,0,0,1,77.79,134,8.45,8.45,0,0,1,69.66,142.65Z"/><path d="M139,134.15a8.25,8.25,0,0,1-8,8.47,8.79,8.79,0,0,1-8.61-8.82,8.15,8.15,0,0,1,8-8.46A8.76,8.76,0,0,1,139,134.15Z"/></svg>