<svg xmlns="http://www.w3.org/2000/svg" viewBox="0 0 50 50"><defs><style>.cls-1{fill:#fff;}.cls-2{fill:#029999;}</style></defs><title>Хранение в морозильнике</title><g id="Слой_1" data-name="Слой 1"><circle class="cls-1" cx="25" cy="25" r="23.95"/><path class="cls-2" d="M36.39,49.31H31.34l0-.32c-.15-1.14-.15-1.14-1.38-1.15l-10.15-.07a2.89,2.89,0,0,0-1.11.09A2.73,2.73,0,0,0,18.48,49l0,.34h-5l-.06-.61c0-.22-.05-.44-.05-.66s0-.26-.3-.32c-2.1-.46-2.8-1.33-2.79-3.43l0-7.25q.06-10.12.08-20.26a1.63,1.63,0,0,1,.35-1.19,1.62,1.62,0,0,1,1.19-.33c8.17.08,16.81.13,26.41.16a1.56,1.56,0,0,1,1.16.34,1.58,1.58,0,0,1,.33,1.13c-.07,6.88-.1,13.75-.14,20.63l0,7c0,2.07-.88,3.07-2.9,3.35-.25,0-.25,0-.24.27s0,.41,0,.61ZM32,48.59h3.74c0-.15,0-.3,0-.45a.87.87,0,0,1,.86-1c1.65-.23,2.27-1,2.28-2.64l0-7c0-6.87.07-13.75.14-20.62a1.06,1.06,0,0,0-.12-.63,1.08,1.08,0,0,0-.65-.12c-9.6,0-18.25-.08-26.42-.16-.38,0-.58,0-.67.12s-.14.31-.14.69C11,23.54,11,30.29,11,37l0,7.26c0,1.75.47,2.33,2.22,2.72A1,1,0,0,1,14,48a5.27,5.27,0,0,0,0,.56h3.74c.13-1.43.37-1.55,2-1.53l10.15.06C31.52,47.13,31.77,47.25,32,48.59Zm-2.4-8.44c-.41,0-.67-.4-.79-.58l0-.06c-.06-.09-.11-.18-.16-.27l0-.07h0a1.05,1.05,0,0,1-.45.74.85.85,0,0,1-.7,0c-.76-.29-.51-1-.4-1.33a1.8,1.8,0,0,0,.09-.28,1.55,1.55,0,0,1,0-.21.71.71,0,0,1-.57-.12,1,1,0,0,1-.32-1.18.36.36,0,0,0,0-.1.76.76,0,0,1-1,.48.88.88,0,0,1-.35-.18.84.84,0,0,1-.32.17.76.76,0,0,1-.63,0,.91.91,0,0,1-.37-.41s0,.05,0,.08A.88.88,0,0,1,23.2,38a.75.75,0,0,1-.47.06c.05.17.1.33.13.49a1.16,1.16,0,0,0,0,.18.85.85,0,0,1-1.11,1.15,1.17,1.17,0,0,1-.5-.76l-.07.15a2.83,2.83,0,0,1-.26.42c-.33.41-.69.52-1.06.32a.82.82,0,0,1-.34-1.17,2.88,2.88,0,0,1,.22-.38l.11-.17h0l-.14,0c-.26,0-.93.15-1.09-.58s.54-1,.84-1l.11,0,.51-.15a.87.87,0,0,1-.17-.5c0-.69.55-.84.83-.91l.15,0a.77.77,0,0,1-.94-.6.87.87,0,0,1,0-.39.92.92,0,0,1-.39-.28.83.83,0,0,1-.24-.6.91.91,0,0,1,.1-.33.85.85,0,0,1-1.2.23.76.76,0,0,1-.31-.41l-.41.4c-.28.27-.83.82-1.43.22s-.05-1.06.16-1.3a4,4,0,0,1-.49,0c-.24,0-1-.12-.92-.91,0-.22.15-.75,1-.76h.47l0,0c-.16-.19-.66-.76-.11-1.29a.84.84,0,0,1,.57-.24,1.2,1.2,0,0,1,.79.45l.12.12a3.34,3.34,0,0,0,.32.33.86.86,0,0,1,.35-.45.87.87,0,0,1,1.13.23l.16.16a.87.87,0,0,1-.14-.81.7.7,0,0,1,.54-.5.75.75,0,0,1,.15-.71.86.86,0,0,1,.84-.27l-.18-.05c-.29-.08-.82-.22-.82-.89a.76.76,0,0,1,.17-.53l-.57-.16-.13,0c-.26-.08-.86-.27-.74-1a.81.81,0,0,1,1.07-.62l.17,0L19.9,24l-.13-.23c-.16-.3-.48-.94.15-1.36a.76.76,0,0,1,.59-.13,1.1,1.1,0,0,1,.62.55l.05.08.2.32,0-.08c.12-.29.38-.92,1.09-.68.47.17.64.58.48,1.21l-.18.67a.81.81,0,0,1,.47.05.88.88,0,0,1,.46,1.07l0,.2a.76.76,0,0,1,1-.44,1,1,0,0,1,.33.19.89.89,0,0,1,.39-.2.74.74,0,0,1,.92.49v0a.89.89,0,0,1,.34-1.21.73.73,0,0,1,.56-.11c0-.17-.08-.35-.13-.52l0-.09c-.09-.31-.3-1,.48-1.27a.82.82,0,0,1,.62,0,1.08,1.08,0,0,1,.46.72v0l.1-.14a.86.86,0,0,0,.13-.2,1,1,0,0,1,.59-.59.86.86,0,0,1,.66.13.83.83,0,0,1,.39.49,1.08,1.08,0,0,1-.23.8l-.11.19-.08.17a1,1,0,0,1,.85,0,.87.87,0,0,1,.35.61c.13.82-.63.95-.95,1a1.33,1.33,0,0,0-.33.08l-.18.07a.78.78,0,0,1,.17.48c0,.74-.58.87-.87.94l-.13,0a.87.87,0,0,1,.79.21.88.88,0,0,1,.12.8.91.91,0,0,1,.65.53.88.88,0,0,1-.2.77l.06-.07a.93.93,0,0,1,1.21-.31.7.7,0,0,1,.38.43l.42-.39.1-.1a1.07,1.07,0,0,1,.73-.41h0a.86.86,0,0,1,.58.28c.51.54.06,1.07-.17,1.33a1.7,1.7,0,0,1,.32,0l.18,0c.26,0,1,.05.93.84s-.75.77-1,.77h-.18l-.23,0a.85.85,0,0,1,.21.25.84.84,0,0,1-.09,1.1.76.76,0,0,1-.57.24.82.82,0,0,1-.59-.31L32,32.65a.72.72,0,0,1-.31.54.79.79,0,0,1-1.11-.14l-.21-.19a.79.79,0,0,1-.42,1.26.79.79,0,0,1,0,.5.75.75,0,0,1-.82.54h0c.28.07.86.22.84.91a.75.75,0,0,1-.19.52,4.26,4.26,0,0,1,.54.15l.15,0c.29.08.95.28.75,1a.78.78,0,0,1-.36.53,1.1,1.1,0,0,1-.87,0l0,0c0,.09.11.18.15.27l.05.1A.87.87,0,0,1,30,40,.83.83,0,0,1,29.57,40.15Zm-1.1-1.93.21.05a1.34,1.34,0,0,1,.54.64c0,.07.07.14.11.2l.05.07a.91.91,0,0,0,.2.25l.09-.07a1.32,1.32,0,0,0-.11-.28L29.5,39a.75.75,0,0,0-.1-.17,1.18,1.18,0,0,1-.23-.91l0-.32.46,0a1.72,1.72,0,0,1,.37,0l.13,0a1.1,1.1,0,0,0,.31.06l0-.07a.62.62,0,0,0,0-.09,1.39,1.39,0,0,0-.27-.09l-.2-.07a3.45,3.45,0,0,0-.46-.12,3.22,3.22,0,0,1-1.15-.47l-.25-.17-.23,1c-.07.3-.13.54-.18.79a2.33,2.33,0,0,1-.11.39,1.08,1.08,0,0,0-.09.38h0l.06,0,.13,0a2.74,2.74,0,0,0,.07-.28,1.54,1.54,0,0,1,.23-.55.54.54,0,0,1,.23-.17Zm-8.31-.69a.68.68,0,0,1,.43.16l.14.1V38a1.56,1.56,0,0,1-.35.9c-.06.1-.12.19-.17.29s0,.2,0,.24.07,0,.18-.14a1.57,1.57,0,0,0,.16-.29,1.41,1.41,0,0,1,.64-.72l.13-.06.15.05a.73.73,0,0,1,.45.55l0,.13a1,1,0,0,0,.14.34l.08,0c.06,0,.07,0,.07,0a.79.79,0,0,0-.06-.25c0-.08,0-.17-.06-.24s-.08-.32-.12-.47a3,3,0,0,1-.19-1.2l0-.48-.51.25a9,9,0,0,1-1.59.57l-.12,0c-.1,0-.29.07-.32.12a.17.17,0,0,0,0,.08s.18,0,.27,0l.18,0,.08,0A1.08,1.08,0,0,1,20.16,37.53Zm1.82-1,.41.26a1.35,1.35,0,0,1,.41.46.74.74,0,0,0,.11.16c.12-.08.13-.08,0-.39,0-.1-.05-.19-.07-.28a1.63,1.63,0,0,0-.07-.3,1.34,1.34,0,0,1,.46-1.69l.42-.32.27,1c.09.31.16.59.25.87s.11.24.12.24h0s0,0,.07,0,.07-.07,0-.24-.13-.49-.18-.74l0-.16a.7.7,0,0,1,.09-.61A.81.81,0,0,1,25,34.5a.72.72,0,0,1,.65.25.67.67,0,0,1,.07.63l0,.12c-.06.21-.12.43-.16.64a.94.94,0,0,0,0,.34l.11,0a.79.79,0,0,0,.13-.27c0-.12.07-.25.1-.37a2.26,2.26,0,0,1,.43-1l.21-.25.28.2a1.25,1.25,0,0,1,.38,1.61,3,3,0,0,0-.09.32,1.14,1.14,0,0,1-.06.25c-.08.33-.06.35,0,.39s.14-.11.2-.18a2.3,2.3,0,0,1,.37-.43l.37-.34-.05,0,.14,0,.37-.33-.05.24.27-.08a1.82,1.82,0,0,1,.45,0,1.17,1.17,0,0,0,.22,0,.12.12,0,0,0,0-.05c0-.1,0-.12-.3-.19l-.24-.07a4.13,4.13,0,0,0-.5-.15l-.18,0a1.17,1.17,0,0,1-.89-1.16l-.06-.51,1,.24.95.24c.17.05.23,0,.23,0l0-.1s-.05-.06-.17-.1l-.5-.15L28.21,34a.76.76,0,0,1-.53-.31.56.56,0,0,1,0-.45,1.32,1.32,0,0,1,.37-.64c.15-.14.48-.31.88.11l.41.38.3.29c.13.12.17.08.19.07s0-.09-.08-.24a3.51,3.51,0,0,0-.33-.34,2.27,2.27,0,0,1-.66-.86l-.11-.29.27-.15a1.11,1.11,0,0,1,1.42.24c.25.26.51.52.77.77s.15.1.19.07,0,0,0-.18-.28-.53.13-1l.28-.32.64.78c.28.35.56.7.86,1,0,0,.07.06.08.06s.1-.09,0-.27a.57.57,0,0,0-.11-.12.83.83,0,0,1-.33-.91l.06-.25.49,0,.49,0h.24a1.15,1.15,0,0,0,.27,0,.35.35,0,0,0,0-.07.31.31,0,0,0,0-.09h-.24a1.06,1.06,0,0,1-.25,0h-.17a.94.94,0,0,1-.93-.39l-.14-.23.25-.3a2.75,2.75,0,0,1,.22-.26c.08-.08.24-.26.24-.32s-.11-.11-.11-.11a1.82,1.82,0,0,0-.2.2l-.13.12c-.26.24-.52.49-.82.79l-1.18,1.15.11-1a2.07,2.07,0,0,1,.21-.65A1.2,1.2,0,0,0,31.3,30l0,0c-.08,0-.1-.05-.34.19l-.16.17-.3.28c-.07.07-.14.15-.22.22a1,1,0,0,1-1.45.08l-.3-.24.4-.44.28-.3c.06-.07.13-.13.2-.2s.16-.15.24-.24a1,1,0,0,0,.23-.33s-.14-.05-.45-.12l-.11,0-.21-.24,0-.21a1.57,1.57,0,0,0,.1-.43,1.39,1.39,0,0,0-.39,0,2,2,0,0,0-.33.09,2,2,0,0,1-1,.11l-.33-.07.05-.33a1.28,1.28,0,0,1,1.17-1.11,2.63,2.63,0,0,0,.3-.09l.31-.08c.31-.07.31-.08.31-.21s-.08,0-.14,0a1.08,1.08,0,0,1-.57-.15l-.29-.22,0-.05-.61-.25a1.32,1.32,0,0,1-.54-.5,1.7,1.7,0,0,0-.1-.14l-.05,0c-.1.06-.11.07,0,.36a1.48,1.48,0,0,1,.09.33,1.89,1.89,0,0,0,.09.34l.09.37a1,1,0,0,1-.67,1.22l-.38.17L26,27.1c-.09-.33-.18-.63-.27-.94a1.17,1.17,0,0,0-.1-.23c-.11,0-.17.05-.11.31l.07.25c0,.16.09.32.12.48a.16.16,0,0,0,0,.08.67.67,0,0,1,0,.55.58.58,0,0,1-.35.31,1.19,1.19,0,0,1-.92,0c-.31-.17-.38-.46-.21-.86a.32.32,0,0,0,0-.09c0-.14.07-.29.11-.43l.06-.21c.06-.24,0-.3,0-.31l-.11,0a1.6,1.6,0,0,0-.14.28c0,.12-.07.25-.1.38a2,2,0,0,1-.51,1.08l-.27.26-.25-.28a1.59,1.59,0,0,1-.22-1.78,2.93,2.93,0,0,0,.12-.44,1.13,1.13,0,0,0,0-.31l-.09,0a.77.77,0,0,0-.09.17.57.57,0,0,1-.78.35l-.32-.11.22-.81c.11-.38.21-.76.31-1.14s0-.34,0-.36-.14.17-.18.26a.3.3,0,0,0,0,.12.77.77,0,0,1-.63.69l-.24.05-.28-.44c-.1-.18-.21-.35-.32-.52l-.06-.1c-.05-.08-.13-.21-.18-.23s-.12.09.07.47a1.4,1.4,0,0,0,.1.16,1.35,1.35,0,0,1,.26.92l-.05.34-.88-.09-.17,0a1.06,1.06,0,0,0-.24,0,.22.22,0,0,0,0,.06c0,.09.16.13.25.16l.15.05a4.1,4.1,0,0,0,.5.14,3.24,3.24,0,0,1,1.19.46l.6.39-.67.25a1.78,1.78,0,0,1-.54.07h-.2v.05c0,.1,0,.12.29.19l.26.08a1.78,1.78,0,0,0,.33.09c.44.11,1.1.26,1.21,1.13l0,.3-.29.08a1.68,1.68,0,0,1-1.06-.08,2.19,2.19,0,0,0-.34-.1l-.13,0c-.22,0-.28,0-.31,0s0,.08.13.33l.14.22L20.7,29l-.2.06h-.16a.62.62,0,0,0-.2,0c0,.1,0,.14.15.34l.06.06c.07.08.15.15.23.23a1.53,1.53,0,0,1,.59.9l0,.28L21,31a1.1,1.1,0,0,1-1.35-.29L19,30c-.1-.09-.21-.2-.25-.2s-.08.06-.08.06h0s0,.07.11.25a.54.54,0,0,1,.09.34l.09.71-.19-.09v.64a1.62,1.62,0,0,1-.08.52.52.52,0,0,0-.05.22c.08.07.11.07.11.07s.17-.13.24-.19a1.37,1.37,0,0,1,.17-.17l.29-.29.22-.21a1.09,1.09,0,0,1,1.45-.15l.36.22-.46.52c-.11.12-.22.23-.31.35a1.82,1.82,0,0,1-.34.34c-.1.08-.27.23-.28.29h0a.18.18,0,0,0,.06.07c.05.07.08.08.08.08a1.78,1.78,0,0,0,.24-.24,2.08,2.08,0,0,1,.38-.35A.61.61,0,0,1,21,32.7l0-.05a.66.66,0,0,1,.46-.27.6.6,0,0,1,.44.17,1.13,1.13,0,0,1,.36.71c0,.37-.17.6-.6.68l-.1,0-.37.11-.33.09c-.22.07-.21.12-.19.18s.17,0,.25,0a2.46,2.46,0,0,0,.45-.11,2.21,2.21,0,0,1,1.08-.12l.34.06-.05.34a1.3,1.3,0,0,1-1.23,1.13,2.62,2.62,0,0,0-.33.09l-.25.07a.88.88,0,0,0-.28.1.2.2,0,0,0,0,.08c0,.07,0,.09,0,.09a1.19,1.19,0,0,0,.3,0l.28,0,1.22.14Zm2.93-1.29,0,.13V35.3l0-.08h-.06Zm3.47-2,.14,0-.06,0-.05,0Zm-6.88-.08-.07.08.1,0h0Zm-5.31-2.11h-.38c-.23,0-.24.05-.24.1s0,.07,0,.07a.63.63,0,0,0,.28.06,2.68,2.68,0,0,1,1.23.22l.37.21-.39.47-.22.26a1.31,1.31,0,0,0-.26.34l.1.08a1.25,1.25,0,0,0,.31-.25L18.61,31l-.3-.15a5.31,5.31,0,0,1-1.21-1L17,29.75c-.19-.2-.26-.23-.29-.23s0,0-.06,0,0,.16.17.31l.05.05a.79.79,0,0,1,.25.91l-.08.24h-.84Zm8.75-3.81H25l0-.1Zm2.87-4.07h-.07l-.07,0a1.18,1.18,0,0,0,.07.36l0,.1c.1.36.19.72.28,1.12L28.32,26l.15-.21a1.22,1.22,0,0,1,.9-.46,1.16,1.16,0,0,0,.31-.08,1.91,1.91,0,0,1,.52-.14,1,1,0,0,0,.36-.1.21.21,0,0,0,0-.09.42.42,0,0,0,0-.13l-.27.09a1.65,1.65,0,0,1-.59.08.73.73,0,0,1-.25-.09l-.31-.16.09-.35.1-.21c.07-.15.14-.29.2-.43a2,2,0,0,1,.16-.28,2.35,2.35,0,0,0,.14-.25l-.07,0a.22.22,0,0,0-.11-.05l-.13.23a1.72,1.72,0,0,1-.22.33l-.06.12a.75.75,0,0,1-.62.51h-.09l-.08,0A.7.7,0,0,1,28,23.7l-.07-.23A.82.82,0,0,0,27.81,23.19Zm-14.27,2.1h0c-.28,0-.93-.13-.93-1.14,0-1.92,0-3.83,0-5.75a1.16,1.16,0,0,1,.29-.86.86.86,0,0,1,.68-.24c.28,0,.94.14.94,1.12,0,.69,0,1.37,0,2.06v1.14H14.5v.46c0,.7,0,1.4,0,2.1a1.18,1.18,0,0,1-.3.86A.88.88,0,0,1,13.54,25.29Zm0-7.27a.21.21,0,0,0-.14,0s-.07.09-.08.35c0,1.91,0,3.83,0,5.74,0,.41.11.42.22.42a.22.22,0,0,0,.16,0s.08-.1.08-.36c0-.69,0-1.39,0-2.09V20.9h.05V18.43c0-.4-.14-.4-.25-.41Z"/><path class="cls-2" d="M36.87.83c-.57,0-1.14,0-1.71,0H34.3l-6.11,0C23.4.75,18.62.71,13.83.69h0a3,3,0,0,0-3.39,3.38c0,.92,0,1.84,0,2.77,0,2.14,0,4.36-.05,6.54a1.41,1.41,0,0,0,.31,1.08,1.46,1.46,0,0,0,1.07.32c2.62,0,9.9,0,16.32.08,4.45,0,8.5.06,10.34.06h.32a1,1,0,0,0,.77-.25,1.07,1.07,0,0,0,.27-.8c0-1.45,0-2.91,0-4.36,0-1.93,0-3.86,0-5.78A2.89,2.89,0,0,0,36.87.83Zm2.19,8.68c0,1.46,0,2.92,0,4.37a.55.55,0,0,1,0,.29c-.05.05-.27,0-.41,0H38.4c-1.84,0-5.89,0-10.34-.07-5.54,0-11.73-.08-15-.08H11.74a.88.88,0,0,1-.56-.1.9.9,0,0,1-.11-.57c0-2.18,0-4.4.06-6.55,0-.92,0-1.85,0-2.77,0-1.81.86-2.66,2.66-2.66h0q7.17,0,14.35.09l6.12,0c.29,0,.57,0,.86,0,.56,0,1.12,0,1.68,0a2.16,2.16,0,0,1,2.24,2.19C39.09,5.67,39.08,7.59,39.06,9.51Z"/><path class="cls-2" d="M36.84,1.55c-.56,0-1.12,0-1.68,0-.29,0-.57,0-.86,0l-6.12,0Q21,1.44,13.83,1.41h0c-1.8,0-2.65.85-2.66,2.66,0,.92,0,1.85,0,2.77,0,2.15,0,4.37-.06,6.55a.9.9,0,0,0,.11.57.88.88,0,0,0,.56.1h1.32c3.27,0,9.46,0,15,.08,4.45,0,8.5.07,10.34.07h.18c.14,0,.36,0,.41,0a.55.55,0,0,0,0-.29c0-1.45,0-2.91,0-4.37,0-1.92,0-3.84,0-5.77A2.16,2.16,0,0,0,36.84,1.55Zm-22.24,9v1a1.43,1.43,0,0,1-.33,1,.92.92,0,0,1-.65.24h0c-.94,0-.93-1-.93-1.32v-3h0V8.06c0-.65,0-1.31,0-2,0-.85.32-1.29.95-1.31A.9.9,0,0,1,14.3,5a1.42,1.42,0,0,1,.32,1C14.61,7.55,14.61,9,14.6,10.53Z"/><path class="cls-2" d="M21.53,30.07a.7.7,0,0,1-.53-.31L21,29.71c-.18-.19-.36-.39-.53-.59L20,28.67l.33-.41h.26l.31.06.77.17c.62.15.68.48.63.73a1.27,1.27,0,0,1-.45.74A.53.53,0,0,1,21.53,30.07Zm-.11-.91,0,.05.05.06s0-.05,0-.08H21.5Z"/><path class="cls-2" d="M28.42,30.11a.56.56,0,0,1-.41-.18,1.59,1.59,0,0,1-.36-.61.58.58,0,0,1,0-.47.68.68,0,0,1,.49-.3c.32-.09.61-.14.89-.2l.53-.11.28.32-.06.23a2.13,2.13,0,0,1-.61.76,2.39,2.39,0,0,0-.23.22.76.76,0,0,1-.53.34Zm0-.88a.16.16,0,0,0,0,.07h0l.08-.09-.12,0Z"/></g></svg>
