<svg id="Слой_1" data-name="Слой 1" xmlns="http://www.w3.org/2000/svg" viewBox="0 0 200 200"><title>page_complexity</title><path d="M179.55,32.67A35.45,35.45,0,0,0,158.93,13c-9.36-3.36-18.36-3.08-26.79.83a45.85,45.85,0,0,0-23.83-13,42.7,42.7,0,0,0-25.56,2.7A46,46,0,0,0,67.88,13.78a35.19,35.19,0,0,0-8.57-2.64A36,36,0,0,0,20.42,60.46a34.85,34.85,0,0,0,15.15,17l.18.12a1.49,1.49,0,0,1,0,.3c-.13,4.12-.11,8.25-.09,12.38,0,3.38,0,6.77,0,10.16-.06,3-.66,7.57-1.29,12.4-1.2,9.23-2.56,19.68-1.5,27.72a68.65,68.65,0,0,0,7.71,24.18A67.43,67.43,0,0,0,70.3,193.28,65.07,65.07,0,0,0,98.08,200H99.5a68.88,68.88,0,0,0,29.2-6.32,66.66,66.66,0,0,0,19-13.27,68.45,68.45,0,0,0,16.71-27.15,62.59,62.59,0,0,0,2.76-12.84c.35-3-.29-11.17-1.83-28.4-.46-5.12-.94-10.43-1-11.62-.07-3.11,0-6.23,0-9.35,0-4.25.07-8.64-.13-13,0-.22,0-.39,0-.48l.33-.19A32.53,32.53,0,0,0,179,61.81,35.8,35.8,0,0,0,179.55,32.67ZM153.64,138.86a49.57,49.57,0,0,1-2.14,10.08,55,55,0,0,1-13.4,21.8A53.06,53.06,0,0,1,123,181.33a54.53,54.53,0,0,1-24.64,5,51.58,51.58,0,0,1-22-5.29,54.29,54.29,0,0,1-30-42.33c-.09-.64-.14-1.33-.18-2a42.31,42.31,0,0,0,7.68-.08A45.58,45.58,0,0,0,70.3,131.4a48.33,48.33,0,0,0,16.76-15.12,80.35,80.35,0,0,0,15.56,10.63,85.08,85.08,0,0,0,28,8.68,101.29,101.29,0,0,0,23,.8A23.84,23.84,0,0,1,153.64,138.86Zm12.94-82.74a19.25,19.25,0,0,1-8.45,9.21c-5.25,2.8-7.78,7.27-7.51,13.28.17,4,.15,8.08.12,12.34,0,3.25-.05,6.5,0,9.74,0,.79.11,2.17.28,4.22H49c.13-1.5.24-3,.27-4.22.07-3.5,0-7,0-10.51,0-4,0-7.93.08-11.87A13.15,13.15,0,0,0,42.27,65.6,21.4,21.4,0,0,1,33,55.19,22.35,22.35,0,0,1,57.12,24.58a24.64,24.64,0,0,1,6.4,2.19l.37,1.86a6.81,6.81,0,0,0,6.67,5.48A6.91,6.91,0,0,0,71.9,34a6.81,6.81,0,0,0,5.35-8l-.38-1.88a32.66,32.66,0,0,1,11.21-8,29.2,29.2,0,0,1,17.54-1.88,32.23,32.23,0,0,1,17.51,9.9L122.76,26a6.81,6.81,0,0,0,13.36,2.65l.35-1.78.55-.24c5.48-2.81,11-3.05,17.32-.79A21.85,21.85,0,0,1,167,37.94,22.38,22.38,0,0,1,166.58,56.12Z"/><path d="M134.74,151.5a8.9,8.9,0,0,1-5.05,4.94c-5,1.85-10.27-1.9-11.23-2.58-2.06-1.47-2.1-2.28-4.15-3.26a11.1,11.1,0,0,0-7.18-.89c-3.09.7-6.68,3.06-7.63,6.84a.13.13,0,0,0,0,.06s0,0,0-.06c-1-3.78-4.54-6.14-7.63-6.84a11.1,11.1,0,0,0-7.18.89c-2,1-2.1,1.79-4.16,3.26-1,.68-6.23,4.43-11.22,2.58a8.9,8.9,0,0,1-5.05-4.94,10.28,10.28,0,0,1-.34-5.05c-.32,0-4.52,8.42-1.34,16.72a17.26,17.26,0,0,0,7,8.53c5.64,3.47,11.57,2.29,14,1.8a22.8,22.8,0,0,0,8.76-3.82c2.32-1.6,5.24-3.62,6.62-7.4a16,16,0,0,0,.57-1.94,14.33,14.33,0,0,0,.57,1.94c1.38,3.78,4.3,5.8,6.62,7.4a22.81,22.81,0,0,0,8.75,3.82c2.46.49,8.39,1.67,14-1.8a17.32,17.32,0,0,0,7-8.53c3.18-8.3-1-16.77-1.35-16.72A10.2,10.2,0,0,1,134.74,151.5Z"/></svg>