<svg id="Слой_1" data-name="Слой 1" xmlns="http://www.w3.org/2000/svg" viewBox="0 0 200 200"><title>page_portions</title><path d="M199.44,162.87c-1.84-6.83-6.68-10.5-14-10.61-1.27,0-2.54,0-3.81,0-1.5-22.16-10.82-41.13-28-56.34-10-8.87-22.27-15-36.52-18.2L116,77.43c-2.57-.58-5.27-1.19-8-1.65a4.05,4.05,0,0,1,1.47-1.72c5.13-3.72,5.91-11.61,3.42-16.64-2.62-5.29-9.38-8.33-16.06-7.21A13.69,13.69,0,0,0,86,61.55c-.81,5.31.92,10,4.65,12.58a3.59,3.59,0,0,1,1.47,1.69c-6.24,1.06-13.54,2.43-20.48,5.12C47.7,90.23,31.1,107.19,22.26,131.37a73.24,73.24,0,0,0-4,20.83l-3.74.06c-7.31.1-12.15,3.77-14,10.62A16.68,16.68,0,0,0,7,180.25,10.51,10.51,0,0,0,13.69,182l100.68,0,71.87,0a13.35,13.35,0,0,0,10.6-5.34A16,16,0,0,0,199.44,162.87ZM93.38,62.69A6.23,6.23,0,0,1,98,57.62c3.33-.56,7,.85,8.09,3.14,1,2.08.72,5.9-1.11,7.23A11.13,11.13,0,0,0,100.35,75h-.74a10.66,10.66,0,0,0-4.75-7.1C93.33,66.89,93.09,64.54,93.38,62.69Zm94.51,107.14a2.07,2.07,0,0,1-1.66.94q-86.26,0-172.53,0h-.61a5.47,5.47,0,0,1-1.72-5c.48-1.77.71-2.24,3.27-2.27l4.2-.07c3.74-.06,7.47-.12,11.21-.1,27,.2,54.5.18,81.06.15h26a5.64,5.64,0,0,0,0-11.27l-26,0c-26.54,0-54,0-81-.15h-.64a61.7,61.7,0,0,1,3.35-16.87c7.79-21.29,21.8-35.61,42.83-43.78,6.69-2.61,14-3.82,20.53-4.9,5.2-.88,11.33.53,17.27,1.87l1.23.28c12.36,2.79,23,8,31.51,15.64,14.63,13,22.68,29.09,24.15,47.88H154.74a5.64,5.64,0,0,0,0,11.27l16.46,0c4.69,0,9.39,0,14.09,0,2.67,0,2.82.61,3.27,2.27A4.71,4.71,0,0,1,187.89,169.83Z"/><path d="M141,48.18c-7.71,10.09-4.74,20.51-1.35,29.47a15.41,15.41,0,0,0,1.43,2.73,4.57,4.57,0,0,1,.87,1.84,3.77,3.77,0,0,0,3.6,3.91h.16a3.76,3.76,0,0,0,3.75-3.6,10.42,10.42,0,0,0-2-6.12,8.52,8.52,0,0,1-.78-1.42c-3.5-9.27-4.58-15.88.29-22.26,7.82-10.25,3.84-25.5-4.78-33.31a3.75,3.75,0,1,0-5,5.56C142.33,29.71,146.7,40.69,141,48.18Z"/><path d="M162.52,48.18c-7.74,10.22-4.74,20.58-1.32,29.49a16.77,16.77,0,0,0,1.41,2.69,4.32,4.32,0,0,1,.89,1.87,3.75,3.75,0,0,0,3.6,3.9h.16a3.77,3.77,0,0,0,3.75-3.6,10.46,10.46,0,0,0-2-6.14,9,9,0,0,1-.79-1.42c-3.52-9.19-4.61-15.78.3-22.26,8.07-10.67,3.62-25.07-4.66-33.19a3.75,3.75,0,0,0-5.26,5.36C164.59,30.77,168,40.94,162.52,48.18Z"/><path d="M28.49,82.49c.06.22.12.43.19.64a3.62,3.62,0,0,0,3.48,2.49,3.81,3.81,0,0,0,3.59-5.06A6.79,6.79,0,0,0,35,78.7c-6-9.86-6.1-18.29-.18-26.5A17.31,17.31,0,0,0,38,38.5c-1.54-7.39-4.15-12.78-8.23-17a3.76,3.76,0,1,0-5.38,5.24c3,3.12,5,7.33,6.25,13.26a9.86,9.86,0,0,1-1.9,7.78C21,58.49,21,70.2,28.49,82.49Z"/><path d="M50.59,83.88a3.77,3.77,0,0,0,3.23,1.83,3.65,3.65,0,0,0,1.92-.54A3.76,3.76,0,0,0,57,80c-6.66-11.12-6.74-20-.28-28.66a15.56,15.56,0,0,0,2.79-12.48c-1.34-6-3.27-12.27-8.22-17.35A3.76,3.76,0,1,0,46,26.77c3.64,3.74,5.17,8.82,6.27,13.75a7.93,7.93,0,0,1-1.49,6.36C42.43,58.05,42.38,70.15,50.59,83.88Z"/></svg>