<svg xmlns="http://www.w3.org/2000/svg" viewBox="0 0 50 50"><defs><style>.cls-1{fill:#fff;}.cls-2{fill:#029999;}</style></defs><title>page_fridge</title><g id="Слой_1" data-name="Слой 1"><circle class="cls-1" cx="25" cy="25" r="23.95"/><path class="cls-2" d="M38.71,14.93h-.29c-1.83,0-5.89,0-10.37-.06-6.42,0-13.69-.1-16.31-.08h0a1.45,1.45,0,0,1-1.08-.32,1.5,1.5,0,0,1-.31-1.08c0-2.17.05-4.38.06-6.52,0-.93,0-1.86,0-2.79A3,3,0,0,1,13.8.69h0L28.18.78l6.12,0h.85c.58,0,1.15,0,1.72,0a2.88,2.88,0,0,1,2.92,2.91c0,1.92,0,3.85,0,5.78,0,1.45,0,2.91,0,4.36a1.07,1.07,0,0,1-.27.8A1,1,0,0,1,38.71,14.93Zm-.29-.72h.16c.14,0,.36,0,.4,0s.06-.06.06-.29c0-1.45,0-2.91,0-4.37,0-1.92,0-3.84,0-5.77a2.16,2.16,0,0,0-2.23-2.19c-.56,0-1.12,0-1.68,0h-.87l-6.11,0L13.83,1.41h0c-1.81,0-2.65.85-2.66,2.66,0,.93,0,1.86,0,2.79,0,2.14,0,4.36,0,6.54a1,1,0,0,0,.1.56.93.93,0,0,0,.56.1h0c2.63,0,9.91,0,16.33.08,4.45,0,8.5.07,10.33.07ZM13.62,12.8h0c-.94,0-.94-1-.93-1.32v-3h0V6.11c0-.85.31-1.3.95-1.32A.91.91,0,0,1,14.3,5a1.42,1.42,0,0,1,.32,1c0,1.49,0,3,0,4.48v1a1.38,1.38,0,0,1-.33,1A.89.89,0,0,1,13.62,12.8Zm-.25-3.6v.41c0,.62,0,1.25,0,1.87s.1.6.24.6.15,0,.16,0,.11-.16.11-.51v-1c0-1.49,0-3,0-4.47,0-.36-.06-.47-.1-.51s-.08,0-.17,0-.26,0-.25.59V9.2Z"/><path class="cls-2" d="M36.39,49.31H31.34l0-.31c-.15-1.15-.15-1.15-1.38-1.16l-10.15-.06a2.82,2.82,0,0,0-1.11.08A2.87,2.87,0,0,0,18.47,49l0,.33h-5l-.06-.6c0-.23-.05-.45-.05-.67s0-.26-.3-.32c-2.1-.46-2.8-1.33-2.79-3.43l0-7.17q.06-10.17.08-20.34a1.63,1.63,0,0,1,.35-1.19,1.64,1.64,0,0,1,1.19-.33c8,.08,16.67.13,26.41.16a1.55,1.55,0,0,1,1.16.34,1.58,1.58,0,0,1,.33,1.13c-.07,6.71-.1,13.42-.14,20.13l0,7.47c0,2.07-.88,3.07-2.9,3.35-.25,0-.25,0-.24.27s0,.39,0,.59ZM32,48.59h3.74c0-.15,0-.3,0-.45a.87.87,0,0,1,.86-1c1.66-.23,2.27-1,2.28-2.64l0-7.48q0-10.06.13-20.12a1.06,1.06,0,0,0-.12-.63,1.09,1.09,0,0,0-.66-.12h0c-9.73,0-18.37-.08-26.41-.16a1,1,0,0,0-.67.12c-.1.09-.14.31-.14.68,0,6.78,0,13.56-.08,20.34l0,7.18c0,1.75.47,2.33,2.22,2.72A1,1,0,0,1,14,48a5.27,5.27,0,0,0,0,.56h3.74c.13-1.43.38-1.55,2-1.53l10.15.06C31.52,47.13,31.77,47.25,32,48.59ZM13.54,25.29h0c-.28,0-.93-.13-.93-1.14,0-1.92,0-3.83,0-5.75a1.16,1.16,0,0,1,.29-.86.92.92,0,0,1,.68-.23c.28,0,.94.13.94,1.11,0,.69,0,1.37,0,2.06v1.14H14.5v.52c0,.68,0,1.36,0,2a1.3,1.3,0,0,1-.18.72A.87.87,0,0,1,13.54,25.29Zm0-7.27a.21.21,0,0,0-.14,0s-.07.09-.08.35c0,1.91,0,3.83,0,5.74,0,.41.11.42.22.42s.16,0,.18-.07a.63.63,0,0,0,.06-.33c0-.68,0-1.35,0-2V20.9h.05V18.43c0-.4-.14-.4-.25-.41Z"/></g></svg>