<svg id="Слой_1" data-name="Слой 1" xmlns="http://www.w3.org/2000/svg" viewBox="0 0 200 200"><title>page_time</title><path d="M86.56,186.46c-41.9-6.49-73.5-43.43-73.5-85.9A86.9,86.9,0,0,1,147.84,28l-6.71,9.7a3.41,3.41,0,0,0,2.8,5.34,3.15,3.15,0,0,0,.44,0l28.89-3.75A3.41,3.41,0,0,0,176.12,35L169,7.31a3.38,3.38,0,0,0-2.69-2.5,3.1,3.1,0,0,0-.6,0,3.39,3.39,0,0,0-2.8,1.47l-7.32,10.58A100.5,100.5,0,0,0-.56,100.56a100,100,0,0,0,85,99.36,7.54,7.54,0,0,0,1,.08,6.81,6.81,0,0,0,1-13.54Z"/><path d="M122.14,184.65c-2.67.7-5.4,1.28-8.12,1.72a6.81,6.81,0,0,0,1.08,13.53,6,6,0,0,0,1.11-.09c3.14-.51,6.3-1.18,9.38-2a6.81,6.81,0,0,0-3.45-13.18Z"/><path d="M148.79,172.53c-1.74,1.17-3.53,2.3-5.35,3.36a6.8,6.8,0,1,0,6.81,11.78c2.11-1.22,4.18-2.51,6.18-3.88a6.8,6.8,0,1,0-7.64-11.26Z"/><path d="M180.47,149.16a6.81,6.81,0,0,0-9.49,1.61,90,90,0,0,1-5.69,7.2,6.81,6.81,0,1,0,10.22,9,103.13,103.13,0,0,0,6.58-8.32A6.81,6.81,0,0,0,180.47,149.16Z"/><path d="M191.66,121.44a6.78,6.78,0,0,0-8.49,4.53,84.06,84.06,0,0,1-3,8.3,6.81,6.81,0,0,0,3.63,8.92,6.71,6.71,0,0,0,2.64.54,6.82,6.82,0,0,0,6.28-4.17,97.21,97.21,0,0,0,3.48-9.63A6.8,6.8,0,0,0,191.66,121.44Z"/><path d="M200.4,94.94a6.81,6.81,0,0,0-13.6.77c.1,1.61.14,3.22.14,4.85,0,1.28,0,2.55-.08,3.82a6.81,6.81,0,0,0,6.51,7.09h.3a6.82,6.82,0,0,0,6.8-6.52c.06-1.45.09-2.92.09-4.39C200.56,98.67,200.51,96.8,200.4,94.94Z"/><path d="M183.55,76.41a6.81,6.81,0,1,0,13.08-3.77,99,99,0,0,0-4.55-12.54,6.8,6.8,0,1,0-12.46,5.47A88.45,88.45,0,0,1,183.55,76.41Z"/><path d="M95.11,36.52a4.54,4.54,0,0,0-4.54,4.54v65.39l60,29.62a4.58,4.58,0,0,0,2,.47,4.54,4.54,0,0,0,2-8.61l-55-27.12V41.06A4.54,4.54,0,0,0,95.11,36.52Z"/></svg>