<svg id="Слой_1" data-name="Слой 1" xmlns="http://www.w3.org/2000/svg" viewBox="0 0 200 200"><title>page_Монтажная область 1</title><path d="M36.76,110C36.49,69.41,61.05,43,94.61,39.24c29.84-3.37,59.92,18.31,66.42,48.45,5.87,27.17-2.9,49.23-24.86,66.06a9,9,0,0,0-3.85,5.8c-.89,4.94-2,9.84-2.91,14.79-2.45,14.07-15.15,23.82-30.68,23.46-14.62-.34-26.77-11-28.67-24.7-.71-5.13-2.12-10.17-3.16-15.27-.39-1.92-1.88-2.76-3.3-3.79C45.78,141,37.07,123.36,36.76,110Zm109.77-2.59c.11-34.56-26.86-57-55.61-51-19.39,4-34.29,19.39-37.24,38.34a47,47,0,0,0,23.24,48.16A9.14,9.14,0,0,1,82,150c1.13,7,2.86,13.94,4.25,20.91,1.3,6.49,6.34,10.41,13.6,10.43s12.51-3.92,13.8-10.25c1.46-7.14,3.14-14.25,4.38-21.43.56-3.23,2.06-5.05,4.87-6.71C138.15,133.9,146.09,120.43,146.53,107.37Z"/><path d="M90.36,14.65c-.28-4.54.46-8.71,4.84-11.18a9.52,9.52,0,0,1,14,5.94,24.57,24.57,0,0,1,.43,9.27c-.53,5.43-4.47,9-9.58,9s-8.93-3.39-9.65-8.91A31.75,31.75,0,0,1,90.36,14.65Z"/><path d="M12.66,86.21c8.31,0,12.42,2.9,12.77,9.05.23,4.06-1.34,7.45-5.06,8.9-5.47,2.13-11.27,2.55-16.53-.68C.37,101.36-.45,97.71.21,93.83,1.08,88.65,5.14,86.22,12.66,86.21Z"/><path d="M185.4,105.47a19.39,19.39,0,0,1-4.6-.69,8.62,8.62,0,0,1-6.19-7.63c-.47-4,.73-7.57,4.36-9.3,5.57-2.66,11.53-2.82,17,.29,3.74,2.13,4.54,6,3.76,10.06C198.77,103.21,194.61,105.5,185.4,105.47Z"/><path d="M162.42,46.16c-3.51-.25-6.6-1.66-8.39-5-1.86-3.51-1.75-7.13.79-10.24a42,42,0,0,1,6.66-6.54c3.87-3,8.84-2.41,12.22,1.09,3.54,3.64,3.86,8.19.89,12.24C171,42.53,166.06,46,162.42,46.16Z"/><path d="M33,22.48c5.55-.07,14.09,8.28,14.22,13.88a9.85,9.85,0,0,1-9.47,9.78c-5.59.08-14.1-8.25-14.19-13.89A9.8,9.8,0,0,1,33,22.48Z"/><path d="M96.94,71.94c4.54.33,7.46,2.61,8.25,7.18.68,3.92-2,8.28-6.2,8.88-8.39,1.21-12.17,6.11-13.48,14.08-.75,4.58-4.16,6.72-8.84,6-4.32-.67-6.8-3.44-7-7.78C69,86.58,83.48,71.62,96.94,71.94Z"/></svg>