<svg xmlns="http://www.w3.org/2000/svg" viewBox="0 0 293 109.05"><title>page_logo_UPD</title><g id="Слой_2" data-name="Слой 2"><path d="M112.14,50.84c-1.24,0-2.73.94-2.73-17.7,0-24.56,2.58-23.66,3.43-23.66h4.57c1.94,0,2.63,0,5.07,3.33,4.67,6.41,5,10,6,10,.75,0,1.05-3.63,6.32-10,2.78-3.38,3.53-3.33,5.47-3.33h3.87c.85,0,3.43-.9,3.43,23.66,0,18.64-1.49,17.7-2.73,17.7h-6.36c-.6,0-1.79.15-1.79-.75a95.66,95.66,0,0,0,2.83-22.62c0-1,.15-7.15-1.49-7.15-1.44,0-3.33,4.92-3.83,6.11-4.17,10.19-2.48,14.86-5.81,14.86-4.18,0-2.54-4.67-7-14.86-.5-1.09-2.14-6.11-3.68-6.11s-1.59,6.11-1.59,7.15a87.12,87.12,0,0,0,3.13,22.62c0,.9-1.2.75-1.79.75Z"/><path d="M173.88,50.84c-.44,0-1.89.15-1.89-.6,0-1.39,3.83-6.36,3.83-12,0-2.23-2.14-3.08-4.37-3.08-4.53,0-11.73.8-11.73,6.46,0,3.93,3.23,8.16,3.23,8.9,0,.3-.3.35-.95.35h-7.11c-2.53,0-3.23-4.47-3.23-10.94,0-21.27,14.77-31.17,17-31.17,1.64,0,14.47,7.11,14.47,30.18,0,13.27-2.14,11.93-3.63,11.93ZM160.81,28.77a.86.86,0,0,0,.94.94c.9,0,5.72-1.29,10.09-1.29,1.75,0,2.54-.25,2.54-1.64,0-3.08-3.68-9.55-5.57-9.55C166.13,17.23,160.81,25.14,160.81,28.77Z"/><path d="M189.94,50.84c-1.24,0-2.73.94-2.73-17.7,0-24.56,2.58-23.66,3.43-23.66h4.57c1.94,0,2.64,0,5.07,3.33,4.68,6.41,5,10,6,10,.74,0,1-3.63,6.31-10,2.79-3.38,3.53-3.33,5.47-3.33h3.88c.84,0,3.43-.9,3.43,23.66,0,18.64-1.49,17.7-2.74,17.7h-6.36c-.6,0-1.79.15-1.79-.75a95.66,95.66,0,0,0,2.83-22.62c0-1,.15-7.15-1.49-7.15-1.44,0-3.33,4.92-3.83,6.11-4.17,10.19-2.48,14.86-5.81,14.86-4.18,0-2.54-4.67-7-14.86-.5-1.09-2.14-6.11-3.68-6.11s-1.59,6.11-1.59,7.15a87.12,87.12,0,0,0,3.13,22.62c0,.9-1.19.75-1.79.75Z"/><path d="M251.69,50.84c-.45,0-1.89.15-1.89-.6,0-1.39,3.83-6.36,3.83-12,0-2.23-2.14-3.08-4.38-3.08-4.52,0-11.73.8-11.73,6.46,0,3.93,3.23,8.16,3.23,8.9,0,.3-.3.35-.94.35H232.7c-2.54,0-3.23-4.47-3.23-10.94,0-21.27,14.76-31.17,16.95-31.17,1.64,0,14.46,7.11,14.46,30.18,0,13.27-2.13,11.93-3.62,11.93ZM238.61,28.77a.87.87,0,0,0,.95.94c.89,0,5.71-1.29,10.09-1.29,1.74,0,2.53-.25,2.53-1.64,0-3.08-3.67-9.55-5.56-9.55C243.93,17.23,238.61,25.14,238.61,28.77Z"/><path d="M278.43,15.44c-2.48,0-5.66,1.25-5.66,4.13,0,3.58,4.92,5,7.65,5.92C290.86,29,293,34,293,38.71c0,5.77-4.13,12.87-14.62,12.87-7.05,0-14.21-3.77-14.21-11.68,0-4.22,2.53-6.71,3-6.71.84,0,0,10.09,10.69,10.09,3.78,0,7.06-1.64,7.06-4.72,0-3.63-4.48-5.12-7.36-6C266.7,29.16,265.51,24.24,265.51,20s2.83-11.29,12.92-11.29c7.21,0,12.33,3.83,12.33,5.27s-2.58,5.92-4,5.92S283.6,15.44,278.43,15.44Z"/><path d="M159.79,85.07c.87,0,1.31.35,1.31,1.06,0,.54-.4.94-1.21,1.22A2.73,2.73,0,0,0,157.8,90,2.81,2.81,0,0,0,159,92.47a4.58,4.58,0,0,0,2.65.73,8.94,8.94,0,0,0,5.61-1.87,3.69,3.69,0,0,0,1.5-3,4.44,4.44,0,0,0-.44-2,21.5,21.5,0,0,0-1.4-2.33q-1.45-2.18-2.46-4a8,8,0,0,1-1.11-3.91q0-4.53,4.49-8.49a21.05,21.05,0,0,1,5.24-3.35,11.37,11.37,0,0,1,4.59-1,3.89,3.89,0,0,1,2.43.76,2.86,2.86,0,0,1,1.21,2.45c0,1.62-.87,3.36-2.62,5.24A20.39,20.39,0,0,1,172.92,76a6.35,6.35,0,0,1-2.5.83,1.35,1.35,0,0,1-1-.46,1,1,0,0,1-.29-.71c0-.6.53-1.08,1.6-1.45a16.74,16.74,0,0,0,5.19-2.94c1.94-1.62,2.92-3,2.92-4.25a1.36,1.36,0,0,0-.59-1.14,1.75,1.75,0,0,0-1.09-.34,9.73,9.73,0,0,0-4.2,1.29,14.45,14.45,0,0,0-5.34,4.44,7.9,7.9,0,0,0-1.7,4.59,7.23,7.23,0,0,0,.9,3.35c.5.92,1.14,2,1.92,3.13s1.37,2.15,1.89,3.11a6.82,6.82,0,0,1,.9,3.18c0,1.9-1.09,3.6-3.28,5.07A11.17,11.17,0,0,1,162,95.5a7.5,7.5,0,0,1-5.44-1.91A4.61,4.61,0,0,1,155,90.24a4.87,4.87,0,0,1,1.41-3.55,5.51,5.51,0,0,1,2-1.31A3.82,3.82,0,0,1,159.79,85.07Z"/><path d="M181.39,90.43a18.89,18.89,0,0,1-1.57,2.38,4.14,4.14,0,0,1-3,1.89,2.26,2.26,0,0,1-2-1.24,3.78,3.78,0,0,1-.46-1.89,13.06,13.06,0,0,1,1.7-5.95,15.75,15.75,0,0,1,4.56-5.56,5.82,5.82,0,0,1,3.38-1.26,2.42,2.42,0,0,1,1.7.63,1.73,1.73,0,0,1,.58,1.27,4.16,4.16,0,0,1-.41,1.48,1.63,1.63,0,0,1,.36.89,4,4,0,0,1-.68,1.68,18.32,18.32,0,0,0-1.41,3.16,10.49,10.49,0,0,0-.75,3.35,2.34,2.34,0,0,0,.61,1.67,4.57,4.57,0,0,0,1,.56,1,1,0,0,1,.61,1,.92.92,0,0,1-.34.75,1.25,1.25,0,0,1-.85.32,2.83,2.83,0,0,1-2.26-1.17A3.66,3.66,0,0,1,181.3,92C181.3,91.71,181.33,91.17,181.39,90.43Zm3-8a2.66,2.66,0,0,0-.63-.79,1.19,1.19,0,0,0-.73-.25q-1.84,0-4,3.23c-1.58,2.38-2.38,4.39-2.38,6a1.54,1.54,0,0,0,.24.93.79.79,0,0,0,.69.31c.77,0,1.68-.82,2.72-2.48a41.57,41.57,0,0,0,2.16-4,21.63,21.63,0,0,1,1.23-2.28A3.59,3.59,0,0,1,184.43,82.44Z"/><path d="M194.11,81.55a16.18,16.18,0,0,1,1.49-.88,4.44,4.44,0,0,1,1.94-.48,2,2,0,0,1,1.6.62,2.74,2.74,0,0,1,.53,1.85,9.41,9.41,0,0,1-1.19,4.08A17.57,17.57,0,0,1,194,92.66a6.7,6.7,0,0,1-4.15,1.82,3.4,3.4,0,0,1-2.12-.82,148.09,148.09,0,0,0-5.94,13.71c-.38,1.12-.81,1.68-1.31,1.68a1,1,0,0,1-.73-.49,1.15,1.15,0,0,1-.27-.75q0-1.31,3.2-8.52a172.07,172.07,0,0,1,9.4-18.47c.61-1,1-1.75,1.24-2.14.56-1.05,1.11-1.58,1.65-1.58s.82.33.82,1a3.15,3.15,0,0,1-.58,1.5Zm-5.46,10.07a1.79,1.79,0,0,0,1.34.56q2.25,0,5-4a14.59,14.59,0,0,0,1.62-3,5.63,5.63,0,0,0,.49-1.87.93.93,0,0,0-.21-.66.85.85,0,0,0-.64-.21A4.55,4.55,0,0,0,193.46,84a17.2,17.2,0,0,0-3,4.3C189.53,90,188.94,91.09,188.65,91.62Z"/><path d="M206.59,79.89a.85.85,0,0,1,.68.32.92.92,0,0,1,.2.53,3.26,3.26,0,0,1-.71,1.46,45.22,45.22,0,0,0-3.59,6.43q-1.14,2.61-2,5.34c-.25.81-.66,1.22-1.21,1.22a.94.94,0,0,1-.78-.39,1.07,1.07,0,0,1-.26-.68,25.06,25.06,0,0,1,1.55-4.86,33.93,33.93,0,0,1,3.93-7.18,13.92,13.92,0,0,1,1.31-1.72A1.25,1.25,0,0,1,206.59,79.89Zm4.61-9A1,1,0,0,1,212.3,72a3.61,3.61,0,0,1-1.07,2.25,2.75,2.75,0,0,1-2,1.19.92.92,0,0,1-.75-.34,1.12,1.12,0,0,1-.29-.77,3.72,3.72,0,0,1,1.28-2.48A2.6,2.6,0,0,1,211.2,70.89Z"/><path d="M208.68,89.77v.44a1.54,1.54,0,0,0,.27.92,2.21,2.21,0,0,0,2,.9q3,0,7-4.66c.47-.53.87-.8,1.19-.8a.63.63,0,0,1,.49.27.66.66,0,0,1,.14.36c0,.63-.77,1.7-2.33,3.21a17.42,17.42,0,0,1-3.88,2.88,8.11,8.11,0,0,1-3.84,1.12,3.51,3.51,0,0,1-2.86-1.26,3.69,3.69,0,0,1-.71-2.38c0-2.74,1.29-5.41,3.86-8q3.13-3.2,5.47-3.2a1.83,1.83,0,0,1,1.14.39,1.63,1.63,0,0,1,.63,1.33,6.3,6.3,0,0,1-1.19,3.16A12.65,12.65,0,0,1,208.68,89.77Zm.53-1.89a9.47,9.47,0,0,0,2.67-1.31,10.74,10.74,0,0,0,2.7-3,2.06,2.06,0,0,0,.36-1c0-.32-.15-.48-.46-.48a3.45,3.45,0,0,0-1.8,1A12.45,12.45,0,0,0,209.21,87.88Z"/><path d="M224.92,86.11l.61-.58c3.38-3.3,5.64-5,6.79-5,.63,0,1,.35,1,1.05a2.86,2.86,0,0,1-.85,1.72q-4.63,5.41-4.64,9.54a4.94,4.94,0,0,0,.73,2.55,1.83,1.83,0,0,1,.34.87.77.77,0,0,1-.29.56,1,1,0,0,1-.75.34,2,2,0,0,1-1.68-1.26,6,6,0,0,1-.65-2.89A14.07,14.07,0,0,1,228,85.79q-3.3,2.11-6.14,7.48c-.48.86-1,1.29-1.55,1.29a.89.89,0,0,1-.68-.29,1.18,1.18,0,0,1-.34-.88q0-1.31,3-6.87,1.6-3,2.53-4.37c.61-.89,1.14-1.33,1.58-1.33a.82.82,0,0,1,.6.29,1.05,1.05,0,0,1,.34.78,3.06,3.06,0,0,1-.7,1.52A26,26,0,0,0,224.92,86.11Z"/><path d="M244.36,78.32a3.87,3.87,0,0,1,2.26.53,1.87,1.87,0,0,1,.75,1.63,4.38,4.38,0,0,1-1.06,2.76,6.91,6.91,0,0,1-3.06,2,5.57,5.57,0,0,1-1.87.42q-1,0-1-.9a1,1,0,0,1,.58-.92,17,17,0,0,1,1.65-.42,3.63,3.63,0,0,0,1.65-.85,1.58,1.58,0,0,0,.66-1.21.93.93,0,0,0-.29-.75,1.38,1.38,0,0,0-.88-.25,5.63,5.63,0,0,0-3.1,1.15,3.63,3.63,0,0,0-2,3A6,6,0,0,0,240,87.76a6.61,6.61,0,0,1,1.43,3.5,3.78,3.78,0,0,1-1.9,3.35,4.74,4.74,0,0,1-2.64.75,4.1,4.1,0,0,1-3.55-1.68,4.75,4.75,0,0,1-.85-2.81,5.08,5.08,0,0,1,1-3.18,1.69,1.69,0,0,1,1.31-.85q.6,0,.6.48a1.35,1.35,0,0,1-.22.59,5.12,5.12,0,0,0-.55,2.45,2.68,2.68,0,0,0,.85,2,2.38,2.38,0,0,0,1.72.73,1.84,1.84,0,0,0,1.48-.63,2.09,2.09,0,0,0,.44-1.36,5.05,5.05,0,0,0-1.17-2.65,7.17,7.17,0,0,1-1.6-4q0-2.43,2.65-4.3A9.35,9.35,0,0,1,244.36,78.32Z"/><path d="M43.78,54.08a27,27,0,0,0,8.32-1.14,17.4,17.4,0,0,0,6.65-3.87,21.61,21.61,0,0,0,4.63-6.31,30.15,30.15,0,0,0,1.54-3.82c.45-1.34.76-2.74,1.12-4.22a15.33,15.33,0,0,1,.79,4.48,17.29,17.29,0,0,1-.56,4.62,16.82,16.82,0,0,1-4.89,8.11,15.49,15.49,0,0,1-8.67,4,14.75,14.75,0,0,1-9-1.79Z"/><path d="M19.92,58.45a43.81,43.81,0,0,0-3.16,12.48,48.07,48.07,0,0,0-.13,6.23,32,32,0,0,0,.82,5.93,25.93,25.93,0,0,0,5,10.29,25.6,25.6,0,0,0,9,7.1,21.22,21.22,0,0,0,5.39,1.73,35.25,35.25,0,0,0,6,.5,55.05,55.05,0,0,0,12.37-1.5,71.51,71.51,0,0,0,12.11-4.06c2-.86,3.93-1.83,5.88-2.83S77,92.21,78.9,91.09a58.28,58.28,0,0,1-10.19,8.69A55.31,55.31,0,0,1,56.58,106a48.36,48.36,0,0,1-6.65,1.94c-1.13.26-2.28.44-3.43.64s-2.31.3-3.49.38a36.27,36.27,0,0,1-7.2-.18,25.47,25.47,0,0,1-7.21-2A28.37,28.37,0,0,1,22.22,103,29.76,29.76,0,0,1,17,97.73a22.37,22.37,0,0,1-2.08-3.1,31.45,31.45,0,0,1-1.66-3.34,27.88,27.88,0,0,1-1.86-7.13,29.41,29.41,0,0,1,0-7.2,37.06,37.06,0,0,1,1.46-6.86A28.52,28.52,0,0,1,19.92,58.45Z"/><path d="M25.11,52.49A26.18,26.18,0,0,0,31.6,44.9c.38-.71.69-1.46,1-2.26s.72-1.59,1.13-2.39a35.13,35.13,0,0,1,2.78-4.54,25.87,25.87,0,0,1,7.72-7.41,22.38,22.38,0,0,1,10-3.2,43.2,43.2,0,0,0-8.74,5.11,35.88,35.88,0,0,0-6.77,7.14c-1,1.33-1.89,2.74-2.76,4.16s-1.55,3-2.61,4.5a18.68,18.68,0,0,1-8.26,6.56Z"/><path d="M42.38,73.74a25.18,25.18,0,0,1-5.44-15,29.31,29.31,0,0,1,1-8.17c.18-.67.38-1.33.61-2s.44-1.27.69-1.91A31.57,31.57,0,0,1,41,42.93a28.77,28.77,0,0,1,4.88-6.77,21.35,21.35,0,0,1,7-4.78c.33-.14.65-.29,1-.41l1-.31a14.31,14.31,0,0,1,2-.52,19.93,19.93,0,0,1,12,1.6,33.47,33.47,0,0,0-7.72.28,25.18,25.18,0,0,0-3.59.92,16.56,16.56,0,0,0-1.69.68l-.83.37c-.27.13-.53.29-.79.43a26,26,0,0,0-10,10.3c-.61,1.08-1.16,2.19-1.68,3.33-.26.57-.52,1.16-.75,1.75s-.45,1.15-.65,1.74a32.34,32.34,0,0,0-1.56,7.29A30.14,30.14,0,0,0,42.38,73.74Z"/><path d="M9.17,26.37,28.68,5.9a7.4,7.4,0,0,1,4.38-2.22L61.28,0c-3,3.35-9.87,10.91-19.25,21.18a7.34,7.34,0,0,1-4.71,2.37Z"/><path d="M50.84,14.5l-7.34,8a9.34,9.34,0,0,1-6,3L26.14,26.68l.69,1.52a1.81,1.81,0,0,0,1.31,1,18,18,0,0,0,3.36.27c4.67-.05,8-1.89,11-3.5A23.92,23.92,0,0,0,50,20.2a20.1,20.1,0,0,0,1.52-2,1.79,1.79,0,0,0,.16-1.65Z"/><path d="M31.52,31.5h-.21a20.73,20.73,0,0,1-2.83-.21c-.15.21-.32.41-.47.63-1.07,1.6-1.91,3.06-2.87,4.55l-2.81,4.46c-1.89,3-3.76,6-5.73,8.79a39.86,39.86,0,0,1-3.22,4,31.56,31.56,0,0,1-3.77,3.46A13.89,13.89,0,0,1,5.16,59.5,13.48,13.48,0,0,1,0,60a12.23,12.23,0,0,0,5.36.5,14.08,14.08,0,0,0,5.21-1.85A29.59,29.59,0,0,0,15,55.39a32.28,32.28,0,0,0,3.82-3.94c2.34-2.79,4.34-5.71,6.38-8.61,1-1.45,2-2.92,3-4.41s1.93-3.06,2.86-4.38a21.39,21.39,0,0,1,1.54-1.9l.67-.75A16.29,16.29,0,0,1,31.52,31.5Z"/><path d="M56.76,19.05a17,17,0,0,0-3.15-.84,3.56,3.56,0,0,1-.46,1.06q-.4.6-.84,1.2a14.61,14.61,0,0,1,3.87.41,20.13,20.13,0,0,1,8.91,5A17.9,17.9,0,0,0,56.76,19.05Z"/><path d="M68.3,60.73a6.5,6.5,0,0,1,.39-3.36,6.37,6.37,0,0,1,.89-1.53l.3-.35.32-.32c.11-.11.23-.2.35-.3s.24-.18.36-.27a6.45,6.45,0,0,1,1.67-.81,8,8,0,0,1,1.81-.33c.31,0,.61,0,.91,0a3.37,3.37,0,0,1,.44,0l.46,0A8.45,8.45,0,0,1,78,54l.21.07.22.09.21.09.11.05.1,0,.42.2.41.23a10.23,10.23,0,0,1,1.5,1.14,9.6,9.6,0,0,1,1.23,1.46,8.44,8.44,0,0,1,.47.83,7.06,7.06,0,0,1,.39.89,8.15,8.15,0,0,1,.42,3.82,9.45,9.45,0,0,1-.42,1.84,10.86,10.86,0,0,1-.73,1.71,12.8,12.8,0,0,1-1,1.56,9.37,9.37,0,0,1-1.29,1.38,9.7,9.7,0,0,1-1.52,1.11c-.27.16-.55.31-.83.44s-.56.25-.85.36a12.23,12.23,0,0,1-1.77.49,11,11,0,0,1-1.81.2h-.91a8.89,8.89,0,0,1-.89-.07,14.91,14.91,0,0,1-1.75-.31A10.72,10.72,0,0,1,68.22,71a7.53,7.53,0,0,1-1.6-.92,5.88,5.88,0,0,1-1.33-1.35,3.42,3.42,0,0,1-.26-.4l-.12-.21c0-.07-.07-.14-.1-.2a6.54,6.54,0,0,1-.34-.87,4.71,4.71,0,0,1-.16-1.87c0-.16,0-.31.08-.46s0-.15.07-.23l0-.11,0-.11a3.17,3.17,0,0,1,.19-.42l.11-.21c0-.06.08-.12.12-.19a1.18,1.18,0,0,1,.13-.18l.14-.18a3.19,3.19,0,0,1,.31-.33,4.36,4.36,0,0,1,.68-.54,4.56,4.56,0,0,1,.75-.41,4.43,4.43,0,0,1,.8-.27l0,.09a6.07,6.07,0,0,0-.68.44l-.31.25-.29.27a4.59,4.59,0,0,0-.49.6l-.11.16,0,.07,0,.09-.09.16a1.22,1.22,0,0,0-.07.17.61.61,0,0,0-.07.17l-.06.17a2.49,2.49,0,0,0-.08.35l0,.09v.09a1.1,1.1,0,0,0,0,.18c0,.11,0,.23,0,.35a3.54,3.54,0,0,0,.34,1.35,4.65,4.65,0,0,0,.34.62l.11.15.1.14a2.75,2.75,0,0,0,.22.26,5.11,5.11,0,0,0,1.09.86,7.31,7.31,0,0,0,1.31.57,11.57,11.57,0,0,0,1.44.33,12.67,12.67,0,0,0,1.5.14c.25,0,.51,0,.75,0h.55l.18,0a9.92,9.92,0,0,0,2.81-.71,7.89,7.89,0,0,0,2.37-1.5,8.16,8.16,0,0,0,.92-1,9.45,9.45,0,0,0,.76-1.21,8,8,0,0,0,.89-2.65,5.78,5.78,0,0,0-.2-2.65,4.35,4.35,0,0,0-.25-.63,5.76,5.76,0,0,0-.3-.61,5.58,5.58,0,0,0-.39-.56c-.13-.19-.29-.36-.44-.54a7.07,7.07,0,0,0-1-.91l-.29-.2-.31-.18-.07-.05-.08,0-.16-.08L77.38,56l-.16-.07a8.42,8.42,0,0,0-1.36-.47l-.35-.07a2.32,2.32,0,0,0-.38-.06,5.82,5.82,0,0,0-.73-.08,5.58,5.58,0,0,0-2.79.51l-.32.17c-.1.07-.21.12-.31.2l-.3.21-.28.24a5.73,5.73,0,0,0-1,1.15,7.05,7.05,0,0,0-1,3Z"/><path d="M72.78,77.8l0-.55a19.53,19.53,0,0,0-.3-2.17A16,16,0,0,0,71.86,73a19,19,0,0,1,.1,2.13,16.22,16.22,0,0,1-.14,2.1,17.06,17.06,0,0,1-.37,2c-.09.34-.17.67-.28,1,0,.17-.1.33-.16.49l-.17.48-.09.24-.1.23-.2.46c-.07.16-.15.31-.22.46l-.23.45a14.8,14.8,0,0,1-1.06,1.68,17.62,17.62,0,0,1-2.66,2.92c-.48.41-1,.87-1.57,1.26a15,15,0,0,1-1.6,1,10.42,10.42,0,0,1-1.64.75,8.57,8.57,0,0,1-1.68.41l-.43.05-.42,0H58a8.49,8.49,0,0,1-1.65-.19A4.68,4.68,0,0,1,55,90.54a4.05,4.05,0,0,1-1-.81,5.24,5.24,0,0,1-.75-1.07,7.71,7.71,0,0,1-.52-1.36,9.44,9.44,0,0,1-.32-1.6c0-.28-.06-.57-.08-.87,0-.15,0-.3,0-.46v-.46a9.56,9.56,0,0,1,.59-3.31,11.76,11.76,0,0,1,1.73-3.1,16,16,0,0,1,1.2-1.41l.66-.65.36-.33L57,75l.17-.16a16.15,16.15,0,0,1,3-2.1l.41-.2.11,0,.1,0L61,72.3l.21-.1.22-.08.22-.08A1.45,1.45,0,0,1,61.9,72l.44-.16.46-.14c.31-.1.62-.19.94-.27.63-.17,1.3-.31,2-.43l.3,0h0a7.22,7.22,0,0,1-1.55-1.58,3.52,3.52,0,0,1-.25-.38l0,0-.55-.11a9.71,9.71,0,0,0-1.2-.1h-.6l-.61,0c-.2,0-.4,0-.6.07l-.3,0-.3.05a12.09,12.09,0,0,0-1.19.28,14.62,14.62,0,0,0-4.4,2.1l-.25.17-.24.18-.45.35c-.32.24-.63.51-.93.78s-.59.55-.87.84-.55.6-.82.91a18.05,18.05,0,0,0-1.46,2,15.67,15.67,0,0,0-1.18,2.22,16.1,16.1,0,0,0-.85,2.42A14.8,14.8,0,0,0,47,83.7L47,84l0,.29c0,.2,0,.4,0,.61,0,.41,0,.84,0,1.26a13.4,13.4,0,0,0,.42,2.6,10.92,10.92,0,0,0,1.09,2.59,9.1,9.1,0,0,0,1.9,2.26,8.91,8.91,0,0,0,2.53,1.53,9.8,9.8,0,0,0,2.74.67,12.69,12.69,0,0,0,2.62,0l.31,0,.3,0,.29,0,.13,0,.16,0,.64-.12.62-.16a13.89,13.89,0,0,0,2.37-.93,13.45,13.45,0,0,0,2.09-1.32A19.54,19.54,0,0,0,67,91.52c.55-.55,1-1.06,1.55-1.67A19.42,19.42,0,0,0,69.91,88a17.91,17.91,0,0,0,1.14-2c.09-.17.17-.35.25-.52s.16-.35.23-.53c.15-.35.28-.71.4-1.07.06-.18.11-.37.17-.55s.11-.36.15-.54l.13-.56.07-.27c0-.09,0-.19,0-.28l.1-.55c0-.19,0-.38.07-.56,0-.37.07-.75.1-1.12,0-.18,0-.37,0-.55v-.56C72.79,78.17,72.78,78,72.78,77.8Z"/><path d="M32.84,65.57c-.2.8-.41,1.54-.59,2.27s-.36,1.45-.51,2.16-.28,1.41-.36,2.11a16.63,16.63,0,0,0-.09,2.11c0,.35,0,.69,0,1,0,.17,0,.34,0,.51s0,.34.05.51c0,.34.08.67.14,1l.09.48c0,.18.07.35.1.52.15.67.3,1.31.5,1.93l.15.46c.06.15.1.31.17.45s.11.3.18.45l.2.44.1.22.11.21.11.21.11.21.24.42.25.4c.16.26.36.52.55.78s.41.52.62.77A19.06,19.06,0,0,0,36.4,86.7c.24.23.49.44.74.67s.52.42.8.61A11.19,11.19,0,0,0,39.66,89a15.44,15.44,0,0,0,1.93.75,26.29,26.29,0,0,0,4.38.95,8.14,8.14,0,0,1-4.7,1.31l-.63,0L40,92c-.42-.06-.84-.15-1.25-.25a13.76,13.76,0,0,1-2.41-.84A14.73,14.73,0,0,1,32.2,88a15.16,15.16,0,0,1-1.66-2l-.36-.55c-.05-.09-.12-.18-.17-.28l-.16-.28-.16-.28-.14-.29L29.4,84l-.13-.29-.14-.3-.12-.3c-.08-.19-.15-.4-.22-.6a12.49,12.49,0,0,1-.37-1.23c-.1-.41-.19-.83-.26-1.25s-.11-.83-.15-1.24c0-.2,0-.41,0-.6s0-.43,0-.64,0-.42,0-.63v-.31a3,3,0,0,1,0-.31,19.81,19.81,0,0,1,.36-2.45A18.4,18.4,0,0,1,30,69.32,12.62,12.62,0,0,1,32.84,65.57Z"/><path d="M91.87,63.28a17,17,0,0,0-2.47-8.39,16.19,16.19,0,0,0-8.22-6.4,19.18,19.18,0,0,0-14.65,1,32.88,32.88,0,0,1,3.71-.12,25.11,25.11,0,0,1,4.53.43,15.91,15.91,0,0,1,6,2.21,14.08,14.08,0,0,1,3.91,3.81,14.87,14.87,0,0,1,2.48,8.52,21.6,21.6,0,0,1-2.49,9.85c0,.06-.07.12-.1.19-2.11,3.94-5.18,7-8,10.44a5.27,5.27,0,0,1,1-.45c.38-.18.76-.37,1.12-.58.62-.36,1.24-.72,1.85-1.09,5.72-3.54,10.31-9.4,11.19-16.22A19.49,19.49,0,0,0,91.87,63.28Z"/></g></svg>