<svg id="Слой_1" data-name="Слой 1" xmlns="http://www.w3.org/2000/svg" viewBox="0 0 200 200"><title>page_Монтажная область 1</title><path d="M68.43,0c50.43.07,83.36,53.11,60.6,98.16-2.92,5.78-2.2,8.72,2.12,13,21,20.57,41.69,41.44,62.43,62.26,8,8,8.78,16.46,2.41,22.65s-14.61,5.15-22.69-2.92c-20.59-20.56-41.3-41-61.58-61.86-4.55-4.68-7.7-5.33-13.69-2.28-25.18,12.84-55.63,8.1-76.23-11.07C1.42,98.93-5.5,68.94,4.58,43.33A68.14,68.14,0,0,1,68.43,0Zm-.6,17.5a50.62,50.62,0,0,0,.29,101.23c27.8.21,51.09-23.37,50.69-51.31A50.51,50.51,0,0,0,67.83,17.5Z"/><path d="M71,24.23c21.71.75,40.87,20.6,41,41.84,0,4.44-1,8.2-6.22,8.59s-6.68-2.75-7.53-7.36C94.72,48,87.75,41.07,69,38.12c-4.63-.72-7.95-2.77-7.53-7.57C62,24.54,66.58,23.7,71,24.23Z"/></svg>