<svg id="Слой_1" data-name="Слой 1" xmlns="http://www.w3.org/2000/svg" viewBox="0 0 175 193"><defs><style>.cls-1{fill:#ed1e79;}.cls-2{fill:#fff;}</style></defs><title>page_Монтажная область 1</title><polygon class="cls-1" points="0 137.45 55.55 193 82.42 193 0 110.58 0 137.45"/><path class="cls-2" d="M18.15,150l-2-2,4.1-4.1L16.44,140l-4.11,4.1-2-2,9.58-9.58,2,2L18,138.42l3.85,3.85,3.88-3.88,2,2Z"/><path class="cls-2" d="M23.08,147.62a6,6,0,0,1,2.3-1.48,4.19,4.19,0,0,1,2.45-.11,4.84,4.84,0,0,1,2.24,1.33,4.59,4.59,0,0,1,1.47,3.23A5,5,0,0,1,30.16,154l-.47.5a5.27,5.27,0,0,1-3.55,1.72,4.49,4.49,0,0,1-3.44-1.47,4.47,4.47,0,0,1-1.47-3.44,5.29,5.29,0,0,1,1.77-3.6Zm1.77,2a3.73,3.73,0,0,0-1.17,1.93,1.93,1.93,0,0,0,2.16,2.18,4.1,4.1,0,0,0,2.09-1.31,3.77,3.77,0,0,0,1.15-1.93,1.78,1.78,0,0,0-.55-1.64,1.75,1.75,0,0,0-1.62-.53A4.21,4.21,0,0,0,24.85,149.66Z"/><path class="cls-2" d="M27.5,159.29l7.11-7.12,3,3a5.77,5.77,0,0,1,1.72,2.75,2.36,2.36,0,0,1-.7,2.25,1.93,1.93,0,0,1-1.21.56,3,3,0,0,1-1.55-.35,3.24,3.24,0,0,1,.63,1.77,2,2,0,0,1-.61,1.48,2.42,2.42,0,0,1-2.26.76,5.4,5.4,0,0,1-2.69-1.64ZM33.63,157l1.18,1.18c.67.65,1.22.77,1.64.36a.82.82,0,0,0,.27-.83,2.29,2.29,0,0,0-.66-1L35,155.6Zm-1.28,1.28-1.43,1.43,1.53,1.53c.67.67,1.24.78,1.71.31s.4-1-.23-1.69Z"/><path class="cls-2" d="M38.33,162.87a5.89,5.89,0,0,1,2.29-1.48,4.23,4.23,0,0,1,2.46-.11,4.87,4.87,0,0,1,2.23,1.32,4.59,4.59,0,0,1,1.47,3.24,5,5,0,0,1-1.37,3.41l-.48.5a5.25,5.25,0,0,1-3.54,1.71A4.5,4.5,0,0,1,37.94,170a4.56,4.56,0,0,1-1.47-3.44A5.4,5.4,0,0,1,38.24,163Zm1.76,2a3.85,3.85,0,0,0-1.17,1.94,1.79,1.79,0,0,0,.56,1.63,1.76,1.76,0,0,0,1.61.54,4.12,4.12,0,0,0,2.08-1.3,3.76,3.76,0,0,0,1.16-1.93,1.8,1.8,0,0,0-.55-1.64,1.75,1.75,0,0,0-1.62-.54A4.19,4.19,0,0,0,40.09,164.9Z"/><path class="cls-2" d="M45.76,177.82a5,5,0,0,1-1.59-3.51,4.85,4.85,0,0,1,1.58-3.55l.18-.18a6,6,0,0,1,2.33-1.5,4.31,4.31,0,0,1,2.48-.13,4.63,4.63,0,0,1,2.19,1.27,4.15,4.15,0,0,1,1.38,3.22,5.26,5.26,0,0,1-1.77,3.46l-.78.77-4.53-4.53a2.43,2.43,0,0,0-.56,1.67,2.31,2.31,0,0,0,.75,1.6,2.9,2.9,0,0,0,2.51.92l-.11,2a4,4,0,0,1-2.1-.21A5.54,5.54,0,0,1,45.76,177.82Zm5.63-6.07a1.62,1.62,0,0,0-1.3-.53,2.82,2.82,0,0,0-1.55.64l2.65,2.65.15-.15A2,2,0,0,0,52,173,1.71,1.71,0,0,0,51.39,171.75Z"/><path class="cls-2" d="M53,180.94a1.52,1.52,0,0,1,.49,1.05,1.42,1.42,0,0,1-.43,1,1.34,1.34,0,0,1-1,.42,1.48,1.48,0,0,1-1.06-.49,1.43,1.43,0,0,1-.48-1.05,1.34,1.34,0,0,1,.42-1,1.39,1.39,0,0,1,1-.43A1.52,1.52,0,0,1,53,180.94Zm1.83-.26-1.58-1.57,6.41-6.87,2,2Z"/></svg>