<svg id="Слой_1" data-name="Слой 1" xmlns="http://www.w3.org/2000/svg" viewBox="0 0 200 200"><title>page_Монтажная область 1200x200</title><path d="M138.53,86.66c-5.26-4.13-11.57-3.75-17.38-5.06-.56-1.6.62-2.59,1.15-4.15,9,1.32,25.7.55,23.33,14.63C141.55,116.31,120,132,95.29,128.85c-23.37-3-38.18-15.82-41.15-39.35C53.56,85,55.88,81.76,61,80.33c13.77-3.64,27.38-3.88,41.66-3.7-2.73,2.13-4.74,4.2-8.35,4.24-8.09.51-27.09-.11-32.44,6C65.52,95.73,134.43,95.83,138.53,86.66Z"/><path d="M62.82,117.3l1.71,1.8c-19.63,7.81,5.87,13.62,14.15,14.16,20.19,1.87,41.38,2.87,60.64-4.57,7.54-3.48,1.41-7.77-3.65-9.49l1.48-1.89c29.5,8,10.64,19.9-8.34,22.16-25.83,3.32-54.75,5.41-78.39-7.28C41.18,124.6,56.4,118.87,62.82,117.3Z"/><path d="M118,89.12c-7.54.94-14.74.81-22.61.69,6-12.81,13.33-8.35,18.64-17,6.33-10.53,8.43-23.53,17.59-32.24,1.59-1.56,3.5-3.43,5.85-2.08s1.56,4,1,6.1c-2.94,11.54-11.87,20-18.14,29.79C115.94,80.14,118.09,82.73,118,89.12Z"/><path d="M78.24,72.17c-7.18-2.38-13.88-13-12.37-19.35a12.9,12.9,0,0,1,4.2-6.51c6.63-5.67,5.66-12.43,2.31-19.56C80.55,32.31,85.07,42,78.46,49.32c-7.2,10-7.19,10-.61,20.5C78.26,70.48,79,71.14,78.24,72.17Z"/><path d="M87,40.86c5,3.49,6.21,9.22,3.27,13.41C84.78,62,84.79,62,89.93,70a10.79,10.79,0,0,1,.64,1.75A15.53,15.53,0,0,1,80,62.52C75.26,52.19,89.52,51.86,87,40.86Z"/><path d="M54.73,153.71q.81,0,1,1c.18,1.24.27,1.93.27,2.06a6.89,6.89,0,0,1,.22,1.84c.08,0,.14.47.17,1.4h.4a8,8,0,0,1,2.14-.17h4a11.33,11.33,0,0,1,2.63.43V160c-.29-1.82-.51-3-.66-3.63-.06,0-.11-.18-.13-.53a4.48,4.48,0,0,0-.53.09c-.54,0-.86-.35-1-1.06s.36-.92,1.1-1h1c.4,0,.92,0,1.58-.05.47,0,.78.34.92,1s-.36.86-1.06,1h0a22,22,0,0,1,.53,3.28c.07,0,.13.35.17,1v.66a3,3,0,0,1,.18,1v5.35a5.11,5.11,0,0,1,.13,1v.44a1.06,1.06,0,0,1-.88,1.18h-.13q-.81,0-1-1c0-.24,0-.78-.14-1.62v-4.69h-.13a8.6,8.6,0,0,1-1.58-.35,3.23,3.23,0,0,1-1-.13H58.5c-.31,0-.93.06-1.84.17v.05c.15,1.09.26,2.35.35,3.77v.43c0,.31,0,.78,0,1.41h.27a1.06,1.06,0,0,1,1.18.87v.13c0,.55-.35.87-1,1H54.91a1.07,1.07,0,0,1-1.19-.88v-.13q0-.81,1.05-1h.31a46.51,46.51,0,0,0-.52-6.23,16.19,16.19,0,0,1-.22-2.06,9.24,9.24,0,0,1-.27-2.14,19.47,19.47,0,0,1-.35-2.11v-.26a1,1,0,0,1,.88-1.18Z"/><path d="M75.54,158.18a2.83,2.83,0,0,1,1.93.74,3.92,3.92,0,0,1,1.27,1.84,2.32,2.32,0,0,1,0,.44v.53c-.06,1.42-.52,2.34-1.36,2.76a9.14,9.14,0,0,1-2.8,1.75c-.08.15-.43.32-1.05.53a1.1,1.1,0,0,0-.4.17V167c.16.37.31.57.44.57l.61.08c1.52,0,2.28-.11,2.28-.26h.13a1.25,1.25,0,0,1-.08-.44c.11-.67.45-1,1-1s.88.41,1.32,1.23a.93.93,0,0,1,.31.7c0,.54-.35.86-1.06,1a5.11,5.11,0,0,1-.7.43,2.35,2.35,0,0,0-.61.18,13.92,13.92,0,0,1-2.76.18c-1.23-.11-1.84-.24-1.84-.4-.2-.09-.51-.61-.92-1.58a1.6,1.6,0,0,1-.44.09c-.67-.12-1-.45-1-1s.33-.83.57-.83a6.18,6.18,0,0,1-.35-1.8v-.74a9.86,9.86,0,0,1,.61-3c.33-.66.61-1,.84-1.1a5.46,5.46,0,0,1,2.58-1.09ZM72,163.57v.48a2.27,2.27,0,0,0,.26,1,7.05,7.05,0,0,0,1.71-.79,5.7,5.7,0,0,0,1.76-1.05,7.27,7.27,0,0,1,.83-.66,6.91,6.91,0,0,0,.22-.74v-.53a2,2,0,0,0-.88-1.09l-.39-.09h-1.1c-1.28.31-1.93.68-1.93,1.09A6.43,6.43,0,0,0,72,163.57Z"/><path d="M87.35,158c1.75,0,2.75.06,3,.09a3,3,0,0,1,.57,0c.71.08,1.06.43,1.06,1a7.16,7.16,0,0,1-.44,1.88,1.17,1.17,0,0,1-.92.53c-.52,0-.84-.34-1-1a2.35,2.35,0,0,1,.13-.48h-.08c-.42,0-1.15,0-2.19,0a4.49,4.49,0,0,0-.53.08v1.54a24.84,24.84,0,0,1,.39,3.55v2.58c1.11,0,1.67.37,1.67,1.1q0,.81-1,1a9.66,9.66,0,0,0-1-.08H84.72a1.06,1.06,0,0,1-1.18-.88v-.13c0-.54.35-.86,1-1h.83v-2.84c0-.38-.13-1.47-.39-3.29v-1.45H83.1v.05a2,2,0,0,1,.31.83c0,.52-.34.84-1,1-.47,0-.86-.36-1.19-1.09a7.25,7.25,0,0,0-.61-1,3.5,3.5,0,0,1-.09-.44c0-.54.35-.86,1.06-1a.27.27,0,0,0,.13,0,1,1,0,0,1,.92-.35h2.67C85.47,158.22,86.16,158.16,87.35,158Z"/><path d="M106,156.16h1.54a1.06,1.06,0,0,1,1.18.87v.13c0,.55-.35.87-1,1h-.31v.13a4,4,0,0,1,2.11.92,7.62,7.62,0,0,1,1.22,1,4.23,4.23,0,0,1,1.36,2.28,1.18,1.18,0,0,1-.52.92,9.36,9.36,0,0,1-2,3.81,5.25,5.25,0,0,1-1.79,1.32,1.8,1.8,0,0,0-.53.31v4.51a1,1,0,0,1-.88,1.18h-.13a1,1,0,0,1-1-.87l0-.53v-3.94c-.14,0-.77-.12-1.89-.35-.44,0-1.11-.53-2-1.58a4.53,4.53,0,0,1-.92-2.54v-.44a10.82,10.82,0,0,1,.26-1.71,6.6,6.6,0,0,1,.4-1.36,5.57,5.57,0,0,1,2.54-2.37,2.32,2.32,0,0,1,1.14-.52v0c-.73-.08-1.1-.41-1.1-1a1,1,0,0,1,.75-.92A10.44,10.44,0,0,1,106,156.16Zm-3.59,8.24v.39a4,4,0,0,0,.66,1.49q.75.75,1,.75a5.16,5.16,0,0,1,1.14.21v0q0-2.3.17-7a5.93,5.93,0,0,0-2.06,1.19,3.7,3.7,0,0,0-.74,1.57A12.09,12.09,0,0,0,102.36,164.4Zm5-4.12v0q-.18,4.76-.18,6.27a4.48,4.48,0,0,0,1.67-1.89,7.68,7.68,0,0,0,.7-1.84l0-.17a1.89,1.89,0,0,1,.18-.62,6.3,6.3,0,0,1-.88-.92A8.28,8.28,0,0,0,107.36,160.28Z"/><path d="M118.06,157.51h.75a2.74,2.74,0,0,1,1.66.48,5.48,5.48,0,0,1,1.67,1.61,4.17,4.17,0,0,1,.39,1.2,2.11,2.11,0,0,1,.44,1.31v1.38a9.83,9.83,0,0,1-.7,2.72s-.11.14-.18.4l-.65,1.07a3.71,3.71,0,0,1-2.63,1.26c-2.28,0-3.72-.23-4.34-.69a2,2,0,0,1-.88-1.68,3.57,3.57,0,0,1-.48-2v-.87a5.92,5.92,0,0,1,.44-1.95,7,7,0,0,1,.79-1.86c.87-1,1.38-1.51,1.53-1.51a4,4,0,0,1,1.89-.78S117.86,157.51,118.06,157.51Zm-3,6.28v1.13a9.07,9.07,0,0,0,.4,1.12q0,.66.3.66a11.16,11.16,0,0,0,3,.29c.54,0,1-.4,1.44-1.2a16,16,0,0,0,.75-2.13v-1.47a4.59,4.59,0,0,0-.4-.82,2.07,2.07,0,0,0-.61-1.3,2.75,2.75,0,0,0-1.14-.6H118l-.88.38a3.12,3.12,0,0,0-.7.66,3.33,3.33,0,0,0-1,1.68,5.52,5.52,0,0,0-.35,1.3Z"/><path d="M131.18,157.3c1.74,0,2.75,0,3,.08a3,3,0,0,1,.57,0q1,.12,1,1a7.15,7.15,0,0,1-.43,1.89,1.18,1.18,0,0,1-.92.52c-.52,0-.85-.33-1-1a1.84,1.84,0,0,1,.13-.48h-.09c-.41,0-1.14,0-2.19,0a3.39,3.39,0,0,0-.52.09v1.53a24.84,24.84,0,0,1,.39,3.55V167c1.11,0,1.67.36,1.67,1.09,0,.54-.35.86-1,1a8,8,0,0,0-1-.09h-2.32a1.07,1.07,0,0,1-1.19-.88V168c0-.54.36-.86,1.06-1h.83v-2.85c0-.38-.13-1.47-.39-3.29v-1.45h-1.93v.05a1.94,1.94,0,0,1,.3.83c0,.52-.33.84-1,1-.46,0-.86-.36-1.18-1.09a7.25,7.25,0,0,0-.61-1,3.17,3.17,0,0,1-.09-.44q0-.81,1-1a.3.3,0,0,0,.13,0,1.06,1.06,0,0,1,.92-.35h2.68C129.3,157.47,130,157.41,131.18,157.3Z"/><path d="M142.09,157.51h.75a2.74,2.74,0,0,1,1.66.48,5.48,5.48,0,0,1,1.67,1.61,4.17,4.17,0,0,1,.39,1.2,2.11,2.11,0,0,1,.44,1.31v1.38a9.83,9.83,0,0,1-.7,2.72c-.05,0-.11.14-.18.4l-.65,1.07a3.71,3.71,0,0,1-2.63,1.26c-2.28,0-3.72-.23-4.34-.69a2,2,0,0,1-.88-1.68,3.57,3.57,0,0,1-.48-2v-.87a5.92,5.92,0,0,1,.44-1.95,7,7,0,0,1,.79-1.86c.87-1,1.38-1.51,1.53-1.51a4,4,0,0,1,1.88-.78S141.89,157.51,142.09,157.51Zm-3,6.28v1.13a9.07,9.07,0,0,0,.4,1.12q0,.66.3.66a11.16,11.16,0,0,0,3,.29c.54,0,1-.4,1.44-1.2a16,16,0,0,0,.75-2.13v-1.47a4.59,4.59,0,0,0-.4-.82,2.07,2.07,0,0,0-.61-1.3,2.75,2.75,0,0,0-1.14-.6h-.83l-.88.38a3.12,3.12,0,0,0-.7.66,3.33,3.33,0,0,0-1,1.68,6,6,0,0,0-.36,1.3Z"/></svg>