<svg xmlns="http://www.w3.org/2000/svg" viewBox="0 0 624.49 106.87"><title>page_Title_banner1</title><g id="Слой_1" data-name="Слой 1"><path d="M46,15.13a7.11,7.11,0,0,1-.85,3.15,9.71,9.71,0,0,1-2.81,3.24,18.3,18.3,0,0,1-5.13,2.67,31.65,31.65,0,0,1-7.84,1.58A55.46,55.46,0,0,1,20.9,26a30.08,30.08,0,0,1-7.69-1.44c-.5.68-1.09,1.54-1.77,2.59s-1.38,2.19-2.11,3.4S7.89,33,7.19,34.3A38.84,38.84,0,0,0,5.45,38c-1.35,3.43-1.9,6.14-1.65,8.16s1,3.34,2.38,4,3.08.6,5.23-.13a22.44,22.44,0,0,0,6.93-4.15A54.5,54.5,0,0,0,22.46,42q2-2.11,3.87-4.33t3.4-4.44A45.74,45.74,0,0,0,32.35,29a6.52,6.52,0,0,1,2.3-2.83c.71-.36,1.25-.36,1.63,0A2.08,2.08,0,0,1,36.7,28a4.46,4.46,0,0,1-1.31,2.54,27.44,27.44,0,0,0-2.21,2.94,32.56,32.56,0,0,0-2,3.53,36.87,36.87,0,0,0-1.65,3.87,26.42,26.42,0,0,0-1.1,4,10.15,10.15,0,0,0-.08,4.92,2.13,2.13,0,0,0,1.79,1.65,4.59,4.59,0,0,0,2.89-1,15.58,15.58,0,0,0,3.26-3.1c.82-1.07,1.65-2.27,2.49-3.58a31.37,31.37,0,0,0,2.16-4c.25-.49.54-.74.86-.74s.34.32.05,1-.55,1.16-.91,1.87-.76,1.45-1.2,2.22-.91,1.54-1.39,2.32a22.15,22.15,0,0,1-1.47,2.14,13.51,13.51,0,0,1-1.58,1.74,12.85,12.85,0,0,1-1.9,1.47,9.69,9.69,0,0,1-2.13,1,7.07,7.07,0,0,1-2.25.37,3.54,3.54,0,0,1-2.41-.8,4.72,4.72,0,0,1-1.33-2.06,9.7,9.7,0,0,1-.49-2.81A15.06,15.06,0,0,1,25,44.35a16.46,16.46,0,0,1,.75-2.83,8.35,8.35,0,0,1,1.07-2.12c-.72.86-1.59,1.83-2.62,2.92S22,44.49,20.82,45.58A38.56,38.56,0,0,1,17,48.65,23.14,23.14,0,0,1,12.91,51a13.73,13.73,0,0,1-4.14,1.12,7.84,7.84,0,0,1-4-.59,5.48,5.48,0,0,1-2.89-2.89,11.49,11.49,0,0,1-.93-5,24.31,24.31,0,0,1,1-6.36,33,33,0,0,1,3-7.11C5.7,29,6.42,27.82,7.19,26.68a29.41,29.41,0,0,1,2.54-3.26,22.19,22.19,0,0,1-3-1.66,12.8,12.8,0,0,1-2.38-2,4.29,4.29,0,0,1-.88-1.55,7.76,7.76,0,0,1-.35-1.79,5.36,5.36,0,0,1,.14-1.63,1.82,1.82,0,0,1,.61-1.07c.32-.43.64-.53.94-.3s.31.67,0,1.31a2.8,2.8,0,0,0-.16,2.19,7,7,0,0,0,1.28,2,13.83,13.83,0,0,0,4.7,3.37A61.13,61.13,0,0,1,16.15,17a40.82,40.82,0,0,1,6.23-4.47,33.33,33.33,0,0,1,6.89-3,25.12,25.12,0,0,1,7.52-1.12,10.72,10.72,0,0,1,6.76,1.9A5.92,5.92,0,0,1,46,15.13Zm-2.19-.64a3.89,3.89,0,0,0-1.95-3.58A9.3,9.3,0,0,0,37,9.73a20.41,20.41,0,0,0-7,1.15,26.34,26.34,0,0,0-6,3,34.3,34.3,0,0,0-5.24,4.38q-2.46,2.49-4.71,5.16a26.21,26.21,0,0,0,6.66,1.23,62.42,62.42,0,0,0,8.63-.21,26.79,26.79,0,0,0,6-1.13,17,17,0,0,0,4.55-2.16,9.79,9.79,0,0,0,2.88-3A7.08,7.08,0,0,0,43.79,14.49Z"/><path d="M44.64,43.47a11.5,11.5,0,0,1,1-2q.61-1,1.29-2c.44-.67.88-1.35,1.31-2a13.64,13.64,0,0,0,1.07-2.08,2.53,2.53,0,0,0,.26-1.23,1.44,1.44,0,0,0-.29-.78,1.27,1.27,0,0,0-.56-.4,2,2,0,0,0-.59-.11A3.11,3.11,0,0,0,46,33.9a18.92,18.92,0,0,0-2.11,2.64A32.66,32.66,0,0,0,42,39.62L40.79,42a.94.94,0,0,1-.37.49.38.38,0,0,1-.37,0,.37.37,0,0,1-.19-.32,1.24,1.24,0,0,1,.19-.67q.59-1.23,1.47-2.94a26.48,26.48,0,0,1,2-3.29A14.6,14.6,0,0,1,46,32.61a4.44,4.44,0,0,1,2.89-1.12,4.33,4.33,0,0,1,1.33.27,3,3,0,0,1,1.37,1,3.25,3.25,0,0,1,.64,1.82,5.53,5.53,0,0,1-.83,2.83,16.49,16.49,0,0,1-1.18,1.9c-.46.66-.91,1.33-1.36,2a18,18,0,0,0-1.2,2.08,7.09,7.09,0,0,0-.7,2.19A2.75,2.75,0,0,0,47,46.81a2.34,2.34,0,0,0,.56.93,2.58,2.58,0,0,0,.86.57,2,2,0,0,0,1,.13,3.67,3.67,0,0,0,2.14-1.26,18.75,18.75,0,0,0,2.14-2.64,34.3,34.3,0,0,0,1.82-3c.53-1,.94-1.78,1.23-2.35s.45-.63.72-.51.28.46,0,1c-.4.82-.89,1.8-1.48,2.94a24.13,24.13,0,0,1-2,3.26,14.79,14.79,0,0,1-2.46,2.68,4.61,4.61,0,0,1-2.89,1.17,6.94,6.94,0,0,1-1.76-.26,3.79,3.79,0,0,1-1.68-1,3.61,3.61,0,0,1-1-1.95A6,6,0,0,1,44.64,43.47Z"/><path d="M51.59,61.38a6.67,6.67,0,0,1-1.52,2.3,2.83,2.83,0,0,1-2.06.48,7.58,7.58,0,0,1-1.1-.21,2.44,2.44,0,0,0-1.14-.06A13.28,13.28,0,0,0,47,62.05c.6-1,1.3-2.27,2.08-3.75s1.62-3.09,2.51-4.83,1.72-3.46,2.49-5.14,1.42-3.21,2-4.62a22.64,22.64,0,0,0,1.09-3.34,1.94,1.94,0,0,1-1,.88c-.36.12-.44,0-.27-.4s.32-.68.54-1.18.39-.91.53-1.23a12.7,12.7,0,0,0,.67-2A12.38,12.38,0,0,0,58,34.32,6.29,6.29,0,0,0,58,32.59c-.11-.48-.32-.76-.65-.83l1.13-.22a5,5,0,0,1,.88-.13,2.61,2.61,0,0,0,.61-.08l1-.08a.87.87,0,0,1,.58.13,1,1,0,0,1,.3.67,10.67,10.67,0,0,1,.08,1.47,9,9,0,0,1-.24,1.9c-.16.73-.35,1.49-.56,2.27s-.45,1.55-.7,2.3-.48,1.41-.69,2c.53-.68,1.21-1.47,2-2.38a28,28,0,0,1,2.46-2.43,25.29,25.29,0,0,1,2.38-1.85,29,29,0,0,1,2.86-1.76,17,17,0,0,1,2.7-1.2,3.32,3.32,0,0,1,2-.22c-1.07,1.93-2,3.76-2.94,5.51-.39.75-.78,1.51-1.15,2.3s-.72,1.54-1,2.27-.6,1.42-.83,2.06a9.92,9.92,0,0,0-.46,1.66,3.54,3.54,0,0,0,0,2.16,1,1,0,0,0,.86.51,3.15,3.15,0,0,0,2.14-1.12,17.28,17.28,0,0,0,2.14-2.65,32.4,32.4,0,0,0,1.81-3.07c.54-1,1-1.84,1.23-2.41s.46-.63.73-.51.27.46,0,1q-.59,1.23-1.47,2.94a27,27,0,0,1-2,3.29,14.6,14.6,0,0,1-2.46,2.7,4.41,4.41,0,0,1-2.89,1.12,4.48,4.48,0,0,1-1.44-.26,2.62,2.62,0,0,1-1.26-1,3.9,3.9,0,0,1-.61-1.93,7.91,7.91,0,0,1,.48-3.07A12.4,12.4,0,0,1,66,41.2c.5-.91,1.12-2,1.87-3.19a3.28,3.28,0,0,0,.53-1.39c0-.39-.1-.62-.4-.69a2.3,2.3,0,0,0-1.42.43,13.88,13.88,0,0,0-2.51,2c-.46.43-1,.93-1.57,1.5a22,22,0,0,0-1.88,2.11,26.79,26.79,0,0,0-2,3,31.91,31.91,0,0,0-2,4Z"/><path d="M89.66,39.72c-.5,1.07-1,2.21-1.6,3.4a18.45,18.45,0,0,1-2,3.31,10.18,10.18,0,0,1-2.76,2.49,7.2,7.2,0,0,1-3.82,1,5.41,5.41,0,0,1-3.56-1.25,4.81,4.81,0,0,1-1.57-3.83,11.46,11.46,0,0,1,.29-2.51,14.88,14.88,0,0,1,.86-2.65,19.57,19.57,0,0,1,1.31-2.53,17.43,17.43,0,0,1,1.65-2.3,15.7,15.7,0,0,1,2.25-2.14,10.66,10.66,0,0,1,2.46-1.47,6.19,6.19,0,0,1,2.38-.51,3.49,3.49,0,0,1,2.06.64,2.29,2.29,0,0,1,.88,1.5,3.87,3.87,0,0,1-.3,2,8.48,8.48,0,0,1-1.33,2.22,12.49,12.49,0,0,1-2.19,2.09,9.81,9.81,0,0,1-1.53.91,15.7,15.7,0,0,1-1.84.74,15.38,15.38,0,0,1-1.82.51,6.54,6.54,0,0,1-1.39.19,10.34,10.34,0,0,0-.56,2,8.93,8.93,0,0,0-.16,2.4A4.21,4.21,0,0,0,78,47.93a2.06,2.06,0,0,0,1.9.88,5.22,5.22,0,0,0,3.18-1,12.28,12.28,0,0,0,2.51-2.48,18.66,18.66,0,0,0,1.87-3c.52-1,.94-1.91,1.26-2.62a1.44,1.44,0,0,1,.4-.56.76.76,0,0,1,.43-.19.3.3,0,0,1,.27.19A.85.85,0,0,1,89.66,39.72ZM84.1,38.17a9,9,0,0,0,1.79-2,7.91,7.91,0,0,0,1-2.08A3.29,3.29,0,0,0,87,32.45a.73.73,0,0,0-.8-.61,3.71,3.71,0,0,0-1.77.85,18.33,18.33,0,0,0-2.78,2.81,21.55,21.55,0,0,0-2,2.78q-.89,1.5-1.26,2.25a5.37,5.37,0,0,0,1-.14A11,11,0,0,0,80.89,40a12.39,12.39,0,0,0,1.63-.75A11.11,11.11,0,0,0,84.1,38.17Z"/><path d="M92.39,43.47a11.5,11.5,0,0,1,1-2c.41-.68.83-1.36,1.28-2s.88-1.35,1.31-2A12.8,12.8,0,0,0,97,35.29a2.69,2.69,0,0,0,.27-1.23,1.52,1.52,0,0,0-.3-.78,1.27,1.27,0,0,0-.56-.4,1.9,1.9,0,0,0-.59-.11A3.11,3.11,0,0,0,93.7,33.9a18.21,18.21,0,0,0-2.11,2.64,30.64,30.64,0,0,0-1.82,3.08Q89,41.17,88.54,42a1,1,0,0,1-.38.49.38.38,0,0,1-.37,0,.37.37,0,0,1-.19-.32,1.34,1.34,0,0,1,.19-.67q.58-1.23,1.47-2.94a29.14,29.14,0,0,1,2-3.29,14.3,14.3,0,0,1,2.47-2.7,4.43,4.43,0,0,1,2.88-1.12,4.39,4.39,0,0,1,1.34.27,2.94,2.94,0,0,1,1.36,1,3.11,3.11,0,0,1,.64,1.82,5.5,5.5,0,0,1-.82,2.83A19.83,19.83,0,0,1,98,39.27c-.47.66-.92,1.33-1.37,2a21.55,21.55,0,0,0-1.2,2.08,7.06,7.06,0,0,0-.69,2.19,2.62,2.62,0,0,0,.08,1.26,2.23,2.23,0,0,0,.56.93,2.54,2.54,0,0,0,.85.57,2,2,0,0,0,1,.13,3.7,3.7,0,0,0,2.14-1.26,18.71,18.71,0,0,0,2.13-2.64,32,32,0,0,0,1.82-3c.54-1,1-1.78,1.23-2.35s.46-.63.72-.51.28.46,0,1q-.59,1.23-1.47,2.94a25.25,25.25,0,0,1-2,3.26,14.39,14.39,0,0,1-2.45,2.68,4.65,4.65,0,0,1-2.89,1.17,7,7,0,0,1-1.77-.26,3.79,3.79,0,0,1-1.68-1,3.67,3.67,0,0,1-1-1.95A5.93,5.93,0,0,1,92.39,43.47Z"/><path d="M123.77,39.83c-.39.82-.88,1.78-1.47,2.89a35.19,35.19,0,0,1-2,3.21,15.35,15.35,0,0,1-2.27,2.64,4.24,4.24,0,0,1-2.38,1.21,3.27,3.27,0,0,1-1.39-.24,2.58,2.58,0,0,1-1.23-1.07,4.55,4.55,0,0,1-.56-2.14,10.47,10.47,0,0,1,.51-3.45c-.43.71-1,1.54-1.66,2.49a18.8,18.8,0,0,1-2.19,2.54,6.25,6.25,0,0,1-2.87,1.76,2.67,2.67,0,0,1-2.21-.4,3.72,3.72,0,0,1-1.31-2.11,8.38,8.38,0,0,1-.14-3.4A16.12,16.12,0,0,1,104,39.48,20.45,20.45,0,0,1,107,34.75a10.85,10.85,0,0,1,2.86-2.46,12.61,12.61,0,0,1,3.42-1.44,7.71,7.71,0,0,1,3.37-.11,5,5,0,0,1,2.75,1.55c.39.4.51.77.35,1.13a.78.78,0,0,1-.94.42A2.34,2.34,0,0,0,117.12,32a3.84,3.84,0,0,0-2.81.48,15.55,15.55,0,0,0-3.75,3.12,28.63,28.63,0,0,0-3.36,4.52c-.11.18-.27.47-.48.86s-.44.85-.67,1.36a16.35,16.35,0,0,0-.64,1.61,8.49,8.49,0,0,0-.41,1.57,3,3,0,0,0,.19,2,1.26,1.26,0,0,0,1.12.65,3.26,3.26,0,0,0,1.69-.62,8.89,8.89,0,0,0,1.92-1.74,30.41,30.41,0,0,0,2.54-3.61q1.16-1.89,2.22-3.87a17.88,17.88,0,0,1,1.63-2.62,2.17,2.17,0,0,1,2-.8,8.84,8.84,0,0,1,1.09.18,2.78,2.78,0,0,0,1.15,0,10.17,10.17,0,0,0-1.15,1.58c-.48.76-1,1.64-1.49,2.62s-1,2-1.42,3a16.51,16.51,0,0,0-.91,2.78q-.65,3.21.54,3.21a2.59,2.59,0,0,0,1.87-1,19,19,0,0,0,2-2.57,32.34,32.34,0,0,0,1.79-3c.54-1,.95-1.81,1.23-2.38s.5-.64.75-.53S124,39.3,123.77,39.83Z"/><path d="M150.88,39.83q-.58,1.23-1.47,2.94a27,27,0,0,1-2,3.29,14,14,0,0,1-2.48,2.7,4.43,4.43,0,0,1-2.86,1.12,4.64,4.64,0,0,1-1.5-.26,2.62,2.62,0,0,1-1.26-1,4,4,0,0,1-.61-1.93,8.31,8.31,0,0,1,.48-3.07,12.4,12.4,0,0,1,1.07-2.43c.5-.91,1.12-2,1.87-3.19a3.28,3.28,0,0,0,.53-1.39c0-.39-.09-.62-.4-.69a2.26,2.26,0,0,0-1.41.43,14.22,14.22,0,0,0-2.52,2,29.37,29.37,0,0,0-2.05,2.22,38.41,38.41,0,0,0-4.34,6.31,11.55,11.55,0,0,0-1.14,2.81,1.56,1.56,0,0,1-1.42-.88,3,3,0,0,1-.3-2.06,12.33,12.33,0,0,1,.91-3.18c.43-.95.88-1.92,1.34-2.92s.82-1.76,1.18-2.62a5,5,0,0,0,.5-1.87c0-.39-.31-.45-.88-.18a14.72,14.72,0,0,0-2.94,2.37A26.58,26.58,0,0,0,125.94,42a48.19,48.19,0,0,0-4.15,6.79,1.22,1.22,0,0,1-.69.72,4.81,4.81,0,0,1-1.34.14c-.39,0-.71.05-1,.05a1.5,1.5,0,0,0-.8.27q1.92-3.86,3.61-7.54t3.66-7.33A11.9,11.9,0,0,1,127,32.4a2.61,2.61,0,0,1,2-.7,8.74,8.74,0,0,1,1.1.19,2.78,2.78,0,0,0,1.15,0,5.39,5.39,0,0,0-1.42,1.39,28.48,28.48,0,0,0-1.71,2.51c-.59,1-1.17,2-1.76,3.08S125.3,41,124.84,42c.54-.68,1.2-1.47,2-2.38a25.32,25.32,0,0,1,2.43-2.43l2.06-1.85c.73-.66,1.44-1.24,2.14-1.76a10.52,10.52,0,0,1,2-1.2,2.29,2.29,0,0,1,1.63-.22,1.47,1.47,0,0,1,1,.91,2,2,0,0,1-.16,1.45,36.45,36.45,0,0,1-1.85,3.6c-.73,1.27-1.41,2.56-2.06,3.88.54-.68,1.21-1.47,2-2.38a25.32,25.32,0,0,1,2.43-2.43,26.67,26.67,0,0,1,2.38-1.85,29,29,0,0,1,2.86-1.76,16.51,16.51,0,0,1,2.73-1.2,3.25,3.25,0,0,1,1.92-.22c-1.07,1.93-2.05,3.76-2.94,5.51-.39.75-.76,1.51-1.12,2.3s-.7,1.54-1,2.27-.59,1.42-.83,2.06a13.19,13.19,0,0,0-.5,1.66,3.65,3.65,0,0,0,0,2.16,1,1,0,0,0,.86.51,3.14,3.14,0,0,0,2.13-1.1,16.67,16.67,0,0,0,2.14-2.59,27.5,27.5,0,0,0,1.82-3.07c.54-1.05.94-1.88,1.23-2.49s.45-.63.72-.51S151.13,39.3,150.88,39.83ZM149,25.93a11.67,11.67,0,0,1-1,1.31,7.52,7.52,0,0,1-1.42,1.2,7.06,7.06,0,0,1-1.79.86,6.15,6.15,0,0,1-2.12.27,10.56,10.56,0,0,1-2-.32q-1-.27-2-.57c-.65-.19-1.29-.37-1.93-.53a9.8,9.8,0,0,0-1.92-.29,3.53,3.53,0,0,0-2.06.34,4,4,0,0,0-1.31,1.1.38.38,0,0,1-.32.13,2.44,2.44,0,0,1-.54,0,2.18,2.18,0,0,1-.48-.08c-.14,0-.21-.09-.21-.16a11.43,11.43,0,0,1,2.54-2.32,6,6,0,0,1,3.87-1.05,13.49,13.49,0,0,1,2,.27q1,.21,2,.51c.65.2,1.3.37,1.92.53a10.16,10.16,0,0,0,1.9.3,4,4,0,0,0,2.19-.35,4.55,4.55,0,0,0,1.45-1.2s.08-.06.24-.08a3.87,3.87,0,0,1,.48,0,1.73,1.73,0,0,1,.42.05C149,25.86,149,25.9,149,25.93Z"/><path d="M168.9,39.67,167.85,42a21.51,21.51,0,0,1-1.79,3.21,13.71,13.71,0,0,1-2.48,2.82,4.64,4.64,0,0,1-3.08,1.21,4.85,4.85,0,0,1-2.06-.39,4.32,4.32,0,0,1-1.36-1,10.54,10.54,0,0,1-2.3,1.32,5.45,5.45,0,0,1-2.35.44,3.55,3.55,0,0,1-2.43-.88,4.14,4.14,0,0,1-1.18-2.19,8.47,8.47,0,0,1,0-3.11,14.87,14.87,0,0,1,1-3.5,19,19,0,0,1,2-3.47,17.11,17.11,0,0,1,2.54-2.89,12.43,12.43,0,0,1,2.8-2A5.8,5.8,0,0,1,160,31a3.34,3.34,0,0,1,2.4.86,4.16,4.16,0,0,1,1.21,2.24,8.84,8.84,0,0,1,0,3.13,14.7,14.7,0,0,1-1,3.5,19,19,0,0,1-1.77,3.13,18.3,18.3,0,0,1-2.72,3.18,2.58,2.58,0,0,0,2.51,1.34A3.54,3.54,0,0,0,163,47.32a13.29,13.29,0,0,0,2.11-2.57,25.64,25.64,0,0,0,1.71-3c.5-1,.91-1.87,1.23-2.51a.48.48,0,0,1,.64-.27C169,39,169.07,39.28,168.9,39.67Zm-7.81-7a2.87,2.87,0,0,0-1.87.24,7.12,7.12,0,0,0-2,1.44,17.12,17.12,0,0,0-2,2.36,19.88,19.88,0,0,0-1.71,3,21.78,21.78,0,0,0-1.26,3.13,13.29,13.29,0,0,0-.56,2.65,4.73,4.73,0,0,0,.16,2,1.45,1.45,0,0,0,1,1,2.68,2.68,0,0,0,1.71-.16,6.88,6.88,0,0,0,1.92-1.18,5.09,5.09,0,0,1-.64-1.33,4.5,4.5,0,0,1-.21-1.29,3.47,3.47,0,0,1,.45-1.6,1.7,1.7,0,0,1,2.57-.21,1.58,1.58,0,0,1,.45,1.12,1.29,1.29,0,0,1,0,.29,1.35,1.35,0,0,1-.08.3,22.45,22.45,0,0,0,1.66-2.89,18.94,18.94,0,0,0,1.23-3.16,11.12,11.12,0,0,0,.48-2.67,4.59,4.59,0,0,0-.26-1.95A1.61,1.61,0,0,0,161.09,32.72Z"/><path d="M163.07,61.38a6.82,6.82,0,0,1-1.52,2.3,2.84,2.84,0,0,1-2.06.48,7.34,7.34,0,0,1-1.1-.21,2.48,2.48,0,0,0-1.15-.06,13.28,13.28,0,0,0,1.23-1.84c.61-1,1.3-2.27,2.09-3.75s1.62-3.09,2.51-4.83,1.72-3.46,2.49-5.14,1.42-3.21,2-4.62a24.22,24.22,0,0,0,1.1-3.34,2,2,0,0,1-1,.88c-.36.12-.45,0-.27-.4s.32-.68.53-1.18.39-.91.54-1.23a13.84,13.84,0,0,0,.67-2,12.32,12.32,0,0,0,.37-2.14,5.92,5.92,0,0,0-.08-1.73c-.11-.48-.32-.76-.64-.83.39-.07.77-.14,1.12-.22a5.19,5.19,0,0,1,.88-.13,2.72,2.72,0,0,0,.62-.08l1-.08a.88.88,0,0,1,.59.13,1,1,0,0,1,.29.67,9.28,9.28,0,0,1,.08,1.47,9,9,0,0,1-.24,1.9c-.16.73-.34,1.49-.56,2.27s-.44,1.55-.69,2.3-.48,1.41-.7,2c.54-.68,1.21-1.47,2-2.38a28,28,0,0,1,2.46-2.43A26.67,26.67,0,0,1,178,35.31a30.22,30.22,0,0,1,2.86-1.76,17,17,0,0,1,2.7-1.2,3.32,3.32,0,0,1,2-.22c-1.06,1.93-2.05,3.76-2.94,5.51-.39.75-.77,1.51-1.15,2.3s-.72,1.54-1,2.27-.6,1.42-.83,2.06a8.92,8.92,0,0,0-.45,1.66,3.38,3.38,0,0,0,0,2.16,1,1,0,0,0,.85.51,3.15,3.15,0,0,0,2.14-1.12,17.28,17.28,0,0,0,2.14-2.65,32.52,32.52,0,0,0,1.82-3.07l1.23-2.41q.32-.69.72-.51t0,1q-.6,1.23-1.47,2.94a27,27,0,0,1-2,3.29,14.6,14.6,0,0,1-2.46,2.7,4.38,4.38,0,0,1-2.88,1.12,4.49,4.49,0,0,1-1.45-.26,2.62,2.62,0,0,1-1.26-1,4,4,0,0,1-.61-1.93,8.31,8.31,0,0,1,.48-3.07,13,13,0,0,1,1.07-2.43c.5-.91,1.12-2,1.87-3.19a3.46,3.46,0,0,0,.54-1.39c0-.39-.1-.62-.4-.69a2.27,2.27,0,0,0-1.42.43,13.88,13.88,0,0,0-2.51,2c-.47.43-1,.93-1.58,1.5a22,22,0,0,0-1.87,2.11,28.23,28.23,0,0,0-2,3,31.91,31.91,0,0,0-2,4Z"/><path d="M222.73,39.83c-.67,1.39-1.3,2.64-1.87,3.74a20.34,20.34,0,0,1-1.79,2.92,13.68,13.68,0,0,1-2,2.19,10.87,10.87,0,0,1-2.57,1.63,32.55,32.55,0,0,1-2.59,5.37A28.72,28.72,0,0,1,208,61a22.66,22.66,0,0,1-5,4,10.92,10.92,0,0,1-5.61,1.61c-3.35,0-5-1.38-5-4.12a5.08,5.08,0,0,1,1.37-3.5A13.15,13.15,0,0,1,197,56.3a32.73,32.73,0,0,1,3.84-2c1.25-.53,2.47-1,3.67-1.44s2.35-.82,3.47-1.18,2.2-.75,3.24-1.17a20.88,20.88,0,0,0,.77-2.87c.2-1,.35-2,.46-3.07s.16-2,.16-2.75a8,8,0,0,0-.11-1.63c-.43.82-1,1.82-1.74,3a24,24,0,0,1-2.46,3.34A12.21,12.21,0,0,1,205.36,49a3.87,3.87,0,0,1-3.16.43,4.08,4.08,0,0,1-2.54-2.6,7.58,7.58,0,0,1,0-3.85,16.76,16.76,0,0,1,1.68-4.3,23.76,23.76,0,0,1,2.7-4,12,12,0,0,1,2.7-2.43,10.38,10.38,0,0,1,3.18-1.39,8.18,8.18,0,0,1,3.34-.11,7.18,7.18,0,0,1,3.19,1.47,2,2,0,0,1,.77,1.13,1,1,0,0,1-.16.82.64.64,0,0,1-.61.25c-.25,0-.45-.25-.59-.65A2.87,2.87,0,0,0,214.37,32a3,3,0,0,0-2.11,0,8.67,8.67,0,0,0-2.49,1.42,20.51,20.51,0,0,0-2.54,2.35,31.13,31.13,0,0,0-2.67,3.58,20.5,20.5,0,0,0-1.9,3.67,8,8,0,0,0-.64,3,1.85,1.85,0,0,0,1.09,1.8,2.71,2.71,0,0,0,2.65-.57,13.68,13.68,0,0,0,2.83-2.78A28.06,28.06,0,0,0,211,40.9a16.45,16.45,0,0,0,1.44-3.21,2.77,2.77,0,0,1,.69-1.28,2.07,2.07,0,0,1,.91-.48,4.45,4.45,0,0,1,.94-.11,1.19,1.19,0,0,0,.78-.27,29.39,29.39,0,0,1,.34,6.5,32,32,0,0,1-1,6.5c.64-.47,1.29-1,1.95-1.55a12.16,12.16,0,0,0,1.79-1.93,16.07,16.07,0,0,0,2-3.34,24.36,24.36,0,0,1,1.09-2.33c.25-.46.51-.64.78-.53S223,39.3,222.73,39.83ZM210.65,52.08l-.91.32-1,.32q-2.94,1-6.07,2.22A29,29,0,0,0,197,57.85,8.32,8.32,0,0,0,194.8,60a7.55,7.55,0,0,0-1.23,2.51,2.54,2.54,0,0,0,.27,2.08,2.43,2.43,0,0,0,2.22.89,6.35,6.35,0,0,0,1.84-.3,13.53,13.53,0,0,0,1.9-.72c.6-.29,1.18-.59,1.71-.91s1-.61,1.28-.85a24.7,24.7,0,0,0,2.46-2.38c.82-.91,1.61-1.87,2.35-2.86A27.18,27.18,0,0,0,210.65,52.08Z"/><path d="M235.94,39.72c-.5,1.07-1,2.21-1.6,3.4a18.45,18.45,0,0,1-2,3.31,10.18,10.18,0,0,1-2.76,2.49,7.2,7.2,0,0,1-3.82,1,5.43,5.43,0,0,1-3.56-1.25,4.81,4.81,0,0,1-1.57-3.83,11.46,11.46,0,0,1,.29-2.51,14.88,14.88,0,0,1,.86-2.65,19.57,19.57,0,0,1,1.31-2.53,18.4,18.4,0,0,1,1.65-2.3A15.7,15.7,0,0,1,227,32.67a10.66,10.66,0,0,1,2.46-1.47,6.19,6.19,0,0,1,2.38-.51,3.49,3.49,0,0,1,2.06.64,2.26,2.26,0,0,1,.88,1.5,3.87,3.87,0,0,1-.3,2,8.48,8.48,0,0,1-1.33,2.22,12.49,12.49,0,0,1-2.19,2.09,9.81,9.81,0,0,1-1.53.91,15.7,15.7,0,0,1-1.84.74,15.38,15.38,0,0,1-1.82.51,6.46,6.46,0,0,1-1.39.19,10.34,10.34,0,0,0-.56,2,8.93,8.93,0,0,0-.16,2.4,4.31,4.31,0,0,0,.64,2.06,2.07,2.07,0,0,0,1.9.88,5.22,5.22,0,0,0,3.18-1,12.28,12.28,0,0,0,2.51-2.48,18.66,18.66,0,0,0,1.87-3c.52-1,.94-1.91,1.26-2.62a1.44,1.44,0,0,1,.4-.56.76.76,0,0,1,.43-.19.28.28,0,0,1,.26.19C236.13,39.24,236.08,39.44,235.94,39.72Zm-5.56-1.55a9,9,0,0,0,1.79-2,7.91,7.91,0,0,0,1-2.08,3.17,3.17,0,0,0,.11-1.61.73.73,0,0,0-.8-.61,3.71,3.71,0,0,0-1.77.85,18.33,18.33,0,0,0-2.78,2.81A21.55,21.55,0,0,0,226,38.28q-.89,1.5-1.26,2.25a5.37,5.37,0,0,0,1-.14,11,11,0,0,0,1.44-.42,12.39,12.39,0,0,0,1.63-.75A11.11,11.11,0,0,0,230.38,38.17Z"/><path d="M263,39.83c-.39.82-.88,1.8-1.46,2.94a27,27,0,0,1-2,3.29,14.06,14.06,0,0,1-2.49,2.7,4.41,4.41,0,0,1-2.86,1.12,4.54,4.54,0,0,1-1.49-.26,2.62,2.62,0,0,1-1.26-1,3.9,3.9,0,0,1-.61-1.93,7.91,7.91,0,0,1,.48-3.07,12.4,12.4,0,0,1,1.07-2.43c.49-.91,1.12-2,1.87-3.19a3.28,3.28,0,0,0,.53-1.39c0-.39-.1-.62-.4-.69a2.29,2.29,0,0,0-1.42.43,13.88,13.88,0,0,0-2.51,2,29.2,29.2,0,0,0-2.06,2.22c-.8,1-1.57,2-2.32,3.05a37.35,37.35,0,0,0-2,3.26,11.64,11.64,0,0,0-1.15,2.81,1.55,1.55,0,0,1-1.41-.88,3,3,0,0,1-.3-2.06,11.94,11.94,0,0,1,.91-3.18c.43-.95.87-1.92,1.34-2.92s.82-1.76,1.17-2.62a4.88,4.88,0,0,0,.51-1.87c0-.39-.31-.45-.88-.18a14.72,14.72,0,0,0-2.94,2.37A26.54,26.54,0,0,0,238.05,42a48.28,48.28,0,0,0-4.14,6.79,1.22,1.22,0,0,1-.69.72,4.86,4.86,0,0,1-1.34.14c-.39,0-.72.05-1,.05a1.56,1.56,0,0,0-.81.27q1.94-3.86,3.61-7.54c1.13-2.46,2.34-4.9,3.67-7.33a11.56,11.56,0,0,1,1.76-2.67,2.59,2.59,0,0,1,2-.7,9.06,9.06,0,0,1,1.1.19,2.77,2.77,0,0,0,1.15,0A5.11,5.11,0,0,0,242,33.31a28.48,28.48,0,0,0-1.71,2.51c-.59,1-1.18,2-1.77,3.08S237.42,41,237,42c.53-.68,1.2-1.47,2-2.38a25.32,25.32,0,0,1,2.43-2.43c.65-.57,1.33-1.19,2.06-1.85s1.45-1.24,2.14-1.76a10.9,10.9,0,0,1,2-1.2,2.28,2.28,0,0,1,1.63-.22,1.44,1.44,0,0,1,1,.91,1.9,1.9,0,0,1-.16,1.45,36.25,36.25,0,0,1-1.84,3.6c-.73,1.27-1.42,2.56-2.06,3.88.54-.68,1.2-1.47,2-2.38a26.58,26.58,0,0,1,2.44-2.43,25.29,25.29,0,0,1,2.38-1.85,27.88,27.88,0,0,1,2.86-1.76,16.81,16.81,0,0,1,2.72-1.2,3.29,3.29,0,0,1,1.93-.22c-1.07,1.93-2.05,3.76-2.94,5.51-.39.75-.77,1.51-1.12,2.3s-.7,1.54-1,2.27-.6,1.42-.83,2.06a15.42,15.42,0,0,0-.51,1.66,3.54,3.54,0,0,0,.06,2.16,1,1,0,0,0,.85.51,3.16,3.16,0,0,0,2.14-1.1,16.67,16.67,0,0,0,2.14-2.59A29.12,29.12,0,0,0,261,41.84q.8-1.58,1.23-2.49.31-.69.72-.51C263.24,39,263.24,39.3,263,39.83Zm-1.87-13.9a9.76,9.76,0,0,1-1,1.31,7.22,7.22,0,0,1-1.42,1.2,6.9,6.9,0,0,1-1.79.86,6.09,6.09,0,0,1-2.11.27,10.67,10.67,0,0,1-2.06-.32q-1-.27-1.95-.57c-.64-.19-1.28-.37-1.92-.53a9.9,9.9,0,0,0-1.93-.29,3.53,3.53,0,0,0-2.06.34,4.1,4.1,0,0,0-1.31,1.1c0,.07-.14.12-.32.13a2.35,2.35,0,0,1-.53,0,2.18,2.18,0,0,1-.48-.08c-.15,0-.22-.09-.22-.16a11.65,11.65,0,0,1,2.54-2.32,6,6,0,0,1,3.88-1.05,13.54,13.54,0,0,1,2,.27q1,.21,2,.51c.66.2,1.3.37,1.93.53a10,10,0,0,0,1.9.3,4,4,0,0,0,2.19-.35,4.41,4.41,0,0,0,1.44-1.2s.08-.06.24-.08a3.87,3.87,0,0,1,.48,0,1.81,1.81,0,0,1,.43.05C261.11,25.86,261.16,25.9,261.12,25.93Z"/><path d="M277.27,39.89c-.64,1.39-1.28,2.69-1.93,3.9A16.41,16.41,0,0,1,273.18,47a9,9,0,0,1-2.78,2.14,8.43,8.43,0,0,1-3.77.77,6.38,6.38,0,0,1-3.32-.75,4.24,4.24,0,0,1-1.76-2,5.81,5.81,0,0,1-.45-2.75,13.61,13.61,0,0,1,.58-3.21A20.17,20.17,0,0,1,263,38a20.61,20.61,0,0,1,1.79-2.89A11.35,11.35,0,0,1,268.18,32a7.45,7.45,0,0,1,3.8-1.1,3.83,3.83,0,0,1,3,1,3.13,3.13,0,0,1,.73,2.67,4.47,4.47,0,0,1-.51,1.34,4.78,4.78,0,0,1-.94,1.17,2.51,2.51,0,0,1-1.12.62,1,1,0,0,1-1-.3c.29-.35.6-.77.94-1.25a4.88,4.88,0,0,0,.72-1.47,2.84,2.84,0,0,0,0-2,1.17,1.17,0,0,0-1.1-.61,3,3,0,0,0-1.5.42,11.19,11.19,0,0,0-1.52,1.07A11.34,11.34,0,0,0,268.18,35c-.46.56-.87,1.1-1.23,1.63-.25.36-.54.84-.88,1.45a18.79,18.79,0,0,0-1.74,4.33,9.67,9.67,0,0,0-.32,2.4,5.63,5.63,0,0,0,.72,2.86,2.57,2.57,0,0,0,2.43,1.26,5.61,5.61,0,0,0,3.13-.88,11,11,0,0,0,2.49-2.25,19.42,19.42,0,0,0,2-3c.61-1.1,1.18-2.19,1.71-3.26.25-.5.5-.69.75-.59S277.52,39.35,277.27,39.89Z"/><path d="M279.25,39.3c.57-.72,1.2-1.46,1.9-2.25a27.58,27.58,0,0,1,2.22-2.24,25.42,25.42,0,0,1,2.4-2,11.6,11.6,0,0,1,2.46-1.36,7.65,7.65,0,0,1,3.32-.59,2.06,2.06,0,0,1,1.65.91,2.51,2.51,0,0,1,.11,1.23,2.25,2.25,0,0,1-.45,1,2,2,0,0,1-.89.61,1.78,1.78,0,0,1-1.12,0,1.16,1.16,0,0,0-.62-.88,2.63,2.63,0,0,0-1.52-.3,7.55,7.55,0,0,0-2.27.59,11.77,11.77,0,0,0-2.75,1.66,16.64,16.64,0,0,0-1.05,6.39A8.46,8.46,0,0,0,284,46.52a3.63,3.63,0,0,0,2.84,1.63,4.75,4.75,0,0,0,3.52-1.85,15.12,15.12,0,0,0,2.12-3q1.1-2,2.22-4.3c.21-.43.42-.56.64-.4s.23.45,0,.88a39.25,39.25,0,0,1-3,5.75,14,14,0,0,1-2.73,3.15,5.87,5.87,0,0,1-2.51,1.26,9.09,9.09,0,0,1-2.38.1,5.28,5.28,0,0,1-1.52-.34,4.78,4.78,0,0,1-1.47-.91,6.44,6.44,0,0,1-1.26-1.53,6.1,6.1,0,0,1-.77-2.3,16,16,0,0,1-.24-2.83,10.29,10.29,0,0,1,.18-1.87q-.69.91-1.41,1.92A16.81,16.81,0,0,0,277,44c-.22.43-.47,1-.78,1.71s-.74,1.73-1.31,3.05a1.25,1.25,0,0,1-.74.69,5.84,5.84,0,0,1-1.29.11,9.59,9.59,0,0,1-1,.05,1.59,1.59,0,0,0-.83.27q1.94-3.86,3.67-7.59t3.71-7.38a11.86,11.86,0,0,1,1.77-2.67,2.59,2.59,0,0,1,2-.7,9.06,9.06,0,0,1,1.1.19,2.58,2.58,0,0,0,1.14,0,4.26,4.26,0,0,0-1.09,1c-.41.5-.85,1.1-1.31,1.79s-.94,1.45-1.42,2.27S279.68,38.44,279.25,39.3Z"/><path d="M314.43,39.89c-.43.92-.93,2-1.5,3.07A25.32,25.32,0,0,1,311,46.14a11.74,11.74,0,0,1-2.36,2.49,4.36,4.36,0,0,1-2.72,1,2.84,2.84,0,0,1-1.61-.46,2.73,2.73,0,0,1-1-1.34,5.88,5.88,0,0,1-.35-2.16,9.15,9.15,0,0,1,.54-2.89c-.47.82-1,1.63-1.53,2.44a18.52,18.52,0,0,1-1.76,2.19,9.46,9.46,0,0,1-1.95,1.6,3.84,3.84,0,0,1-2,.62,6.51,6.51,0,0,1-.94-.08,3.18,3.18,0,0,1-1-.35,3.23,3.23,0,0,1-.88-.75,2.91,2.91,0,0,1-.56-1.23,5.17,5.17,0,0,1-.05-1.66,6.71,6.71,0,0,1,.4-1.57,11.33,11.33,0,0,1,.69-1.5q.4-.72.78-1.47a1,1,0,0,1-.51-.16c-.16-.11-.15-.34,0-.7a6.54,6.54,0,0,0,.48-.91q.21-.48.48-1c.54-1,1.07-2.07,1.6-3.1s1-2,1.39-2.78a1.83,1.83,0,0,1,.83-.88,3,3,0,0,1,1.26-.24h3.26a5.35,5.35,0,0,0-.85.67,9,9,0,0,0-.78.82,10.77,10.77,0,0,0-.83,1.18c-.28.46-.6,1.07-1,1.82-.5.93-1,1.82-1.34,2.67s-.76,1.52-1.12,2.3-.66,1.43-.91,1.93a10.65,10.65,0,0,0-1.07,3.47,2.59,2.59,0,0,0,.4,2c.34.38.85.43,1.53.16a6.53,6.53,0,0,0,2.3-1.9,24,24,0,0,0,2.21-3c.73-1.18,1.44-2.4,2.12-3.67s1.32-2.52,1.95-3.76,1.18-2.41,1.68-3.48a1.83,1.83,0,0,1,.83-.88,3,3,0,0,1,1.26-.24h2.88c-.39.32-.73.61-1,.88a6.27,6.27,0,0,0-.83,1,11.58,11.58,0,0,0-.83,1.39c-.28.56-.62,1.24-1,2.07s-.78,1.53-1.16,2.33-.73,1.59-1.06,2.36-.64,1.48-.89,2.15a8.54,8.54,0,0,0-.48,1.68,3.75,3.75,0,0,0,0,2.45,1.29,1.29,0,0,0,1,.77,3,3,0,0,0,1.95-.85,11.48,11.48,0,0,0,1.9-2.17,28.67,28.67,0,0,0,1.74-2.89c.55-1.05,1.06-2.05,1.52-3,.21-.46.46-.63.72-.5S314.68,39.35,314.43,39.89Z"/><path d="M332.29,39.67c-.43.89-.92,1.91-1.48,3A22.66,22.66,0,0,1,328.89,46a11.51,11.51,0,0,1-2.54,2.62A5.51,5.51,0,0,1,323,49.67a3.2,3.2,0,0,1-1.76-.48A3.9,3.9,0,0,1,320,47.93a6.14,6.14,0,0,1-.72-1.68,5.65,5.65,0,0,1-.19-1.82V43.9a3.29,3.29,0,0,1,.05-.54,30,30,0,0,1-3.05,4.79A9.48,9.48,0,0,1,313,51a5.21,5.21,0,0,1-2.08.54,2.47,2.47,0,0,1-1.92-.75.48.48,0,0,1-.11-.43.76.76,0,0,1,.21-.37.83.83,0,0,1,.4-.22.38.38,0,0,1,.4.16q.92.81,2.73,0a6.47,6.47,0,0,0,1.82-1.47,19.32,19.32,0,0,0,2-2.64,34.49,34.49,0,0,0,1.88-3.37,27.46,27.46,0,0,0,1.46-3.69c.15-.71.27-1.4.38-2.06a9.56,9.56,0,0,0,.11-2,1.86,1.86,0,0,0-.27-1,.85.85,0,0,0-.72-.4,1.9,1.9,0,0,0-1.1.51,6.66,6.66,0,0,0-1.39,1.74c-.18.28-.42.7-.72,1.25s-.62,1.15-.94,1.8-.64,1.24-1,1.81-.55,1-.69,1.29-.47.56-.65.4-.12-.53.16-1.1.57-1.18.94-1.95.78-1.54,1.2-2.33.86-1.5,1.29-2.16A7.41,7.41,0,0,1,317.58,33a9,9,0,0,1,1.5-1,2.52,2.52,0,0,1,1.5-.27,2.39,2.39,0,0,1,1.63.75,3.4,3.4,0,0,1,.75,1.6,7.67,7.67,0,0,1,.08,2.11c-.08.77-.18,1.53-.32,2.28a28.55,28.55,0,0,1,1.55-2.65A26.17,26.17,0,0,1,326,33.47a16.58,16.58,0,0,1,1.69-1.79,3.56,3.56,0,0,1,1.39-.88,2.73,2.73,0,0,1,.85-.08,1.34,1.34,0,0,1,.75.24,1.3,1.3,0,0,1,.48.56,1.4,1.4,0,0,1,.06.88,2.09,2.09,0,0,1-.78,1.23,2.15,2.15,0,0,1-1.36.48,1.23,1.23,0,0,1-1.34-.91A18,18,0,0,0,326.08,35a25.39,25.39,0,0,0-1.63,2.3A24.42,24.42,0,0,0,323,39.89,21,21,0,0,0,322,42.51a9.14,9.14,0,0,0,0,4c.28,1.09.76,1.7,1.44,1.84a3,3,0,0,0,2.41-.53A10.16,10.16,0,0,0,328,45.61a26,26,0,0,0,1.89-3.08c.59-1.12,1.13-2.16,1.63-3.13.29-.49.54-.67.75-.53S332.46,39.28,332.29,39.67Z"/><path d="M340.36,61.38a6.81,6.81,0,0,1-1.53,2.3,2.8,2.8,0,0,1-2.05.48,7.34,7.34,0,0,1-1.1-.21,2.48,2.48,0,0,0-1.15-.06,13.28,13.28,0,0,0,1.23-1.84c.61-1,1.3-2.27,2.08-3.75s1.63-3.09,2.52-4.83,1.72-3.46,2.48-5.14,1.43-3.21,2-4.62a24.22,24.22,0,0,0,1.1-3.34,2,2,0,0,1-1,.88c-.36.12-.45,0-.27-.4s.32-.68.53-1.18.39-.91.54-1.23a13.84,13.84,0,0,0,.67-2,12.32,12.32,0,0,0,.37-2.14,5.92,5.92,0,0,0-.08-1.73c-.11-.48-.32-.76-.64-.83l1.12-.22a5.19,5.19,0,0,1,.88-.13,2.72,2.72,0,0,0,.62-.08l1-.08a.88.88,0,0,1,.59.13,1,1,0,0,1,.29.67,9.28,9.28,0,0,1,.08,1.47,9,9,0,0,1-.24,1.9c-.16.73-.34,1.49-.56,2.27s-.44,1.55-.69,2.3-.49,1.41-.7,2c.54-.68,1.21-1.47,2-2.38a28,28,0,0,1,2.46-2.43,26.67,26.67,0,0,1,2.38-1.85,29,29,0,0,1,2.86-1.76,17,17,0,0,1,2.7-1.2,3.32,3.32,0,0,1,1.95-.22c-1.07,1.93-2.05,3.76-2.94,5.51-.39.75-.77,1.51-1.15,2.3s-.72,1.54-1,2.27-.6,1.42-.83,2.06a8.92,8.92,0,0,0-.45,1.66,3.38,3.38,0,0,0,0,2.16,1,1,0,0,0,.85.51,3.15,3.15,0,0,0,2.14-1.12,17.28,17.28,0,0,0,2.14-2.65,32.52,32.52,0,0,0,1.82-3.07l1.23-2.41q.32-.69.72-.51c.27.13.27.46,0,1q-.6,1.23-1.47,2.94a27,27,0,0,1-2,3.29,14.6,14.6,0,0,1-2.46,2.7,4.39,4.39,0,0,1-2.89,1.12,4.48,4.48,0,0,1-1.44-.26,2.62,2.62,0,0,1-1.26-1,4,4,0,0,1-.61-1.93,8.31,8.31,0,0,1,.48-3.07,13,13,0,0,1,1.07-2.43c.5-.91,1.12-2,1.87-3.19a3.28,3.28,0,0,0,.53-1.39c0-.39-.09-.62-.4-.69a2.26,2.26,0,0,0-1.41.43,14.22,14.22,0,0,0-2.52,2l-1.57,1.5a22,22,0,0,0-1.87,2.11,28.23,28.23,0,0,0-2,3,31.91,31.91,0,0,0-2,4Z"/><path d="M378.42,39.72c-.49,1.07-1,2.21-1.6,3.4a18.45,18.45,0,0,1-2,3.31A10.14,10.14,0,0,1,372,48.92a7.26,7.26,0,0,1-3.83,1,5.39,5.39,0,0,1-3.55-1.25,4.82,4.82,0,0,1-1.58-3.83,12.1,12.1,0,0,1,.29-2.51,15.73,15.73,0,0,1,.86-2.65,19.57,19.57,0,0,1,1.31-2.53,17.49,17.49,0,0,1,1.66-2.3,15.12,15.12,0,0,1,2.24-2.14,10.66,10.66,0,0,1,2.46-1.47,6.19,6.19,0,0,1,2.38-.51,3.47,3.47,0,0,1,2.06.64,2.26,2.26,0,0,1,.88,1.5,4,4,0,0,1-.29,2,8.53,8.53,0,0,1-1.34,2.22,12.49,12.49,0,0,1-2.19,2.09,10.17,10.17,0,0,1-1.52.91,15.85,15.85,0,0,1-1.85.74,15.38,15.38,0,0,1-1.82.51,6.46,6.46,0,0,1-1.39.19,10.34,10.34,0,0,0-.56,2,9.36,9.36,0,0,0-.16,2.4,4.31,4.31,0,0,0,.64,2.06,2.08,2.08,0,0,0,1.9.88,5.18,5.18,0,0,0,3.18-1,12,12,0,0,0,2.51-2.48,19.46,19.46,0,0,0,1.88-3c.51-1,.93-1.91,1.25-2.62a1.44,1.44,0,0,1,.4-.56.79.79,0,0,1,.43-.19.29.29,0,0,1,.27.19A.8.8,0,0,1,378.42,39.72Zm-5.56-1.55a8.8,8.8,0,0,0,1.79-2,7.32,7.32,0,0,0,1-2.08,3.17,3.17,0,0,0,.11-1.61.72.72,0,0,0-.8-.61,3.65,3.65,0,0,0-1.76.85,18.3,18.3,0,0,0-2.79,2.81,21.55,21.55,0,0,0-1.95,2.78c-.58,1-1,1.75-1.25,2.25a5.19,5.19,0,0,0,1-.14,11.57,11.57,0,0,0,1.45-.42,13.71,13.71,0,0,0,1.63-.75A11,11,0,0,0,372.86,38.17Z"/><path d="M397.46,39.83c-.43.93-.93,2-1.5,3.08A25.32,25.32,0,0,1,394,46.09a12.37,12.37,0,0,1-2.36,2.51,4.29,4.29,0,0,1-2.72,1,2.84,2.84,0,0,1-1.61-.46,2.73,2.73,0,0,1-1-1.34,5.88,5.88,0,0,1-.35-2.16,9.15,9.15,0,0,1,.54-2.89c-.47.82-1,1.63-1.52,2.44a19.64,19.64,0,0,1-1.77,2.19,9.2,9.2,0,0,1-1.95,1.6,3.84,3.84,0,0,1-2,.62,6.51,6.51,0,0,1-.94-.08,3.1,3.1,0,0,1-1.87-1.1,2.91,2.91,0,0,1-.56-1.23,5.47,5.47,0,0,1-.05-1.66,6.71,6.71,0,0,1,.4-1.57,12.77,12.77,0,0,1,.69-1.5q.41-.72.78-1.47a1,1,0,0,1-.51-.16c-.16-.11-.15-.34,0-.7a6.54,6.54,0,0,0,.48-.91q.21-.48.48-1l1.6-3.1c.54-1,1-2,1.4-2.78a1.77,1.77,0,0,1,.82-.88,3,3,0,0,1,1.26-.24h3.26a5.85,5.85,0,0,0-.85.67,9,9,0,0,0-.78.82,10.77,10.77,0,0,0-.83,1.18,19,19,0,0,0-1,1.82c-.5.93-.95,1.82-1.34,2.67s-.76,1.52-1.12,2.3-.66,1.43-.91,1.93a10.65,10.65,0,0,0-1.07,3.47,2.59,2.59,0,0,0,.4,2c.34.38.85.43,1.53.16a6.53,6.53,0,0,0,2.3-1.9,25,25,0,0,0,2.22-3c.73-1.18,1.43-2.4,2.11-3.67s1.32-2.52,1.95-3.76,1.18-2.41,1.68-3.48a1.83,1.83,0,0,1,.83-.88,3,3,0,0,1,1.26-.24h2.88c-.39.32-.73.61-1,.88a6.67,6.67,0,0,0-.83,1,12.43,12.43,0,0,0-.83,1.39c-.29.56-.62,1.24-1,2.06s-.78,1.52-1.15,2.33-.73,1.58-1.07,2.35-.64,1.48-.89,2.14a8.54,8.54,0,0,0-.48,1.68,3.68,3.68,0,0,0,0,2.43,1.31,1.31,0,0,0,1,.78,3,3,0,0,0,1.95-.86,11.72,11.72,0,0,0,1.9-2.16,28,28,0,0,0,1.74-2.89c.55-1,1.06-2.06,1.52-3q.32-.69.72-.51T397.46,39.83Zm-6,8.93a22.79,22.79,0,0,0-2.17,2,28.81,28.81,0,0,0-2,2.3,13.54,13.54,0,0,0-1.52,2.35,5.25,5.25,0,0,0-.64,2.09,2.26,2.26,0,0,0,.32,1.25,1.33,1.33,0,0,0,1.23.51,2.48,2.48,0,0,0,1.46-.53,11,11,0,0,0,1.26-1.07.58.58,0,0,1,.38-.14c.17,0,.23.1.16.35a2.59,2.59,0,0,1-.51.94,4.85,4.85,0,0,1-1.1,1,7.65,7.65,0,0,1-1.57.77,5.42,5.42,0,0,1-1.9.32,2.67,2.67,0,0,1-1.74-.58,2.11,2.11,0,0,1-.67-1.82,6.16,6.16,0,0,1,1-2.84,20.5,20.5,0,0,1,2.38-3.1,27.22,27.22,0,0,1,2.86-2.67,12,12,0,0,1,2.44-1.6h.29C391.48,48.23,391.49,48.4,391.42,48.76Z"/><path d="M410.66,39.72c-.5,1.07-1,2.21-1.6,3.4a18.45,18.45,0,0,1-2,3.31,10.14,10.14,0,0,1-2.75,2.49,7.26,7.26,0,0,1-3.83,1,5.39,5.39,0,0,1-3.55-1.25,4.78,4.78,0,0,1-1.58-3.83,12.1,12.1,0,0,1,.29-2.51,14.88,14.88,0,0,1,.86-2.65,19.57,19.57,0,0,1,1.31-2.53,17.49,17.49,0,0,1,1.66-2.3,15.12,15.12,0,0,1,2.24-2.14,10.66,10.66,0,0,1,2.46-1.47,6.19,6.19,0,0,1,2.38-.51,3.47,3.47,0,0,1,2.06.64,2.26,2.26,0,0,1,.88,1.5,4,4,0,0,1-.29,2,8.53,8.53,0,0,1-1.34,2.22,12.15,12.15,0,0,1-2.19,2.09,10.17,10.17,0,0,1-1.52.91,15.85,15.85,0,0,1-1.85.74,15.38,15.38,0,0,1-1.82.51,6.46,6.46,0,0,1-1.39.19,10.34,10.34,0,0,0-.56,2,9.36,9.36,0,0,0-.16,2.4,4.31,4.31,0,0,0,.64,2.06,2.08,2.08,0,0,0,1.9.88,5.18,5.18,0,0,0,3.18-1,12.28,12.28,0,0,0,2.51-2.48,18.73,18.73,0,0,0,1.88-3c.51-1,.93-1.91,1.25-2.62a1.44,1.44,0,0,1,.4-.56.76.76,0,0,1,.43-.19.3.3,0,0,1,.27.19A.8.8,0,0,1,410.66,39.72Zm-5.56-1.55a8.8,8.8,0,0,0,1.79-2,7.32,7.32,0,0,0,1-2.08,3.17,3.17,0,0,0,.11-1.61.72.72,0,0,0-.8-.61,3.71,3.71,0,0,0-1.77.85,18.8,18.8,0,0,0-2.78,2.81,21.55,21.55,0,0,0-1.95,2.78c-.59,1-1,1.75-1.25,2.25a5.29,5.29,0,0,0,1-.14,11,11,0,0,0,1.44-.42,13.13,13.13,0,0,0,1.64-.75A11.61,11.61,0,0,0,405.1,38.17Z"/><path d="M428.52,39.83q-.58,1.23-1.47,2.94a27,27,0,0,1-2,3.29,14.6,14.6,0,0,1-2.46,2.7,4.23,4.23,0,0,1-4.33.86,2.62,2.62,0,0,1-1.26-1,3.9,3.9,0,0,1-.61-1.93,7.91,7.91,0,0,1,.48-3.07,12.4,12.4,0,0,1,1.07-2.43c.49-.91,1.12-2,1.87-3.19a3.28,3.28,0,0,0,.53-1.39c0-.39-.1-.62-.4-.69a2.29,2.29,0,0,0-1.42.43,13.88,13.88,0,0,0-2.51,2A27.51,27.51,0,0,0,412.72,42a45.06,45.06,0,0,0-4.14,6.9,1.25,1.25,0,0,1-.75.7,5.8,5.8,0,0,1-1.28.1q-.6.06-1,.06a1.52,1.52,0,0,0-.83.26q1.92-3.84,3.66-7.59t3.72-7.38a11.56,11.56,0,0,1,1.76-2.67,2.61,2.61,0,0,1,2-.7,8.74,8.74,0,0,1,1.1.19,2.78,2.78,0,0,0,1.15,0,5.25,5.25,0,0,0-1.42,1.39A28.48,28.48,0,0,0,415,35.82c-.59,1-1.17,2-1.76,3.08S412.14,41,411.68,42c.54-.68,1.2-1.47,2-2.38a26.58,26.58,0,0,1,2.44-2.43,25.29,25.29,0,0,1,2.38-1.85,27.88,27.88,0,0,1,2.86-1.76,17,17,0,0,1,2.7-1.2,3.32,3.32,0,0,1,1.95-.22c-1.07,1.93-2.05,3.76-2.94,5.51-.39.75-.78,1.51-1.15,2.3s-.72,1.54-1,2.27-.6,1.42-.83,2.06a8.3,8.3,0,0,0-.46,1.66,3.54,3.54,0,0,0,0,2.16,1,1,0,0,0,.86.51,3.15,3.15,0,0,0,2.14-1.12,17.28,17.28,0,0,0,2.14-2.65,32.4,32.4,0,0,0,1.81-3.07c.54-1,.95-1.84,1.23-2.41s.46-.63.72-.51S428.77,39.3,428.52,39.83Z"/><path d="M455.63,39.83q-.58,1.23-1.47,2.94a27,27,0,0,1-2,3.29,14,14,0,0,1-2.48,2.7,4.43,4.43,0,0,1-2.86,1.12,4.64,4.64,0,0,1-1.5-.26,2.62,2.62,0,0,1-1.26-1,4,4,0,0,1-.61-1.93,8.31,8.31,0,0,1,.48-3.07A12.4,12.4,0,0,1,445,41.2c.5-.91,1.12-2,1.87-3.19a3.28,3.28,0,0,0,.53-1.39c0-.39-.09-.62-.4-.69a2.26,2.26,0,0,0-1.41.43,14.22,14.22,0,0,0-2.52,2A29.37,29.37,0,0,0,441,40.55a38.41,38.41,0,0,0-4.34,6.31,11.55,11.55,0,0,0-1.14,2.81,1.56,1.56,0,0,1-1.42-.88,3,3,0,0,1-.3-2.06,12.33,12.33,0,0,1,.91-3.18c.43-.95.88-1.92,1.34-2.92s.82-1.76,1.18-2.62a5,5,0,0,0,.5-1.87c0-.39-.31-.45-.88-.18a14.72,14.72,0,0,0-2.94,2.37A26.58,26.58,0,0,0,430.69,42a48.19,48.19,0,0,0-4.15,6.79,1.22,1.22,0,0,1-.69.72,4.81,4.81,0,0,1-1.34.14c-.39,0-.71.05-1,.05a1.5,1.5,0,0,0-.8.27q1.92-3.86,3.61-7.54T430,35.07a11.9,11.9,0,0,1,1.76-2.67,2.61,2.61,0,0,1,2-.7,8.74,8.74,0,0,1,1.1.19,2.78,2.78,0,0,0,1.15,0,5.39,5.39,0,0,0-1.42,1.39,28.48,28.48,0,0,0-1.71,2.51c-.59,1-1.17,2-1.76,3.08S430.05,41,429.59,42c.54-.68,1.2-1.47,2-2.38A25.32,25.32,0,0,1,434,37.16l2.06-1.85c.73-.66,1.44-1.24,2.14-1.76a10.52,10.52,0,0,1,2-1.2,2.29,2.29,0,0,1,1.63-.22,1.47,1.47,0,0,1,1,.91,2,2,0,0,1-.16,1.45,36.45,36.45,0,0,1-1.85,3.6c-.73,1.27-1.41,2.56-2.06,3.88.54-.68,1.21-1.47,2-2.38a25.32,25.32,0,0,1,2.43-2.43,26.67,26.67,0,0,1,2.38-1.85,29,29,0,0,1,2.86-1.76,16.51,16.51,0,0,1,2.73-1.2,3.25,3.25,0,0,1,1.92-.22c-1.07,1.93-2.05,3.76-2.94,5.51-.39.75-.76,1.51-1.12,2.3s-.7,1.54-1,2.27-.59,1.42-.83,2.06a13.19,13.19,0,0,0-.5,1.66,3.65,3.65,0,0,0,.05,2.16,1,1,0,0,0,.86.51,3.14,3.14,0,0,0,2.13-1.1,16.67,16.67,0,0,0,2.14-2.59,27.5,27.5,0,0,0,1.82-3.07c.54-1.05.94-1.88,1.23-2.49s.45-.63.72-.51S455.88,39.3,455.63,39.83Zm-1.87-13.9a11.67,11.67,0,0,1-1,1.31,7.52,7.52,0,0,1-1.42,1.2,7.06,7.06,0,0,1-1.79.86,6.15,6.15,0,0,1-2.12.27,10.56,10.56,0,0,1-2.05-.32q-1-.27-1.95-.57c-.65-.19-1.29-.37-1.93-.53a9.8,9.8,0,0,0-1.92-.29,3.53,3.53,0,0,0-2.06.34,4,4,0,0,0-1.31,1.1.38.38,0,0,1-.32.13,2.44,2.44,0,0,1-.54,0,2.18,2.18,0,0,1-.48-.08c-.14,0-.21-.09-.21-.16a11.43,11.43,0,0,1,2.54-2.32A6,6,0,0,1,441,25.82a13.49,13.49,0,0,1,2,.27q1,.21,2,.51c.65.2,1.3.37,1.92.53a10.16,10.16,0,0,0,1.9.3,4,4,0,0,0,2.19-.35,4.55,4.55,0,0,0,1.45-1.2s.08-.06.24-.08a3.87,3.87,0,0,1,.48,0,1.73,1.73,0,0,1,.42.05C453.75,25.86,453.79,25.9,453.76,25.93Z"/><path d="M473.65,39.67l-1,2.35a21.51,21.51,0,0,1-1.79,3.21,13.71,13.71,0,0,1-2.48,2.82,4.64,4.64,0,0,1-3.08,1.21,4.85,4.85,0,0,1-2.06-.39,4.32,4.32,0,0,1-1.36-1,10.54,10.54,0,0,1-2.3,1.32,5.45,5.45,0,0,1-2.35.44,3.55,3.55,0,0,1-2.43-.88,4.14,4.14,0,0,1-1.18-2.19,8.47,8.47,0,0,1,0-3.11,14.87,14.87,0,0,1,1-3.5,19,19,0,0,1,2-3.47,17.11,17.11,0,0,1,2.54-2.89,12.43,12.43,0,0,1,2.8-2,5.8,5.8,0,0,1,2.84-.67,3.34,3.34,0,0,1,2.4.86,4.16,4.16,0,0,1,1.21,2.24,8.84,8.84,0,0,1,0,3.13,14.7,14.7,0,0,1-1,3.5,19,19,0,0,1-1.77,3.13,18.3,18.3,0,0,1-2.72,3.18,2.58,2.58,0,0,0,2.51,1.34,3.54,3.54,0,0,0,2.43-1.07,13.29,13.29,0,0,0,2.11-2.57,25.64,25.64,0,0,0,1.71-3c.5-1,.91-1.87,1.23-2.51a.48.48,0,0,1,.64-.27C473.77,39,473.82,39.28,473.65,39.67Zm-7.81-7A2.87,2.87,0,0,0,464,33a7.12,7.12,0,0,0-2,1.44,17.12,17.12,0,0,0-2,2.36,19.88,19.88,0,0,0-1.71,3A21.78,21.78,0,0,0,457,42.85a13.29,13.29,0,0,0-.56,2.65,4.73,4.73,0,0,0,.16,2,1.45,1.45,0,0,0,1,1,2.68,2.68,0,0,0,1.71-.16,6.88,6.88,0,0,0,1.92-1.18,5.09,5.09,0,0,1-.64-1.33,4.5,4.5,0,0,1-.21-1.29,3.47,3.47,0,0,1,.45-1.6,1.7,1.7,0,0,1,2.57-.21,1.58,1.58,0,0,1,.45,1.12,1.29,1.29,0,0,1,0,.29,1.35,1.35,0,0,1-.08.3,22.45,22.45,0,0,0,1.66-2.89,18.94,18.94,0,0,0,1.23-3.16,11.12,11.12,0,0,0,.48-2.67,4.59,4.59,0,0,0-.26-1.95A1.61,1.61,0,0,0,465.84,32.72Z"/><path d="M477,31.33q2-3.79,4.39-7.91a63.55,63.55,0,0,1,5.07-7.49c1.18-1.42,2.36-2.79,3.53-4.09a33.22,33.22,0,0,1,3.56-3.42A18.58,18.58,0,0,1,497.17,6a10.15,10.15,0,0,1,3.9-1,5.3,5.3,0,0,1,3.05.53,2.84,2.84,0,0,1,1.36,1.82,5.76,5.76,0,0,1-.08,2.75,15,15,0,0,1-1.25,3.32A25.66,25.66,0,0,1,501.93,17,29.81,29.81,0,0,1,499,20.42a32.69,32.69,0,0,1-7.94,5.83,67.94,67.94,0,0,1-10.83,4.39c-.39.74-.77,1.46-1.15,2.13s-.7,1.32-1,1.93c-.67,1.35-1.3,2.79-1.87,4.3a23.63,23.63,0,0,0-1.2,4.28,9,9,0,0,0,0,3.42,2,2,0,0,0,1.71,1.69q1.77.38,4.6-3a23.73,23.73,0,0,0,2.22-3.18,30.29,30.29,0,0,0,1.79-3.45,12.49,12.49,0,0,0,.75-2.57,6.23,6.23,0,0,0,0-2.19,2.34,2.34,0,0,0-.86-1.47,2.77,2.77,0,0,0-2-.4,1.33,1.33,0,0,1-.88-.16c-.2-.14-.28-.3-.24-.46s.2-.3.5-.42A2.52,2.52,0,0,1,484,31a5.07,5.07,0,0,1,2.4.94,4.61,4.61,0,0,1,1.47,1.76,6,6,0,0,1,.59,2.3,9.52,9.52,0,0,1-.18,2.54A17.65,17.65,0,0,1,487.15,42a17.28,17.28,0,0,1-1.9,3.21,13.14,13.14,0,0,1-2.57,2.59,8.73,8.73,0,0,1-3.1,1.53,10,10,0,0,1-3.87.42,4.48,4.48,0,0,1-2.47-1,3.76,3.76,0,0,1-1.14-2.06,5.79,5.79,0,0,1,.1-2.7,22.9,22.9,0,0,1,.94-2.73c.41-1,.88-2,1.42-3.15q-1.87,3.52-3.27,6a14.73,14.73,0,0,1-2.19,3.18q-.32.27-.51,0a.57.57,0,0,1,.08-.66,28.54,28.54,0,0,0,1.77-2.73c.64-1.11,1.32-2.33,2-3.66s1.44-2.77,2.19-4.28S476.18,32.83,477,31.33Zm.11,0a6.12,6.12,0,0,1-2.3-.11,3.36,3.36,0,0,1-1.87-1.17,3.45,3.45,0,0,1-.59-.94,1.77,1.77,0,0,1-.11-1,.76.76,0,0,1,.3-.54.61.61,0,0,1,.48-.1.67.67,0,0,1,.4.24.87.87,0,0,1,.16.56v.11A1.78,1.78,0,0,0,475,29.91a8,8,0,0,0,2.7.14ZM481.18,29a45.35,45.35,0,0,0,8.75-3.56,31.69,31.69,0,0,0,8-6,29.14,29.14,0,0,0,3.39-4.2,18.63,18.63,0,0,0,2.14-4.09,5.09,5.09,0,0,0,.32-3.1c-.23-.82-.9-1.23-2-1.23a7.15,7.15,0,0,0-3.66,1.12,20.71,20.71,0,0,0-3.83,3,39.91,39.91,0,0,0-3.77,4.25c-1.22,1.58-2.41,3.2-3.55,4.84s-2.2,3.24-3.18,4.81Z"/><path d="M243.14,98.83a1.44,1.44,0,0,0,.33,1,1.11,1.11,0,0,0,.89.37,3.32,3.32,0,0,0,1-.15,4.06,4.06,0,0,0,.9-.38,5.09,5.09,0,0,0,.92-.57.82.82,0,0,1,.5-.21.27.27,0,0,1,.31.25,2.31,2.31,0,0,1,0,.38,5.36,5.36,0,0,1-.05.7,1.54,1.54,0,0,1-.29.68,2.75,2.75,0,0,1-.74.68,6.85,6.85,0,0,1-1.37.7,7.52,7.52,0,0,1-1.14.38,3.62,3.62,0,0,1-.79.1,3.23,3.23,0,0,1-1.07-.19,3.06,3.06,0,0,1-1.08-.63,3.35,3.35,0,0,1-.84-1.19,4.63,4.63,0,0,1-.32-1.86,6.69,6.69,0,0,1,.3-1.9,10.31,10.31,0,0,1,.82-2,12.47,12.47,0,0,1,1.23-1.86,10.28,10.28,0,0,1,1.53-1.56,8,8,0,0,1,1.72-1.07,4.35,4.35,0,0,1,1.79-.41,2.67,2.67,0,0,1,1.22.24,1.92,1.92,0,0,1,.73.6,2.21,2.21,0,0,1,.34.77,3.62,3.62,0,0,1,.09.75,1.87,1.87,0,0,1-.21.9,2.25,2.25,0,0,1-.51.67,2.77,2.77,0,0,1-.68.43,1.65,1.65,0,0,1-.65.15.62.62,0,0,1-.54-.23,1,1,0,0,1-.15-.56,2,2,0,0,1,0-.36,2.12,2.12,0,0,0,0-.37c0-.27-.06-.44-.17-.51a.8.8,0,0,0-.26-.1c-.18,0-.48.2-.9.59a10.21,10.21,0,0,0-1.27,1.5,11.44,11.44,0,0,0-1.16,2.07A5.68,5.68,0,0,0,243.14,98.83Z"/><path d="M260.73,94.86a7.27,7.27,0,0,1,1.27-.1l.7,0c.22,0,.46,0,.69.08q.62-1.5,1-2.43c.27-.63.49-1.11.67-1.46a3.26,3.26,0,0,1,.45-.71.6.6,0,0,1,.39-.19.71.71,0,0,1,.47.18,5.74,5.74,0,0,0,.47.35l.53.32a.51.51,0,0,1,.26.49,3.78,3.78,0,0,1-.53,1.47c-.48.91-.87,1.75-1.18,2.51s-.57,1.47-.77,2.13a11.87,11.87,0,0,0-.45,1.88,13.83,13.83,0,0,0-.16,1.81c0,.27,0,.53,0,.76s0,.45,0,.62a2.17,2.17,0,0,1-.1.42.22.22,0,0,1-.22.15h-.58a3.33,3.33,0,0,1-.61-.09c-.17,0-.34-.08-.52-.13a1.26,1.26,0,0,1-.46-.24,1.3,1.3,0,0,1-.35-.46,2.16,2.16,0,0,1-.14-.84,4.72,4.72,0,0,1,.09-.82c.06-.33.14-.69.24-1.07s.23-.76.37-1.16.3-.78.47-1.15a5.59,5.59,0,0,0-.91-.08,5.83,5.83,0,0,0-1.77.28c-.21.57-.35,1-.43,1.23s-.14.42-.17.52a1.51,1.51,0,0,0,0,.22,1.16,1.16,0,0,1-.07.28c0,.16-.14.41-.27.76s-.32.89-.59,1.6c-.1.27-.21.54-.32.82a.55.55,0,0,1-.52.42,1,1,0,0,1-.61-.34,5.59,5.59,0,0,0-.6-.55c-.14-.08-.32-.18-.55-.29a.52.52,0,0,1-.34-.49.86.86,0,0,1,.08-.34q.07-.23.27-.66l.54-1.15c.21-.48.49-1.08.83-1.8a.75.75,0,0,1-.37,0,.33.33,0,0,1-.16-.17.67.67,0,0,1-.05-.26v-.33a3.1,3.1,0,0,0-.09-.57,1.85,1.85,0,0,1-.06-.5.71.71,0,0,1,.48-.75,3.29,3.29,0,0,1,1.21-.16c.29-1,.52-1.72.7-2.29s.32-1,.44-1.3a6.48,6.48,0,0,1,.26-.62,2.6,2.6,0,0,1,.12-.24c.19-.29.39-.4.61-.34a4.38,4.38,0,0,1,.66.24,5.06,5.06,0,0,0,.69.26c.16,0,.24.2.24.47a2.92,2.92,0,0,1-.14.66c-.09.34-.2.71-.32,1.11L261,94C260.9,94.39,260.8,94.67,260.73,94.86Z"/><path d="M272.79,101a5.48,5.48,0,0,1-1.4,1.2,2.91,2.91,0,0,1-1.54.52,1.92,1.92,0,0,1-1-.26,2.49,2.49,0,0,1-.79-.73,3.68,3.68,0,0,1-.52-1.07,4.86,4.86,0,0,1-.19-1.36,8.73,8.73,0,0,1,.22-1.65,7.6,7.6,0,0,1,.91-2.23,11.45,11.45,0,0,1,2-2.5,15.79,15.79,0,0,1,3.62-2.48l.45-.19a1,1,0,0,1,.45,0,1.36,1.36,0,0,1,.54.27,8.43,8.43,0,0,1,.76.62,5.28,5.28,0,0,1,.49-1,.85.85,0,0,1,.73-.46,1,1,0,0,1,.44.15,5.66,5.66,0,0,1,.53.37,2.91,2.91,0,0,1,.46.47.84.84,0,0,1,.19.46,1.79,1.79,0,0,1-.32.91,15.7,15.7,0,0,0-.82,1.57c-.12.25-.3.66-.55,1.22s-.48,1.22-.72,2a23.39,23.39,0,0,0-.63,2.41,12.31,12.31,0,0,0-.28,2.63v.48a1.86,1.86,0,0,1-.06.48,1,1,0,0,1-.19.36.45.45,0,0,1-.36.14h-.62a2.51,2.51,0,0,1-.92-.21,1.76,1.76,0,0,1-.75-.66,1.8,1.8,0,0,1-.06-1.37ZM275.6,93a6.27,6.27,0,0,0-2.05,1,8.8,8.8,0,0,0-1.69,1.51,7.6,7.6,0,0,0-1.15,1.74,3.94,3.94,0,0,0-.43,1.67,1.27,1.27,0,0,0,.23.8.62.62,0,0,0,.45.29,1.57,1.57,0,0,0,.65-.2,3.57,3.57,0,0,0,.87-.71,8.1,8.1,0,0,0,1-1.4,12.94,12.94,0,0,0,1-2.3c.15-.42.31-.81.47-1.16S275.36,93.4,275.6,93Z"/><path d="M285.57,95.64c.59-2,1.06-3.39,1.39-4.26s.65-1.31.94-1.31a.89.89,0,0,1,.49.19c.18.13.38.26.6.4l.48.26a.44.44,0,0,1,.25.42,1.15,1.15,0,0,1-.07.39,4.56,4.56,0,0,1-.21.5c-.13.28-.28.65-.44,1.11s-.32,1-.49,1.49-.34,1.1-.51,1.67-.32,1.12-.45,1.62-.26,1-.37,1.38-.18.73-.22.93a6.86,6.86,0,0,0-.1.69c0,.32-.08.63-.14.94a6.07,6.07,0,0,1-.21.82c-.09.24-.2.36-.36.36a.82.82,0,0,1-.43-.19,6.85,6.85,0,0,0-.63-.42l-.71-.44a.72.72,0,0,1-.28-.65,2.13,2.13,0,0,1,0-.3,4.29,4.29,0,0,1,.12-.58c.07-.26.17-.57.3-1s.29-.85.51-1.41a14.09,14.09,0,0,1-1.78.68,4.33,4.33,0,0,1-1.2.21,1.24,1.24,0,0,1-.81-.32,3,3,0,0,1-.67-.78,4.36,4.36,0,0,1-.46-1,2.89,2.89,0,0,1-.16-.88,2.74,2.74,0,0,1,.11-.79c.07-.27.18-.56.3-.89s.28-.67.46-1.07.37-.86.57-1.38.4-.95.59-1.32.44-.55.72-.55a1.47,1.47,0,0,1,.42.08,3.23,3.23,0,0,1,.58.24,3,3,0,0,1,.52.35.48.48,0,0,1,.23.36.54.54,0,0,1,0,.18,3.4,3.4,0,0,1-.21.51c-.44,1-.81,1.8-1.1,2.48a4.22,4.22,0,0,0-.45,1.59.83.83,0,0,0,.17.57.43.43,0,0,0,.31.19,1.77,1.77,0,0,0,.55-.12c.23-.09.46-.19.71-.31a6.31,6.31,0,0,0,.68-.38A3.53,3.53,0,0,0,285.57,95.64Z"/><path d="M294.86,101a5.26,5.26,0,0,1-1.39,1.2,2.94,2.94,0,0,1-1.55.52,2,2,0,0,1-1-.26,2.57,2.57,0,0,1-.78-.73,3.68,3.68,0,0,1-.52-1.07,4.52,4.52,0,0,1-.19-1.36,8.58,8.58,0,0,1,.21-1.65,7.89,7.89,0,0,1,.91-2.23,12.06,12.06,0,0,1,2-2.5,16,16,0,0,1,3.62-2.48l.46-.19a.92.92,0,0,1,.44,0,1.46,1.46,0,0,1,.55.27c.2.14.45.35.76.62a4.77,4.77,0,0,1,.49-1,.83.83,0,0,1,.72-.46.92.92,0,0,1,.44.15,4.6,4.6,0,0,1,.53.37,2.54,2.54,0,0,1,.46.47.77.77,0,0,1,.19.46A1.76,1.76,0,0,1,301,92a15.33,15.33,0,0,0-.83,1.57c-.12.25-.3.66-.54,1.22a18.15,18.15,0,0,0-.72,2c-.24.74-.45,1.55-.64,2.41a13,13,0,0,0-.27,2.63v.48a1.85,1.85,0,0,1-.07.48.78.78,0,0,1-.19.36.42.42,0,0,1-.35.14h-.62a2.56,2.56,0,0,1-.93-.21,1.54,1.54,0,0,1-.81-2ZM297.67,93a6.36,6.36,0,0,0-2.05,1,9,9,0,0,0-1.68,1.51,7.29,7.29,0,0,0-1.15,1.74,4,4,0,0,0-.44,1.67,1.27,1.27,0,0,0,.23.8.63.63,0,0,0,.46.29,1.53,1.53,0,0,0,.64-.2,3.41,3.41,0,0,0,.88-.71,8.1,8.1,0,0,0,1-1.4,14.55,14.55,0,0,0,1-2.3c.15-.42.31-.81.47-1.16S297.43,93.4,297.67,93Z"/><path d="M307,94.23c-.17.33-.42.79-.74,1.36s-.68,1.2-1.09,1.86-.83,1.34-1.27,2-.88,1.3-1.3,1.86a14.33,14.33,0,0,1-1.12,1.37c-.34.35-.61.53-.81.53a.52.52,0,0,1-.44-.28c-.13-.19-.24-.35-.35-.48a3.79,3.79,0,0,0-.36-.38.64.64,0,0,1-.24-.46.72.72,0,0,1,.17-.41c.12-.16.36-.46.71-.88s.65-.78,1-1.28.77-1,1.19-1.58.83-1.13,1.25-1.72l1.2-1.71c.38-.55.72-1,1-1.52l.76-1.18a8.11,8.11,0,0,1,.61-.89.83.83,0,0,1,.68-.4,1.79,1.79,0,0,1,.56.14c.23.1.46.2.69.32a5.52,5.52,0,0,1,.58.35c.16.12.25.21.25.28a3.23,3.23,0,0,1-.12.77c-.07.32-.16.84-.27,1.59s-.19,1.78-.27,3.11-.14,3.11-.16,5.34c0,.1,0,.21,0,.33a1.14,1.14,0,0,1-.07.33.59.59,0,0,1-.22.25.74.74,0,0,1-.43.1,1.08,1.08,0,0,1-.61-.2,6.75,6.75,0,0,0-.66-.38l-.45-.21a1.05,1.05,0,0,1-.34-.22.77.77,0,0,1-.22-.31,1.6,1.6,0,0,1-.07-.55,5.65,5.65,0,0,1,.07-.83c.05-.34.12-.78.22-1.31s.2-1.18.34-2,.28-1.68.43-2.74Z"/><path d="M316.38,101a5.43,5.43,0,0,1-1.39,1.2,3,3,0,0,1-1.55.52,1.92,1.92,0,0,1-1-.26,2.46,2.46,0,0,1-.78-.73,3.44,3.44,0,0,1-.52-1.07,4.52,4.52,0,0,1-.19-1.36,8.58,8.58,0,0,1,.21-1.65,7.89,7.89,0,0,1,.91-2.23,12.06,12.06,0,0,1,2-2.5,16,16,0,0,1,3.62-2.48l.46-.19a.92.92,0,0,1,.44,0,1.46,1.46,0,0,1,.55.27c.2.14.45.35.76.62a4.35,4.35,0,0,1,.49-1,.83.83,0,0,1,.72-.46.92.92,0,0,1,.44.15,4.6,4.6,0,0,1,.53.37,2.91,2.91,0,0,1,.46.47.77.77,0,0,1,.19.46,1.79,1.79,0,0,1-.32.91c-.21.34-.48.86-.82,1.57-.12.25-.3.66-.54,1.22a20.4,20.4,0,0,0-.73,2c-.23.74-.44,1.55-.63,2.41a13,13,0,0,0-.28,2.63v.48a1.86,1.86,0,0,1-.06.48.88.88,0,0,1-.19.36.43.43,0,0,1-.35.14h-.62a2.52,2.52,0,0,1-.93-.21,1.52,1.52,0,0,1-.81-2ZM319.19,93a6.27,6.27,0,0,0-2.05,1,9,9,0,0,0-1.68,1.51,7.65,7.65,0,0,0-1.16,1.74,4.09,4.09,0,0,0-.43,1.67,1.27,1.27,0,0,0,.23.8.62.62,0,0,0,.46.29,1.53,1.53,0,0,0,.64-.2,3.78,3.78,0,0,0,.88-.71,8.66,8.66,0,0,0,1-1.4,14.55,14.55,0,0,0,1-2.3c.15-.42.3-.81.46-1.16S319,93.4,319.19,93Z"/><path d="M336.51,94.86c.08-.24.21-.58.38-1s.36-.9.58-1.38l-1.56.08-1.71.1q-.66,2.39-1.42,4.65T331.14,102c-.1.27-.21.54-.32.82a.55.55,0,0,1-.52.42.91.91,0,0,1-.6-.34,5.58,5.58,0,0,0-.61-.55c-.14-.08-.32-.18-.55-.29a.52.52,0,0,1-.34-.49,3,3,0,0,1,.24-.72l.62-1.52c.25-.62.54-1.31.86-2.08s.64-1.56,1-2.37c.15-.44.28-.84.4-1.2s.22-.69.3-1h-.45l-.28,0a.58.58,0,0,1-.3-.09.75.75,0,0,1-.26-.21.63.63,0,0,1-.1-.39,1.59,1.59,0,0,1,.69-1.45,4.06,4.06,0,0,1,1.77-.4c.49,0,1,0,1.41,0s1,0,1.57,0h4.59l.5,0a3,3,0,0,1,.47.09.64.64,0,0,1,.33.2.57.57,0,0,1,.11.39.8.8,0,0,1-.1.38c-.06.14-.14.33-.23.58a.64.64,0,0,1-.35.4,2.35,2.35,0,0,1-.61.16c0,.09-.07.18-.11.27a2.15,2.15,0,0,1-.14.26c-.47.91-.87,1.75-1.18,2.51s-.57,1.47-.77,2.13a13,13,0,0,0-.44,1.88,15.82,15.82,0,0,0-.17,1.81c0,.27,0,.53,0,.76s0,.45-.05.62a2.07,2.07,0,0,1-.11.42.21.21,0,0,1-.21.15h-.58a3.1,3.1,0,0,1-.61-.09c-.17,0-.34-.08-.52-.13a1.31,1.31,0,0,1-.47-.24,1.28,1.28,0,0,1-.34-.46,2.16,2.16,0,0,1-.14-.84,4.89,4.89,0,0,1,.22-1.13c.14-.53.32-1.11.53-1.74s.43-1.28.67-1.94S336.34,95.35,336.51,94.86Z"/><path d="M343.75,100.81a11.81,11.81,0,0,0-.52,1.14l-.33.86c-.11.28-.25.63-.41,1s-.4,1-.72,1.71c-.18.42-.34.81-.47,1.17s-.3.55-.52.55a.76.76,0,0,1-.48-.23,4.88,4.88,0,0,0-.58-.45c-.2-.14-.43-.28-.68-.44a.62.62,0,0,1-.38-.53,1.15,1.15,0,0,1,0-.14,2.54,2.54,0,0,1,.1-.25l.22-.44c.09-.19.21-.43.34-.74l.79-1.74,1.14-2.61q.6-1.43,1.2-2.91c.39-1,.73-1.88,1-2.66a.9.9,0,0,1-.37-.11.57.57,0,0,1-.16-.22.64.64,0,0,1-.05-.28v-.33a2.14,2.14,0,0,0-.07-.39c0-.09-.05-.17-.07-.24l-.08-.2a.72.72,0,0,1,0-.28.56.56,0,0,1,.22-.41,3.35,3.35,0,0,1,.52-.39c.2-.13.41-.24.62-.35a4.29,4.29,0,0,1,.52-.24,5.66,5.66,0,0,0,.15-.64,7,7,0,0,1,.19-.79,2.92,2.92,0,0,1,.28-.69c.1-.19.23-.29.36-.29a1.19,1.19,0,0,1,.51.15l.58.28.66.27c.19.07.28.25.28.54a2.36,2.36,0,0,1-.08.52l-.12.52a3.06,3.06,0,0,1,.9-.32,5,5,0,0,1,.72-.06,2.17,2.17,0,0,1,1.13.32,3.2,3.2,0,0,1,.93.83,4.26,4.26,0,0,1,.62,1.2,4.54,4.54,0,0,1,.23,1.42,5.39,5.39,0,0,1-.42,2,11.4,11.4,0,0,1-1.06,2,15.9,15.9,0,0,1-1.43,1.84,17.88,17.88,0,0,1-1.55,1.5,9.15,9.15,0,0,1-1.38,1,2.06,2.06,0,0,1-.95.37c-.27,0-.5-.19-.69-.58S344,101.31,343.75,100.81Zm.43-1.09a5,5,0,0,0,2.19-.93A8.24,8.24,0,0,0,348,97.17a8.58,8.58,0,0,0,1.06-1.79,4.08,4.08,0,0,0,.38-1.46,1.3,1.3,0,0,0,0-.29.85.85,0,0,0-.18-.37,1.2,1.2,0,0,0-.36-.3,1.35,1.35,0,0,0-.61-.13,3,3,0,0,0-.89.15,3.45,3.45,0,0,0-.88.44c-.24.62-.44,1.14-.59,1.55s-.28.76-.4,1-.22.53-.29.75l-.27.72c-.1.26-.21.56-.33.91Z"/><path d="M360.68,96l-2,2.35-1.84,2.15-1.46,1.7-.83,1a.42.42,0,0,1-.31.13,1,1,0,0,1-.61-.34,4.77,4.77,0,0,0-.6-.55c-.14-.08-.32-.18-.55-.29a.53.53,0,0,1-.34-.49,2.94,2.94,0,0,1,.14-.48c.09-.27.21-.6.35-1l.5-1.31c.18-.48.37-1,.55-1.43s.37-.92.54-1.36l.43-1.12c.22-.6.42-1.17.62-1.69s.36-1,.52-1.38l.36-1c.1-.24.16-.38.19-.43.19-.29.39-.4.61-.34a4.38,4.38,0,0,1,.66.24l.42.15a2.55,2.55,0,0,1,.33.11.4.4,0,0,1,.19.17.5.5,0,0,1,0,.3c-.16.54-.35,1.11-.57,1.72s-.47,1.23-.71,1.88-.49,1.29-.72,2-.44,1.3-.61,1.94l1.56-1.79c.56-.66,1.13-1.33,1.7-2s1.13-1.35,1.66-2,1-1.28,1.43-1.84a3.05,3.05,0,0,1,.54-.54.91.91,0,0,1,.53-.27.75.75,0,0,1,.47.18,4.27,4.27,0,0,0,.46.35c.19.12.37.23.54.32a.53.53,0,0,1,.25.49,1.55,1.55,0,0,1-.15.6l-.38.87c-.41.91-.76,1.75-1.07,2.5s-.56,1.46-.78,2.12a16.44,16.44,0,0,0-.51,1.9,11.14,11.14,0,0,0-.2,1.81c0,.27,0,.53,0,.76a5,5,0,0,1-.05.62,2.17,2.17,0,0,1-.1.42.22.22,0,0,1-.22.15H361a3.33,3.33,0,0,1-.61-.09,4.08,4.08,0,0,0-.53-.06,1,1,0,0,1-.47-.13.65.65,0,0,1-.26-.44,3,3,0,0,1,.05-1q0-.15.18-.78c.1-.43.22-.91.36-1.46s.31-1.11.48-1.7S360.51,96.37,360.68,96Z"/><path d="M368.81,96.48l-.35.86c-.11.24-.2.46-.28.67l-.26.63-.3.75c-.07.17-.16.45-.28.85s-.26.8-.42,1.2a7.25,7.25,0,0,1-.52,1.08c-.18.31-.37.46-.55.46a.73.73,0,0,1-.47-.25c-.18-.17-.38-.34-.62-.53a4.43,4.43,0,0,1-.47-.34.66.66,0,0,1-.26-.55,1.14,1.14,0,0,1,.07-.3c0-.15.17-.46.36-.91s.46-1.12.84-2l1.56-3.56q.56-1.26.9-2.1c.23-.55.43-1,.59-1.34a2.8,2.8,0,0,1,.46-.71.66.66,0,0,1,.46-.2,1.16,1.16,0,0,1,.46.13,3.71,3.71,0,0,1,.56.29,2.91,2.91,0,0,1,.46.35c.12.13.19.23.19.32a2,2,0,0,1-.05.37,5.36,5.36,0,0,1-.23.63l-.48,1.09q-.3.66-.81,1.71a11.41,11.41,0,0,0,2-1,12.77,12.77,0,0,0,1.47-1.13,10.85,10.85,0,0,0,1.07-1.09c.29-.35.56-.67.79-1a5.4,5.4,0,0,1,.41-.48c.18-.21.33-.31.43-.31s.16.08.29.22a3.41,3.41,0,0,1,.37.5,3.83,3.83,0,0,1,.3.61,1.6,1.6,0,0,1,.13.5,2,2,0,0,1-.45,1A8.22,8.22,0,0,1,375,94.2a12.29,12.29,0,0,1-1.63,1.27,11.12,11.12,0,0,1-1.86,1,15.15,15.15,0,0,0,.24,1.51c.11.53.24,1.05.4,1.57a13.66,13.66,0,0,0,.54,1.45,5.45,5.45,0,0,0,.62,1.14,2.81,2.81,0,0,1,.3.52c0,.08,0,.13-.13.17a1.73,1.73,0,0,1-.48.07,5.24,5.24,0,0,0-1,.24,1.06,1.06,0,0,1-.47.12c-.27,0-.54-.2-.82-.61a7.61,7.61,0,0,1-.79-1.57,15.33,15.33,0,0,1-.62-2.15,16.21,16.21,0,0,1-.33-2.38Z"/><path d="M383.49,92a3.15,3.15,0,0,1,1.78.93,3,3,0,0,1,.5,1.91,6.76,6.76,0,0,1-.58,2.61,10.72,10.72,0,0,1-1.53,2.56,9.3,9.3,0,0,1-2.15,2,4.44,4.44,0,0,1-2.42.78,2.56,2.56,0,0,1-1.42-.38,3.29,3.29,0,0,1-1-1,4.61,4.61,0,0,1-.61-1.35,5.35,5.35,0,0,1-.2-1.46,6.56,6.56,0,0,1,.3-1.88,8.56,8.56,0,0,1,.9-2,11.76,11.76,0,0,1,1.49-2A12.06,12.06,0,0,1,380.66,91c.32-.22.58-.39.8-.51l.5-.26a.86.86,0,0,1,.28-.1l.14,0a.5.5,0,0,1,.4.21,1.87,1.87,0,0,1,.32.5c.09.2.17.42.24.63A5.41,5.41,0,0,1,383.49,92Zm-.81.74A4.83,4.83,0,0,0,380.81,94a8,8,0,0,0-1.3,1.82,9.17,9.17,0,0,0-.78,2,6.89,6.89,0,0,0-.25,1.68,1.2,1.2,0,0,0,.29.94.87.87,0,0,0,.57.25,1.45,1.45,0,0,0,.82-.32,4.57,4.57,0,0,0,.88-.84,9.86,9.86,0,0,0,.83-1.19,11,11,0,0,0,.71-1.36,10.7,10.7,0,0,0,.49-1.36,4.23,4.23,0,0,0,.2-1.19,2.41,2.41,0,0,0-.16-1A2.12,2.12,0,0,0,382.68,92.71Z"/><path d="M389.34,100.81a11.81,11.81,0,0,0-.52,1.14l-.33.86-.4,1q-.24.61-.72,1.71a12.42,12.42,0,0,0-.47,1.17c-.13.37-.3.55-.52.55a.76.76,0,0,1-.48-.23,5,5,0,0,0-.59-.45c-.2-.14-.42-.28-.68-.44a.63.63,0,0,1-.38-.53.5.5,0,0,1,0-.14,2.54,2.54,0,0,1,.1-.25l.21-.44c.1-.19.21-.43.35-.74s.43-.95.78-1.74.74-1.67,1.14-2.61.81-1.92,1.2-2.91.73-1.88,1-2.66a.8.8,0,0,1-.36-.11.51.51,0,0,1-.17-.22.82.82,0,0,1,0-.28v-.33q0-.25-.06-.39c0-.09-.05-.17-.08-.24s0-.14-.07-.2a.72.72,0,0,1,0-.28.59.59,0,0,1,.21-.41,4.69,4.69,0,0,1,.52-.39c.2-.13.41-.24.62-.35a5.14,5.14,0,0,1,.52-.24,5.66,5.66,0,0,0,.15-.64c.05-.27.12-.53.19-.79a3.42,3.42,0,0,1,.28-.69c.11-.19.23-.29.37-.29a1.19,1.19,0,0,1,.5.15c.21.1.4.2.59.28l.65.27c.19.07.28.25.28.54a2.26,2.26,0,0,1-.07.52c-.05.21-.1.38-.13.52a3.06,3.06,0,0,1,.9-.32,5.21,5.21,0,0,1,.72-.06,2.18,2.18,0,0,1,1.14.32,3.29,3.29,0,0,1,.92.83,4.28,4.28,0,0,1,.63,1.2,4.53,4.53,0,0,1,.22,1.42,5.39,5.39,0,0,1-.42,2A10.77,10.77,0,0,1,396,98a15.9,15.9,0,0,1-1.43,1.84,17.83,17.83,0,0,1-1.54,1.5,10.29,10.29,0,0,1-1.38,1,2.1,2.1,0,0,1-.95.37c-.27,0-.51-.19-.7-.58S389.56,101.31,389.34,100.81Zm.43-1.09a5,5,0,0,0,2.19-.93,8.39,8.39,0,0,0,2.72-3.41,3.87,3.87,0,0,0,.38-1.46,1.3,1.3,0,0,0,0-.29.83.83,0,0,0-.17-.37,1.39,1.39,0,0,0-.37-.3,1.29,1.29,0,0,0-.61-.13A3,3,0,0,0,393,93a3.52,3.52,0,0,0-.89.44c-.24.62-.43,1.14-.58,1.55s-.29.76-.41,1-.21.53-.29.75-.16.46-.26.72-.22.56-.33.91Z"/><path d="M409.75,95.21a25.43,25.43,0,0,0-2.19,3c-.57.92-1,1.72-1.42,2.38s-.69,1.19-.94,1.57-.48.57-.72.57l-.33-.06a3,3,0,0,1-.52-.19,1.78,1.78,0,0,1-.48-.36.81.81,0,0,1-.21-.58,5.41,5.41,0,0,1,.11-1c.08-.35.17-.76.27-1.24s.19-1,.27-1.68a21.06,21.06,0,0,0,.16-2.37c-.09.17-.27.48-.56.94l-1,1.58c-.39.6-.8,1.23-1.24,1.88s-.88,1.24-1.31,1.77a15.4,15.4,0,0,1-1.19,1.33c-.36.35-.64.53-.85.53a.73.73,0,0,1-.35-.15c-.15-.11-.31-.23-.47-.37a3,3,0,0,1-.42-.46.79.79,0,0,1-.17-.41,2,2,0,0,1,.06-.3,3.43,3.43,0,0,1,.49-.84c.43-.63.82-1.18,1.19-1.66L399,97.67l1.08-1.31q.54-.64,1.14-1.44c.39-.53.81-1.13,1.25-1.81s.93-1.48,1.47-2.4a4.94,4.94,0,0,1,.27-.42.42.42,0,0,1,.36-.22,1.81,1.81,0,0,1,.61.14,3,3,0,0,1,.67.39,2.63,2.63,0,0,1,.54.61,1.33,1.33,0,0,1,.23.76c0,.09,0,.2,0,.34s0,.38-.08.69-.09.74-.15,1.28-.14,1.24-.24,2.1c.91-1.47,1.66-2.62,2.23-3.46s1-1.46,1.38-1.88a4.22,4.22,0,0,1,.77-.8.85.85,0,0,1,.43-.17.69.69,0,0,1,.5.23,4.82,4.82,0,0,0,.59.51l.49.35a.69.69,0,0,1,.22.61c0,.1,0,.23,0,.38s0,.35-.07.61-.08.58-.14,1-.13.89-.21,1.48c-.15,1.05-.27,1.89-.34,2.52s-.14,1.19-.18,1.67-.08.95-.11,1.41-.1,1-.18,1.74a2.84,2.84,0,0,1-.1.45c-.05.16-.2.24-.43.24a1,1,0,0,1-.31,0l-.28-.13-.37-.16a5,5,0,0,0-.61-.19,2.3,2.3,0,0,1-.5-.18c-.16-.08-.24-.27-.24-.56a20.13,20.13,0,0,1,.24-2.11c.16-1.11.49-2.66,1-4.65Z"/><path d="M419.16,101a5.26,5.26,0,0,1-1.39,1.2,2.91,2.91,0,0,1-1.54.52,1.92,1.92,0,0,1-1-.26,2.49,2.49,0,0,1-.79-.73,3.68,3.68,0,0,1-.52-1.07,4.86,4.86,0,0,1-.19-1.36,8,8,0,0,1,.22-1.65,7.34,7.34,0,0,1,.91-2.23,11.45,11.45,0,0,1,2-2.5,15.79,15.79,0,0,1,3.62-2.48l.45-.19a1,1,0,0,1,.45,0,1.36,1.36,0,0,1,.54.27,8.43,8.43,0,0,1,.76.62,4.77,4.77,0,0,1,.49-1,.85.85,0,0,1,.73-.46,1,1,0,0,1,.44.15c.17.11.35.23.53.37a2.48,2.48,0,0,1,.45.47.77.77,0,0,1,.19.46,1.76,1.76,0,0,1-.31.91,15.7,15.7,0,0,0-.82,1.57c-.12.25-.3.66-.55,1.22s-.48,1.22-.72,2a23.39,23.39,0,0,0-.63,2.41,12.31,12.31,0,0,0-.28,2.63v.48a1.86,1.86,0,0,1-.06.48,1,1,0,0,1-.19.36.45.45,0,0,1-.36.14h-.62a2.51,2.51,0,0,1-.92-.21,1.71,1.71,0,0,1-.75-.66,1.76,1.76,0,0,1-.06-1.37ZM422,93a6.32,6.32,0,0,0-2.06,1,9,9,0,0,0-1.68,1.51,7.6,7.6,0,0,0-1.15,1.74,3.94,3.94,0,0,0-.43,1.67,1.21,1.21,0,0,0,.23.8.62.62,0,0,0,.45.29,1.57,1.57,0,0,0,.65-.2,3.57,3.57,0,0,0,.87-.71,8.1,8.1,0,0,0,1-1.4,13.7,13.7,0,0,0,1-2.3c.15-.42.31-.81.47-1.16S421.74,93.4,422,93Z"/><path d="M435.67,103.92c.14-.45.27-.89.39-1.31a6.15,6.15,0,0,1,.4-1h-.18a3,3,0,0,1-1.12.87,2.93,2.93,0,0,1-1.21.29,1.79,1.79,0,0,1-1-.31,2.92,2.92,0,0,1-.77-.83,3.91,3.91,0,0,1-.48-1.14,5.07,5.07,0,0,1-.17-1.29,4.86,4.86,0,0,1,.28-1.52,10.34,10.34,0,0,1,.75-1.64,12.6,12.6,0,0,1,1.09-1.64,15.21,15.21,0,0,1,1.28-1.45A9.76,9.76,0,0,1,438,90.74a6.37,6.37,0,0,1,1.22-.4,4.17,4.17,0,0,1,.87-.11,1,1,0,0,1,.91.37,3.58,3.58,0,0,1,.31,1.19.43.43,0,0,1,.25-.05.69.69,0,0,1,.22.12,2.65,2.65,0,0,1,.25.24,1.65,1.65,0,0,0,.39.3,1.38,1.38,0,0,1,.36.32c.1.13.07.35-.08.67l-1,2.09c-.37.77-.75,1.59-1.13,2.47s-.75,1.81-1.11,2.79-.68,2-.95,3.06a6.94,6.94,0,0,1-1,2,6.14,6.14,0,0,1-1.31,1.41,5,5,0,0,1-1.55.81,5.39,5.39,0,0,1-1.61.25,2.5,2.5,0,0,1-.9-.21,5.05,5.05,0,0,1-1-.56,4,4,0,0,1-.79-.73,1.27,1.27,0,0,1-.32-.75,1,1,0,0,1,.23-.62l.43-.52a3.17,3.17,0,0,1,.5-.52.45.45,0,0,1,.34-.11.5.5,0,0,1,.29.16l.34.37a5.53,5.53,0,0,0,.55.47,1,1,0,0,0,.59.19,4.72,4.72,0,0,0,.57,0,2.46,2.46,0,0,0,.68-.22,2.34,2.34,0,0,0,.64-.47A2,2,0,0,0,435.67,103.92ZM440,93.06a5.59,5.59,0,0,0-1.77.6,5.77,5.77,0,0,0-1.33,1,7.58,7.58,0,0,0-1,1.2c-.29.43-.56.86-.81,1.28a12.73,12.73,0,0,0-.67,1.31,2.05,2.05,0,0,0-.22.84.93.93,0,0,0,.19.66.64.64,0,0,0,.44.18,2.86,2.86,0,0,0,.57-.09,2.47,2.47,0,0,0,.94-.53,7.6,7.6,0,0,0,1.2-1.34,12.7,12.7,0,0,0,1.35-2.55c.2-.49.39-.94.58-1.35S439.83,93.43,440,93.06Z"/><path d="M450.71,92a3.15,3.15,0,0,1,1.77.93,3,3,0,0,1,.51,1.91,6.79,6.79,0,0,1-.59,2.61,10.11,10.11,0,0,1-1.53,2.56,9.3,9.3,0,0,1-2.15,2,4.41,4.41,0,0,1-2.42.78,2.52,2.52,0,0,1-1.41-.38,3.21,3.21,0,0,1-1-1,4.61,4.61,0,0,1-.61-1.35,5.76,5.76,0,0,1-.2-1.46,6.26,6.26,0,0,1,.31-1.88,9,9,0,0,1,.89-2,11.84,11.84,0,0,1,1.5-2A12,12,0,0,1,447.87,91c.32-.22.59-.39.8-.51l.51-.26a.73.73,0,0,1,.28-.1l.13,0a.52.52,0,0,1,.41.21,1.86,1.86,0,0,1,.31.5,4.86,4.86,0,0,1,.25.63Zm-.81.74A4.87,4.87,0,0,0,448,94a8.28,8.28,0,0,0-1.3,1.82,9.66,9.66,0,0,0-.77,2,6.89,6.89,0,0,0-.25,1.68,1.16,1.16,0,0,0,.29.94.85.85,0,0,0,.57.25,1.47,1.47,0,0,0,.82-.32,4.53,4.53,0,0,0,.87-.84,8.87,8.87,0,0,0,.84-1.19,11,11,0,0,0,1.2-2.72,4.19,4.19,0,0,0,.19-1.19,2.61,2.61,0,0,0-.15-1A2.3,2.3,0,0,0,449.9,92.71Z"/><path d="M467.54,92a3.08,3.08,0,0,1,1.77.93,3,3,0,0,1,.51,1.91,6.76,6.76,0,0,1-.58,2.61,10.72,10.72,0,0,1-1.53,2.56,9.51,9.51,0,0,1-2.15,2,4.44,4.44,0,0,1-2.42.78,2.58,2.58,0,0,1-1.42-.38,3.18,3.18,0,0,1-1-1,4.37,4.37,0,0,1-.61-1.35,5.76,5.76,0,0,1-.2-1.46,6.56,6.56,0,0,1,.3-1.88,8.56,8.56,0,0,1,.9-2,11.76,11.76,0,0,1,1.49-2A12.06,12.06,0,0,1,464.71,91c.32-.22.58-.39.79-.51l.51-.26a.86.86,0,0,1,.28-.1l.14,0a.5.5,0,0,1,.4.21,1.87,1.87,0,0,1,.32.5c.09.2.17.42.24.63A5.41,5.41,0,0,1,467.54,92Zm-.81.74A4.83,4.83,0,0,0,464.86,94a8,8,0,0,0-1.3,1.82,9.17,9.17,0,0,0-.78,2,6.89,6.89,0,0,0-.25,1.68,1.2,1.2,0,0,0,.29.94.89.89,0,0,0,.57.25,1.45,1.45,0,0,0,.82-.32,4.57,4.57,0,0,0,.88-.84,9.86,9.86,0,0,0,.83-1.19,11,11,0,0,0,.71-1.36,12.65,12.65,0,0,0,.5-1.36,4.53,4.53,0,0,0,.18-1.19,2.61,2.61,0,0,0-.15-1A2.12,2.12,0,0,0,466.73,92.71Z"/><path d="M475.82,90.88a6.71,6.71,0,0,1-1-1.28,2.41,2.41,0,0,1-.35-1.17,3.5,3.5,0,0,1,.35-1.5,3.75,3.75,0,0,1,1.07-1.3,5.51,5.51,0,0,1,1.76-.91,7.82,7.82,0,0,1,2.44-.34,4.73,4.73,0,0,1,1.44.2,4.28,4.28,0,0,1,1.14.52,2.52,2.52,0,0,1,.74.71,1.49,1.49,0,0,1,.25.77,1.18,1.18,0,0,1-.19.66,2.29,2.29,0,0,1-.46.52,2.64,2.64,0,0,1-.55.34,1.42,1.42,0,0,1-.52.12.34.34,0,0,1-.33-.22c-.07-.15-.15-.32-.25-.51A2.42,2.42,0,0,0,481,87a1.11,1.11,0,0,0-.76-.22,5.27,5.27,0,0,0-2.62.5,1.42,1.42,0,0,0-.82,1.17,1.09,1.09,0,0,0,.23.64,4.17,4.17,0,0,0,.54.67c.21.22.42.43.63.61s.39.33.52.43a10.09,10.09,0,0,1,1.09,1.1,4.88,4.88,0,0,1,.62.94,3.49,3.49,0,0,1,.29.86,4.94,4.94,0,0,1,.08.87,7.51,7.51,0,0,1-.58,2.76,10.44,10.44,0,0,1-1.54,2.65,9.18,9.18,0,0,1-2.15,2,4.39,4.39,0,0,1-2.42.78,2.52,2.52,0,0,1-1.41-.38,3.21,3.21,0,0,1-1-1A4.35,4.35,0,0,1,471,100a5.37,5.37,0,0,1-.21-1.46,6.07,6.07,0,0,1,.33-1.89,8.67,8.67,0,0,1,1-2,12.84,12.84,0,0,1,1.55-2A12.61,12.61,0,0,1,475.82,90.88Zm1.85,1.83A4.9,4.9,0,0,0,475.78,94a8.33,8.33,0,0,0-1.31,1.82,9.12,9.12,0,0,0-.77,2,7,7,0,0,0-.26,1.68,1.2,1.2,0,0,0,.29.94.9.9,0,0,0,.58.25,1.45,1.45,0,0,0,.82-.32,4.57,4.57,0,0,0,.88-.84,8.87,8.87,0,0,0,.84-1.19,11,11,0,0,0,.71-1.36,10.81,10.81,0,0,0,.5-1.36,4.19,4.19,0,0,0,.19-1.19,2.61,2.61,0,0,0-.15-1A2.3,2.3,0,0,0,477.67,92.71Z"/><path d="M487,98.66c.07-.32.17-.76.32-1.32s.31-1.15.49-1.79.39-1.27.61-1.92.44-1.24.66-1.77a8.58,8.58,0,0,1,.64-1.29c.21-.33.41-.5.6-.5a.92.92,0,0,1,.58.28,4.86,4.86,0,0,0,.51.43,5.67,5.67,0,0,0,.44.36.6.6,0,0,1,.24.53,1.45,1.45,0,0,1-.14.52c-.09.21-.26.57-.49,1.07s-.37.84-.58,1.41-.43,1.14-.63,1.72-.36,1.11-.49,1.59a4.91,4.91,0,0,0-.2,1q0,.69.33.69a1.27,1.27,0,0,0,.55-.2,7.92,7.92,0,0,0,.71-.47c.24-.18.46-.35.66-.52l.41-.36c.52-1.58,1-2.89,1.34-3.93s.69-1.86,1-2.47a7.58,7.58,0,0,1,.68-1.28c.19-.24.36-.37.51-.37a.88.88,0,0,1,.44.21,2.92,2.92,0,0,1,.57.5,3.89,3.89,0,0,1,.48.63,1.14,1.14,0,0,1,.21.59.85.85,0,0,1-.05.26l-.16.4c-.06.16-.16.38-.27.65s-.27.61-.44,1c-.5,1.21-.89,2.18-1.15,2.9s-.45,1.26-.58,1.64a4,4,0,0,0-.21.77,2.42,2.42,0,0,0,0,.28q0,.33.15.42a.8.8,0,0,0,.41.09,3,3,0,0,0,.58-.05,1.75,1.75,0,0,1,.46,0,.54.54,0,0,1,.45.17.89.89,0,0,1,.14.46,2,2,0,0,1-.08.62c-.06.23-.12.44-.19.65l-1,2.91c-.07.18-.15.38-.23.6a2.12,2.12,0,0,1-.38.62,2.25,2.25,0,0,1-.63.5,2.21,2.21,0,0,1-1,.2,1,1,0,0,1-.67-.19.53.53,0,0,1-.24-.39,1,1,0,0,1,.12-.43l.35-.67c.14-.28.3-.64.48-1.07s.36-1,.57-1.63c-.39,0-.66.06-.8.06l-.32,0a1.23,1.23,0,0,1-.52-.1.78.78,0,0,1-.29-.28.85.85,0,0,1-.12-.37,2.56,2.56,0,0,1,0-.39v-.33a2,2,0,0,1,0-.33h-.13c-.15.13-.36.3-.62.49s-.55.39-.85.59a8.09,8.09,0,0,1-.91.49,2.12,2.12,0,0,1-.79.2,1,1,0,0,1-.64-.23,2.05,2.05,0,0,1-.49-.53,4.16,4.16,0,0,1-.35-.61c-.09-.2-.15-.35-.19-.45a12.19,12.19,0,0,1-1.89,1.43,2.65,2.65,0,0,1-1.17.39,1.27,1.27,0,0,1-.73-.24,2.33,2.33,0,0,1-.64-.68,4.13,4.13,0,0,1-.45-1,4.4,4.4,0,0,1-.18-1.28A6.66,6.66,0,0,1,482,98.3c.11-.56.27-1.18.47-1.88s.41-1.43.65-2.17.5-1.43.75-2a9.5,9.5,0,0,1,.75-1.53c.24-.4.46-.6.64-.6a.64.64,0,0,1,.32.12c.13.07.36.23.7.47a3.68,3.68,0,0,1,.49.38.72.72,0,0,1,.29.55,1.31,1.31,0,0,1-.06.26c-.05.13-.18.47-.42,1l-.94,2.23q-.4,1-.69,1.68a9.74,9.74,0,0,0-.43,1.23,3.12,3.12,0,0,0-.14.88.83.83,0,0,0,.17.57.48.48,0,0,0,.33.19,1.53,1.53,0,0,0,.5-.12c.21-.09.42-.18.64-.29l.62-.33Z"/><path d="M501.39,97c-.08.22-.2.53-.34.92a3.17,3.17,0,0,0-.22,1.11,2.85,2.85,0,0,0,0,.3,1.47,1.47,0,0,0,.14.47,1,1,0,0,0,.37.42,1.25,1.25,0,0,0,.7.17,5.57,5.57,0,0,0,1.28-.17,11,11,0,0,0,1.21-.38,8.24,8.24,0,0,0,1.07-.52.76.76,0,0,1,.37-.17.15.15,0,0,1,.16.12.5.5,0,0,1,0,.19,7.33,7.33,0,0,1-.05.92,1.58,1.58,0,0,1-.16.54,1,1,0,0,1-.28.33,3.86,3.86,0,0,1-.4.28l-.61.36a9.23,9.23,0,0,1-.87.39,7.4,7.4,0,0,1-1.09.32,6.53,6.53,0,0,1-1.3.12,3.15,3.15,0,0,1-2.39-.92,3.39,3.39,0,0,1-.87-2.42,7.32,7.32,0,0,1,.35-2.24,11.26,11.26,0,0,1,1-2.17,11.93,11.93,0,0,1,1.37-1.92,12.94,12.94,0,0,1,1.59-1.56,8.41,8.41,0,0,1,1.65-1,3.68,3.68,0,0,1,1.5-.38,2.58,2.58,0,0,1,1.05.23,3.27,3.27,0,0,1,.94.62,3,3,0,0,1,.67,1,2.82,2.82,0,0,1,.25,1.19,3.63,3.63,0,0,1-.59,2A8.61,8.61,0,0,1,504.8,98a3.31,3.31,0,0,1-1.43.47,1.76,1.76,0,0,1-1.06-.39A4.2,4.2,0,0,1,501.39,97Zm.48-1.06a4.06,4.06,0,0,0,1.62-.28,4.81,4.81,0,0,0,1.27-.76,3.94,3.94,0,0,0,.83-1,1.76,1.76,0,0,0,.31-.89.68.68,0,0,0-.22-.6.74.74,0,0,0-.39-.14,1.69,1.69,0,0,0-.85.29,5.11,5.11,0,0,0-.95.8,8.29,8.29,0,0,0-.9,1.16A8.81,8.81,0,0,0,501.87,96Z"/><path d="M515.42,92.38a3.78,3.78,0,0,0-.7.05,2.79,2.79,0,0,0-.67.2c0,.24-.16.65-.33,1.25s-.36,1.29-.57,2.05-.44,1.57-.69,2.41-.5,1.59-.73,2.28-.43,1.25-.62,1.69-.32.67-.4.67a1,1,0,0,1-.56-.18,4.25,4.25,0,0,0-.58-.35,2.19,2.19,0,0,0-.41-.16,2.26,2.26,0,0,1-.43-.17,1.42,1.42,0,0,1-.34-.22.45.45,0,0,1-.14-.33,3.36,3.36,0,0,1,.37-1.23l.86-2c.33-.76.67-1.61,1-2.53a20.16,20.16,0,0,0,.86-3,.33.33,0,0,1-.37-.11,1,1,0,0,1-.2-.42,3,3,0,0,1-.09-.54c0-.2,0-.36,0-.5a.7.7,0,0,1,.12-.35,1,1,0,0,1,.54-.39,5.44,5.44,0,0,1,1.29-.32,17.79,17.79,0,0,1,2.36-.13h2.58a1.87,1.87,0,0,1,.72.11.74.74,0,0,1,.35.25.61.61,0,0,1,.14.34,2.44,2.44,0,0,0,.08.34,1.81,1.81,0,0,0,.18.46.85.85,0,0,1,.1.43.36.36,0,0,1-.24.31,1.31,1.31,0,0,1-.5.09l-.59,0a3.84,3.84,0,0,0-.55,0Z"/><path d="M525.54,92a3.08,3.08,0,0,1,1.77.93,3,3,0,0,1,.51,1.91,6.76,6.76,0,0,1-.58,2.61,10.72,10.72,0,0,1-1.53,2.56,9.51,9.51,0,0,1-2.15,2,4.44,4.44,0,0,1-2.42.78,2.58,2.58,0,0,1-1.42-.38,3.18,3.18,0,0,1-1-1,4.37,4.37,0,0,1-.61-1.35,5.76,5.76,0,0,1-.2-1.46,6.56,6.56,0,0,1,.3-1.88,8.56,8.56,0,0,1,.9-2,11.76,11.76,0,0,1,1.49-2A12.06,12.06,0,0,1,522.71,91c.32-.22.58-.39.79-.51l.51-.26a.86.86,0,0,1,.28-.1l.14,0a.5.5,0,0,1,.4.21,1.87,1.87,0,0,1,.32.5c.09.2.17.42.24.63A5.41,5.41,0,0,1,525.54,92Zm-.81.74A4.83,4.83,0,0,0,522.86,94a8,8,0,0,0-1.3,1.82,9.17,9.17,0,0,0-.78,2,6.89,6.89,0,0,0-.25,1.68,1.2,1.2,0,0,0,.29.94.89.89,0,0,0,.57.25,1.45,1.45,0,0,0,.82-.32,4.57,4.57,0,0,0,.88-.84,9.86,9.86,0,0,0,.83-1.19,11,11,0,0,0,.71-1.36,12.65,12.65,0,0,0,.5-1.36,4.53,4.53,0,0,0,.18-1.19,2.61,2.61,0,0,0-.15-1A2.12,2.12,0,0,0,524.73,92.71Z"/><path d="M537.57,98.83a1.44,1.44,0,0,0,.33,1,1.11,1.11,0,0,0,.88.37,3.38,3.38,0,0,0,1-.15,4.06,4.06,0,0,0,.9-.38,5.49,5.49,0,0,0,.92-.57.82.82,0,0,1,.49-.21c.19,0,.3.08.32.25a2.31,2.31,0,0,1,0,.38,5.36,5.36,0,0,1,0,.7,1.67,1.67,0,0,1-.29.68,2.75,2.75,0,0,1-.74.68,7.27,7.27,0,0,1-1.38.7,6.85,6.85,0,0,1-1.14.38,3.47,3.47,0,0,1-.78.1,3.33,3.33,0,0,1-1.08-.19,3,3,0,0,1-1.07-.63,3.35,3.35,0,0,1-.84-1.19,4.62,4.62,0,0,1-.33-1.86A6.38,6.38,0,0,1,535,97a10.31,10.31,0,0,1,.82-2,11.74,11.74,0,0,1,1.23-1.86,10.28,10.28,0,0,1,1.53-1.56,8,8,0,0,1,1.72-1.07,4.32,4.32,0,0,1,1.79-.41,2.67,2.67,0,0,1,1.22.24,2,2,0,0,1,.72.6,2.07,2.07,0,0,1,.35.77,3.55,3.55,0,0,1,.08.75,1.87,1.87,0,0,1-.2.9,2.28,2.28,0,0,1-.52.67,2.54,2.54,0,0,1-.67.43,1.65,1.65,0,0,1-.66.15.6.6,0,0,1-.53-.23,1,1,0,0,1-.15-.56,2,2,0,0,1,0-.36c0-.11,0-.23,0-.37s-.06-.44-.18-.51a.7.7,0,0,0-.25-.1c-.18,0-.49.2-.9.59a10.22,10.22,0,0,0-1.28,1.5,11.41,11.41,0,0,0-1.15,2.07A5.51,5.51,0,0,0,537.57,98.83Z"/><path d="M551.7,92.6c-.24,1.19-.52,2.41-.85,3.66s-.67,2.4-1,3.43a20.19,20.19,0,0,1-1,2.55c-.33.66-.61,1-.85,1a.82.82,0,0,1-.49-.18c-.16-.12-.36-.24-.59-.38l-.44-.28a.48.48,0,0,1-.22-.43,1.47,1.47,0,0,1,.07-.38c.05-.17.14-.41.26-.72s.26-.71.45-1.19.41-1.07.68-1.78.42-1.12.59-1.69.31-1.09.43-1.59.2-.93.26-1.28a5.44,5.44,0,0,0,.09-.71l-1.24,0c-.39,0-.75,0-1.09,0H546a1.11,1.11,0,0,1-.3-.08.55.55,0,0,1-.25-.2.52.52,0,0,1-.08-.39,2.16,2.16,0,0,1,.32-1.23,1.38,1.38,0,0,1,.72-.52,2.77,2.77,0,0,1,.92-.1c.33,0,.65,0,.95,0l3.15,0,3.11.06a4.19,4.19,0,0,1,.5,0,1.7,1.7,0,0,1,.47.1.78.78,0,0,1,.33.21A.6.6,0,0,1,556,91a1.16,1.16,0,0,1-.11.38c-.06.14-.14.33-.24.59a2.65,2.65,0,0,1-.13.31.35.35,0,0,1-.16.18,1,1,0,0,1-.32.09,4.55,4.55,0,0,1-.58,0Z"/><path d="M563.11,92a3.15,3.15,0,0,1,1.78.93,3,3,0,0,1,.5,1.91,6.76,6.76,0,0,1-.58,2.61,10.72,10.72,0,0,1-1.53,2.56,9.51,9.51,0,0,1-2.15,2,4.44,4.44,0,0,1-2.42.78,2.56,2.56,0,0,1-1.42-.38,3.29,3.29,0,0,1-1-1,4.61,4.61,0,0,1-.61-1.35,5.35,5.35,0,0,1-.2-1.46,6.56,6.56,0,0,1,.3-1.88,8.56,8.56,0,0,1,.9-2,11.24,11.24,0,0,1,1.49-2A12.06,12.06,0,0,1,560.28,91c.32-.22.58-.39.79-.51l.51-.26a.86.86,0,0,1,.28-.1l.14,0a.5.5,0,0,1,.4.21,1.87,1.87,0,0,1,.32.5c.09.2.17.42.24.63A5.41,5.41,0,0,1,563.11,92Zm-.81.74A4.83,4.83,0,0,0,560.43,94a7.67,7.67,0,0,0-1.3,1.82,9.17,9.17,0,0,0-.78,2,6.89,6.89,0,0,0-.25,1.68,1.2,1.2,0,0,0,.29.94.85.85,0,0,0,.57.25,1.45,1.45,0,0,0,.82-.32,4.57,4.57,0,0,0,.88-.84,9.86,9.86,0,0,0,.83-1.19,11,11,0,0,0,.71-1.36,10.7,10.7,0,0,0,.49-1.36,4.23,4.23,0,0,0,.2-1.19,2.6,2.6,0,0,0-.16-1A2.12,2.12,0,0,0,562.3,92.71Z"/><path d="M572.1,94.23c-.17.33-.41.79-.73,1.36s-.69,1.2-1.09,1.86-.83,1.34-1.28,2-.88,1.3-1.29,1.86a15.93,15.93,0,0,1-1.13,1.37c-.34.35-.61.53-.81.53a.52.52,0,0,1-.44-.28c-.13-.19-.24-.35-.35-.48a3.79,3.79,0,0,0-.36-.38.64.64,0,0,1-.24-.46.74.74,0,0,1,.18-.41c.11-.16.35-.46.7-.88s.65-.78,1-1.28.77-1,1.19-1.58.83-1.13,1.25-1.72.83-1.16,1.2-1.71.73-1,1-1.52.56-.85.76-1.18a9.8,9.8,0,0,1,.61-.89.85.85,0,0,1,.68-.4,1.79,1.79,0,0,1,.56.14c.23.1.47.2.69.32a5.76,5.76,0,0,1,.59.35c.16.12.24.21.24.28a3.23,3.23,0,0,1-.12.77c-.07.32-.16.84-.26,1.59s-.2,1.78-.28,3.11-.14,3.11-.15,5.34c0,.1,0,.21,0,.33a.88.88,0,0,1-.07.33.59.59,0,0,1-.22.25.74.74,0,0,1-.43.1,1,1,0,0,1-.6-.2c-.21-.13-.43-.26-.66-.38l-.46-.21a1.17,1.17,0,0,1-.34-.22.87.87,0,0,1-.22-.31,1.6,1.6,0,0,1-.07-.55,5.65,5.65,0,0,1,.07-.83c0-.34.13-.78.22-1.31s.21-1.18.34-2,.28-1.68.43-2.74Z"/><path d="M581.49,101a5.26,5.26,0,0,1-1.39,1.2,2.94,2.94,0,0,1-1.54.52,2,2,0,0,1-1-.26,2.57,2.57,0,0,1-.78-.73,3.68,3.68,0,0,1-.52-1.07,4.52,4.52,0,0,1-.19-1.36,8.58,8.58,0,0,1,.21-1.65,7.65,7.65,0,0,1,.92-2.23,11.67,11.67,0,0,1,2-2.5,16.1,16.1,0,0,1,3.63-2.48c.16-.08.32-.14.45-.19a.93.93,0,0,1,.44,0,1.39,1.39,0,0,1,.55.27c.2.14.45.35.76.62a4.77,4.77,0,0,1,.49-1,.83.83,0,0,1,.72-.46.92.92,0,0,1,.44.15,5.77,5.77,0,0,1,.54.37,2.83,2.83,0,0,1,.45.47.77.77,0,0,1,.19.46,1.76,1.76,0,0,1-.31.91,15.33,15.33,0,0,0-.83,1.57c-.12.25-.3.66-.54,1.22a18.15,18.15,0,0,0-.72,2,23.39,23.39,0,0,0-.63,2.41,12.31,12.31,0,0,0-.28,2.63v.48a1.85,1.85,0,0,1-.07.48.78.78,0,0,1-.19.36.42.42,0,0,1-.35.14h-.62a2.56,2.56,0,0,1-.93-.21,1.54,1.54,0,0,1-.81-2ZM584.3,93a6.36,6.36,0,0,0-2,1,9,9,0,0,0-1.68,1.51,7.29,7.29,0,0,0-1.15,1.74,4,4,0,0,0-.44,1.67,1.27,1.27,0,0,0,.23.8.65.65,0,0,0,.46.29,1.53,1.53,0,0,0,.64-.2,3.41,3.41,0,0,0,.88-.71,8.1,8.1,0,0,0,1-1.4,13.7,13.7,0,0,0,1-2.3c.15-.42.31-.81.47-1.16S584.06,93.4,584.3,93Z"/><path d="M547.62,67.53a.27.27,0,0,0,.1-.13C547.63,67.46,547.6,67.5,547.62,67.53Z"/><path d="M502.77,67l.52-.07A1.32,1.32,0,0,0,502.77,67Z"/><path d="M574.48,67.68l-.06,0h1.89Z"/><path d="M407.11,66.94h.6A5.34,5.34,0,0,0,407.11,66.94Z"/><path d="M463.8,67a4.4,4.4,0,0,1-.76.09A1.42,1.42,0,0,0,463.8,67Z"/><path d="M588.7,70.4l-.77-.19C587.94,70.29,588.22,70.38,588.7,70.4Z"/><path d="M615.94,69.42a.14.14,0,0,0-.07,0S615.87,69.4,615.94,69.42Z"/><path d="M605.29,68.73l-.76.09C604.85,68.81,605.26,68.81,605.29,68.73Z"/><path d="M604.16,68.87l.37-.05C604.32,68.83,604.16,68.84,604.16,68.87Z"/><path d="M60.27,88a12.4,12.4,0,0,0-2.12.52Z"/><path d="M320.49,68.24l.17-.08C320.5,68.19,320.47,68.21,320.49,68.24Z"/><path d="M59.5,89.78l-.55,0A3.25,3.25,0,0,0,59.5,89.78Z"/><path d="M574.27,71c-.79.19-2.41,0-2.39.16A7.28,7.28,0,0,0,574.27,71Z"/><path d="M302.36,75.72l-.52,0Z"/><path d="M59.5,89.78l.64,0a.93.93,0,0,0-.2-.07A3.15,3.15,0,0,1,59.5,89.78Z"/><path d="M230.26,71.55h0l.18,0Z"/><path d="M225.46,71.52l1-.12A3.57,3.57,0,0,0,225.46,71.52Z"/><path d="M58.15,88.53l-1.2.3C57.38,88.75,57.77,88.64,58.15,88.53Z"/><path d="M174,75.34l.47-.06Z"/><path d="M467.44,67.11l.42,0C467.9,67.1,467.87,67.07,467.44,67.11Z"/><polygon points="431.87 72.36 431.85 72.36 431.85 72.36 431.87 72.36"/><path d="M433.76,72.11a6.19,6.19,0,0,0-1.89.24A7.08,7.08,0,0,0,433.76,72.11Z"/><path d="M427.78,72.31l.22,0Z"/><path d="M466.05,72.36a0,0,0,0,0,0,0l0,0Z"/><path d="M458.48,72.45a4.67,4.67,0,0,0-.53-.08A2.12,2.12,0,0,0,458.48,72.45Z"/><path d="M408.92,73.06a0,0,0,0,0,0,0h0Z"/><path d="M337.53,75.53c7.16-.25,16.44-.78,23.55-.79a34.39,34.39,0,0,1,6.06-.58l.25.51,1.88-.2c.77.15-1.45.12-.09.29l.71-.32c.15.18,4.86,0,1.69.46l7.34-.11c1.63,0,.95-.44,2.74-.34.37.15-.64.11-.49.3,5.39.3,6.21-1.08,11.23-.92l-.42.07c.85-.14,2.48-.15,2.5-.22-.65-.51-.9.29-2.44,0,.13-.44,1.91-.26,1.81-.59a14.94,14.94,0,0,0,2.89-.15c1.75.25,4.26,0,5.58.34a16.56,16.56,0,0,1,3.64-.62c1.33.32-.3.32,1.49.43l.29-.26c1.47,0,1.24.09,1.19.21,1.57,0,1.3-.36,3.28-.22l-1.1.26c1.46-.12,2.06-.08,4.09-.08,0,.14-.86.14-1.46.11,1.11.36,1.89-.19,2.49-.15-.17-.11-1.58-.14-.9-.4,1,0,2.15-.37,2.87-.08l-1.1.26a13.51,13.51,0,0,1,3.54-.26c-.13,0-.06.08-.12.13,1.53-.34,3.53-.07,5.79-.07l-.43.07c.91-.09,1.41-.32,1.9-.31-1.29-.13-.94-.21-1.06-.45,1.71.39,2.6-.51,5.38-.3a1.82,1.82,0,0,1-1.48.18,6.07,6.07,0,0,1-2.75,1c1.05-.11,2.29-.18,2,0l.33-.4c.64,0,1.14,0,1.62,0,.27-.25-1.29-.39.19-.57,1.66-.15.89.4,1.14.22,2.3-.18.95-.44,3.16-.32a4.14,4.14,0,0,1-.84.07c1.58.15,3.89-.1,4.36.37a1.18,1.18,0,0,1-.88.22l0-.08c-1.74.36,1.45-.1.91.33-.13-.25,2.1-.21,3.1-.17l-.32-.29c3.33-.9-.17.58,3.13.44,2.09-.21-.79-.08.49-.29a24.87,24.87,0,0,0,4,.15c.58.11,1.76.26,1.86.59,1.26-.14,3.83.12,4.54-.21-2.16-.26-2.14.36-4.66,0l.7-.32c1.74,0,4-.17,5.17-.07-.24-.06-.35-.14-.2-.21a49.11,49.11,0,0,1,5.61-.38c.32.29-1.09.25-2.12.28a31.86,31.86,0,0,0,4,.08c.13.26-1.62,0-1.9.25l2.67-.1s0,0,0,0c.39-.43,2,0,3.68-.11,3.87,0,4.46-.61,6.6-1q.87.17.51.33c-.95-.18-.78,0-1.11.08,1.3,0,2.86.4,2.13.57,2.08-.13-.75-.21.52-.36h2.85c-.34-.22-1.34-.26.13-.44,1.24-.06,1.84,0,3.47,0-.24.11.51.32-.71.32a6.48,6.48,0,0,0,2.48-.14c-1.77-.18,2.92-.21,1.59-.54l1.78.19a6.31,6.31,0,0,1-1.05.1c.51.33,1.45-.1,2.07-.14a16.67,16.67,0,0,1,2.39.21,5.59,5.59,0,0,1,2.19.13c.84-.07.07-.22.31-.33h2.84c.15.18.39.69,0,.76,1.07-.17.38-.54,2-.54-.93.37,2.15.26.8.7a22.85,22.85,0,0,0,5.05.11c.9-.28-1.58-.14-1.49-.43,4.1-.14,4.35-.94,7.37-.82l-.79-.08a13.34,13.34,0,0,0,2.77-.39c-.52.36,2.14,1,5.23.85.26-.18-1.73-.33-1.23-.62l2.05-.07c.15,0-.08.09-.34.14,1.84-.14,3.43.44,3.95,0l1.88.51-.75-.22a19.81,19.81,0,0,1,2.75-.32,11.1,11.1,0,0,1,4,.15c-.37-.14-1.28-.47.37-.54,0,.58,3.48.19,3.43.49.67,0,1.86.16,1.94-.08l-.11.36c.15-.5,2.59-.5,4.45-.6-.41.69,2.06-.07,2.89.55.35-.47,3.31-.21,3.64-.61,1.44,0,1.3.4,1.66.55l.67-.18c.73.21,3.43.22,5,.36l1.49-.42.56.18c.24-.1,1.48-.18.71-.32l.8,0c.07-.45,1.14-.14,2.76-.34.37.07.27.18-.08.24.81,0,.46.23.9.38-.57-.11,2.9-.83.73-1-.16-.18,1.11-.32,1.91-.25l.48.4.95-.43a19.84,19.84,0,0,1,2.77.23c-1,0-2.28.79.38.76a21.29,21.29,0,0,0-2.8.38c.55,0,.82.05,0,.23,2.07-.14.69-.25,2.74-.32-.11.36.46.47,2.26.58l-1.35-.25a.67.67,0,0,1,.26-.1c-.51,0-.65-.09-.76-.23.4,0,2.38-.47,2.72-.25-2.07-.55,3.6-.46,2.28-.79a3.84,3.84,0,0,1,1.82,0c-1.72.29,1.29.4,1,.66.64-.11-1.35-.26-.48-.41a9.32,9.32,0,0,1,2.34.3l-.43.07,1.59.15c.26-.18-1.54-.29-.08-.4.38.07,1.84,0,1.8.11-.7.26-.19.58-1.43.65,1,0,4.3-.1,3-.42H586c-.77-.15-2.93-.41-.47-.47l0,.07,1.71-.29.75.18c0-.09.25-.18.88-.17.17.1.77.14.72.29,1.84,0,1.69-.22,1.93-.32,1,0,1.42,0,.94.25a47.35,47.35,0,0,1,4.84.16c1.88-.18-.39-.07.71-.33,1.63.62,6.24.2,9.32.1-.84-.55.84-.07,1.41-.58-.67.18,2.92.41.23.58l1.64-.07c1.13.3-2.72.25-1,.65,1.85,0,3.06-.64,5.23-.46-.73.4,1.67-.14,1.13.3a8.2,8.2,0,0,1-1.67.14l.38.07c4,.08,1.17-.47,3.29-.75,2.46-.07,1.94.29,2.09.47a9.62,9.62,0,0,0,2.27-.1c-1.5.25-2.78-.22-2.09-.48,1.09.44,3.66,0,4.33-.17-3.52-.44-2.44,0-5.75-.48-.45.14-.37.54-2.36.39,1.25-.21-.09-.22-.44-.28.39.22-1.37.1-2,.2-.55-.18,1.19-.54-.82-.62l-.38.55c-.79-.08.33-.4-1.34-.26.9-.29-.27-.44,2-.54-2.7-.44-4.15.28-6.25.49.22,0,.24-.1.45-.14a10.25,10.25,0,0,1-1.88.18c-1.39-.11,1.1-.25.73-.4l-2.24,0c-.05,0-.06,0-.06,0a2.85,2.85,0,0,1-1.36,0c.67-.18.93-.36,1.38-.5l-2.36.39c.26-.18-1.94-.29-.27-.44l-3.49.11-.29-.37c-.84.07-.86.15.14.18-1.19-.07-5.29.68-4.66,0-2.74.32-3.73.21-7,.41,2.55-.35-2.92-.4-.22-.58-1.59-.14-1.91.25-3.16.32-1.17-.14-.65-.5.62-.65l-1.49.18,0-.07-1.29.21c-1.37-.18-.29-.36-1.71-.4l-.3.32-1-.18c.36.15-.47.22-1.5.25l0-.07L575,68c1.24-.2-1.13-.06-.57-.3-1.06,0-1.09,0-3,.07l.34.22c-2.51.21-.11-.33-2.14-.33l.13.25c-2.93-.4-5,.28-7.13,0,1.24-.06.92-.36.9-.28-1.87.1-4.9.06-6.83.38-.71-.36-.87-.47-2.86-.62a4.52,4.52,0,0,0-2.12.28c-1.4-.13-4,.1-4.08-.17-.33.22-1.26,0-2,.16l-.16-.11.12.25c-2.48-.55-4.18.35-6.68-.12l.43-.07-1,.1c-.16-.11.26-.18.31-.32h-4.88l1,.18a15.82,15.82,0,0,1-2.89.14c2-.4-1.63,0-1.94-.3l1-.1c-1.43,0-1.43,0-1.31.28-1.86.11-1.28-.47-3-.18h1.22c.36.14-.51.36-1.33.36-.19,0-.77-.15-.15-.18-1.46.1-3.66,0-4.3.1-.79-.08-.53-.26-.1-.33-3.13.24-1.42,0-4.55.2l0-.14-1.07.18-1.54-.29.55.18a24.17,24.17,0,0,1-2.87.06l.48-.21c-2.89.14-3.35-.34-6.1,0-.19,0,.24-.1.45-.14-2.55.36-1.93-.37-4.5.06.16-.07-.12-.16,0-.22l-1.17.15.09-.29-.95.43L500,67l-.46.14c-1.25-.54-3-.11-4.72-.52l.29.37c-4.3.78-9.86-.35-15.06,0l.09-.28-2.15.35c-1.15-.22.69-.25.33-.4-2.3.18-.95.44-3.62.54-1.37-.18.47-.22,1.11-.32a74.93,74.93,0,0,1-8,.2s-.15.09-.06.1c-1.67.15-3.88,0-5.72.06.05-.13.5-.15,1-.19a10,10,0,0,0-2.13,0l.69-.26c-1.41,0-4.13.21-4.45-.08.17.11.1.33-1.12.32-.68-.43-3.32.21-5.28,0A11.83,11.83,0,0,1,452,67a9.26,9.26,0,0,0-2.72.25l.26-.18-4.57.28c-.68-.44-4.3.09-4-.23-1.63,0,1.37.18-.69.25-.56-.18-1.87.1-1.78-.18l.22,0-1.44,0,.9-.29c-1.24.07-2.14.36-2.21.58a25.42,25.42,0,0,1-3.38-.26l.44-.07c-3.3.14-5.48-.72-8.07-.21-.19,0-.17-.11.23-.11h-2l.49-.22-3.37.37,0-.15c-2.23,0-5.71.09-8.58.16l.43-.07c-3.13.26-3-.1-5.31.09a.67.67,0,0,1,.24-.07l-2.06,0,.45-.15c-1.52.33-4.36-.35-3.42-.1a15.51,15.51,0,0,0-2.6.51c-2.24.05-.55-.17-1.94-.28-1.63,0-1.91.26-4.11.16l0-.15c-1,0-1.67.15-3.1.2l.42-.08c-2.33.34-2.92-.38-4.75.27-1-.1-2.85,0-2.76-.27-2.91.22-5.18.34-8.07.5-.47-.47-.62,0-2.38-.21l.13.26c-4.09.09-8.8-.46-13.31-.29l-.13-.25-.9.29c-4.86,0-11.15,0-15,0a33,33,0,0,1-5.2.45l.21,0c-3.51.21-7.22.39-11.05.32.23-.11-.15-.18.28-.26a10.6,10.6,0,0,1-3.07.08l1,.17a7.65,7.65,0,0,1-3.21-.11l-1.72.31c-.11,0-.29-.06-.31-.1l-.3.14-.93-.32a18.61,18.61,0,0,0-3.4.55c-.17-.1-1.78-.15-.54-.24l-6.29,0,1,.09c.13.25-1.75.46-2.73.37,1.27-.24.09-.37-.46-.54-.85.16.75.21.3.36a19.62,19.62,0,0,1-3.91.24l.64-.12c-1.46.13-2.15-.29-3.58-.23-1.29.24-2.25.07-2,.5-1.87.14-.73-.27-1.34-.3a10.89,10.89,0,0,1-3.82,0c-1,.67-5-.08-5.4.47L286.19,69c0,.15-.33.48-1.58.58-1.17-.11-.9-.38-1.26-.51l-.77.56c-6.77-.36-15.67.37-23.09.22-3.29.25-7.44.69-11.3.81l.43-.09-3.84,0,2.79.1c-.83.1-1.48.24-2.29.28a138.13,138.13,0,0,0-15,.59c-3.32.81-2.26-.42-5.44.21.27-.07.36-.16.61-.24-3.45.42-5.31.64-8.75,1.21.36-.63-2.25.16-2-.18l-.27.26c-.78-.1-2.6,0-2.35-.24l-1.5.41-.15-.25c-2,.12-6.36.62-7.45.17-5,.71-12.9,1.18-19.19,1.53a25.54,25.54,0,0,1-4.13.57l-1.56-.18a23.24,23.24,0,0,1-4.34.61s.06-.06.15-.09a27.87,27.87,0,0,0-4.26.52c-1.62.12-3.21.09-2.73-.23-.12.51-3.45.21-3.45.21s-20.86,1.38-44.19,3.76S70.21,85.38,60.27,88c-.65.33-2.51.73-1.76.93-1.44.27-2.16-.08-2.41.2,2-.08-.53.72,1.44.79l-1.23.21c-.24.21,1.66-.41,1.39,0l.29-.51a6.33,6.33,0,0,1,1.95.09c.92-.3,1.44-1,3.73-1l-.62.1c1.83-.24,1.16.16,1.55.19l-.4.05,1.57,0c-1.19,0-3.07.6-2.06.45,2.2-.14-.59,0,1.05-.3,1-.15.76.13.73.28l1.83-.24c0,.23-1.22.14-.45.27l2.28-.5c.49.49,2.47-.57,3.59-.18-1.64.33.17.16-.07.37l4-.51c.4,0-1,.3-.43.2a5.15,5.15,0,0,0,1.65-.33c.37.11,3-.36,3,0,2.78-.08,1.11-.6,3.7-.68.36.18-2,.28-.87.38l2.66-.39a2.35,2.35,0,0,1-1.48.48c7.23-.53,11.24.21,17.79-.8,1,.16-.65.25-1.29.49,4.73-.86,6.76-.13,10.82-.59l0-.22c5.73.09,12.5-1,18.93-1.33l-.78-.08a30.74,30.74,0,0,1,3.33-.65c.17.1-.72.54,1.13.27-.39,0-1.18,0-1-.17,5.55,0,17.15-1.15,26.21-1.65,12.22-1.19,25.53-1.79,37.54-2.77-1.83.15-1.09-.44.3-.41,3.84.64,6.54-.59,10.45-.24,7-.75,13.29-.34,19.77-1.42l.14.25a11.74,11.74,0,0,0,2.25-.22l0,.08c2.43,0,5.34-.47,6.73-.42l.07-.29c1.44-.11.76.18,2.22-.07l0,.15,1.7-.37c-.14.52,4.05-.17,5.21,0,1.86-.18,5.37-.57,8.19-.61.54.24,4,.08,6.2.11,4.29-.25,10.41-.58,15.88-.68l-.11-.32,1.43-.08c0,.08.17.11,0,.15,1.11.34,3.28-.22,4.44,0-.73-.27-1,0-1.82,0-1.17-.11-.06-.47,1.52-.36l0,.08,1.08-.21c.12.25,1.11.34,1.24.59,4.7-.21,7.88-.75,12.73-.77-.49.3,3.49-.16,2.53.36,2.9-.26-.5-.39.83-.77.81,0,1.66-.18,1.81,0-.38.13.67.29,0,.35l1.94-.09c.19,0-.24.11-.45.15,4-.39,7,.16,10.58-.22.26-.19-1.41,0-1.15-.2,3.57-.45,3.17.24,6.5-.09l-.69.27a8.82,8.82,0,0,1,3.32-.26c.32.29-1.5.27-2.35.43,1.22,0,4.29-.16,3.35-.4a10.81,10.81,0,0,1,2.78.18c0-.07-1.36-.16-.51-.32,2,.12,5.05,0,7.48,0,0,.08.15.18-.06.22C335.05,75,334.85,75.66,337.53,75.53Z"/><path d="M467,72.4l-1,0c0,.07,0,.14-.49.22Z"/><path d="M420.52,72.62a3.58,3.58,0,0,0-.35.09C420.41,72.69,420.49,72.66,420.52,72.62Z"/><path d="M409.23,73.27c.81-.07.09-.14-.31-.21C408.9,73.12,408.92,73.19,409.23,73.27Z"/><path d="M493.38,71.43c-.17,0-.28.07-.25.13C493.36,71.5,493.41,71.46,493.38,71.43Z"/><path d="M566.21,71.08l-.29,0A1.1,1.1,0,0,0,566.21,71.08Z"/><path d="M562.17,70.65a7.42,7.42,0,0,0-.82,0A3.75,3.75,0,0,0,562.17,70.65Z"/><path d="M475.73,71.67a3.12,3.12,0,0,0-.77.1A2.85,2.85,0,0,0,475.73,71.67Z"/><path d="M560.51,70.77l-1,0a.43.43,0,0,0,0,0Z"/><path d="M567.49,71.1c-.4,0-.94,0-1.28,0A4.62,4.62,0,0,0,567.49,71.1Z"/><path d="M520.11,70.85H520C519.21,71,519.7,70.93,520.11,70.85Z"/><path d="M556.07,71.3h-.14l-.29.08Z"/><path d="M571.88,71.18a2.46,2.46,0,0,0-.51.06l.58,0C571.89,71.23,571.88,71.2,571.88,71.18Z"/><path d="M535.36,71.18c.29-.11.39-.18.4-.24C535.43,71,535.21,71,535.36,71.18Z"/></g></svg>