<svg id="Слой_1" data-name="Слой 1" xmlns="http://www.w3.org/2000/svg" viewBox="0 0 200 200"><title>page_Монтажная область 1</title><path d="M87.27,109.15A14.09,14.09,0,0,0,91.76,112a21.55,21.55,0,0,0,10.57,1.36,19.48,19.48,0,0,0,5.31-1.36,12.67,12.67,0,0,0,6.2-6,22.6,22.6,0,0,0,2.61-7,3,3,0,0,0,.06-.92c-3.52.9-6.35-.81-9.21-2.42a37.58,37.58,0,0,0-5.9-3.14,16.1,16.1,0,0,0,7.24-3.21,10.85,10.85,0,0,0,1.93-1.84,4.92,4.92,0,0,0,1.23-3.1A25.57,25.57,0,0,1,115,85.59a37,37,0,0,1,12.89,8.89,37.63,37.63,0,0,1,8.58,16.1,69.79,69.79,0,0,1,2,20.87,83,83,0,0,1-4.22,23.79,63.88,63.88,0,0,1-35.79,38.81,73.59,73.59,0,0,1-35.74,5.59A69.77,69.77,0,0,1,24,183.32,67.81,67.81,0,0,1,5.29,158.69a60.13,60.13,0,0,1-5.11-20,85.18,85.18,0,0,1,.2-13.17A71.93,71.93,0,0,1,2.7,111.91a44.33,44.33,0,0,1,8.42-16.72,39.42,39.42,0,0,1,16-11.41,54.73,54.73,0,0,1,7.52-2.38c.41-.1.68-.17.71.44a7.32,7.32,0,0,0,4.1,6.2,10.45,10.45,0,0,0,2.13,1c.39.12.42.29.25.63a15,15,0,0,1-3.77,4.65,42,42,0,0,1-13.86,7.58c-1,.35-1.07.44-.84,1.49a9.36,9.36,0,0,0,2,3.84A21.92,21.92,0,0,0,35.68,114a30.13,30.13,0,0,0,13.82,1.26,31.49,31.49,0,0,0,7-2.06c1-.39,2-.78,3.06-1.21.43-.18.57-.06.71.34.74,2.15,1.4,4.34,2.25,6.45a22.72,22.72,0,0,0,8.37,10.88,25.8,25.8,0,0,0,7.83,3.46.9.9,0,0,0,.81-.23,14.06,14.06,0,0,0,5-6.57,34.64,34.64,0,0,0,2.27-10.34C87,113.73,87.11,111.52,87.27,109.15Z"/><path d="M184.6,134c0-12.75-.06-25.51,0-38.26a61.56,61.56,0,0,0-1.51-13.88,186.05,186.05,0,0,0-6.69-23.41,113.33,113.33,0,0,0-7.55-17,22.84,22.84,0,0,0-1.79-2.69.79.79,0,0,0-.68-.35H141a.89.89,0,0,0-.77.45,35.33,35.33,0,0,0-3.45,6A188.07,188.07,0,0,0,124.92,79c-.2.8-.39,1.6-.53,2.41-.08.43-.21.47-.57.25A45.74,45.74,0,0,0,116,77.78c-.34-.13-.33-.36-.34-.64a7.81,7.81,0,0,0-2.11-5.22,5.68,5.68,0,0,0-1.57-1c-.29-.15-.39-.27-.3-.62a176.06,176.06,0,0,1,9.94-29.52A62.36,62.36,0,0,1,126,32.6a.53.53,0,0,0,0-.72,15.48,15.48,0,0,1-2.89-9.59c.06-2.28,0-4.56,0-6.85A15.12,15.12,0,0,1,130.16,2.5,14.47,14.47,0,0,1,138.35,0q15.48,0,31,0a15.43,15.43,0,0,1,15.18,13.64c.31,2.84.07,5.71.11,8.56a14.27,14.27,0,0,1-.14,2.53,15.68,15.68,0,0,1-3.18,6.82c-.2.27-.28.47-.05.77,2.56,3.36,4.15,7.24,5.79,11.08a216.2,216.2,0,0,1,9.1,26,116.6,116.6,0,0,1,3.2,14.32,54.17,54.17,0,0,1,.67,8.14q0,42.36,0,84.7A23.19,23.19,0,0,1,176.61,200c-15.12,0-30.25.06-45.37,0a23.35,23.35,0,0,1-15.81-6c-.46-.4-.45-.57,0-.93a69.39,69.39,0,0,0,10.75-9.43c.33-.35.54-.44,1-.15a6.87,6.87,0,0,0,3.9,1.13h45.55a7.55,7.55,0,0,0,7.8-6.24,9.2,9.2,0,0,0,.14-2ZM153.79,23.09c4.93,0,9.85,0,14.78,0,.48,0,.66-.1.65-.62,0-2.18,0-4.36,0-6.54,0-.43-.12-.57-.57-.57q-14.81,0-29.63,0c-.51,0-.58.18-.57.62,0,2.14,0,4.27,0,6.41,0,.54.12.71.69.7C144,23.08,148.9,23.09,153.79,23.09Z"/><path d="M37.58,67.67a19.85,19.85,0,0,0,1.64,2.83,8.77,8.77,0,0,0,6.15,3.37c2.35.34,4.72.31,7.08.48a17.44,17.44,0,0,1,13.23,7.23c.36.47.71,1,1.06,1.42l.11,0c.41-1.26.83-2.5,1.34-3.72A55.86,55.86,0,0,1,76,66.41c1-1.27,2-2.48,3.13-3.67a1.81,1.81,0,0,1,1.13-.61,6,6,0,0,1,4.74,1c.33.25.29.36,0,.6-5.43,5-8.35,11.31-9.5,18.51-.08.52-.15,1-.22,1.57,0,0,0,.07.06.14.8-.62,1.58-1.26,2.4-1.85a20,20,0,0,1,9.1-3.9,22.4,22.4,0,0,1,6.12.13,49,49,0,0,0,8.38.85,15.94,15.94,0,0,0,6.1-1.48c.17-.07.32-.21.55-.18,0,.06,0,.12,0,.17a36.11,36.11,0,0,1-4.82,7.41,11.47,11.47,0,0,1-9,4.08c-2.6,0-5.18-.33-7.78-.45a6.35,6.35,0,0,0-.76,0c1.14.35,2.31.6,3.45,1a20.55,20.55,0,0,1,8.27,5c1.42,1.39,2.77,2.86,4.27,4.16a18.67,18.67,0,0,0,7.08,3.81l.48.14s.06,0,.13.11a19.26,19.26,0,0,1-4,2c-5.49,2-10.74,1.29-15.82-1.38a41.54,41.54,0,0,1-10.67-8.48c-1.46-1.54-2.83-3.14-4.15-4.79a.77.77,0,0,0-.54-.38c.41.87.8,1.67,1.18,2.48a46.46,46.46,0,0,1,3.88,12,37.37,37.37,0,0,1,0,11.8A53.5,53.5,0,0,1,77.57,123c-.13.41-.23.48-.62.24-5.89-3.69-9.69-8.82-10.9-15.74a31.71,31.71,0,0,1-.1-9.48c.28-2.22.72-4.41,1.17-6.6a.64.64,0,0,0,0-.4c-.37.83-.72,1.67-1.12,2.48a24.66,24.66,0,0,1-9.28,10.73,20.27,20.27,0,0,1-10.87,2.87,33.24,33.24,0,0,1-12.17-2.65l-.32-.15a30.93,30.93,0,0,0,3-1,18.76,18.76,0,0,0,7.3-5.72c1.17-1.4,2.32-2.81,3.48-4.21,3.81-4.61,8.79-6.51,14.68-6.3.61,0,1.22,0,1.89,0a3.08,3.08,0,0,0-1.24-.59,32.44,32.44,0,0,0-5.53-1,41.62,41.62,0,0,1-9.85-2.23c-5.39-2.17-8.38-6.19-9.26-11.88A20.49,20.49,0,0,1,37.58,67.67Z"/></svg>