<svg id="Слой_1" data-name="Слой 1" xmlns="http://www.w3.org/2000/svg" viewBox="0 0 200 200"><title>page_Монтажная область 2w_padding</title><path d="M144.82,163.64c-3.5-1.82-4.62-4.66-4.59-8.59.16-20.25.07-40.5.08-60.75,0-6,2.19-8.15,8.3-8.17,2,0,4-.09,6,0,4,.23,6.57,2.7,6.59,6.72.07,21.31,0,42.62,0,63.93,0,3.25-2,5.16-4.37,6.83Z"/><path d="M113.63,163.64c-3.5-1.8-4.72-4.62-4.6-8.55.23-7.72,0-15.45.08-23.18,0-5,2.35-7.41,7.32-7.52,2.33-.06,4.66-.11,7,0,4,.22,6.56,2.66,6.62,6.68.12,8.57,0,17.14,0,25.71,0,3.24-1.94,5.16-4.35,6.84Z"/><path d="M82.45,163.64c-3.42-1.69-4.78-4.39-4.6-8.22.23-4.75,0-9.52.07-14.29,0-4.49,2.36-6.84,6.82-7,2.43-.07,4.87-.08,7.3,0,4.08.14,6.65,2.45,6.77,6.45.17,5.5,0,11,0,16.51,0,3.11-2,4.9-4.31,6.53Z"/><path d="M84,123.29a43.47,43.47,0,1,1,43.52-43.54A43.57,43.57,0,0,1,84,123.29ZM84,64c0-4.66-.07-9.32,0-14,0-2-.48-2.79-2.7-2.59a32.49,32.49,0,1,0,27.21,53.76c1.75-2,1.48-2.86-.57-4.27-7.15-4.93-14.13-10.1-21.28-15-1.93-1.33-2.89-2.71-2.76-5.16C84.17,72.46,84,68.21,84,64Z"/></svg>