<?xml version="1.0" encoding="utf-8"?>
<!-- Generator: Adobe Illustrator 24.0.2, SVG Export Plug-In . SVG Version: 6.00 Build 0)  -->
<svg version="1.1" id="Слой_1" xmlns="http://www.w3.org/2000/svg" xmlns:xlink="http://www.w3.org/1999/xlink" x="0px" y="0px"
	 viewBox="0 0 200 200" style="enable-background:new 0 0 200 200;" xml:space="preserve">
<g>
	<path d="M-51,200c-5.5-2.9-7.2-7.3-7.2-13.5c0.2-31.8,0.1-63.6,0.1-95.5c0-9.4,3.4-12.8,13-12.8c3.2,0,6.3-0.1,9.5,0.1
		c6.3,0.4,10.3,4.2,10.4,10.6c0.1,33.5,0,67,0.1,100.5c0,5.1-3.1,8.1-6.9,10.7C-38.3,200-44.7,200-51,200z"/>
	<path d="M-100,200c-5.5-2.8-7.4-7.3-7.2-13.4c0.4-12.1,0.1-24.3,0.1-36.4c0-7.9,3.7-11.7,11.5-11.8c3.7-0.1,7.3-0.2,11,0
		c6.3,0.3,10.3,4.2,10.4,10.5c0.2,13.5,0,26.9,0.1,40.4c0,5.1-3.1,8.1-6.8,10.7C-87.3,200-93.7,200-100,200z"/>
	<path d="M-149,200c-5.4-2.6-7.5-6.9-7.2-12.9c0.4-7.5,0-15,0.1-22.4c0.1-7.1,3.7-10.8,10.7-11c3.8-0.1,7.7-0.1,11.5,0
		c6.4,0.2,10.5,3.8,10.6,10.1c0.3,8.6,0.1,17.3,0.1,25.9c0,4.9-3.2,7.7-6.8,10.3C-136.3,200-142.7,200-149,200z"/>
	<path d="M-146.6,136.6c-37.7,0-68.4-30.8-68.3-68.5C-214.8,30.4-184-0.1-146.3,0c37.4,0.1,68,30.8,68.1,68.2
		C-78.1,105.8-108.9,136.6-146.6,136.6z M-146.6,43.4c0-7.3-0.1-14.7,0.1-22c0.1-3.2-0.8-4.4-4.2-4.1c-22.8,2-41.6,18.8-46,41.4
		c-4.4,22.5,7.3,45.5,28.1,55.5c20.8,9.9,45.3,4.8,60.6-12.4c2.7-3.1,2.3-4.5-0.9-6.7c-11.2-7.7-22.2-15.9-33.4-23.6
		c-3-2.1-4.5-4.3-4.3-8.1C-146.3,56.7-146.6,50-146.6,43.4z"/>
</g>
<g>
	<path d="M144.8,163.6c-3.5-1.8-4.6-4.7-4.6-8.6c0.2-20.2,0.1-40.5,0.1-60.7c0-6,2.2-8.2,8.3-8.2c2,0,4-0.1,6,0
		c4,0.2,6.6,2.7,6.6,6.7c0.1,21.3,0,42.6,0,63.9c0,3.3-2,5.2-4.4,6.8C152.9,163.6,148.8,163.6,144.8,163.6z"/>
	<path d="M113.6,163.6c-3.5-1.8-4.7-4.6-4.6-8.5c0.2-7.7,0-15.4,0.1-23.2c0-5,2.4-7.4,7.3-7.5c2.3-0.1,4.7-0.1,7,0
		c4,0.2,6.6,2.7,6.6,6.7c0.1,8.6,0,17.1,0,25.7c0,3.2-1.9,5.2-4.3,6.8C121.7,163.6,117.7,163.6,113.6,163.6z"/>
	<path d="M82.5,163.6c-3.4-1.7-4.8-4.4-4.6-8.2c0.2-4.8,0-9.5,0.1-14.3c0.1-4.5,2.4-6.8,6.8-7c2.4-0.1,4.9-0.1,7.3,0
		c4.1,0.1,6.7,2.4,6.8,6.4c0.2,5.5,0,11,0,16.5c0,3.1-2,4.9-4.3,6.5C90.5,163.6,86.5,163.6,82.5,163.6z"/>
	<path d="M84,123.3c-24,0-43.5-19.6-43.5-43.6c0.1-24,19.6-43.4,43.7-43.3c23.8,0.1,43.3,19.6,43.3,43.4
		C127.5,103.7,108,123.3,84,123.3z M84,64c0-4.7-0.1-9.3,0-14c0-2-0.5-2.8-2.7-2.6c-14.5,1.3-26.5,12-29.2,26.4
		c-2.8,14.3,4.6,28.9,17.9,35.3c13.2,6.3,28.8,3.1,38.5-7.9c1.7-2,1.5-2.9-0.6-4.3c-7.2-4.9-14.1-10.1-21.3-15
		c-1.9-1.3-2.9-2.7-2.8-5.2C84.2,72.5,84,68.2,84,64z"/>
</g>
</svg>
