<svg xmlns="http://www.w3.org/2000/svg" viewBox="0 0 50 50"><title>social_Login_mobile</title><g id="Слой_1" data-name="Слой 1"><path d="M50,44.44a3.19,3.19,0,0,1-3.2,1.63c-9.37,0-18.74,0-28.11,0-2.34,0-3-.7-3-3,0-2.85,0-5.71,0-8.56a2.2,2.2,0,0,1,1.71-2.3,2.29,2.29,0,0,1,2.89,2.41c0,1.93,0,3.85,0,5.78,0,.79.15,1.1,1,1.09q11.55,0,23.1,0c.81,0,1-.27,1-1q0-15.37,0-30.77c0-.8-.16-1.08-1-1.07q-11.49,0-23,0c-.93,0-1.11.32-1.08,1.15.05,1.93,0,3.85,0,5.78A2.35,2.35,0,0,1,18,18a2.3,2.3,0,0,1-2.29-2.37q-.08-4.66,0-9.33A2.19,2.19,0,0,1,18.08,4c9.82,0,19.63,0,29.44,0A2.53,2.53,0,0,1,50,5.77Z"/><path d="M0,24.44a2.92,2.92,0,0,1,3.1-1.81c8.29,0,16.59,0,24.88,0h1.51c-1.14-1.15-2.13-2.11-3.06-3.11a2.21,2.21,0,0,1-.24-2.86,2.37,2.37,0,0,1,3.66-.29c2.31,2.3,4.63,4.59,6.91,6.92a2.28,2.28,0,0,1,0,3.37q-3.42,3.5-6.91,6.91a2.36,2.36,0,0,1-3.39.06,2.29,2.29,0,0,1,.14-3.37c.9-.91,1.87-1.76,2.87-2.68a1.85,1.85,0,0,0-1.37-.26c-8.33,0-16.67,0-25,0A2.91,2.91,0,0,1,0,25.55Z"/></g></svg>