<svg xmlns="http://www.w3.org/2000/svg" width="231.88" height="127.15" viewBox="0 0 231.88 127.15"><title>page_MS_logo_recepies1</title><g id="Слой_1" data-name="Слой 1"><path d="M44.57,34.82c-.59.1-1.23.67-2.74-8.21-2-11.7-.68-11.48-.28-11.55l2.18-.37c.92-.15,1.26-.21,2.69,1.18,2.74,2.68,3.18,4.38,3.65,4.3s.2-1.81,2.19-5.29c1.06-1.84,1.42-1.88,2.34-2l1.85-.31c.4-.07,1.56-.71,3.54,11,1.51,8.88.72,8.55.13,8.65l-3,.51c-.28.05-.84.22-.91-.21a46.39,46.39,0,0,0-.48-11c-.08-.5-.51-3.42-1.29-3.29s-1.19,2.61-1.33,3.22c-1.16,5.2,0,7.28-1.57,7.55-2,.34-1.58-2-4.51-6.51-.33-.49-1.52-2.74-2.25-2.62s-.26,3-.18,3.54a42.44,42.44,0,0,0,3.32,10.52c.07.43-.51.45-.79.5Z" style="fill:#fff"/><path d="M74,29.83c-.21,0-.89.22-1-.13-.11-.67,1.31-3.34.85-6-.18-1.07-1.27-1.3-2.33-1.12-2.16.37-5.53,1.33-5.07,4,.32,1.87,2.2,3.62,2.26,4,0,.14-.11.19-.42.24l-3.39.57c-1.2.21-1.9-1.87-2.42-4.95-1.72-10.13,4.51-16,5.55-16.21.79-.14,7.47,2.21,9.33,13.2,1.08,6.32,0,5.86-.76,6Zm-8-9.46a.42.42,0,0,0,.52.38,35,35,0,0,1,4.7-1.44c.83-.14,1.19-.32,1.08-1-.25-1.47-2.52-4.25-3.42-4.1C67.57,14.45,65.67,18.64,66,20.37Z" style="fill:#fff"/><path d="M81.63,28.53c-.59.1-1.23.67-2.73-8.21-2-11.7-.68-11.48-.28-11.55L80.8,8.4c.92-.16,1.25-.21,2.68,1.18,2.75,2.67,3.18,4.38,3.65,4.3s.21-1.82,2.2-5.29c1-1.84,1.41-1.88,2.33-2l1.85-.32c.4-.07,1.56-.7,3.55,11,1.51,8.88.72,8.55.13,8.65l-3,.51c-.29.05-.84.22-.92-.21a45.77,45.77,0,0,0-.48-11c-.08-.5-.5-3.42-1.29-3.29s-1.18,2.61-1.32,3.22c-1.17,5.19,0,7.28-1.57,7.55-2,.34-1.59-2-4.52-6.52-.32-.48-1.51-2.74-2.25-2.61s-.26,3-.17,3.54A41.49,41.49,0,0,0,85,27.6c.07.42-.51.45-.8.5Z" style="fill:#fff"/><path d="M111,23.53c-.21,0-.88.23-.94-.13-.12-.66,1.3-3.34.84-6-.18-1.06-1.26-1.29-2.33-1.11-2.15.36-5.52,1.33-5.06,4,.31,1.87,2.2,3.62,2.26,4,0,.14-.12.19-.43.24l-3.38.58c-1.21.2-1.9-1.87-2.43-4.95-1.72-10.13,4.52-16,5.56-16.22.78-.13,7.46,2.22,9.33,13.21,1.07,6.32-.06,5.85-.76,6Zm-8-9.45a.42.42,0,0,0,.53.37,35,35,0,0,1,4.7-1.43c.83-.14,1.19-.32,1.07-1-.24-1.46-2.52-4.24-3.42-4.09C104.63,8.16,102.74,12.35,103,14.08Z" style="fill:#fff"/><path d="M120.92,4.51c-1.18.2-2.6,1-2.36,2.43.29,1.7,2.74,2,4.12,2.19,5.26.82,6.68,3,7.06,5.29.47,2.74-.92,6.46-5.92,7.31-3.36.57-7.07-.65-7.71-4.41a3.7,3.7,0,0,1,.9-3.45c.4-.06.81,4.81,5.9,4,1.8-.31,3.23-1.36,3-2.82-.29-1.73-2.54-2.08-4-2.27-5.46-.73-6.42-3-6.76-5s.43-5.61,5.24-6.43c3.43-.58,6.18.83,6.3,1.52s-.75,3-1.42,3.14S123.39,4.09,120.92,4.51Z" style="fill:#fff"/><path d="M100.74,45.15c.63-.1,1,.1,1.07.61s-.18.71-.72,1a2,2,0,0,0-1.16,2.17,2,2,0,0,0,1.16,1.58,3.18,3.18,0,0,0,2,.2,6.38,6.38,0,0,0,3.77-2,2.66,2.66,0,0,0,.71-2.32A3.37,3.37,0,0,0,107,45a17,17,0,0,0-1.28-1.49c-.87-.92-1.61-1.76-2.23-2.54a5.7,5.7,0,0,1-1.27-2.65c-.37-2.15.36-4.35,2.17-6.59a15.39,15.39,0,0,1,3.33-3,8.28,8.28,0,0,1,3.15-1.3,2.78,2.78,0,0,1,1.82.24,2.11,2.11,0,0,1,1.16,1.6,5.85,5.85,0,0,1-1.24,4A14.82,14.82,0,0,1,109,37.08a4.56,4.56,0,0,1-1.68.89.94.94,0,0,1-.77-.21.72.72,0,0,1-.29-.46c-.07-.43.25-.84,1-1.24a12,12,0,0,0,3.34-2.72c1.19-1.38,1.71-2.51,1.56-3.38a1,1,0,0,0-.55-.74,1.32,1.32,0,0,0-.82-.11,7.07,7.07,0,0,0-2.83,1.43,10.31,10.31,0,0,0-3.27,3.81,5.66,5.66,0,0,0-.66,3.47,5.21,5.21,0,0,0,1,2.28c.47.6,1,1.26,1.74,2s1.24,1.37,1.73,2a5,5,0,0,1,1,2.15q.34,2-1.72,4a8.08,8.08,0,0,1-4.27,2.08,5.37,5.37,0,0,1-4.11-.71A3.3,3.3,0,0,1,98,49.42a3.49,3.49,0,0,1,.58-2.7,3.88,3.88,0,0,1,1.27-1.18A3.12,3.12,0,0,1,100.74,45.15Z" style="fill:#fff"/><path d="M116.79,46.36a13.2,13.2,0,0,1-.84,1.89A3,3,0,0,1,114,50a1.63,1.63,0,0,1-1.6-.64,2.54,2.54,0,0,1-.56-1.29,9.35,9.35,0,0,1,.49-4.45,11.41,11.41,0,0,1,2.58-4.51,4.27,4.27,0,0,1,2.25-1.31,1.74,1.74,0,0,1,1.29.25,1.2,1.2,0,0,1,.56.83,2.74,2.74,0,0,1-.11,1.1,1.21,1.21,0,0,1,.37.6,3.06,3.06,0,0,1-.28,1.27,13.9,13.9,0,0,0-.63,2.42,7.63,7.63,0,0,0-.13,2.48,1.76,1.76,0,0,0,.64,1.12,3.08,3.08,0,0,0,.78.28.74.74,0,0,1,.55.65.68.68,0,0,1-.15.58.93.93,0,0,1-.57.33,2.07,2.07,0,0,1-1.75-.56,2.68,2.68,0,0,1-.84-1.6C116.87,47.29,116.83,46.9,116.79,46.36Zm1.19-6a1.71,1.71,0,0,0-.54-.49.9.9,0,0,0-.55-.09c-.88.15-1.7,1.07-2.47,2.78a8.42,8.42,0,0,0-1,4.6,1.12,1.12,0,0,0,.28.63.6.6,0,0,0,.53.14c.55-.1,1.1-.79,1.63-2.1A28.3,28.3,0,0,0,117,42.67a16.31,16.31,0,0,1,.61-1.78A2.16,2.16,0,0,1,118,40.31Z" style="fill:#fff"/><path d="M124.77,38.49c.43-.37.74-.64,1-.8a3.21,3.21,0,0,1,1.32-.58,1.48,1.48,0,0,1,1.22.25,2,2,0,0,1,.6,1.26,6.84,6.84,0,0,1-.35,3.05,12.84,12.84,0,0,1-2.47,4.76,4.86,4.86,0,0,1-2.74,1.8,2.53,2.53,0,0,1-1.6-.33,105.58,105.58,0,0,0-2.58,10.49c-.13.84-.37,1.29-.73,1.35a.72.72,0,0,1-.58-.26.87.87,0,0,1-.28-.5c-.11-.62.31-2.78,1.25-6.46a123.4,123.4,0,0,1,4.46-14.3c.31-.81.52-1.37.62-1.67.28-.82.61-1.26,1-1.33s.63.14.71.61a2.37,2.37,0,0,1-.23,1.15Zm-2.67,7.84a1.27,1.27,0,0,0,1,.24q1.6-.27,3.08-3.46a10.74,10.74,0,0,0,.79-2.36,4.17,4.17,0,0,0,.12-1.39.63.63,0,0,0-.23-.44.6.6,0,0,0-.48-.08,3.32,3.32,0,0,0-1.8,1.46A12.61,12.61,0,0,0,123,43.73C122.53,45.05,122.24,45.92,122.1,46.33Z" style="fill:#fff"/><path d="M133.47,35.81A.62.62,0,0,1,134,36a.65.65,0,0,1,.2.36,2.29,2.29,0,0,1-.32,1.12,31.52,31.52,0,0,0-1.78,5,36.67,36.67,0,0,0-.79,4c-.09.61-.33.94-.72,1a.67.67,0,0,1-.6-.18.74.74,0,0,1-.28-.45,19.6,19.6,0,0,1,.52-3.65,24.51,24.51,0,0,1,1.94-5.6,9.7,9.7,0,0,1,.72-1.38A.91.91,0,0,1,133.47,35.81Zm2.19-7a.72.72,0,0,1,.92.67,2.64,2.64,0,0,1-.49,1.74,2,2,0,0,1-1.26,1.08.68.68,0,0,1-.58-.15.83.83,0,0,1-.3-.52,2.73,2.73,0,0,1,.62-1.92A1.88,1.88,0,0,1,135.66,28.83Z" style="fill:#fff"/><path d="M136.15,42.6l0,.31a1.17,1.17,0,0,0,.3.62,1.61,1.61,0,0,0,1.53.4q2.16-.36,4.44-4.17c.26-.43.52-.67.75-.71a.47.47,0,0,1,.38.13.43.43,0,0,1,.14.24c.08.45-.35,1.31-1.27,2.57a12.63,12.63,0,0,1-2.42,2.52,5.78,5.78,0,0,1-2.6,1.26,2.51,2.51,0,0,1-2.19-.55,2.62,2.62,0,0,1-.79-1.61,8.33,8.33,0,0,1,1.78-6.19q1.84-2.67,3.5-3a1.35,1.35,0,0,1,.86.14,1.19,1.19,0,0,1,.61.88,4.48,4.48,0,0,1-.46,2.39A9.16,9.16,0,0,1,136.15,42.6Zm.15-1.42A7,7,0,0,0,138,39.93a7.74,7.74,0,0,0,1.57-2.44,1.5,1.5,0,0,0,.13-.79c0-.23-.17-.33-.39-.29a2.43,2.43,0,0,0-1.16.89A9,9,0,0,0,136.3,41.18Z" style="fill:#fff"/><path d="M147.28,38l.36-.49q3-4.14,4.24-4.35c.45-.08.72.13.8.63a2.07,2.07,0,0,1-.39,1.33q-2.65,4.43-2.15,7.36a3.51,3.51,0,0,0,.82,1.73,1.24,1.24,0,0,1,.35.58.51.51,0,0,1-.14.43.73.73,0,0,1-.49.34,1.43,1.43,0,0,1-1.35-.7,4.15,4.15,0,0,1-.81-2,10.12,10.12,0,0,1,.88-5.47,14,14,0,0,0-3.47,6.07c-.24.67-.56,1-1,1.1a.63.63,0,0,1-.52-.12.86.86,0,0,1-.35-.58c-.11-.63.33-2.38,1.3-5.26.52-1.56.94-2.7,1.27-3.42s.65-1.09,1-1.14a.62.62,0,0,1,.47.13.76.76,0,0,1,.33.52,2.18,2.18,0,0,1-.31,1.17A17.63,17.63,0,0,0,147.28,38Z" style="fill:#fff"/><path d="M160.19,30.12a2.86,2.86,0,0,1,1.67.1,1.37,1.37,0,0,1,.74,1.07,3.2,3.2,0,0,1-.43,2.1,5,5,0,0,1-1.93,1.82,4.29,4.29,0,0,1-1.29.53c-.48.08-.76-.09-.83-.52a.72.72,0,0,1,.3-.73,11.9,11.9,0,0,1,1.13-.49,2.7,2.7,0,0,0,1.07-.81,1.15,1.15,0,0,0,.32-.94.66.66,0,0,0-.3-.5.94.94,0,0,0-.65-.07,4.06,4.06,0,0,0-2.07,1.19,2.65,2.65,0,0,0-1,2.42,4.5,4.5,0,0,0,1.3,2.09,4.76,4.76,0,0,1,1.45,2.32,2.74,2.74,0,0,1-.95,2.61,3.46,3.46,0,0,1-1.79.86,3,3,0,0,1-2.73-.77,3.44,3.44,0,0,1-.95-1.9,3.7,3.7,0,0,1,.31-2.38,1.25,1.25,0,0,1,.83-.77c.29-.05.46,0,.49.28a.94.94,0,0,1-.08.44,3.62,3.62,0,0,0-.1,1.81,1.91,1.91,0,0,0,.85,1.33,1.69,1.69,0,0,0,1.31.31,1.3,1.3,0,0,0,1-.62,1.47,1.47,0,0,0,.15-1,3.67,3.67,0,0,0-1.15-1.74,5.13,5.13,0,0,1-1.63-2.7,3.83,3.83,0,0,1,1.36-3.38A6.76,6.76,0,0,1,160.19,30.12Z" style="fill:#fff"/><path d="M3.68,105c.24.46.45.48.64.13C4.11,105.18,3.86,104.58,3.68,105Z" style="fill:#fff;fill-rule:evenodd"/><path d="M4.16,103.72c.2-.15.46.57.64.13C4.58,103.69,4.33,103.07,4.16,103.72Z" style="fill:#fff;fill-rule:evenodd"/><path d="M6.17,105.43c-.12.22,0,.44-.17.66.24.31.22-.13.54-.27C6.41,105.49,6.29,105.57,6.17,105.43Z" style="fill:#fff;fill-rule:evenodd"/><path d="M13.09,117.39c.1.18.2.36.31.53.11-.48.27-.15.39-.52C13.53,116.9,13.29,116.9,13.09,117.39Z" style="fill:#fff;fill-rule:evenodd"/><path d="M5.49,103.59c0,.2,0,.39-.12.26-.08.39.42.81.52.4S5.71,104.09,5.49,103.59Z" style="fill:#fff;fill-rule:evenodd"/><path d="M14.08,117.67c.27,0,.31.44.47.79a2.06,2.06,0,0,0-.21-1.32Z" style="fill:#fff;fill-rule:evenodd"/><path d="M9.79,107.28c-.06.47.45.64.56,0C10.13,106.67,10,107.75,9.79,107.28Z" style="fill:#fff;fill-rule:evenodd"/><path d="M18.22,117.58c.05.73-.1.43-.38.79a1.32,1.32,0,0,0-.17-.53c-.17.31-.36.31-.56,0a1.82,1.82,0,0,0-.3.92c.11,0,.29-.17.22.13.15.31.26-.4.39-.52a1.52,1.52,0,0,0,.68.92c-.07-1,.42-1,.77-1.3C18.66,118,18.46,118.12,18.22,117.58Z" style="fill:#fff;fill-rule:evenodd"/><path d="M10.73,107.67l.31.53c0-.2.05-.57.19-.4C11.31,107.43,10.82,107.11,10.73,107.67Z" style="fill:#fff;fill-rule:evenodd"/><path d="M11.37,104c.22.15.42,0,.61-.39C11.76,103.51,11.34,103.33,11.37,104Z" style="fill:#fff;fill-rule:evenodd"/><path d="M22.85,121.7c.23.41.58.29.55-.26C23.21,121.48,23,121.38,22.85,121.7Z" style="fill:#fff;fill-rule:evenodd"/><path d="M14.21,104.29c-.25-.18-.49-.36-.71,0C13.74,104.35,14,105,14.21,104.29Z" style="fill:#fff;fill-rule:evenodd"/><path d="M22,112.24a.46.46,0,0,1-.3-.27c-.06.88-.45.17-.3.92C21.67,113.13,21.59,112.53,22,112.24Z" style="fill:#fff;fill-rule:evenodd"/><path d="M15.8,102.47c.07-.43-.44-.44-.62-1.06C15,102,15.58,102.22,15.8,102.47Z" style="fill:#fff;fill-rule:evenodd"/><path d="M19,103.16c-.3-.21-.58-.19-.88-.54-.23.26.41.53.18.79C18.55,103.36,18.8,103.59,19,103.16Z" style="fill:#fff;fill-rule:evenodd"/><path d="M27.09,118.21c0,.81.42.14.58.27C27.72,117.82,27.24,118.31,27.09,118.21Z" style="fill:#fff;fill-rule:evenodd"/><path d="M26.93,115.05a1.52,1.52,0,0,0,.06,1c.16-.65.5,0,.46-.64S27.13,115.74,26.93,115.05Z" style="fill:#fff;fill-rule:evenodd"/><path d="M31.9,123.14c.27.31.54.56.78.14C32.42,123.19,32.15,123,31.9,123.14Z" style="fill:#fff;fill-rule:evenodd"/><path d="M16.62,96.44c.23-.35,0-.7-.2-1.06l-.26.53C16.33,96.39,16.45,96.06,16.62,96.44Z" style="fill:#fff;fill-rule:evenodd"/><path d="M18.25,99.21c.21.56.39.41.59.53C18.9,99.34,18.36,98.6,18.25,99.21Z" style="fill:#fff;fill-rule:evenodd"/><path d="M19.28,95.94c-.29-.34-.12-.65-.39-.66,0,.72-.39.52-.59.91-.19-.5-.35-.34-.53-.66-.3.26.2.53-.1.79.06.13.1.07.14,0,.6.67,1.14,0,1.73.54.29-.43.06-.87.21-1.31C19.41,95.16,19.53,96,19.28,95.94Z" style="fill:#fff;fill-rule:evenodd"/><path d="M31.26,117.23a.46.46,0,0,0-.38-.67c-.15-.16.25-.47.33-.39.12-.68-.26.11-.37-.4-.27.31-.07.61-.16.92A2.58,2.58,0,0,0,31.26,117.23Z" style="fill:#fff;fill-rule:evenodd"/><path d="M12.08,84.45c.25.3.52.91.72.27C12.56,84.58,12.3,84.14,12.08,84.45Z" style="fill:#fff;fill-rule:evenodd"/><path d="M12,83.53c-.09.46.39.48.5.14C12.26,83,12.13,83.74,12,83.53Z" style="fill:#fff;fill-rule:evenodd"/><path d="M12.81,83.54a1.73,1.73,0,0,0,.2,1c.17-.3.08-.61.16-.91C13.05,83.55,12.94,83.7,12.81,83.54Z" style="fill:#fff;fill-rule:evenodd"/><path d="M31.71,116.31c0,.82.57.26.81.67C32.67,116.11,32,116.24,31.71,116.31Z" style="fill:#fff;fill-rule:evenodd"/><path d="M10.79,75.13c-.29.27-.61.19-.88.9C10.14,76.19,10.44,75.82,10.79,75.13Z" style="fill:#fff;fill-rule:evenodd"/><path d="M34.43,117.14c0-.43-.41-1-.59-.53C33.86,117,34.25,117.75,34.43,117.14Z" style="fill:#fff;fill-rule:evenodd"/><path d="M17.55,88.44c.26.52,1,.1.6-.65C18,88.5,17.74,88.15,17.55,88.44Z" style="fill:#fff;fill-rule:evenodd"/><path d="M22.93,96.9c.09.7.74.71,1,0a.47.47,0,0,1,0-.53C23.54,95.76,23.28,97.3,22.93,96.9Z" style="fill:#fff;fill-rule:evenodd"/><path d="M14.86,80.54c-.28.15-.61-.75-.87-.27C14.31,80.91,14.59,80.89,14.86,80.54Z" style="fill:#fff;fill-rule:evenodd"/><path d="M37.25,117.45c-.65.07-1-1.45-1.47.11.11,0,.22.08.15.26C36.35,117.24,36.84,118.07,37.25,117.45Z" style="fill:#fff;fill-rule:evenodd"/><path d="M21.17,88.61a.51.51,0,0,1-.29-.27,1.49,1.49,0,0,1-.18.66C20.89,89.58,21,88.8,21.17,88.61Z" style="fill:#fff;fill-rule:evenodd"/><path d="M38.16,117.34c-.19-.7-.3.55-.5-.15-.08.2-.17.4-.27.26-.14.48.23.16.31.53C37.53,117.18,37.94,117.93,38.16,117.34Z" style="fill:#fff;fill-rule:evenodd"/><path d="M38.85,117.08c0,.93-.4.17-.6.65.46.22.61,1.25,1,.67C38.74,118,39.27,117.53,38.85,117.08Z" style="fill:#fff;fill-rule:evenodd"/><path d="M21.08,82.44c-.25.41-.37.3-.46.92C21,83.51,21.41,83.11,21.08,82.44Z" style="fill:#fff;fill-rule:evenodd"/><path d="M40.64,117.77c.31.6.57.1.86.28s0,.61-.17.91c.51.36.42-.95,1.09-.77-.17-.56-.17-.31-.46-.79-.28.49.12.16.24.66C41.69,118.1,41.14,117.26,40.64,117.77Z" style="fill:#fff;fill-rule:evenodd"/><path d="M32.6,99.53c.33.38.65-.19.75-.64C33,98.81,32.69,98.82,32.6,99.53Z" style="fill:#fff;fill-rule:evenodd"/><path d="M27.89,89.75c-.12-.14-.22.21-.33.38.26.05.09.18.3.53A2.78,2.78,0,0,0,27.89,89.75Z" style="fill:#fff;fill-rule:evenodd"/><path d="M35.05,91.43c-.28.24-.87-.29-.9.38C34.46,91.93,34.77,92,35.05,91.43Z" style="fill:#fff;fill-rule:evenodd"/><path d="M29.29,76c-.13-.14-.23.21-.34.39.18.35.34.2.51.4C29.7,76.52,29.06,76.25,29.29,76Z" style="fill:#fff;fill-rule:evenodd"/><path d="M25.74,68.72c-.27.12-.81,0-.83.51C25.21,69.56,25.48,69.26,25.74,68.72Z" style="fill:#fff;fill-rule:evenodd"/><path d="M42.12,96.14c.11-.4-.35-.74-.43-.27l.3.53C42,96.2,42,96,42.12,96.14Z" style="fill:#fff;fill-rule:evenodd"/><path d="M31.84,72.88c-.18-.2-.31.4-.51-.14-.08.93-.52.17-.81.77.33.44.61-.06.95.68.11-.31-.07-.62-.11-.92C31.54,73,31.87,73.5,31.84,72.88Z" style="fill:#fff;fill-rule:evenodd"/><path d="M43.25,93c.21-.37,0-.94-.25-.93-.3.26.2.53-.11.78C43,92.87,43.14,93.16,43.25,93Z" style="fill:#fff;fill-rule:evenodd"/><path d="M35.61,73.07c-.32.09-.64.47-1,0C34.67,73.71,35.62,73.9,35.61,73.07Z" style="fill:#fff;fill-rule:evenodd"/><path d="M34.46,68.19c-.23.12-.48-.12-.7.26C34,68.85,34.25,68.73,34.46,68.19Z" style="fill:#fff;fill-rule:evenodd"/><path d="M39,75.22c-.25-.17-.49-.35-.71,0C38.51,75.31,38.76,75.67,39,75.22Z" style="fill:#fff;fill-rule:evenodd"/><path d="M41.37,76.44c.07-.21-.13-.44-.24-.66l-.26.52C41.05,76.54,41.2,76.21,41.37,76.44Z" style="fill:#fff;fill-rule:evenodd"/><path d="M41.92,75.93c.21.48.37,0,.58.27C42.57,75.91,42,75.29,41.92,75.93Z" style="fill:#fff;fill-rule:evenodd"/><path d="M53.06,94.25c.07-.08,0-.17,0-.26s.19.13.29.27c.17-.15,0-.93.33-.65.22-.47-.39-.16-.17-.53C53.29,93.15,52.65,93.64,53.06,94.25Z" style="fill:#fff;fill-rule:evenodd"/><path d="M54.08,93.36c.12.17.23.35.17.52.12.14.22-.21.33-.38l-.38-.67c-.12.48-.27.15-.4.52C53.91,93.62,54,93.5,54.08,93.36Z" style="fill:#fff;fill-rule:evenodd"/><path d="M56.09,95.62c-.21-.47-.39-.14-.56.26C55.73,96.05,55.91,95.88,56.09,95.62Z" style="fill:#fff;fill-rule:evenodd"/><path d="M45.89,77.71c.32.17.25-.77.1-1C45.63,76.65,45.93,77.33,45.89,77.71Z" style="fill:#fff;fill-rule:evenodd"/><path d="M46.3,75.75c-.34.27-.73-.57-1,.38C45.64,76.35,46.18,76.74,46.3,75.75Z" style="fill:#fff;fill-rule:evenodd"/><path d="M46.38,77.59c.23-.11.48.12.7-.25-.24-.14-.47,0-.72-.28C46.31,77.24,46.47,77.42,46.38,77.59Z" style="fill:#fff;fill-rule:evenodd"/><path d="M48,78.67a2.44,2.44,0,0,0-.3,1.18C48.3,79.6,48.47,80,48,78.67Z" style="fill:#fff;fill-rule:evenodd"/><path d="M58.35,95.67c-.24-.11-.49-.47-.71,0C57.89,96.05,58.13,96.05,58.35,95.67Z" style="fill:#fff;fill-rule:evenodd"/><path d="M61.16,96.91c.63-.73,1.24-.12,1.57-1.15a2.5,2.5,0,0,0-1.53.5c-.08-.18,0-.35.12-.53C60.82,95.26,60.85,96.31,61.16,96.91Z" style="fill:#fff;fill-rule:evenodd"/><path d="M52.21,78c0-.85-.46.35-.33.65C52.27,79,52,77.6,52.21,78Z" style="fill:#fff;fill-rule:evenodd"/><path d="M52.84,77.84c-.22-.15-.43,0-.62.39C52.44,78.4,52.65,78.38,52.84,77.84Z" style="fill:#fff;fill-rule:evenodd"/><path d="M64.36,95.93l.31.53c.13-.21,0-.43.18-.65C64.69,95.92,64.52,95.58,64.36,95.93Z" style="fill:#fff;fill-rule:evenodd"/><path d="M57.11,81.6c.09-.3-.1-.61.17-.91C56.94,80.53,56.59,81.52,57.11,81.6Z" style="fill:#fff;fill-rule:evenodd"/><path d="M67,69.35c-.22,0-.42.36-.62.64C66.77,70.78,67,69.87,67,69.35Z" style="fill:#fff;fill-rule:evenodd"/><path d="M74.19,70.43c.17.5-.26.34-.33.64.3.31.53-.07.61-.64-.18-.05-.26-.18-.3-.53.28-.66.63.36.9-.37-.16,0-.32.13-.51-.41-.37.65-.75.37-1,0,0,.48.36,1,0,1.44C73.89,71,73.8,69.88,74.19,70.43Z" style="fill:#fff;fill-rule:evenodd"/><path d="M76.94,70.09c-.28-.45-.62.68-.44-.27-.2-.31-.24.4-.26.52l.3.53C76.8,70.4,76.82,70.65,76.94,70.09Z" style="fill:#fff;fill-rule:evenodd"/><path d="M77.33,71a2.32,2.32,0,0,1,.38-1l-.23-.4c-.06.18-.13.2-.2.13,0,.5.08.35-.19.65C77.23,70.58,77.17,70.8,77.33,71Z" style="fill:#fff;fill-rule:evenodd"/><path d="M79.17,71.07c-.32-.31-.6.3-.94-.42-.1.58.13.34.25.92C78.7,71.08,79,71.5,79.17,71.07Z" style="fill:#fff;fill-rule:evenodd"/><path d="M79.8,71a1.37,1.37,0,0,0-.24-.66.77.77,0,0,0,0,.92A.42.42,0,0,0,79.8,71Z" style="fill:#fff;fill-rule:evenodd"/><path d="M80.23,71c.06-.22-.14-.44-.24-.66l-.2.39c.15.22.08.44.24.66C80.16,71.15,80.07,70.79,80.23,71Z" style="fill:#fff;fill-rule:evenodd"/><path d="M80.9,70.19c-.24-.25-.5-.68-.73-.54C80.14,69.92,80.73,70.75,80.9,70.19Z" style="fill:#fff;fill-rule:evenodd"/><path d="M84.8,70.41c-.18-.5-.32.11-.51-.4-.12.35-.25.69,0,1C84.48,70.57,84.65,70.72,84.8,70.41Z" style="fill:#fff;fill-rule:evenodd"/><path d="M87.08,70.73l-.3-.53-.27.52C86.72,71,86.91,71,87.08,70.73Z" style="fill:#fff;fill-rule:evenodd"/><path d="M88.48,70.24c-.19-.14-.13.22-.2.39s-.3-.31-.41.25a5.44,5.44,0,0,0,.86.29C88.94,70.86,88.26,70.54,88.48,70.24Z" style="fill:#fff;fill-rule:evenodd"/><path d="M88.73,69.46c.17.24.31-.36.49-.12a.67.67,0,0,0-.52-.67C88.58,68.93,88.9,69.2,88.73,69.46Z" style="fill:#fff;fill-rule:evenodd"/><path d="M91.71,71.5c.24-.81-.56-.92-.77-1.59,0,.74.08.81-.38,1-.33-.58-.31-1-.68-.94a1.82,1.82,0,0,0,.56,1.46C90.83,70.72,91.28,71.47,91.71,71.5Z" style="fill:#fff;fill-rule:evenodd"/><path d="M91.36,69.92c0-.37-.69-.92-.92-.16C90.75,70,91.05,69.63,91.36,69.92Z" style="fill:#fff;fill-rule:evenodd"/><path d="M91.9,69.14c.13.26.24.13.37.41.18-.39-.21-.8,0-1.19-.14-.09-.28,0-.41.26C92.19,69,92.18,68.73,91.9,69.14Z" style="fill:#fff;fill-rule:evenodd"/><path d="M94.32,69.46c-.07-.3.09-.61-.11-.92,0,.48-.09.15-.26.52C94.08,69.39,94.2,69.33,94.32,69.46Z" style="fill:#fff;fill-rule:evenodd"/><path d="M119.59,72c-.32-.21-.64-.6-1-.68a9.32,9.32,0,0,0-.1,1C118.91,72.75,119.25,72.42,119.59,72Z" style="fill:#fff;fill-rule:evenodd"/><path d="M125.81,70.15c.09-.37-.4-.7-.5-.14C125.49,70.55,125.64,70,125.81,70.15Z" style="fill:#fff;fill-rule:evenodd"/><path d="M133.4,70.75c-.29-.2-.57,0-.85,0C132.57,71.25,133.18,71.27,133.4,70.75Z" style="fill:#fff;fill-rule:evenodd"/><path d="M137.05,70.06a.92.92,0,0,0-1,.89C136.34,70.59,137,70.58,137.05,70.06Z" style="fill:#fff;fill-rule:evenodd"/><path d="M143.69,70c0-.42-.59-.75-.79-.16C143.17,70.14,143.42,69.84,143.69,70Z" style="fill:#fff;fill-rule:evenodd"/><path d="M150.5,70.7c-.15-.09-.28,0-.42.25.15.23.08.44.24.67C150.33,71.31,150.49,71,150.5,70.7Z" style="fill:#fff;fill-rule:evenodd"/><path d="M176.76,115.43c.57.36,1.1-.83,1.67-.48C178.11,114,177.26,115,176.76,115.43Z" style="fill:#fff;fill-rule:evenodd"/><path d="M178.49,114.56c.25.41.48.3.7-.24A.58.58,0,0,0,178.49,114.56Z" style="fill:#fff;fill-rule:evenodd"/><path d="M163.34,68.32a1.52,1.52,0,0,0,1.12-.23,1.13,1.13,0,0,0-1.41,0c.28.31.21.61.39.92A.9.9,0,0,0,163.34,68.32Z" style="fill:#fff;fill-rule:evenodd"/><path d="M165.79,69.7c-.28,0-.26.76,0,1.18C165.74,70.48,166.05,70.1,165.79,69.7Z" style="fill:#fff;fill-rule:evenodd"/><path d="M165.53,68.25c-.17-.24-.31.54-.49.11-.07.22.13.45.23.67A1.42,1.42,0,0,0,165.53,68.25Z" style="fill:#fff;fill-rule:evenodd"/><path d="M182.23,64.8c-.15-.09-.29,0-.42.25.07.13,0,.26-.06.4C182,65.69,182.11,65.09,182.23,64.8Z" style="fill:#fff;fill-rule:evenodd"/><path d="M183.15,63c-.3,0-.42.29-.4.78C183,64,183.16,63.19,183.15,63Z" style="fill:#fff;fill-rule:evenodd"/><path d="M185.88,64.39c-.16-.63.23-.5.47-.91-.85.05-1.38.83-2.3,1.11C184.68,64.93,185.28,64.53,185.88,64.39Z" style="fill:#fff;fill-rule:evenodd"/><path d="M186.16,64.13c.27.36.51-.22.76-.37C186.65,63.49,186.39,63.53,186.16,64.13Z" style="fill:#fff;fill-rule:evenodd"/><path d="M188.05,63.79c-.06-.44-.6-.69-.85,0C187.49,63.78,187.78,64.07,188.05,63.79Z" style="fill:#fff;fill-rule:evenodd"/><path d="M188.74,65.26c.17-.56.31-.58.1-1.31,0,.88-.57.29-.82.76C188.37,64.75,188.52,65,188.74,65.26Z" style="fill:#fff;fill-rule:evenodd"/><path d="M188.75,57.39c-.13-.34-.25-.27-.37-.41-.13.19,0,.56-.2.39C188.12,58,188.61,57.67,188.75,57.39Z" style="fill:#fff;fill-rule:evenodd"/><path d="M191.84,62.86c.16-.62.92-.07,1.31-.88a.46.46,0,0,1-.09-.4c-.31.34-.64.29-1,.76-.38-.65.15-.46.11-1-.18-.43-.3.8-.48.37-.11.16.35.95,0,.66-.07.08,0,.17,0,.26Z" style="fill:#fff;fill-rule:evenodd"/><path d="M190.77,56.53a2.1,2.1,0,0,0-1.32.61A1.3,1.3,0,0,0,190.77,56.53Z" style="fill:#fff;fill-rule:evenodd"/><path d="M194.09,62.67c-.14-.53-.09-.84.25-1.05-.3-.3-.57,0-.84.24C193.73,61.81,193.76,62.71,194.09,62.67Z" style="fill:#fff;fill-rule:evenodd"/><path d="M194.93,60.46c-.49-.22-.56.22-1,.49C194.3,61.26,194.62,60.78,194.93,60.46Z" style="fill:#fff;fill-rule:evenodd"/><path d="M195.65,60.74c.07,1.45,1-.31,1.49.18.08-.22-.2-.44-.09-.66C196.57,60.21,196.15,61.52,195.65,60.74Z" style="fill:#fff;fill-rule:evenodd"/><path d="M196.94,59.34c-.51-.46-1,.5-1.45.87C196,60.61,196.46,59.78,196.94,59.34Z" style="fill:#fff;fill-rule:evenodd"/><path d="M197.25,57.9c-.25-.36-.46.5-.7.24C196.53,58.85,197.06,58.09,197.25,57.9Z" style="fill:#fff;fill-rule:evenodd"/><path d="M196.86,58.94c.41.18.82.61,1.19-.36C197.67,59.19,197.24,58.31,196.86,58.94Z" style="fill:#fff;fill-rule:evenodd"/><path d="M198,60.68c.34.41.66-.1,1-.75-.44-.63,0-1.2.32-.91.21.51-.14.67-.32.91.21.63.37-.28.58.28a6.23,6.23,0,0,1,1.38-3c-.06-.94-.93.72-1,1.28-.08-.77-.54-.16-.38-.93C199.07,58.4,198.67,59.4,198,60.68Z" style="fill:#fff;fill-rule:evenodd"/><path d="M201,59.2c.18-.1.35-.6.55-.51,0-.22-.11-.44,0-.65-.14-.13-.28-.15-.43-.28-.18.35,0,1.17-.4.78C200.74,58.76,200.94,59,201,59.2Z" style="fill:#fff;fill-rule:evenodd"/><path d="M202,58.71c-.26.29-.16.6-.32.91A.57.57,0,0,0,202,58.71Z" style="fill:#fff;fill-rule:evenodd"/><path d="M202.5,58.59c.05-.5,0-.52.26-.78-.25-.41-.46.28-.7.24C202,58.68,202.38,58.11,202.5,58.59Z" style="fill:#fff;fill-rule:evenodd"/><path d="M2.86,103.19c-.26-.74-.44-.24-.64-.13-.54-1.19-1.2-.52-1.48-1-.28.56.42,1,.55.92-.25.61-.59-.41-.83.26-.13-.31.18-.61-.13-.92-.1.25-.23.11-.33.39.58.08-.08,2.35.4.66.61.11,1.21-.13,1.86.53.24-.58.35-.37.51.13,0-.17-.12-.35,0-.53.25-.27.12.5.4.66,0-.63.17-.55.46-1.57C3.32,102.3,3.1,102.9,2.86,103.19Z" style="fill:#fff;fill-rule:evenodd"/><path d="M6.89,108.05a.88.88,0,0,0,1.12,0c-.27-.27-.11-.53-.33-.79C7.62,108.38,7.18,107.63,6.89,108.05Z" style="fill:#fff;fill-rule:evenodd"/><path d="M231.19,62.38c-.64-.59-1.59-.37-1.84-2-.25.73-.78.45-.8,1.28.09.14.18-.12.27-.25.16.5,0,.34-.19.65-.21-.5-.4-.63-.58-.54a.75.75,0,0,1,0-.92c-.19-.09-.35,0-.35.38-.48-.93-1.44-.06-2.1.46-.84-1.18-1.58.54-2.35,1.5l-.15-.27c.26-1.41,1-1.5,1.4-2.45-.16-.37-.29,0-.45-.54-1.13,1.5-1.9,1-3,2,0-.13,0-.26-.08-.4a2.6,2.6,0,0,0,1.22-1.53c-.2-.4-.38.07-.58-.28.12.55-.07.69-.34.38a2.86,2.86,0,0,1,0,1.05c-.43-.3-1.32.22-1.09,1.28-.15.42-.11-.82-.36-.41-.06-.26.26-.27.11-.78-.29-.08-.49.94-.38,1.3-.18.19-.19-.69-.39-.93-.36.38-.09.78-.31,1.17s-.26-.41-.16-.53c-.31-.25-.2.59-.25.78A1.31,1.31,0,0,1,218,62c.15-.49.32-.34.48-.64-.44-.46-.59.49-.53,1-.5.14-.94.2-1.23,1.27-.38-.36,0-.69-.18-1,.28-.22.56-.32.83-.5a1.62,1.62,0,0,1,0-1.58c-.2-.27-.35,0-.34.39-.07-.64-.34,0-.45-.81-.36.72-.72.7-1.25.75-.12-.38.35-.68.49-.11.07-.09,0-.18,0-.27l.13-.25c-.3-.48-.56,0-.84.23-.16-.53,0-1.05-.19-1.58-.13.56-.15.31-.4.78-.28-.32-.21-.62-.38-.93-.17.21-.13.43-.19.64-.21-.26,0-.52-.31-.79a1.81,1.81,0,0,1-1.27.22c-.21-.58.15-.33.32-.91-.22-.35-.41.45-.64-.15,0,.22-.13.44,0,.66-1.05-.49-2,.78-3.09.43-.07.17.08.35.16.53-.15.33-.31.64-.47.64-.37-2.08-1.36.58-2,.2.1-1.88.88-1.37,1.41-2.19-.32-.41-.64.53-.79-.42l-.4.78c-.18-.23-.15-.45-.23-.67.19,0,.35-.57.56-.24-.13-.58.16-.33.18-.91-.37-1-.62,1.32-1,.23-.28.73-.58,1.47-.84,2.2-.3-.35-.16-.7,0-1-.26-.67-.48-.18-.72-.28a1.27,1.27,0,0,1-.25,1c.15.16.27-.29.44.28-.23.31-.47.31-.71,0l-.6,1.17c-.14-.78.11-.63-.37-.67-.36-.36.13-.7-.18-1.06,0,1.28-.45.89-.85,1.95a5.42,5.42,0,0,1-1.3-.57,5,5,0,0,1-1.12,2.2c-.34-.36.21-.69.1-1.05-.64.12-1.2,1.91-1.45,2.85.68.3.79-1.46,1.21-1.8a.84.84,0,0,1,.09.65c.2.25.44-.58.26-.78.64,1,1.64-2.13,2.52-.71a1.78,1.78,0,0,1-2.21,1.51c-.36,1.83-1.37,1.71-2.27,1.9a7.94,7.94,0,0,0,.34-2.35c-.17.55-.36.3-.54.77-.69-1.41-.83.79-1.49-.44a4.64,4.64,0,0,1-1,.89c.2.22,0,.44.09.66-.18.19-.38,0-.55.51-.34-.5,0-.81.26-.78-.1-.6-.87.17-.82.76-.29-.05-.55.48-.86-.29-.4-.07-.76,1.29-1.17.88a3.66,3.66,0,0,1,.28-2.22c-.51.1-.68,1.19-1.38,1-.28-.51-.15-.63-.45-.54-.21.49.45.18.24.66.21,0,.43.13.63-.11.14.68.07.61.44.54.08.18-.05.35-.12.52s-.4-.71-.58-.54c0,.22-.14.43-.05.65-.23.22-.47-.06-.71,0-.12-.35,0-.48.13-.52s.07.22.22.4a2.09,2.09,0,0,0-.11-1.18c-.87,2.09-1.81,2-2.72,3.06a.65.65,0,0,1-.16-.53,2.1,2.1,0,0,1-1.23,1.28c-.09-.68.66-1,.59-1.43.22.58.39.26.07-.12a3.54,3.54,0,0,1-2.09,1c-.27-.88.71-.59.65-1.56-.27,0-.37-.23-.48.38-1-.67-2.53,1.42-3.47,1.74-.23-.36.52-.68.1-1a1.36,1.36,0,0,1-.73,1.16c.21.14.43.35.64.16.05.13,0,.26.08.39-.4.48-.86-.47-1.25.49-.14-.23-.08-.44-.24-.67-.31.62-.65.2-1,.5a.86.86,0,0,1-.09-.66c-.18-.2-.32.4-.5-.15-.14.18-.07.35,0,.53a8.72,8.72,0,0,0-3.45.56.79.79,0,0,1,.12-.79c-.22-.06-.42.25-.64.11-.32.34.18.71-.1,1.05-.35-.54-.67-.31-1,.23-.21-.27,0-.52-.31-.79-.11.3.07.61,0,.91-.43-.74-.32.08-.84.24-.21-.27,0-.53-.31-.79a.87.87,0,0,0,.09.66c-.42.39-1.43-.47-1.46-1.36-.64.51.57.77.2,1.58-.24,0-.19-.37-.52-.67-.3.51-.72,0-.81,1-.31,0-.65.12-.8-.68l-.33.65c.29.7.07-.56.36.14-.15,1-1.22.31-1.8,1,.07-.53,0-1,.31-1.17-.53-.72-.53,1-1,1.15-.36-.84-.66-.09-1,.24-.43-.74-.82-.39-1.21-.17-.13-.57.36-.21.47-.64-.16-.4.16-.79,0-1.18-.35.79-.9.93-1.21,1.8-.12-.25-.28,0-.57-.28-.19-.77.84-.16.24-1,.2-.53.43.15.63-.38-.24-.62-.78.47-.8-.42-.2.48-.47.28-.82.77,0-1.08-.4,0-.8-.68-.4.78-.83.56-1.23,1,0,.54.39.93.58.54,0,.92-.64.4-.9.37a1.14,1.14,0,0,1,.18-.91c-.08-.43-.28-.44-.33-1.06,0,1.18-.4.32-.73,1.16.19.69.32-.1.51.41-.23.06-.45.54-.71,0-.08-.26.12-.12.2-.39-.12-.26-.31-.13-.23-.4-.28-.4-.05.85-.35.12a1.91,1.91,0,0,1,.05,1.31c-.34,0,0-.44-.31-.79a1.25,1.25,0,0,0,0,.91c-.11,0-.24-.17-.35.13-.39-.59.17-1.14-.13-1.72a2.91,2.91,0,0,0-.1,1.05c-.22.59-.49-.58-.7.24-.28-.31-.21-.61-.39-.92-.28.53-.6.19-.91.1-.13.91-.67.66-1,.63-.21-.27.34-.52,0-.79-.27.81-.65.41-1.11.49-.28.3.16.62,0,.92-.4.14-.11-.78-.46-1.07-.19,0-.25.18-.27.52-.75-1.46-1.38.78-2.12-.06-.2.89-.36.75-.8,1.29-.12,0-.24-.51-.51-.4-.11-.67.41-.36.54-.78-.46-.41-.76.14-1,.63-.36-.23-.21-.54-.46-1.06-.27.18-.45-.2-.55.5l-.3-.53c.16.71-.58,1-.91.11-.18,1-.4.55-.77.37-.26.47,0,.16.16.53-.15.35-.33,0-.49.12-.3-.63-.11-.63,0-1-.3,0-.61-.16-1-1,.06-.17.13-.2.21-.12-.07-.5-.71-.24-1-.29.76.38.67,1.23,1.4,1.48-.61,1.12-.8-.78-1.3-.56.05.57.61,1.15.56,1.72-.21-.5-.69-.41-.89-1.08-.16.57-.14,1.14-.29,1.7,0-.94-.31-.88-.61-1.33s.27-.69,0-1.05a2,2,0,0,0-.1,1.05c-.19,0-.48-.46-.28.25-.21,0-.44-.37-.66-.67,0-.41.65,0,.46-.91-.35.47-2,1.62-1.76.08-.21,0-.4.58-.63.12-.24,1.25-1,.27-1.5,1.53-.17-.87-.58-.31-.46-1.06-.25-.21-.15.68-.46.9-.55-.07-1.1-.44-1.62.35-.09-.73-.55-.51-.56,0-.24-.7-.44-.25-.66-.68.08.43.19.44.32,1.06-.27.08-.61-.44-.74-.81-.38-.12-.15.78-.71,0,0,.21.11.43,0,.65.3-.17.61,0,.93.42a9,9,0,0,0-1.55,0c-.05-.13,0-.26-.09-.4.23-.24.7.3.69-.51-.39-.41-.66.65-1.21-.16-.09.2-.17.39-.27.26a.87.87,0,0,0,.09.66c-.29.45-.61,0-.9.36-.27-.27-.11-.52-.32-.79-.25.33.19.66-.18.65-.29-.35.13-.65-.24-.66-.19.21.05.44-.05.65-1.17-1.57-2.42,0-3.35-.75-.13-.26.18-.51.12-.78-.41-.26-.77.93-1.21-.16a.87.87,0,0,0,.09.66c-.12.47-.27.14-.4.51-.19-.23,0-.44,0-.66-.23-.35-.43.06-.65-.14-.06.17.08.35.16.53-.12.45-.28,0-.41.25,0-.22.07-.44-.1-.66-.08.17-.17.34-.26.51-.21-.26,0-.52-.31-.79a5.18,5.18,0,0,1-2,.34l.23.4c-.19,0-.36.57-.56.25s0-.45,0-.66c-.43-.32-1.14.36-1.32.62-.14-.55-.31-.67-.58-.28.39.52.07.53-.11.79.63-.26.95.5,1.63.17.07-.24-.07-.1-.15-.27.12-.58.3.34.42-.25a4.15,4.15,0,0,0,.6,1.07c-.85-.56-1.92.55-2.55-.33,0,.13,0,.26-.06.39-.26.27,0-.5-.24-.66-.38,1.07-.83.42-1.26.23-.09.72-.39.67-.69.5a2.8,2.8,0,0,0,.08-1.57c.2-.16.57,0,.55-.51-.27.09-.28,0-.45-.53-.08.59-.28.46-.31.9-.23.21-.49-.3-.7.25-.33-1-.94-.44-1.42,0,0-.8-.3-.73-.64-.15a.82.82,0,0,1,.05-.65c-.49-.38-.93.51-1.41.23-.12.25.21.53,0,.78s-.31-.68-.42,0a.83.83,0,0,1-.1-.66c-.23-.12,0,.73-.34.39a.82.82,0,0,1-.17-.79c-.34.38-1-.33-1.11.49-.21-.27,0-.53-.32-.79,0,.81-.36.12-.34.12-.5.11-.61,1.15-1.19.36-.06.77-.67.4-1,.5,0-.22.07-.43-.1-.66-.18.86-.56,0-.89.9-.08.55.4.7.52.41.13.11-.3.6-.41.51-.1.63.33.16.44.27s-.1.44-.19.66c-.11.07-.44-.83-.71,0-.19-.31-.38-.62-.25-.93-.27-.47-.51.23-.79-.41-.05.35,0,.8-.25.78a3.82,3.82,0,0,1,1.11-2.2,5.52,5.52,0,0,1-.72-.55c-.1.26-.1.8-.34.39-.06.21,0,.44,0,.65-.3.35-.19-.31-.52-.67.11,1.11-1.13,1.25-1.34.1,0,.65-.3,0-.47.64.26.48.47-.19.72.29,0,.49-.61,0-.85,0a1.5,1.5,0,0,1-.25.79c-.16.3-.19-.42,0-.53-.26-.21-.23.68,0,.92.16-.19.34.14.48-.38.08.26.1.52.18.79-.32.38-.68-.44-1,0-.1-.51.42-1.47-.07-1.57.12.71-.08.36-.33.64-.07-.78.23-.34-.31-.79,0,.51,0,.68-.32.91-.16-1-.51.34-.87-.55.85-.13,1.48-1,2.46-.33-.39-.89.63-.39.44-1.43-.12-.26-.24-.12-.36-.4-.1.86-.72.22-.87-.29.24.76-.29.69,0,1.44-.19,0-.36.39-.57,0s.57,0,0-.66c.12-.58.3.34.41-.25-.14-.22-.07-.44-.23-.66-.37.87-.53.19-.66-.41,0,1.1-.89.37-1.32.62-.12.5,0,.35.24.66-.43.88-1.25.06-1.45.89-.3-.32,0-.62-.11-.93.38,0,.75-.2,1.14,0a1.52,1.52,0,0,0,0-1c-.09.27-.19.14-.29,0a1.06,1.06,0,0,0,0,.53c-.43-.8-1.45,0-1.66.75.11-1.33-.55-.65-.77-1.6-.11.23-.23.24-.35.12-.1.71.32.14.44.54.15.55-.24.9-.57,1.69-.36-.73.27-.75.23-1.31-.37-.51-.27.07-.62.38a2.93,2.93,0,0,1,.11.92c-.16.2-.35-.41-.49.12.33.54.59-.56.93.42.34-.54.67-1,1-.89.14.32-.31.21-.41.25-.1.39.24.46.29.19.09,2.26-2,.24-3.07,1,.11.18.22.36.16.53.18.39.31-.4.5.15.06.37-.48.85-.7.24.18.62-.38,1.45-.67.77-.1-.14.39-.56.55-.25-.13-.78.12-.76.16-1.44-.33-.3-.24-.49-.6-.8.49-.29.81.25,1.38-.75-.33-.63,0-.63-.46-1.07,0,.45.31.89-.09,1.32-.47,0-1-.28-1.42,0a.82.82,0,0,1,.17.79,1.11,1.11,0,0,0,.65.15,1.24,1.24,0,0,1-.4.78.47.47,0,0,1,0-.53c-.42-.35-.07.76-.54.52a11.81,11.81,0,0,0,0-1.19c-.45,1-1.46,0-1.94,1-.12-.31,0-.61-.25-.93-.25.3-.52-.06-.75.64a1.57,1.57,0,0,1,.31.8c-.31.3-.65,0-1,.5-.18-.53.17-1.52.54-.78-.18-.4.07-.78-.12-1.18-.25.92-.59.55-1.16,1.15.19.54.32-.24.5.15,0,.64-.41.09-.61.64-.14-.22-.08-.44-.24-.67-.09,1.43-.83,0-1.17.63-.25-1,.51-.69.51-1.3-.07-.12-.14.06-.21.13-.32-.27.16-.52-.17-.79-.23.4-.63,0-.47.64-.21.58-.48-.27-.71,0-.07-.35,0-.85.26-.52-.09-.91-.87.72-1-.55L85,72c.19.22.16.44.24.66-.26.31-.29-.19-.45-.54-.38,1-.86,0-1.64-.43-.38.73-1.36-.35-2,.21,0,.63.3.16.51.41-.07.69-.78.53-1.11.5-.16-.66.44,0,.32-.65a1.63,1.63,0,0,1-.45-.8c-.16.27-.43,1.06-.65,1.56-.31.19-.28-.69-.53-.93-.18-.09-.67.69-.64-.15-.52.71-1.07.5-1.62.36-.34-.41.23-.78-.12-1.19-.39.39.16.79-.16,1.18s-.38-.67-.61-1.07c-.18.27-.38-.11-.57,0a1.36,1.36,0,0,0-.32-1c0,.19-.06.56-.2.39-.15.36.22,0,.31.53-.17.47-.38,0-.57,0-.13.35.29.49.37.41a5.54,5.54,0,0,1,0,.91c-.27,0-.3-.45-.42.26-.33-.6.06-.47,0-.92-.3-.36-.24.3-.32.65-.32.21-.67-.12-1,0,0-.4.17-.79.16-1.18-.32-.2-.67-1.25-1-.81-.32-.81-.41-1.24-1-1.34.2.27.44.3.46.8-.2.37-.42.18-.64.12-.12.26.13.53-.1.78.27-.05.82.67.85,0a1.27,1.27,0,0,1,0,.92c-.24.07-.2-.74-.49.12-.33-.27.16-.52-.17-.79.09.8-.3.76-.62.38-.16.5.12.62.3.53-.11.25-.23.11-.34.39-.09-.31-.52-.62-.39-.93-.13-.07-.57.72-.5-.14-.24-.25-.3,1.16-.68.77-.08-.22.1-.44.19-.65-.36-.09-1-.83-1.14,0-.09.11-.61-.13-.3-.53-.62.1-1.39.92-1.53,2.46-.16,0-.33-.1-.49.12-.3-.44.21-.87-.19-1.31.31-.52.33-.17.56,0a1.1,1.1,0,0,0,.09-1.31c-.06.13,0,.26.09.4-.2.24-.4.55-.63.11s.21,0,.26-.52c-.21-.55-.37.36-.58-.27-.07,1.27-.89.36-1.43-.3-.21.47-.35,1.37.13,1.45-.15-.68.16-.44.42-.25.08.23-.11.24-.21.12.14.6.85.18,1.22.42-1.1.9-2.87.18-4.22.7-.08-.18.06-.35.12-.52-.2-.2-.39-.31-.55.25-.16-.85-.3-.12-.59-.54s.43-.61,0-.92c-.22.86-.39.35-.92.11-.18.66-.43,1.1-.84.25-.21.6-.46.16-.67.77-.84-1.83-2.13-.48-3.46-1.38.06.58-.24,1.06-.42.25-.27.3-.18.61-.17.92-.09,0-.19.11-.28,0a2,2,0,0,1,.16-1.18c-.44-.52,0,1.1-.56.26-.07.93-.21.6-.61.64-.16-.31,0-.61.17-.91-.64.7-1.71.07-2.12,1.66-.32.29-.34-.15-.58-.27-.21-.4.14-.79-.12-1.19a1.26,1.26,0,0,0-.1,1c-.35-.15-.24.28-.54.52-.25-.7.17-1.59.5-1.57-.16-.2-.1-.39,0-.26-.52-.76-1.23-1.59-1.92-.17-.27-.36.3-.69,0-1-.22.74-1-.11-1.42,0-.13.22,0,.44-.19.65,0-.22.07-.43-.1-.65-.26,0-.07.17-.26.52-.07-.18.08-.35,0-.53-.33-.55-.62-.09-.55.52-.08-.18-.15-.21-.22-.14-.07-.18.06-.35.12-.52-.66,0-1.74-1-2.13,0-.68-.73-.46.23-.86-.28-.31,1-.55.85-1,1.42.18.35.34.21.52.4-.2.47-.44-.23-.64.12-.08-.17,0-.35.12-.52-.45-.06-.93-.61-1.38-.68-.08-.18.06-.35.12-.52-.22-.06-.44-.26-.63.12-.16,1.43-1.68-.58-2.33.35a20.21,20.21,0,0,1,2.52.7c-.27.33-.57,0-.86,0-.08.62.38.15.52.4l-.39.78c-.15-.22-.08-.44-.24-.66-.58.33-.49,1.55-1.24,1-.08-.46.45-.55.6-.91,0-.31-.22-.61-.11-.92-.13.19-.41,1.8-1,1.17a.79.79,0,0,1,.1-.79c-.32-.47-.5,1.12-1,.77-.31-.35.17-.7-.19-1-.07.09,0,.17,0,.26,0,.36-.37.06-.25.79-.13-.12-.61-.3-.47.38-.17-.11-.33.22-.51-.14s.43-.95.29-1.44a4.37,4.37,0,0,0-.61.65c-.21-.26-.05-.52-.32-.79-.42.18-.85,0-1.28,0-.16-.31.26-.16.32-.65-.56-.41-.59,1.4-1.19.37-.13.12-.24.83-.4.52-.15.37.22.05.31.53l-.2.39c-.45-.5-.85,0-1.3-.54,0-.67.53-.75.78-.12.17-.32.35-.55.54-.52-.23,0-.83-.93-1.14,0-.31-.4,0-.78-.27-1.18-.22.93-1.07.85-1.73.89-.19-.48.21-.15.26-.52-.31,0-.19-.44-.47-.79-.36.38-.76,0-1.11.51-.57-.82-.51.16-1.23,1,.3-.08.59-.39.92-.12.13-.17.06-.35,0-.53a.35.35,0,0,1,.57,0c.18.23-.2.35-.27.26.12.42.88,1.63,1.17.81a1,1,0,0,0,1.52.41c.18.38.12.71.36.14.77.87,1.52,1.08,2.24.69.07.9.78.21.61,1.06.1-.27.34-.23.63-.39-.14-.25-.25-.12-.38-.4.14-.12.28-.13.42-.25a.86.86,0,0,1,0,.65c.2.43.38.12.59.54.13-.18,0-.35.12-.53.18.39.36.71.5.14.13.2.26.57.37.4.21.27-.33.52,0,.79.23-1,1.48-.54,1.78.16.28.31.07-.4.26-.52s.14,0,.21-.13c.28.31.12.62.4.93.42-.83,1.38-.1,2.07.16.14-.49.31-.34.46-.65-.38-.58-.25.48-.63.12.15-.41.11-.29-.11-.92.41-.84.84-.38,1,.28-.16.48-.4-.61-.57,0,.32,0,.51.78.27,1.19.45,0,.92.39,1.37.42-.1.72-.05.43.32.79-.23.17-.48,0-.74-.54-.11.26.21.53,0,.79.25-.18.53.21.79.15.15-.35-.13-.7-.34-1.06.4-.18.82.23,1.19-.37,0-.35-.12-.7,0-1,.42-.19,0,.68.4.93.09.25-.11.11-.19.39.45.9,1.36.34,1.9,1.34.53-.83,1.12-.25,1.69-.23.22.68-.36.58-.37,1.31.46.53.49-.87.66.4a2.26,2.26,0,0,0-.06-1.31,1.32,1.32,0,0,1,1.49.16c.11-1,.61-.62,1-.51.08.18,0,.35-.11.53s-.25-.23-.38-.4a.4.4,0,0,0-.05.39l-.13.26c.27.34.5-.43.8.41-.15.35-.33,0-.49.12-.06.71.43.34.59.54-.41,1.1.55.21.95.67,0-.41,0-1.16.3-1.17-.16.67.21.67.27,1.44.07-.17.14-.2.21-.12-.16-.73.32-.63.37-1.31.2.11.84.87,1.21.16.27.35.05.7.05,1,.41.34.78.39,1,.8.09-.17.18-.34.26-.52l-.3-.53c-.23.74-.53-.12-.79-.14.31-.57.68.27,1-.25.07,1.61.81.7,1.41,1.47-.22-.18-.41.2-.64-.14,0,.66.58.42.8.41a7.44,7.44,0,0,1,.09-1c.38-.19.23.69.4.93.08-.27.18-.14.28,0,0-.82.31-.81.71,0-.26-.87.09-.29.38-1,.44.74-.48.63,0,1.32.08-1,.36-.7.52-1.3.37.62-.38.61-.24,1,.34,0,.41,0,.61-.64.34.57-.23.3-.11.78.66.94.8-.15,1.39-.49.18.31.12.61.4.93.28-.61.61,0,.9-.38a7.43,7.43,0,0,1,0,1c-.08.25-.18.1-.27.26-.25-.27,0-.53,0-.79-.42.13-.53.59-1.05.37.32.22.65.69.94.42.26.37-.38,0-.12.52-.34-.26-.67-.14-1-.29,0,.18.11.36,0,.53-.25.27-.11-.5-.38-.66-.11.22-.23.23-.35.12,0,1.64-.71-.39-1,.63-.28-.35,0-.8-.32-.79-.18.52.11,1-.07,1.58.2.39.37-.09.57.27.07-.18-.08-.36-.16-.53.22-.46.47-.09.71,0,.06.48-.22.23-.25.78-.28.09-.57-.13-.84.25-.27-.35,0-.8-.32-.79-.36,1.91-2,.51-2.87.6-.07-.35.24-.7.09-1a13.42,13.42,0,0,0,2.15.57c-.24-.46-.52-.34-.25-.93a2.11,2.11,0,0,1-.7.25c-.08-.35.17-.69-.19-1-.18.75-.27.5-.62.38-.28-.31,0-.61-.25-.92-.51-.24-1.11.26-1.38.76,0-.22-.17-.44-.1-.66s.05.67.28,0c-.44-.51-.85-.07-1.3-.55l-.45.92a4,4,0,0,0-.47-1.06c-.25.88.22.86.34,1.32-.24.46-.56-.92-.79-.15-.36-.54.24-1-.21-1.58-.06.13,0,.26.09.39-.52.46-1.09,0-1.64-.16-.26.56.23,1.15.48,1.06-.25.24-.46,1.49-.74.9s.28-.15.18-.65-.27.32-.44-.27c-.13.51.06.69-.31.91a.68.68,0,0,1,0-.78c-.41-.54-.29,1.05-.68.51-.13-.4.35-.78,0-1.18-.26.3-.16.61-.32.91-.09.06-.18.12-.28,0,0-.42.36-.42.24-1-.36.05-.3-.36-.68-.93-.69-.49-1.36.17-1.83.22.35-.94-1.17-.55-1.68-1,0-.69.67.12.9-.64-.61-.65-1,.71-1.5-.16-.06.18.09.36.17.53-.16.63-.38,0-.55.52-.59-1.31-1.23-.1-1.6-1.08-.62.59-1.05-.13-1.53.76.26,0,.09.18.31.53-.74.84-1-.64-1.14-1.72a11.79,11.79,0,0,0-.07,1.57c-.32-.16-.62-.09-.94-.41-.12-.32.28-.31.43-.58-.19,0-1.09-.53-1.26-.35-.17-.12-.21-.84,0-.53,0-.63-.29,0-.43,0-.06.17.09.35.17.53-.58,0-1.56-1.55-2.31-.83L33,75.39c-.13.26-.29-.19-.41.26-.68-1.41-1.24,0-1.91-1.34-.61.67-1.27.15-1.95-.69.37-.42.37-.7.66-1-.71,0-1.38.93-1.77.1.07,1.12-.41,1.64-.15,2.89-.36-.15-.73-.5-1.1-.67.1,1.16,1.33.44,1.37,1.85-.13.31-.3-.41-.45-.53,0,.83-.58,0-.82.78a1.63,1.63,0,0,0-.34-1.32c.06.64-.16.77-.44,1.17-.25-.5-.69-1.17-.66-.4-.28-.35-.17-.8-.47-.79-.17-.5,0-.35.18-.66-.31-.11-.62-.25-.91.12-.27-.44.21-.87-.07-1.32-.11.21-.16,1.26-.46.66,0,.3-.19.61.11.92-.39.29-.33.17-.45.91-.12.45-.32-.72-.44-.27-.3.5.2.53.32.79-.18.11-.39-.27-.57,0-.16-.35.26-.7-.05-1-.06.57-.49.24-.36-.14-.38,1-1.14.54-1.81-.41,0,.31-.16.61-.17.92.32.27.19.29.47.79.18-.21,0-.44-.1-.66.58-.19,1.22.6,1.83.94-.48.46-1-.59-1.51-.15a2.66,2.66,0,0,1,.82.67c-.27.3-.59-.39-.83.52-.16-.36.08-.7-.2-1-.1.24-.23.11-.33.38-.2-.21-.06-.43,0-.65-.16-.26-.28.19-.44-.27,0,.75-.52.3-.52,1-.41-.44,0-.88-.35-1.32-.27.41-1-.09-1-.53-.42.48-.46-.35-.86,0-.19-.48.22-.15.26-.52-.43-.57-.81,0-1.23-.41a2.79,2.79,0,0,0-.15,1.18c-.25-.13-.69.11-.68.78-.33-.27.15-.52-.18-.79s-.41.33-.65-.14c-.25.34,0,.66-.32.66-.26-.44.28-.87.21-1.31.15-.39.38.86.51.13-.1-.61-.66-.53-.93-.14-.28-.26-.12-.52-.33-.79-.33.46-1,1-1.19.38-.14-.13-.12.22-.05.4-.26.09-.51.26-.81-.4-.14.49-.33.15-.47.65.29-.44.67.91.94.14.25.66,0,.91.5,1.32-.36.88-.54-.08-.65-.14-.25.64.31.47.34,1,.12-.42.26-.42.43,0,.16-.5.34-.16.32-.66-.25-.29-.43.05-.39-.66.15-.23.36.56.5.14.16.51-.15.68.27.92-.2-.9.32,0,.57,0,0,.12,0,.62-.08.69.24.17.65.77.93.49.32,1.14.73.4,1,1.46.35-.24.27-.8.67-.78.08.22-.1.43-.18.65.35.84.63.33,1,.67.09-.35,0-.49-.17-.53.16-.65.51,0,.46-.65,0,.12.14.83.32.53.17.49,0,.34-.18.65.4.47.75-.16,1.18.8.05-1.38.56.64.82-.52,0,.82.32.33.41.92-.26.1-.51.27-.81-.4-.17,1.1-.89.21-1.37-.41a1.89,1.89,0,0,1-.29,1.19c.61-1.25,2.14,1.87,2.67-.5.46.13.9-.06,1.37.4.1-.34,0-.48-.16-.52.13-.27.25-.53.38-.79.14-.09.29,0,.44.27-.19.42-.42,0-.6.65.23.35.44.31.67.66l.26-.52a.46.46,0,0,1,.36.14c.16.3,0,.61-.17.91.55.24.22-1.27.82-.78a.87.87,0,0,0-.11-.66c.14-.22.27-.34.42-.25-.22,1.14.9,1.47,1.3,2-.4.32-1.48-.49-1.39.51-.43,0-.88-.45-1.29-.28,0,.75.52.23.73.54-.32.35-.33.06-.53.78-.23-1.15-.42-.13-.63-1.32a1.56,1.56,0,0,0,0,1.44c-.26.24-.31-.59-.47-.79-.15.31-.32.16-.46.65-.28-.26-.11-.52-.33-.79-.28.65-.18,0-.5-.13-.31.4-.66.06-1,.51-.31-.31,0-.61-.12-.92.34-.22,1,.41.89-.65-.19-.08-.36.42-.54.53a1.32,1.32,0,0,0-.17-.53c-.28.57-.34.62-.63.12-.38.48.1,1-.28,1.44-.07.08-.15,0-.21.13-.27-.35-.06-.7-.05-1-.23-.63-.39,0-.6-.53-.14.17-.06.35,0,.53-.41.31-.9-.93-1.27.25-.8-.46-1.35.11-2-.81-.21.66-.47.16-.7.25,0,.64.06.78-.15,1.18A4.33,4.33,0,0,1,14,85.52a3.22,3.22,0,0,1,.23-1c.3-.17.63.3.91-.38.2.48-.26,1-.28,1.44.19.34.69-.11.67.66.48.21.91-.74,1.44.28-.27.4-.56.16-.83.51.19.12.38,0,.6.54,0-.56.11-.56.28,0,.5-.94,1.11.49,1.64.15.3.26,0,.52-.1.78.21.48.38,0,.58.27a3.84,3.84,0,0,0-.57-1.45,2,2,0,0,1,0-.65c.16-.05.33.09.5.13.09.27-.13.53.18.79.17-.22.12-.43.18-.65s.2.17.29,0c.2.56-.14.31-.1.79-.2.34-.45-.47-.64.12,2.23.6,4.43.57,6.67,1.52.09-1.09.83-.51,1,.28.12-.57-.14-1.14,0-1.71.39-.26.41.8.8.41.08.17-.06.34-.12.52.36.16.69-.45,1.06-.11-.35,1.41.88.79,1.5,1.85.27-.25-.06-.52-.18-.78.58.06.33.2.88.53.07-.21-.21-.44-.1-.65s.28,0,.43.27a1.42,1.42,0,0,1,.25-.79c.29-.41.25.69.57,0a.79.79,0,0,1-.11.79c.87.4.76.79,1.79.42a.78.78,0,0,1,0,.65c.63-.76,1.32,0,2-.49a1,1,0,0,1,0,.53c.26,0,.5-.4.74-.91a.55.55,0,0,1,0,.79c.83-.31,1.75,1.17,2.53-.23.29.31,0,.61.26.93-.13.25-.29-.2-.41.25.65-.2,1.44-1,2.31-.36.08-.57-.57-.41-.18-1,.39.55.71,1,1,.81.17-.83-.3-.07-.51-.41.23-.57.5-.23.76-.38a5.74,5.74,0,0,1-.09,1.31c.71-.18,1.18-1.14,2-.61.06.17-.08.35,0,.52s.24.13.37.4c.24-.49.1-.52.39-.78a1.69,1.69,0,0,0,.32.8c.34-.27.7-.11,1.06-.11.18.34-.2.46-.28.25.31.81.87-.12,1-.89.38.35.07.7-.1,1,.5,0,.94-1.07,1.46-.62.15.17-.1.63-.23.41a.78.78,0,0,0,.7.64c-.11.05-.42.17-.12.53-.13.14-.3-.31-.41.25.25.49.47,0,.72.28-.11-.35,0-1,.32-.65.06-.25-.12-.12-.23-.4a1.74,1.74,0,0,0,.8-1c.36.36-.12.7.19,1.06.19-.42.55-.42.52-1,.61.17,1.32.55,1.71.3,0-.31-.1-.62.17-.92.27.76-.12,1.14.48,1.32-.16.53-.37.16-.55.25.06.68.65-.09.93.15,0-.22-.11-.44,0-.65.24.28.38.08.6.8.25-.31.06-.62.31-.92.21-.08.47,1.17.78.15.22.27,0,.53.32.79-.15.35-.32.21-.49.13,1.12,1.32,2.74.08,4,.47a2.06,2.06,0,0,1-.24,1c.27.17.51-.25.79.15a1.32,1.32,0,0,0,0-.92c.62,0,1.83,1.27,2.38-.47.23.6-.22.46-.17.92a2.4,2.4,0,0,1,.92.15c.06-.22,0-.44,0-.66.46-.24,1.31,1.28,1.49.16.18.32.12.62.4.93.2-.15.39-.77.63-.11.26-1.37,1.22.33,1.74-.62,0,.26.28.53.17.79.34-.28.68-.76,1.07.16.13-.35.26-.48.4-.52a1.6,1.6,0,0,0,.16.53c.05-.42.43-.41.29,0,.2-.37.58-.28,1,0-.12-.57.07-.61.32-.65.08.17,0,.35-.12.52.36.21.71-.06,1.07.15-.25.64-.37-.13-.47.65.22.13.44.34.64.14.08.23-.1.44-.18.66-.26,0-.56-.88-.78-.15.3-.17.21.89.52.67.11.59-.16.64-.39.78-.14-.32,0-.62,0-.92-.29-.36-.36.3-.47.64-.24,0-.46.22-.72-.27.53.13.36-.83.75-.64.11-.48-.46-.24,0-.79.25-.42,0,.81.23.4s0-.31-.18-.8c.1,0,.19-.11.29,0-.33-.49-1.21.26-1.78-.17.19.76-.26.15-.25.78a1.23,1.23,0,0,0,1-.5c.25,1.75-.93,1.18-1.27,1.68-.55-.67-.08-1.32-.44-2,0,.86-.48-.25-.68.51.21-.13.85.18.68.93-.44-.87-.35.46-.93-.15-.31-.4,0-.79-.26-1.19l-.33.65c.12.18.23.36.17.53-.64.64-1.31.38-1.95.74.24.63.43.16.65.41-.37.44-1.07.78-1.28-.29.19.1.38,0,.54-.51s-.34-.17-.24-.66c-.43.13-.76,1.17-1.13,0-.14.54-.32.21-.49.12,0,.22-.13.44,0,.66-.54-.46-1.39.46-1.72-.56a6.83,6.83,0,0,0-.9.37,2.44,2.44,0,0,1,0-.66c-.28-.27-.16.5-.32.65a1.48,1.48,0,0,1-.06-1.31c-.33-.24-.72,0-.88-.81-.07.53.22,1.06-.07,1.58.46.4.11-1.15.68-.51.11.52,0,.83-.24,1-.53.24-1.13-1-1.65-.69-.24-.73.21-.42.39-.78-.26-.38-.47,0-.7.25a1.37,1.37,0,0,0,.17.53c-.18.15-.28-.31-.28.26-.42-.55-.76.83-1.22-.42,0,.6-.6.68-.7,0-.18,1.12-.85,1.06-1.31.63-.13.17-.05.35-.13.52-.38-.45-.78-.06-.81-.93l-.46.91c-.5-.45.11-.88-.2-1.32-.28.53-.59.42-.91.11a12.84,12.84,0,0,1-.37,1.31c-.22-.53.3-1-.06-1.58,0,1.28-.86,1.2-1.32.63-.35.25-.27,1-.67.77,0-.46.24-1-.18-.79a1.72,1.72,0,0,1,.3-1.17c0-.14-.09-.08-.14,0L48.43,95c-.21.35,0,.7-.24,1s-.34-.68-.75-1.07c-.24.51-.53-.23-.77.12.31.74.59.56.86.28a2,2,0,0,0,.39.93c-.31-.14-.25.45-.64-.15-.31.26.2.53-.11.78-.33-.65-1-.5-1.51-.68-.07.34.44.43.58.27.14,1-.56.88-.89.64-.24-.63.49,0,.26-.52-.39-.68-.26.46-.64.12.36-1.25-1.07.17-1.6-1.08-.14.54-.65.84-1,1.42,0-1.16-1.12-.15-1.26.24a.62.62,0,0,1-.17-.53c-.09.41-.41-.06-.68.52-.28-1-.49,0-1,.25-.12-.31.05-.61-.25-.93-.85.69-1.35.07-2.24.49-.12-.34,0-.65-.25-.66,0,1.06-.46.43-.71-.27.18.8-.25,1.37-.66,1-.16-.66.44,0,.32-.65-.13-.26-.24-.12-.37-.4-.09.34.1.65-.18.65-.1-.22.16-.43,0-.65-.47-.35-.6,0-.54.51-.35.23,0-.83-.39-.66a.91.91,0,0,1-.52,1c-.16-.78-.22,0-.52-.66,0,.56-.34.51-.56.25,0-.31.14-.16,0-.65-.06.82-1.21-.1-1,1.16-.28-.37-.48.79-.76.38-.23-.58.21-.4.38-1-.27-.22-.52.07-.79-.14,0,1.65-1,.85-1.29,1.16,0-.5.33-.7.45-.91a.44.44,0,0,1,0,.52c.33.3.2-.39.54-.52-.48-.17-.58,0-1-1.06-.28.3.07.61,0,.92-.47-1-2.06,0-2.7-.31-.09.09-.56.51-.31.91-.33.58-.72-.56-.68.52-.23-.36,0-.7-.05-1,.11-.14.25.22.37.4.2-.52-.21-.84.23-1.05-.36,0-.39.36-.81.77a1.2,1.2,0,0,0-.16-.52c-.21.45.16.32.11.92-.2.24-.43-.23-.61.39a7.49,7.49,0,0,0,3.29.83c.33.27-.15.52.18.79.26,0,.17-.31.32-.65.31.53-.12,1-.35,1.57-.6,0-1.34-1.24-2.07-.43-.21,0-.45-.51-.65-.4.23.59.16.51-.27.26-.24.26,0,.53-.11.79-.58-1-.66-.24-1.14-.28-.21-.26,0-.52-.32-.79.06.58-.14,1-.46.65s.33-.52,0-.79c-.08.28-.19.15-.29,0a1.27,1.27,0,0,1-.18.66,3.39,3.39,0,0,1-1.46-1.07c-.06,1.12-.49-.27-.76.39-.17-.5.26-.16.32-.66-.26,0-.51.16-.78-.14-.14.12-.24.84-.4.52.12.69,0,.62-.29,1.18.53-.14.8.69,1.2.15.3.59-.14.46.12.92a1.29,1.29,0,0,0,.15-1.18c.16-.2.33-.05.48-.39.06.86.49.44.72.27.21.57-.28.49-.3,1.18.28.11.28-.12.4-.52.1.21.34.73.75.79a2.26,2.26,0,0,1,.37-1c.11.44,0,.88.35,1.32.17-.39.38,0,.56,0-.06.3.13.61.12.92a3.32,3.32,0,0,1,2.27.29c.38-.83.87.34,1.26-.25.81,1.38,1.77-.78,2.38,1,.11-.48.27-.15.39-.52.22.51.41.53.61.8-.27.31-.54-.23-.61.64.09-.7-.19-.33-.44-.53-.15.56.11.41.3.53-.3.63-.64.26-1,.25-.14-.26.3-.43.41-.26-.16-.68-.85,0-1.21-.15.19.51.33-.1.51.41-.66-.18-.86.47-1.45.63-.22-.31.44-.61,0-.92l-.26.52a1.21,1.21,0,0,0-1.74.37c.36-.73-.3-.52-.67-.66,0,.34-.19.64.1.65-.43,1-.59-.53-1,.25a2.09,2.09,0,0,1-.13-1.18c-.21-.2-.47.68-.45.92-.27.32-.89-.87-.91.12-.12,0-.62-.37-.53-.66-.23.62-1,.77-1.68.24.36-.29.32-.18.59-.91-.25-.3-.49-.5-.74-.8-.2.16.26.94,0,.66-.09.68.32,0,.42,0,.11.86-.68,1.44-1.1.52-.47-.06-.85,1.65-1.37.77l-.25.52c-.26-.26,0-.52-.05-.79-.29-.22-.52.82-.83.26s.25-.34.32-.65c-.77.34-1.48.86-2.05-.16-.24,0-.48-.07-.68.52a.56.56,0,0,1,.1.66c-.32-.65-1,.2-1.58-.55.15-.34.3-.65.48-.38-.17-.45-.92-.47-1.3-.54-.29.65.24,0,.39.66-.22.43-.47,0-.68.52a.78.78,0,0,1,0,.65c.21.37.26,0,.31.53a.41.41,0,0,0-.26.26c-.42-1-.51-.73-1-1.18.2-.65.49.38.69-.26-.2-.5-.34-.16-.53-.66.17.53-.45,1-.73.91-.08-.17.05-.34.11-.52-.22-.63-.37,0-.59-.52-.1.26.23.52.19.78-.47.47-1-.2-1.47.13,0,.69.35-.11.57.27,0,.13,0,.26.1.39-.38-.26-.44.25-.82.52.07.75.39.51.49-.13.34.35-.27.8.18.79-.19.41-.67.54-.28,1.18.2,0,.26-.31,0-.66.09-.13.2.13.3.27.25-.31.15-.62.3-.92.42,0,.86.25,1.25-.26.59,1.33,1,.15,1.57.53,0,1-.76.38-.77,1.31.76-.42,1.28.52,2.09-.51.24.58.41,1.07.72.27.22.58.16,1.23-.14,1.44.14.37.23-.06.36.14-.16-.44.27-.87-.07-1.31.53.68,1-.29,1.47-.12-.61.55-1,1.12-1.13,1.17.26,1,1-.39,1.44-.64.07.68.55.49.8.4.05-.18-.11-.35,0-.53s.14,0,.21-.12c0,.21-.07.43.1.65.59,0,1.15-.51,1.73-.63.05.13,0,.26.09.39-.61.27-.79.73-1.35,1,.52.6,1,.08,1.49.41.15-.47-.22-.15-.3-.52.1-.33.22-.26.33-.39.34.38.15,1,.48,1,.12-.22,0-.44.17-.65-.08-.13-.14.05-.2.13-.18-.31-.2-1.35-.31-.53-.46-.72,0-1,.3-.92-.33.4.43.47.2,1,.2.25.34-.68.53-.51a.69.69,0,0,1-.44.91c-.16.35.21.7.05,1,.28.34.51-.27.78.14,0,.58-.26.4-.36,1,.29.76.5-.25.79.41.1-.48-.33-.23-.46-.8.21,0,.42-.07.64.14-.35-.53-.19-.84-.15-1.44.07-.08.14,0,.21-.13.33.27-.15.52.18.79.26-.86,1.94-.21,1.87.81.16-.48.41-.23.38-.79.39.4.16.79.41,1.19-.36-.14-.68.39-1.05.12a1.12,1.12,0,0,0,1.5.41c.15.26-.08.52.18.79.28-.41.56-.85,1.05-.12,0-.68.3-.58.07-1.31.24.57.46-.29.86.27-.26-1,.56-.39.51-1,.53.4-.25.78.13,1.18.19-.53.4-.55.61-.38a4.72,4.72,0,0,1,0,.92c-.71.33-1.44-.18-1.95.49.19.5.32-.29.52.4.84-1.49,1.87.86,2.72-.35,1,1.33,2.53,0,3,1.36a5.63,5.63,0,0,1,.85.28c.1-1,.62-.27,1-.51,0,.22-.06.44.11.66,0-.69.49-.71.48-.12.74-.79,1.57.37,2.32-.1-.24-.37.14-.61.25-.78.14.3-.27.6-.17.91.69.66,1.3-.18,2-.23,0,1,.82,1.05.93.41.16.48.29.16.45.53.28-1.44,1.82.62,2.57-.61.69,1.47,1.72-.91,2.28.57-.21-.15-.42,0-.63.12.2.72.85-.29,1.41,0,.23.13,1.08.94,1.07.15.12-.3.3.41.44.53.47-.51,1,0,1.45-.62.61.51,1.85.37,2.77.44,23.91,3.43,47.59,1.15,71.29-1.18.22.31.06.61,0,.92-1.82-.85-3.55.83-5.36.12-.1.54-.2.47-.47.64-.08-.25.12-.11.2-.39-.3-.31-.54.67-.85,0-.2.34.08.7-.1,1-.82-1.26-2-.81-3-.08-.81-.18-1.62-.56-2.39.2a.46.46,0,0,1-.09-.4c-1.21.81-3-.11-3.77,1-.21-.36,0-.49-.3-.54-.07.18.08.36.16.53-1.63-.81-2.82.9-4.52-.11-.1.86-1,.08-1.33.09-.66,0-1.07.92-1.4.23a1,1,0,0,1-1.7,0c-.3.25.2.52-.11.78,0,.31-.46-.42-.3-.53-.35.69-.75.08-1.11.5a.47.47,0,0,1,0-.53c-.47.7-1,.24-1.46.62-.1-1,0-.1-.44-.54,0,.35-.14.65-.33.65a1.46,1.46,0,0,0-.23-.66c-.29,1-1-.33-1.66.75a.83.83,0,0,1-.1-.66c-.81.33-2.76.09-2.93.72-.42.15-.88-.72-1.26.23-.42-.62-1.14-1-1.29-.3-2.67-.42-5.05.36-7.82-.06-.13.18,0,.35-.12.53-.23-.38-.3-.24-.66-.68-1.42.87-3.55-.63-5.19.68-.14-.22-.08-.44-.24-.66-.65.14-1.29.51-2,.21,0,.38.26,1.51-.35,1.84-.21-.53-.06-.84-.46-1.06-.13-.41.33-.94.47-.39.23-.64-.51-.91-.43-.27-.93-1-1.76.45-2.7-.59-.16.91-.77.62-1.21-.16-.14.17-.06.35,0,.53-.82-.44-1.61-.1-2.42-.58-.06.22,0,.44-.05.66-1.17-.45-2.7.48-3.62-.74-.06.13,0,.26.09.39-1.28-.24-2.53.21-3.83-.6-.87.59-2.39,0-3.53-.06-.25.3.09.61-.16.91-.1.06-.19.12-.29,0,.2-1.44-.9-.67-1.31-1.07-.1.71.32.13.44.53.16.56-.3.4-.39.52-.56-1.7-1.45-.66-2.18-1.36-.25.31.09.62-.17.92-.09.11-.19-.18-.28,0-.08-.22.1-.43.18-.65-.22-.35-.44-.34-.63.12,0,.26.27.53,0,.79.15.26.27-.19.43.27-.21.53-.47-.2-.68.51-.27-.77-.49-.41-.73-.54-.09-.65.47.15.62-.38-.5-.88.18-.33.32-.65-.72-1-.61.13-1.29-.55-.11.26.22.53.18.79s-.15-.06-.22-.14c-.09.35,0,.49.17.53-.32.74-.69.45-1,1.16-.23-.27-.35-.29-.32-.79-.3,0-.56,1.09-.88.64-.18-.27.19-.52.24-.78-.25-.37-.41.3-.32.65-.19.4-.45-.55-.64-.15-.09-.26.14-.52-.18-.79-.27,1-1.33,1.23-1.39.24-.3.07-.63-.4-.9.38-.43-1.06-.94.17-1.16-.81-.29,1.57-1.34-.85-1.88.36-.6-.35-1.17.06-1.78-.42-.21-.37.36,0,0-.52-.88,1.22-1.9-.5-2.81.21.13.26.24.12.37.4s-.07.35,0,.53c-.43-.13-.88-.77-1.31-.81-.05.33.14.26.23.4.15.47-.32-.11-.39.51,0-.34-.12-.48-.31-.53-.29,1.5-1.14-.52-1.66.5a.82.82,0,0,1,0-1c-.21-.48-.38,0-.58-.27-.06.22.14.44.25.66-.16.56-.36.4-.54.52a.79.79,0,0,1,.1-.79c-.47.5-1,0-1.47.11-.1-.27.13-.53-.18-.79-.21,1.36-1.76.4-2.2,1-.19-.65-.74-.48-.33-1.06-.31-.14-.32.22-.32.66-.29.08-.44-1.26-.81-.67.17.45.29,0,.44.26a.42.42,0,0,0-.05.4c-.71,0-1.44-.81-2.09.24a2.4,2.4,0,0,0-.35-1.32c-.2.39.11.79.27,1.19-.32,1.07-.78-.65-1.11.25-.45-.49.13-1-.14-1.45-.23.48-.07,1-.14,1.44-.24.48-.3-.5-.43-.26-.09-.22.09-.44.17-.66-.25-.18-.61.2-.45.65-.54-.89-.49-.09-.9-1.06-.43.52-.49.32-1,0,0,.35.23.71-.09,1.05l.39.66c.25,0,.08-.68.42,0,.13-.18.06-.35,0-.53.44,0,1.77-.24,1.6,1.07.15.31.26-.4.39-.52a.93.93,0,0,1-.15,1.18c.16.16.87.09.54-.52.29-.2.62.38.89-.38.14.3-.26.61-.17.91.28.53.94-.48.81.67.19.31.22-.41.11-.53a.79.79,0,0,1,.79.41c.06-.22,0-.44,0-.66s.33.1.48-.12a2.38,2.38,0,0,1,0,.65,1.61,1.61,0,0,1,1.81-.24c.18.37-.22,0-.26.52.23.38.41-.21.65.4.42-.73.52,1.14.93.41-.14-.13-.28-.14-.43-.27.15-.69.38.17.54-.51.19.22.05.44,0,.65.12,0,.23-.16.36.14.07-.9,1.31-.36,1.89-.1a1.05,1.05,0,0,1,0,.18,4.44,4.44,0,0,1,2.45.25c.08.22-.1.44-.18.65.34.67.51-.24.46-.64.41-.15,0,.77.47,1,.38-.3-.31-.61-.11-.92.59,0,1.13-.74,1.76.16.17-.92.45-.49.81-.77.27.26.11.53.32.79.42-.55.87-.41,1.32-.37.12.5-.36.33-.48.38.32.55.83.18,1.18-.37.28.31,0,.61.25.92-.17.44-.49.09-.46.65a2.67,2.67,0,0,0,2.2-1c.41.4-.21.78.13,1.18a2.41,2.41,0,0,1,2.27.56c.33-.85.63-.13.84,0,.13-.26-.12-.53.11-.79.59.88,1.79-.52,1.93.7.86-.14,2.13.67,2.74-.08.48.75.89,0,1.38,1,.27-.75.6-.08.87-.9.27.26.11.52.32.79,1.64,0,3.27-.25,4.95.62,0-.27.13-.52,0-.61a5.55,5.55,0,0,0,4,.3c.32-.33.69.64,1,.54.05-.17-.11-.35,0-.52.43.28,1,.61,1.55,0l.46.8c1.4-.68,2.85-.16,4.3.23,0-.13,0-.26.06-.39,2.51.61,5,0,7.48.42.34-.81,2.08,0,3.16,0,.59,0,1-.51,1.49.16l.26-.52c.33,1,.9-.34,1.43.56,1.14-.92,2.9.22,4.27-.55l.31.53c1.77-.92,3.62.21,5.39-.78.83.82,1.58-.48,2.41.32.44-.77.94.16,1.39-.5A5.63,5.63,0,0,0,99,126c2.92.24,5.79-.79,8.71-.56l.26-.52c.12-.13.14.22.09.39,1.52-.47,2.65-.42,4.19-.94l.31.54c.28-.09.06-1,.54-.51.08.25-.11.11-.2.38.2.17.5,0,.48-.38,11.44-.44,22.38-3.53,33.73-5,.06-.13.13-.26.2-.39,1.56.32,3.06-1.08,4.64-.39.26-.18.45-1.07.55-.25a.79.79,0,0,1,1.26-.23l.26-.52c.55,0,1.09.2,1.61-.34,2.63.51,5.17-1.36,7.83-.17l.26-.52a.77.77,0,0,0,1.4-.22c.15.22.08.44.24.66.14-1,.41-.39.63-.11.63-.85,1.47-.68,2.37-.72a.88.88,0,0,1,.1.66c.22.12.19-.94.62-.37.06-.13,0-.27-.09-.4.21-.24.43.24.63-.37.15.17.08.35,0,.52a1.48,1.48,0,0,1,1.1-.75c.23.66-.21.35-.39.77a21.83,21.83,0,0,1,2.48-1.5l.38.66c0,.6.18-.32-.16-.52.36-.68.72-.53,1.23-1,.13.57.62.33.32.8.25.2.19-.78.7,0,.3-.55-.19-.42-.3-.53.47-.71,1-.08,1.45-.88.08.18-.06.35-.12.52.14.16.27-.29.43.28-.16-.73.24-.3.46-.91,1.27,1,2.51-1.85,3.66-.41.16-1.2.93-1,1.36-1.28,0,.84-.6.25-.82.77.13.25.24.12.37.4-.39.37-.76,1.15-1.15,1.41,0-1.37-1.05,0-1.26.22.85.63,2.16.12,2.85-1.09.08.22-.1.43-.19.65.43-.19,1.34-.23,1.29-1.41.26-.26.21.51.38.67.76-.87,1.27-.89,2.12-1.9a3.55,3.55,0,0,0,3.19-1.48c.64.16,1.63-.51,2-1.39,1.4.48,3.58-3,5.46-1.14-.52-1.65,1-1,.83-2.47.38.11.7-1.45,1.12-.49,1.42-1.54,2.9-1.72,4.42-.52a2.11,2.11,0,0,0,.24-1.31c.23-.16.47,0,.72.55.19-.62.42-.34.63-.38.06-.72.26-.63.37-1.3-.15-.35-.27.23-.42,0a2.38,2.38,0,0,1,3.61.24c.09-1,.48-1.2,1-1a7.88,7.88,0,0,1,3-3.85l.45.81c-.16-.85.6-.67.88-1.15a.92.92,0,0,1,0,.52A4.63,4.63,0,0,0,215.91,95a4.82,4.82,0,0,0,3.23-2.4c.73.11,2-1.51,2.54-2.15a13.68,13.68,0,0,0,2.43-3.33c-.27,0-.3-.45-.45-.8.17-.42.37-.1.55-.51-.36-.25-.49.26-.72-.29-.3.93-1-.33-1,.63-.15.26-.34-.52-.51-.68a3.51,3.51,0,0,1-1.33.35,12.76,12.76,0,0,0,1.06-1.8c-1.65.42-3.92.75-5.77,2.58-.18.16-.38,0-.57-.28a2.12,2.12,0,0,0,.09.65c-.21,0-.42.23-.62.38-.37-1.19-1.09.78-1.43,1.66-.22-.44.06-.87.24-1.3-.19.16-.51-.2-.52-.68.32-.58.41-.08.61-.9-.18-.39-.3.85-.49.12-.25.25-.07.52-.26.78-.09.06-.18.11-.28,0,0-.44.26-.87.24-1.3.06-.09.14,0,.2-.13-.12.81.45.17.71,0,.14.23.08.44.24.67.6-.43.65-1.79,1.19-2.07.08.49-.43.95-.58,1.43a.67.67,0,0,0,.6-.9c.7.43,1.34-.72,2-1.38-.43-.41-.82.64-1.23,1,.19-1.28,1-1.69,1.51-1,.52-.72,1-1.35,1.6-.87,1.61-1.84,3.3-1.36,4.92-2.87-.4-.63-.76-.15-1.17-1.08-.39.27-.79.24-1.22-.43-.13.17,0,.34-.12.52-.34-.88-.61,0-.93-.43-.16-.31,0-.61.18-.91-.4-.53-.75.12-1.13,0-.3-.32.11-.61-.1-.93-.57-.38-.82.63-1.46.87-.21-.72.49-1.29.72-1.68-.12,0-.24-.16-.37-.4-.06.13,0,.26.09.39-.27.34-.46-.22-.55.51-.14-.22-.08-.44-.23-.66a1.28,1.28,0,0,1-1.41.22,1.1,1.1,0,0,0,0,1c-.13.35-.27.48-.41.52a11.28,11.28,0,0,1-.34-1.59,3,3,0,0,0,1.48-2.31,3.2,3.2,0,0,1,2.6-.31c-.27-1,.4-.72.76-.64.12.56-.37,0-.48.38.39.57.73-.58,1.1-.75.28.35-.14.65.23.66.05-.9,1-1,1.53-.74.38-.83.89-.47,1.46-.87,0-.9-.52-.18-.72-.28.46-.55,1.61-1.58,2.52-.71.54-1.11,2.63-.1,2.68-2.41.53.29.67-.88,1.11-.49,0,.45-.26.31-.18.91a5.5,5.5,0,0,0,2.13-4.13C231.59,63.44,231.1,63,231.19,62.38ZM28.05,69.54c-.32-.14-.24.23-.71,0,.08-.41.19-.74.39-.78-.1.57.31.25.21-.13A1.3,1.3,0,0,1,28.05,69.54Zm4.08.46c.27,0,.88-.24.94.41A.89.89,0,0,1,32.13,70Zm1.43.28c.14-.22.67.34.61.8C34,70.87,33.5,70.8,33.56,70.28Zm5,2.57c.24-.45.46-1.15.75-.64C39.1,72.66,38.85,73,38.59,72.85Zm1.22-1.29c-.15-.66-.31-.37-.61-.8.48-.12.79-1.56,1.11-.5C39.92,70.46,40,71,39.81,71.56ZM40.44,70c.32.35.2.7.48,1-.18.32-.37.22-.56.25C40.48,70.87,40.28,70.43,40.44,70Zm.21,3c.09-.27.54-.28.39-.78s-.64.18-.59-.54c.26,0,.51-.19.8.41a.54.54,0,0,0,.1.66C41.13,73.1,40.89,73.18,40.65,73ZM41,71.19c.14-.7.71.18.66.4C41.44,71.64,41.22,71.51,41,71.19ZM44.26,73c-.3-.12-.36-.89-.72-.27,0,.45.44.33.26.92-.28,0-.46-.23-.61-.8.35-.73,1.09-1,1.27-.24C44.3,72.39,44.39,72.76,44.26,73Zm1.15.29c-.14,0-.29-.18-.45-.53.18-.32.37-.31.57,0A1.23,1.23,0,0,0,45.41,73.24Zm-.28-3.16c.34-.27.69-.41,1.07.16C45.85,70.46,45.48,70.14,45.13,70.08ZM46,74c.17-.44.39.16.58.27C46.43,75,46.22,74.39,46,74Zm1.27-1.68c.07-.57.47-.32.59-1.17.41.31-.25.61,0,.92s.36-.54.57,0C48.06,72.72,47.67,72.45,47.28,72.36Zm.9,2.51c0-.16.13-.93.32-.65C48.49,74.57,48.5,75.23,48.18,74.87ZM49.77,74c-.36-.48-.26-1.38,0-1.44A1.85,1.85,0,0,1,49.77,74Zm1.31,2.52c-.1-.16-.19,0-.29-.27l.32-.65C51.33,75.89,51.17,76.2,51.08,76.5Zm-.34-3c-.15-.82-.36-.16-.67-.66.29-.49.62.15.9-.38.13.24.26.38.38.4C51,73.14,50.92,72.6,50.74,73.47Zm1.75,1.09c-.13-.14-.24-.07-.38-.4.31-.19.16-.64.48-.39C52.46,74,52.72,74.3,52.49,74.56Zm-1-1.47c.42.07,1.51-.73,1.52.69C52.53,72.86,51.76,74.06,51.5,73.09Zm3.51,1c.08-.22,0-.44.05-.65.18.5.32-.11.51.4C55.39,74.09,55.21,74.25,55,74.08Zm3.16.85.39-.78c.24.76.42-.22.65.41A1.06,1.06,0,0,1,58.17,74.93ZM14.38,76.86c.06-.21,0-.43.18-.65.13.28.24.14.38.4C14.77,77,14.59,77.34,14.38,76.86Zm1.87.28c-.17-.91-.29.07-.59-.26C15.57,76,16.67,76.4,16.25,77.14Zm1.92,1.33c-.25-.36,0-.93-.4-.92.44-.93.6.68,1,.8C18.62,78.94,18.35,77.74,18.17,78.47ZM20.7,80.6c-.05-.68-.3-.25-.42.26-.29-.75.38-1.68.73-1.18A1,1,0,0,1,20.7,80.6Zm-3.8,3.64c-.12-.4-.54.18-.45-.53C16.65,83.84,17.07,83.47,16.9,84.24Zm.48-.39c.16.75.23.16.52.4-.11.22.18.44.1.66-.35-.08-.28-.57-.57,0l-.23-.4C17.26,84.28,17.21,84.06,17.38,83.85ZM17,86.6c.48.09.93-.31,1.42,0A.79.79,0,0,1,17,86.6Zm1.09-1c.2-.64.45-.47.71,0C18.58,85.64,18.37,86.12,18.11,85.56Zm2.63.16-.23-.4c.14-.53.32-.2.49-.12C20.92,85.37,20.83,85.54,20.74,85.72Zm2,.54c.21,0,.38-.88.62-.38C23.19,86.28,23,86.81,22.76,86.26Zm1.14,0-.24-.4.2-.39c.11-.26-.21-.53,0-.79.17.59.27-.32.44.27C24.06,85.4,24.15,85.84,23.9,86.28Zm4.24-12c-.12.26.21.52,0,.78C27.85,75.21,27.79,74.05,28.14,74.27Zm-5.56,6.87c-.09-.17-.23-.35-.17-.52.15.18.12-.63.42,0Zm.23-1,.15.26a3.12,3.12,0,0,0,0-1.18c.15.26.27-.19.44.26-.53.93.54.46.41,1.19C23.52,80.24,22.91,81.1,22.81,80.1Zm1.38.67c.07-.18-.05-.35-.16-.53.34-.31.73.51,1.07.15C24.83,81,24.62,80.81,24.19,80.77ZM25,79.2c.17.2.33.06.52.41C25.31,80.07,24.79,79.78,25,79.2Zm0,1.71c.15-.47.69-.18.66.4C25.41,81,25.21,81.3,25,80.91Zm.48,3.94c-.22-.1-.45-.46-.67-.66.3-.08.59-.47.89-.65a.54.54,0,0,0,.1.66Zm-.18-6.56a.83.83,0,0,1,.1.66c-.42,0-.56-.23-.39-.66a1,1,0,0,1-1.66-.69c.37.37.25-.12.57,0a2.25,2.25,0,0,1,.16-.91.51.51,0,0,1,.57,0,4,4,0,0,1,0,1.19c.29-.94.63-.64,1-.78.35.93.62.79,1.12,1.2C26.52,79,25.73,78.45,25.28,78.29Zm1.77,2.78c-.18.32-.37.31-.57,0,0-.34.2-.79.39-.78C27.2,80.55,26.72,80.81,27.05,81.07Zm-.66-1.84c.16.22.1.43.24.66-.14.38-.32.24-.5-.14ZM27,85.4c-.16-1-.47-.05-.8-.4C26.37,83.81,27.19,84.39,27,85.4Zm.07-5.9c-.1-.31-.51-.17-.38-.66.15-.14.34.18.5.14.07-.35-.5-.71-.19-1.06.35,0,0,.56.39.93ZM28,83.84c-.08.67-.18,1-.61.65C27.83,84.52,27.48,83.73,28,83.84Zm.27,2.63c-.15.34-.3.66-.48.39a.47.47,0,0,0,0-.53c-.25.26-.06.52-.25.79-.35-.49.1-1,.14-1.44.27.12.13.83.31.53s-.08-.62,0-.92l.31.53C28.17,86,28,86.25,28.23,86.47ZM27.68,81c.08-.17-.08-.35,0-.53.41.51.75-.2,1.15.29C28.42,80.58,28.09,81.55,27.68,81Zm1.16,8c.29-.39.61-.23.93.15C29.49,89.66,29.18,89.63,28.84,89Zm.66-5.63.25-.52a2.33,2.33,0,0,1,.26.92C29.82,83.24,29.68,83.85,29.5,83.34Zm.74-5.23c.12-.5-.28-.17-.39-.67-.24.79-.57-.13-.84.25-.24-.64-.39-.79-.75-.8-.1.22.18.44.11.66-.67-.73-.34-1.27-.12-2.36.17.22.07.43.11.66.1-.22.25.29.36.13a1.5,1.5,0,0,1-.25-.66c.24-.42.45.05.33-.65.16,0,.32-.13.51.4-.08.28-.28.14-.19.39a1.21,1.21,0,0,1,.72.28c-.26.47,0,.15.17.52-.14.54-.34-.25-.49.13.27.72.49.44.75.8C30.34,77.42,30.65,78.31,30.24,78.11Zm.22-1.31c.14,0,.46.56.26.92C30.52,77.41,30.33,77.1,30.46,76.8Zm.2,7.09c.23-.64.5-.25.77-.12C31.17,83.84,30.92,84.08,30.66,83.89Zm1.83,5.8c.21-.6.48.13.68-.52a1.5,1.5,0,0,1,.25.66C33.12,90,32.83,90.31,32.49,89.69ZM33.61,82l-.52,1c-.1-.16-.18,0-.29-.26C32.7,82.15,33.26,81.59,33.61,82ZM32.88,86c.2-.5.8,0,.8.4C33.41,86.24,33.16,86.5,32.88,86ZM33,80.9c-.52.76-.29,2.27-.91,1.83.39-.47.79-2,.09-2.5,0-.47.23-.32.41-.51.16.78.53.23.87.53-.28.78.31,0,.46.8C33.63,81.33,33.3,80.74,33,80.9Zm4.9,9.4c.14-.5.32-.16.46-.65C38.78,90.27,38.13,90.66,37.9,90.3Zm.52-11.68c.39.67.7-.31,1.09.41C39.51,79.62,38.25,79.46,38.42,78.62Zm2,1.35c-.16-.37-.29,0-.45-.54a2.28,2.28,0,0,0,.45-.91c.27.67.49.38.75.81C41,79.8,40.69,79.05,40.47,80Zm1.79,9.88c.15-.39.32-.25.5.14C42.62,90.37,42.44,90.23,42.26,89.85Zm.6-10.36c.24-.38.51-.17.77-.12C43.39,79.78,43.14,80,42.86,79.49Zm3.49.46c-.2-.27-.37.21-.58-.27C45.9,79.25,46.42,79.56,46.35,80ZM45.53,79c.32.24.25,1.12,0,.92C45.69,79.63,45.25,79.32,45.53,79ZM44.16,91.19c.11-.36-.2,0-.16-.52.28-.55,1-.35,1.07.41C44.74,90.33,44.47,91.18,44.16,91.19Zm1.32-6.93c.15-.38.32-.24.5.15C45.83,84.79,45.66,84.65,45.48,84.26Zm.06-1.83c-.07.19,0,.47-.21.13a1.36,1.36,0,0,1,.25-.78c.4.52.74-.2,1.13,0C46.52,82.74,46.06,82.35,45.54,82.43Zm2.44.83c-.15-.5-.25-.71-.5-.14a1.37,1.37,0,0,1-.24-.66c.16-.47.36-.32.54-.51.21.56.4.41.59.53C48.08,82.74,48.22,82.76,48,83.26Zm1.24-2.47c.14,0,.29.19.44.54C49.5,81.93,49,81.19,49.22,80.79Zm.8.67c.2-.4.41-.54.62-.38C50.43,81.12,50.26,82,50,81.46ZM54.39,81c-.32.61-.26-.12-.59-.53C54,79.88,54.38,80.62,54.39,81Zm-2.21-.43c-.1-.14-.29-.07-.23-.4.42-.29.64.22.95.67-.06.22,0,.44-.18.66-.3-.32-.14-.62-.25-.93-.35.55-.5.59-.52,1.31-.25,0-.19-.45-.31-.8C51.8,80.63,52,80.78,52.18,80.59Zm-.52,1c-.17.53-.37.15-.56.25C51.08,81.27,51.43,81.16,51.66,81.63ZM51,91.72c.33-.59.69-.46,1.05-.37A.76.76,0,0,1,51,91.72ZM52.33,84a1.48,1.48,0,0,1-.24-.66c-.21.75-.83.39-.86-.28.31.56.54-.51.86.28.21-.49.45-.49.71,0C52.55,84,52.42,83.22,52.33,84Zm-.15-1.71c0-1.24.91-.66,1.41-.23A1.09,1.09,0,0,1,52.18,82.29Zm1.72.3c-.08-.18-.23-.35-.17-.53.18.39.3-.85.49-.12Zm1.16,2.25c-.24-.52-.21-.78-.83-1.19C54.65,82.84,55.2,84.06,55.06,84.84Zm.44,8.54a.8.8,0,0,1-.18-.79c.32.19.59-.57.93.15C56,93.26,55.74,93,55.5,93.38Zm4-18.29c.23-.2.43-.93.69-.51C60,75,59.78,75.56,59.52,75.09Zm.7-.24a1.06,1.06,0,0,1,1.07.15C61,75.26,60.36,75.59,60.22,74.85Zm1.46,4.49-.26.52-.23-.4C61.33,78.93,61.51,79.26,61.68,79.34Zm-.3,1.17a4.9,4.9,0,0,0,.18,1.06c-.14.38-.32.05-.5-.15C61.24,81.19,61.18,80.31,61.38,80.51ZM61,81.82c.24.57.79-.15.79.41C61.56,82.29,60.86,82.87,61,81.82Zm.54-.52c0-.3-.1-.61.18-.91C62.1,80.77,61.83,81.7,61.55,81.3Zm-.19-6.17c.17-.47.36-.36.56-.25C61.94,75.27,61.59,75.56,61.36,75.13ZM69.6,96.05c.34.36,0,1.16-.25.78C69.53,96.57,69.35,96.31,69.6,96.05Zm-42.21.77c-.15-.34.27-.84.39-.52S27.6,97.42,27.39,96.82Zm-16.66,9.67c-.26-.84-.39.44-.65-.4.2-.7.81-.45.84,0C10.76,105.93,10.86,106.29,10.73,106.49Zm9.74,3c.26-.69.52,0,.56,0C20.85,109.51,20.68,110,20.47,109.47Zm8.09-4.36c.18-.38.72-.66.71,0C29,105.09,28.82,105.53,28.56,105.11Zm6.27-7.78c-.22-.08-.79.11-.8-.4C34.25,96.91,34.82,96.68,34.83,97.33Zm-6.39-.62.31.53c-.13.33-.26.46-.41.25C28.64,97.24,28.14,97,28.44,96.71Zm0,3.15c-.15-.62.37-.62.09-1,.13-.22.27-.35.41-.26C28.66,99,28.93,100.24,28.45,99.86Zm1.8,13.94c.21-.53.46-.22.71,0C31,114.32,30.51,114.31,30.25,113.8ZM31,100.42c-.33-1.07-.25.12-.46-.79-.35.19-1,.77-1.2.11.07.09.45,0,.27-.26-.23.16-.46.07-.72-.27.17-.47.37-.13.58.27.2-.39.62-.19.59-.91.49.57,1-.68,1.3.55,0-.79.49-.76.76-.38C31.47,98.9,31.64,99.84,31,100.42Zm1.12,13c.3.35.55-.17.87.54C32.79,114.3,32.17,114.06,32.14,113.43Zm2.43-12.69c0-.68-.3-.25-.42.26-.18,0-.26-.18-.3-.53-.47.63-1-.31-1.47.37-.24-.32,0-1.16-.37-.4-.26-.39-.33-1.45.09-1a.45.45,0,0,0,0,.53c0-1.49.82-1,1.27-1.43l.39.67c.27-.06.52-.83.83-.25-.09.82-.73,1-1.09.77.08.18,0,.22-.13.26.24,0,.5.6.73.53.32-.74.64-1.31,1-.64C34.59,99.81,34.77,100.4,34.57,100.74Zm.87-.9-.23-.4c.33-.46.7-.18,1.06-.11l-.26.52C35.79,99.29,35.6,99.29,35.44,99.84Zm.36,15.1c.23-.55.52,0,.78.14C36.34,115.5,36.07,115.25,35.8,114.94Zm1-15.21c.22-.31.47.13.72.27C37.28,100.4,37,100.27,36.78,99.73ZM38,114.84c0-.54.39-.68.62-.39C38.61,115.12,38.2,114.94,38,114.84Zm1-14.68c-.31-.52-.58-.23-.85,0a1.55,1.55,0,0,1-.08,1.31c-.22-.19-.44-.24-.67-.66.19-.44.42-.09.61-.65-.15-.53-.67-.25-.75-.8.13.12.24.11.35-.12.13.22.26.44.38.66.45-.63.6-.07,1.11-.51C39,99.63,39.22,99.9,39,100.16Zm.28,0c.14-.54.66-.84.63-.12C39.58,99.74,39.66,100.58,39.27,100.16Zm2.18-.1c.33-.09.67.15,1,.29C42.18,100.9,41.35,101.05,41.45,100.06Zm.9,15.11c.22.13.41-.37.64.15C42.87,116.21,42.06,115,42.35,115.17Zm.18-14.69a1.26,1.26,0,0,1,.62-.38C43.06,100.63,42.83,100.77,42.53,100.48Zm.55-3.4c.18-.45.72-.66.71,0C43.53,96.63,43.34,97.56,43.08,97.08Zm.89,4c-.15-.26-.27.19-.44-.27l.2-.39C43.93,100.69,44.09,100.54,44,101Zm-.19-1c.11-.17.21-.53.34-.39a.23.23,0,0,0,0,.27c.1-.24.22-.24.34-.13C44.26,100.14,44,100.26,43.78,100Zm1.65,16.17c.09-.86.76-.28,1.13,0C46.2,116.53,45.79,115.93,45.43,116.15ZM47,97.29c.47-.44,1-.31,1.49.16A3.65,3.65,0,0,1,47,97.29Zm2.33,4.77c.18-.35,0-.49.26-.52C49.91,101.94,49.55,102.67,49.31,102.06Zm2.37-3.89c-.22-.11-.33-.8-.67-.68.16-.62.38,0,.55-.51A1,1,0,0,1,51.68,98.17Zm5.12-.82c.27-.32.55-.32.85,0C57.38,97.68,57.1,97.67,56.8,97.35Zm2.14,5.42-.15-.27c0,.07-.09.14-.15,0,.1-.61.43-1,.75-.64C59.22,102.43,58.91,102.19,58.94,102.77Zm19.65-20a1.38,1.38,0,0,0-.19.65l-.15-.26c.1-.64-.11-.87-.47-1.06C78.16,81.46,78.26,82.11,78.59,82.73Zm-4.51-9.81a1.41,1.41,0,0,1-.25.78c-.22-.63-.38-.06-.59-.54.05-.09.09-.17.13-.26C73.61,73.42,73.72,72.78,74.08,72.92Zm-1.58,8a4.79,4.79,0,0,0,.94.41c-.2.28-.41.41-.62.38C72.94,81.48,72.24,81.58,72.5,80.89Zm-.11-7.75c.23-.13.45-.56.7-.24C72.87,73.42,72.64,73.36,72.39,73.14ZM72.3,71c.39.17.74-.41,1.15.29-.37.12-.21,1-.52,1-.4-.29-.05-1.21-.33-1.06-.09.3.1.61-.18.91A2.17,2.17,0,0,1,72.3,71Zm.27,6.31c-.28.18-.57.09-.84.24C71.73,77.23,72.52,76.7,72.57,77.35Zm-.84-4.88c-.11.22.17.44.09.66-.2-.27-.36.21-.57-.28C71.4,72.51,71.55,72.2,71.73,72.47Zm.73,9.07a1.75,1.75,0,0,0,.18,1.06c0-.57,0-.61.33-.65.17.22.06.44.09.66.12-.71.15-.23.42-.26-.23-.54.2-.65.41-.25,0,.45-.28.32-.45.91-.5-.16-.55-.54-.7.25-.27,0-.35-.45-.32-.8-.47.61-1.35.33-1.65-.69A1.07,1.07,0,0,0,72.46,81.54ZM70.09,72.3c.37.36.71.07,1.08.42-.41.3-.85,0-1.27,0Zm-.35.13a1.23,1.23,0,0,0-.12.52c-.18-.26-.7-.13-.66-.67C69.23,72.67,69.46,71.86,69.74,72.43ZM69,71.36c-.14.5-.32.15-.47.65.2.32.36.17.24.66-.22-.17-.79.09-.81-.67C68.24,71.62,68.52,70.91,69,71.36Zm-2.1.48c.39.55.6-.7.81-.77.34.68-.11.58-.23,1.31-.16-.53-.28.05-.41.25A.82.82,0,0,1,66.89,71.84ZM66.6,80.1c-.17.11-.68.58-.65-.14C66.17,80.11,66.37,79.72,66.6,80.1ZM65.08,76c-.15.38-.31.51-.49.12C64.74,75.74,64.9,75.61,65.08,76Zm-.4,3.93c-.16.36-.68.54-.64-.15C64.26,80,64.46,79.71,64.68,79.93Zm-1.36-.43c-.15-.15-.27.3-.44-.27C63,78.55,63.43,79.17,63.32,79.5Zm-.43,1.7c-.27-.35-.1-.7.1-1,.36.74.67.13,1,.55-.16.53.11,1-.3,1.18-.35-.36-.11-.71-.19-1.06C63.31,81,63.09,80.8,62.89,81.2Zm.18.79c.33-.66.33.45.73.54C63.57,82.75,63.11,82.5,63.07,82Zm.69,1.2c.2.31.24-.4.26-.52l.3.53C64.19,83.67,63.7,83.84,63.76,83.19Zm1.95,2.67-.23-.4c.15-.38.31-.51.49-.12ZM68,82.23c.11-.11.23-.09.36.14-.48.68-.83-1-1.11-1.2l-.33.64a1.15,1.15,0,0,0-1.65-.42,2.4,2.4,0,0,1-.36,1.3c-.09-1-.25.35-.58-.28a6.33,6.33,0,0,0,1-1.94c.51,1.17,1.26-.11,1.83-.23-.06.27-.43.52-.25.79.24-.37.51-.22.75-.64-.1-.14-.29-.07-.23-.4.28.45.87-.4.94.41-.37-.36-.85.64-.52,1.3,0-1,.95-.4,1,0C68.52,81.69,67.74,81.29,68,82.23Zm.23-1.31c0-.29.27-.64.47-.64-.12.41.32.11.44.53C68.81,81.27,68.5,81,68.19,80.92Zm.87-6.27c.15-.16.29-.93.46-.65S69.27,75,69.06,74.65Zm.53,7.75c.12-.26-.21-.53,0-.79.19.06.37,0,.57,0C69.91,82.07,69.93,82.58,69.59,82.4Zm.8-1.29c-.34-.26-.64.5-1-.29.35-.41.58.18.77-.38C70.25,80.66,70.45,80.89,70.39,81.11Zm.7,3.42c-.17-.19-.32.13-.51-.4a6.36,6.36,0,0,0,.51-1.3c.13.24.26.38.37.4s-.08.17-.13.26.09.18,0,.26C70.93,83.14,71.27,84.32,71.09,84.53ZM73.48,96c.2.32.36.17.24.67-.31,0-.21-.57-.54-.94-.27.66-.62-.35-.9.38.2.12.38,0,.59.53-.13.37-.28,0-.4.52-.27-.2,0-1-.32-.79s.25.62,0,.92c-.14.08-.29-.05-.44-.28,0-.39.28-.78.17-1.17-.16.08-.34-.25-.51-.41a4.18,4.18,0,0,1,3,.33C74.07,96.72,73.73,95.28,73.48,96Zm.77-13.76c.15.62.59-.35.51.4C74.57,82.79,74.08,83,74.25,82.24Zm.54,14.84c-.36-.37.09-1.3.32-.91C75.08,96.76,74.69,96.26,74.79,97.08Zm.57,0-.23-.4c.24-.42.48-1,.75-.63C75.91,96.64,75.54,96.45,75.36,97.09Zm.18-14.56c.11.31.3.62.11.92-.14-1.11-.32-.27-.74-.8.23-.51.44-.51.29-1.44.53,1.46,1.31.26,2,.83A3.58,3.58,0,0,1,75.54,82.53Zm2,3.33c.3.33.93-.37,1,.55C78.31,86.36,77.66,86.59,77.58,85.86Zm0-1.71c.14.18.2-.19.2-.39.4.58.76.09,1.15.56C78.56,84.91,77.77,84.57,77.58,84.15Zm1.59,12.77c.18-.53.31-1-.12-1.18.22-.28.46-.15.71.28C79.57,96.49,79.59,97.49,79.17,96.92Zm-.11-14.57c.41.57.73-.6,1.14,0C79.86,82.35,79,83.58,79.06,82.35Zm2.79-8.07c-.21.7-.46.28-.7.25C81.38,74.39,81.6,74,81.85,74.28Zm-.17-.53c-.13.4-.64.27-.57-.27C81.31,73.81,81.47,73.06,81.68,73.75Zm.17,11c0-.39.33-.68.56-.25C82.23,84.79,82.05,85,81.85,84.78Zm-.94-2.38c.47.68,1.26-.1,1.51.69C82,82.79,80.94,83.77,80.91,82.4Zm1-7.72c.5-.63,0-2.84.68-2.22a2.52,2.52,0,0,0-.16,1.18c.15-.26.33.06.51.4C82.63,74.39,82.31,75.18,81.94,74.68Zm.55,1.45c.22-.22-.07-1.12.32-.91-.11.26.21.53.17.79S82.67,76.52,82.49,76.13Zm2.08,7.8c.45.71.42-1,.91-.38-.37.45-.19.32-.32.92C85,84.5,84.39,84.66,84.57,83.93Zm-1.3-9.35c.15-.38.32-.51.5-.12C83.62,74.84,83.46,75,83.27,74.58ZM83.69,97a1.53,1.53,0,0,0,.37-1.3q.24.63.42,0C84.8,96.54,84.11,97.48,83.69,97Zm.78-10.35c0-.42.34-.53.56-.25C84.86,86.9,84.66,86.8,84.47,86.68Zm-.27-1.45c.19-.26,0-.52.25-.78.45,1.12.81.21,1.23.68C85.48,85.94,84.66,85.26,84.2,85.23Zm2.17-.6c0-.49.37-1.06.62-.38C86.8,84.78,86.59,84.8,86.37,84.63Zm2.82,1.77c.18.2.32-.4.5.14C89.59,87.12,89.11,86.9,89.19,86.4Zm1.35-1.8c-.42-.34-.64-.36-.69.5-.32-.26-.08-.52-.17-.79l-.33.65c-.38-.76,0-1.15-.62-1.33.33-.11.94-.29,1.08.43.23-.44.75.29.75-.64l.3.53C90.7,84.44,90.52,84.1,90.54,84.6Zm.09.65c.08-.21,0-.43.05-.65.45-.08.36,1,.63-.12C91.73,85.27,90.9,85.82,90.63,85.25ZM91.89,85c-.12-.2-.22.23-.35-.14.21-.87.38-.33.51-1.3C92.42,84.07,92.08,84.55,91.89,85Zm1.42,1.74c.19-.45.4-.46.63-.11C93.74,86.89,93.54,87.2,93.31,86.76Zm5.35-14.82c-.34.46-.69.38-1,.36C98,71.92,98.29,71.49,98.66,71.94Zm-2.33,2c.22-.6.46-.28.71,0C96.82,74.31,96.58,74.3,96.33,74Zm.73,11.3c.32.35.25-.55.61-.64C98.12,85.43,97.07,86.39,97.06,85.28ZM98.15,73.5c-.28,0-.91.56-1-.29a.59.59,0,0,1,1.14,0c.14-1,.33,0,.56,0a2.42,2.42,0,0,1,.22-1.57c.37.58-.37,1.13,0,1.71.06-.22,0-.44.19-.65.1,0,.56.45.45.8C99.29,73.08,97.9,75.48,98.15,73.5Zm2-1.4c-.37-.41-.51-.28-.62.38-.25-.75.13-.8.38-1C100,71.66,100.21,71.89,100.15,72.1Zm.16-1.44.32-.64a.82.82,0,0,1,.18.79c-.1-.14-.21-.4-.3-.27S100.38,70.79,100.31,70.66Zm1,2.26c.19.51.32-.28.51.41C101.64,73.61,101.12,73.45,101.31,72.92Zm3.21.74c-.38-.13-.75,0-1.14-.29.26-.29.34-.65.47-.65,0,.26.33.3.37.41.08-.22,0-.44,0-.66C104.63,72.37,104.79,73.09,104.52,73.66Zm1.2-.1c0-.09.07-.18,0-.26.2-.21.41-.31.64.14C106.16,73.88,105.94,73.78,105.72,73.56Zm2.51-1c.13.28.24.15.37.41-.19.23-.49.4-.46.91a10.24,10.24,0,0,1-.36-1.85c.32.27,1-.23,1.08.42C108.64,72.27,108.44,72.58,108.23,72.57Zm1.34,1.88a.45.45,0,0,0-.29-.27c.14-.48-.32-1,0-1.45A2.31,2.31,0,0,1,109.57,74.45Zm-.5-2.12c.39-.13.46-.37.76-.37a.47.47,0,0,0,.09.4c.09-.15.17-.27.28,0C109.83,72.5,109.46,72.7,109.07,72.33Zm.61,1.33c.22-.34,0-.7.25-1,.29.23.56,0,.86.28-.08.22.09.44.09.66C110.5,74.11,110.1,74,109.68,73.66Zm1.8-1c-.1-.14-.2-.4-.29-.27.08.17,0,.35-.12.52l-.23-.4a1.53,1.53,0,0,0,.39-1c.15.22.09.44.23.66.07-.13,0-.26.06-.39C111.84,72.06,111.68,72.36,111.48,72.66Zm.81.67c.22-.32.47,0,.71,0C112.78,74,112.34,74.11,112.29,73.33Zm1.59-.87c0,.13.15.26.09.39a1.37,1.37,0,0,1-.17-.53c.21-.09.41-.4.64-.11C114.27,72.83,114.06,72.35,113.88,72.46Zm.87.54c.18-.34.73-.35.72.29C115.22,73,115,73.49,114.75,73Zm1,1.21c-.12-.16-.23,0-.35-.14.08-.17-.08-.35,0-.53.07.08.14,0,.2-.12A.82.82,0,0,1,115.71,74.21Zm.14-.26c.35-.57.75,0,1.12-.23C116.62,74.35,116.24,74.27,115.85,74Zm.38-1c.29-.58.58-1,.9-.63C117,73.19,116.57,73.06,116.23,72.91Zm2,1.89A.81.81,0,0,0,119,74c.08.23.05.44.24.67C118.91,75.18,118.61,75.43,118.28,74.8ZM38.85,123.12c.23-.69.5-.49.77-.12C39.61,123.59,39.13,123.57,38.85,123.12Zm7.44,1.31c.16-.18.29-1,.48-.38C46.89,124.46,46.44,125,46.29,124.43Zm2.9-4.4c.17-.47.36-.37.55-.25C49.57,120.1,49.4,120.42,49.19,120Zm3.13.59c0-.51.26-.71.48-.13C52.65,120.69,52.5,121,52.32,120.62ZM55.19,122A2.58,2.58,0,0,0,54,120.65c.27-.47.66-1,1.15-.9.08.31-.33.61,0,.92.37-.39.16-.78.3-1.17.13.28.25.14.37.4C55.64,120.89,55.37,121.11,55.19,122Zm2.07-1c-.39.35-.79.16-1.2-.16.17-.54.23-.19.37-1,.13.18.26.54.37.4s-.07-.35,0-.52c.27.23.49-.46.79.4C57.38,120.65,56.87,120.15,57.26,121Zm2.17-.35c.16-.47.35-.47.56,0C59.82,121.11,59.61,120.67,59.43,120.63Zm3.26.59c.28-.33.82-.57.92.15C63.31,121.54,63,121.72,62.69,121.22Zm6.67-.51c.19.2.35-.12.37.41C69.57,121.66,69.19,121.11,69.36,120.71Zm23.42.56a.47.47,0,0,0-.29-.27c0-.35.2-.8.39-.78C93.14,120.58,93,120.92,92.78,121.27Zm4-1.09c.19-.2.72-.61.71,0C97.21,120,97,120.78,96.75,120.18ZM115.81,119a1.56,1.56,0,0,1-.24-.67c.16-.26.68-.52.64.15C116,118.13,115.79,118.62,115.81,119Zm1.78.43a3.22,3.22,0,0,1-.27-1.45c-.19.64-.59.86-.63.12.37-.25,1.1-.71,1.28.29C117.45,118,117.78,119,117.59,119.4Zm1.29-1.4c-.2-.12-.37.25-.57,0C118.23,117.16,119.11,117.35,118.88,118Zm4-45.7c.16.22.07-.29.21-.12-.15.36.22,0,.3.53C123.25,73.13,122.76,72.69,122.85,72.3Zm.6,43.72c.33.35,1-.82,1.07.16C124.18,116.1,123.6,117,123.45,116Zm3.34.48c-.19-.53-.34-.2-.51-.4.22-.39.44-.68.69-.25C126.91,116.07,127,116.29,126.79,116.5Zm1.5.44-.31-.53C128.18,115.8,128.6,116.55,128.29,116.94Zm3.34-1c.14-.34,0-.66-.22-.4a1.76,1.76,0,0,1,0,.79c-.15-.26-.28.18-.44-.28.34-.38,0-.79.31-1.17.17.2.33.06.51.41C131.72,115.48,131.93,116.26,131.63,116ZM132,72.15c.2.12.37-.35.58.28C132.41,72.83,131.9,72.7,132,72.15Zm.59,43.72c-.18-.37-.18-1.31.18-.91C132.63,115.26,132.72,115.57,132.55,115.87Zm.34-.12c.16-.37.32-.51.49-.12C133.23,116,133.08,116.14,132.89,115.75Zm1.92.18c-.23-.34-.42.06-.64-.14.36-.85-.23-.52,0-1.05.35.5.65-.21,1,0A1.46,1.46,0,0,0,134.81,115.93Zm14-43.57c-.14-.46-.61-.34-.53-.93C148.48,72,149,71.55,148.79,72.36Zm3.11.09-.22-.4c.38-.29.33-.17.46-.91.19.21.38.06.58.54A1.14,1.14,0,0,1,151.9,72.45Zm1.94-1.26c.18.31.69,0,.66.68C154.16,71.22,153.8,72.33,153.84,71.19Zm7.71.36c-.25-.27,0-.53-.17-.8.2-.37.42-.17.63-.11C162,71.09,161.72,71,161.55,71.55Zm.77-.11c-.08-.31.62-1.13.56-.25C162.52,70.93,162.65,71.81,162.32,71.44ZM170.11,70c.25-.51.51-.44.78-.11C170.64,70.31,170.36,69.71,170.11,70Zm14.94-3.11-.26.52-.23-.4C184.71,66.44,184.89,66.77,185.05,66.85Zm-1.93,45.09c-.1-.13-.2-.4-.29-.27-.09.28.1,1.22-.24,1-.07-.31.09-.61-.11-.93.38-.11.29-1.22.66-1.29A1.84,1.84,0,0,1,183.12,111.94Zm-.43-44.11c.19-.69.76-.78.77-.1C183.19,67.3,183,68.14,182.69,67.83ZM183.83,112c-.26-.58-.2-.62-.52-.68.05-.36.12-1.3.46-.9C183.16,111.31,184.48,110.66,183.83,112Zm-.31-44.64c.33-.52.68-.53,1.06.17C184.23,67.44,183.88,67.76,183.52,67.33Zm.93,44.26c.17-.67.22-.58.38-1.3a4.3,4.3,0,0,1,.19,1.32C184.82,111.33,184.66,112.14,184.45,111.59Zm.76-.63a.65.65,0,0,0-.16-.53c.13-.31.27-.3.42,0C185.41,110.76,185.35,111,185.21,111ZM197,65.12c.26-.7.55-.62.83-.77C197.79,64.87,197.29,65.41,197,65.12Zm5.55-3.25c.46,0,.55-.86.08-1.57.11-.24.22-.37.34-.38.39.62-.18,1.22.35,1.84C203.06,61.87,202.82,62.48,202.55,61.87Zm6,27.22c-.32.35-.81.31-1.31.88-.07-.17-.22-.36-.16-.53a5.62,5.62,0,0,1,1.57-1.65A1.34,1.34,0,0,1,208.57,89.09Zm9.32-2.2c.22.36,0,.7,0,1-.18-.2-.33.13-.51-.41C217.57,87.23,217.74,87.38,217.89,86.89ZM209.35,89c.4-.52.82-.76,1.23-1.28a1.44,1.44,0,0,1,.16.8C210.28,88.63,209.82,89.09,209.35,89Zm1.45-25.55c.1-.57.59-.35.5.15C211.12,63.2,211,64,210.8,63.44Zm.51,25.08L211,88c.41-.28.82-2,1.64-1.53C212.07,87.16,211.55,87.42,211.31,88.52ZM212.23,64c.35,0,.68-.81,1.05-.36C212.94,64.06,212.6,64.44,212.23,64Zm2.24-2.69c.2.43.27.43.28,0,.34.44-.27,1-.4.51A1.2,1.2,0,0,0,214.47,61.32Zm-.34,2.62c.18-.32.37-.31.57,0C214.52,64.21,214.34,64.47,214.13,63.94Zm.81,13c-.18,0-.32-.45-.31-.79.2.16.3-.77.38-1,.32.27.08.53.17.79.07-.07.14,0,.22.14C215.05,76.19,214.74,76.07,214.94,77Zm.91-.1c0,.39-.27.8-.48.38C215.6,76.83,215.51,76.3,215.85,76.85Zm.46-13.24c-.52-1-1,.81-1.47.35-.27-.57.26-.3.12-.78-.21.3-.62.35-.65-.15.43-.32.47-.46.81-1.29.18.57.34.25.49-.12a5.15,5.15,0,0,1,.47,1.33c.35-.52.07-1.05-.05-1.58C216.62,61.66,216.62,62.92,216.31,63.61Zm10.44,3.48c0-.36.32-1.16.54-.77C227.31,66.8,227,67.11,226.75,67.09Z" style="fill:#fff;fill-rule:evenodd"/><path d="M56.5,82.25a2.06,2.06,0,0,0,.43,0C57,81.79,56.59,81.78,56.5,82.25Z" style="fill:#fff;fill-rule:evenodd"/><polygon points="56.5 82.25 56.5 82.25 56.5 82.25 56.5 82.25" style="fill:#fff;fill-rule:evenodd"/><path d="M61.41,71.33c-.07.25.19.12.09.39.73-1.25,1.55-.26,2.3-.87a2.44,2.44,0,0,0-2-.3c-.07.17.08.35.16.53C61.78,71.12,61.61,71.44,61.41,71.33Z" style="fill:#fff;fill-rule:evenodd"/><path d="M16.08,118.21c.25.34.45-.26.69-.25C16.53,117.9,16.28,117.67,16.08,118.21Z" style="fill:#fff;fill-rule:evenodd"/><path d="M28.88,116c.15-.51-.12-.53-.32-.8-.16.22-.11.44-.18.65.13.15.23-.21.34-.38A1.24,1.24,0,0,0,28.88,116Z" style="fill:#fff;fill-rule:evenodd"/><path d="M17.4,96.58a2.59,2.59,0,0,0,0-.92c-.33-.4-.15.53-.48.12C16.65,95.94,17.39,95.88,17.4,96.58Z" style="fill:#fff;fill-rule:evenodd"/><path d="M22.38,104.11c.13-.35-.28-.2-.37-.4a.68.68,0,0,0,0,.79C22,104.15,22.19,104,22.38,104.11Z" style="fill:#fff;fill-rule:evenodd"/><path d="M20.89,99.89a1.54,1.54,0,0,0-.24.79c.15.23.27-.34.43,0,.05-.17,0-.2-.08-.13C21,100.33,21.07,100.11,20.89,99.89Z" style="fill:#fff;fill-rule:evenodd"/><path d="M32.44,118.29c-.13.6-.33.47-.31.92.29.6.16-.33.26-.53s0,.41.31.54c.33-.77.72-.58,1.11-.25,0-.26,0-.52.1-.79A1,1,0,0,1,32.44,118.29Z" style="fill:#fff;fill-rule:evenodd"/><path d="M20.13,97.39c.85-.18,1.44,0,2.22-.76-.11-.25-.3-.12-.23-.4-.32-.24-.17.2-.47.39,0-.67-1.08-.14-.81-.66C20.63,95.46,20.23,96.74,20.13,97.39Z" style="fill:#fff;fill-rule:evenodd"/><path d="M37.55,123.76c-.49,0-1-.14-1.48-.16C36.3,124.11,37.12,124.05,37.55,123.76Z" style="fill:#fff;fill-rule:evenodd"/><path d="M9.61,75.77c.06-.25-.12-.12-.23-.4,0,.48-.23.23-.39.79C9.47,76.42,9.42,76,9.61,75.77Z" style="fill:#fff;fill-rule:evenodd"/><path d="M22.73,97c-.29-.61-.51.26-.76.38C22.22,97.27,22.5,97.6,22.73,97Z" style="fill:#fff;fill-rule:evenodd"/><path d="M35.27,117.16c.11-.4-.31.18-.45-.54-.18.22.06.44,0,.66C35,117.52,35.11,117.2,35.27,117.16Z" style="fill:#fff;fill-rule:evenodd"/><path d="M17.4,81.49c-.3-.19-.59-.45-.84.25.29.29.37,0,.53.66.06-.13,0-.26-.09-.39C17.12,81.64,17.28,82,17.4,81.49Z" style="fill:#fff;fill-rule:evenodd"/><path d="M26.15,90.37c.14-.61.1-.62.23-1-.29.35-.89.28-.95.77C25.78,89.75,25.76,90.39,26.15,90.37Z" style="fill:#fff;fill-rule:evenodd"/><path d="M42.69,119.38c.17-.26.35-.43.55-.26.13-.34-.28-.2-.37-.4-.15-.48.36-.22.24-.78-.18-.39-.31.4-.49-.14C42.71,118.35,42.34,118.6,42.69,119.38Z" style="fill:#fff;fill-rule:evenodd"/><path d="M45.16,119.56c.2-.49-.21-.35-.1-.66-.3.14-.61.06-.9.37C44.51,119.71,44.79,118.72,45.16,119.56Z" style="fill:#fff;fill-rule:evenodd"/><path d="M45.87,118.13c-.19,0-.25.17-.26.52-.14-.23-.08-.44-.24-.66-.38.33-.79.22-1.2-.16.12,1.1.75.24,1.11,1.2.2-.67.46-.23.71.28.41-.2.39-.51.74-.9-.15-.13-.29-.15-.44-.27-.18.21.06.43,0,.65s-.14,0-.2.13C46,118.65,46.18,118.4,45.87,118.13Z" style="fill:#fff;fill-rule:evenodd"/><path d="M23.51,68.29c.12.18.23.35.17.53.13.14.23-.22.34-.39-.2-.2-.39-.15-.58-.27C23.38,68.33,23.48,68.36,23.51,68.29Z" style="fill:#fff;fill-rule:evenodd"/><path d="M30.51,71.81c-.1.33,1,1,1.29.28-.11-.12-.54.36-.44-.27C31.06,71.51,30.82,72.5,30.51,71.81Z" style="fill:#fff;fill-rule:evenodd"/><path d="M35.1,74.37c-.13-1-.79-.17-.77-1.32-.3.26.2.53-.1.78C34.53,74.08,34.72,75.05,35.1,74.37Z" style="fill:#fff;fill-rule:evenodd"/><path d="M49.08,93.65c-.13.53.28.21.37.4.13-.19,0-.56.19-.39.07-.08,0-.17,0-.26l-.15-.27c.09.2-.3,1-.2.39C49.14,93.36,49.24,93.87,49.08,93.65Z" style="fill:#fff;fill-rule:evenodd"/><path d="M42.58,74.89c0,.34-.08.46-.27.26,0,.48.62.35.87.54A2.28,2.28,0,0,0,44,77.28,16.45,16.45,0,0,0,43.51,75C43.52,76.37,43.05,74.84,42.58,74.89Z" style="fill:#fff;fill-rule:evenodd"/><path d="M44.76,77.69c.12.54.81.31,1.16.55.19-.48-.51-.24-.32-.8C45.48,77.61,45.1,78.1,44.76,77.69Z" style="fill:#fff;fill-rule:evenodd"/><path d="M44,75.57c-.27.34,0,.47.15.27a.87.87,0,0,1,.1.66c.12.13.23,0,.36.14-.14-.23-.28-1.1.19-.39.07-.22-.13-.44-.24-.66C44.35,75.9,44.16,75.9,44,75.57Z" style="fill:#fff;fill-rule:evenodd"/><path d="M47.6,76.3c-.12-.13-.23,0-.36-.14-.26.3.09.62-.17.92C47.3,77,47.29,76.71,47.6,76.3Z" style="fill:#fff;fill-rule:evenodd"/><path d="M50.46,72l.2-.38c-.15-.35-.3-.74.12-.53.14-.36-.23,0-.31-.53,0,.48-.09.16-.26.52C50.49,71.41,50.08,71.71,50.46,72Z" style="fill:#fff;fill-rule:evenodd"/><path d="M56.32,79.75c-.06.17-.13.2-.2.13s0,.34.07.13a1.26,1.26,0,0,1-.11.78C56.32,81,56.58,80,56.32,79.75Z" style="fill:#fff;fill-rule:evenodd"/><path d="M65.71,96.09c-.26-.66-.47-.17-.71-.28-.06.18.1.36,0,.53.1.13.11-.06.06-.13C65.28,95.78,65.54,96.9,65.71,96.09Z" style="fill:#fff;fill-rule:evenodd"/><path d="M58.19,70.6c.11-.93.63-.41,1-.77-.06,0-1.09-.76-1.13,0-.31-.55-.59-.53-.86-.28C57.52,70.27,57.84,70.05,58.19,70.6Z" style="fill:#fff;fill-rule:evenodd"/><path d="M59.36,69.71c-.06.22.14.44.24.66-.2.24-.43-.24-.62.38.38.11.73-.54,1.13,0,0-1.47,1.14.35,1.62-.35,0-.22-.17-.45-.1-.66-.3.11-.58.77-.93-.15C60.28,70.11,59.81,69.73,59.36,69.71Z" style="fill:#fff;fill-rule:evenodd"/><path d="M60.16,68.41c-.67-.1-1.6.5-2.09-.7A1.19,1.19,0,0,0,60.16,68.41Z" style="fill:#fff;fill-rule:evenodd"/><path d="M63.45,69.27a2.28,2.28,0,0,0,.86.28C64.28,69,63.68,69.14,63.45,69.27Z" style="fill:#fff;fill-rule:evenodd"/><path d="M67.69,69.1c.16.7,0,.85-.39.78a2.53,2.53,0,0,0,2.21.45c-.33-.75-.59.08-.74-.81,0,1-.58-.16-.83.51C67.66,69.66,68.11,69.1,67.69,69.1Z" style="fill:#fff;fill-rule:evenodd"/><path d="M68,68.85c.12-.5-.28-.17-.39-.67-.22.55-.14.69-.48.38C67.14,69.28,67.72,68.69,68,68.85Z" style="fill:#fff;fill-rule:evenodd"/><path d="M71.16,70.75c-.3-1.62-1-.68-1.51-.42A1.74,1.74,0,0,0,71.16,70.75Z" style="fill:#fff;fill-rule:evenodd"/><path d="M77.35,71.55c.22.12.42,0,.77-.11L77.9,71C77.73,71.66,77.52,71.08,77.35,71.55Z" style="fill:#fff;fill-rule:evenodd"/><path d="M81.68,70.08c.13-.34-.28-.21-.37-.41l-.39.78C81.29,70.66,81.24,69.6,81.68,70.08Z" style="fill:#fff;fill-rule:evenodd"/><path d="M86.24,71a1.28,1.28,0,0,1,.12-.53c-.33-.6-.61,0-.92-.15C85.61,71.54,85.83,69.65,86.24,71Z" style="fill:#fff;fill-rule:evenodd"/><path d="M92.22,70.2c.14.31,0,.61,0,.92.24.06.45-.56.71,0,.23-1.28.65-.45,1-.63s-.19-.53.11-.78c-.38.35-.81-.22-1.18.37-.15-.23-.08-.45-.24-.67,0,.42-.27.67-.47.65S92.13,70.41,92.22,70.2Z" style="fill:#fff;fill-rule:evenodd"/><path d="M104.84,70.78c.06-.22-.14-.44-.24-.66-.28.8-.62-.17-.9.63C104.1,71.35,104.43,70,104.84,70.78Z" style="fill:#fff;fill-rule:evenodd"/><path d="M112,70.18c-.31-.09-.6.19-.92-.16C111.12,70.52,112,70.58,112,70.18Z" style="fill:#fff;fill-rule:evenodd"/><path d="M118.25,72.05c.14.27-.44.27,0,.79a9.32,9.32,0,0,0,.1-1c-.2-.18-.38,0-.56.24C118,72.48,118.11,72,118.25,72.05Z" style="fill:#fff;fill-rule:evenodd"/><path d="M146.1,70.32c.07-.09,0-.18,0-.27l-.15-.26c-.17.39-.38-.05-.57,0C145.36,70.48,145.89,70,146.1,70.32Z" style="fill:#fff;fill-rule:evenodd"/><path d="M174.65,115.63c-.76.54-1.54.24-2.3.85.41.11.8-.09,1.21.17.13-.78.67-.4,1-.37,0-.13,0-.26.06-.39S174.61,115.72,174.65,115.63Z" style="fill:#fff;fill-rule:evenodd"/><path d="M186.26,63.08c.36-.33-.11-.7.25-1-.08-.08-.14,0-.22-.14l-.13.26C186.54,62.48,185.88,62.77,186.26,63.08Z" style="fill:#fff;fill-rule:evenodd"/><path d="M189.47,63.84c.43.76-.08-1,.33-.65.11-.47-.34-.48-.42,0A.55.55,0,0,1,189.47,63.84Z" style="fill:#fff;fill-rule:evenodd"/><path d="M49.75,77c3.37.22,6.26,1.35,8,3.31a9.26,9.26,0,0,1,2,6.65,15.13,15.13,0,0,1-2.06,7.33,13.7,13.7,0,0,1-6.21,5.56A2.49,2.49,0,0,0,50,101.45a5.71,5.71,0,0,0,0,2.41c0,.19.09.42.14.69l.15.75c.14.67.25,1.2.33,1.57a14.92,14.92,0,0,1,.25,3.52A5.79,5.79,0,0,1,49.55,114,2.9,2.9,0,0,1,46.87,115,4.09,4.09,0,0,1,44,112.75a17.16,17.16,0,0,1-1.81-6.54c-.34-2.93-.34-6.09-.39-9.49S41.68,90,41.63,87c-.05-3.22,0-5.72,1.07-7.45C43.84,77.62,46.23,76.73,49.75,77Zm-4.88,2.6a4.24,4.24,0,0,0-2.06,2.13A10.29,10.29,0,0,0,42,85.07c-.07.6-.11,1.24-.14,1.92s0,1.39,0,1.94c.07-2.41.18-5.34,2-7.18a10.4,10.4,0,0,1,.8-.69,18.78,18.78,0,0,1,1.64-1.17,6.49,6.49,0,0,1,.9-.48c.29-.14.67-.2.93-.35-.26-.26-1.21,0-1.54,0a5.3,5.3,0,0,0-1.58.48Zm2.73,11a2.9,2.9,0,0,0-.27,1.52,1.44,1.44,0,0,0,.55,1.06,1,1,0,0,0,1.08,0,2.41,2.41,0,0,0,1-1.09,2.73,2.73,0,0,0,.34-1.52,1.36,1.36,0,0,0-.58-1.06,1.07,1.07,0,0,0-1.12,0A2.17,2.17,0,0,0,47.6,90.58ZM51.85,93a3.71,3.71,0,0,0,.3-1.54A7.1,7.1,0,0,1,50.62,94a4.18,4.18,0,0,1-1.06.85,4.05,4.05,0,0,1-1.26.47,2.2,2.2,0,0,0,1.4-.1A3.63,3.63,0,0,0,51,94.36,4.37,4.37,0,0,0,51.85,93Z" style="fill:#2b5d80"/><path d="M73.84,103c2-1,3.8-1.19,5.14-.55s2,1.85,2.18,3.74A7,7,0,0,1,80,110.51,11.63,11.63,0,0,1,76.77,114a8.07,8.07,0,0,1-4.28,1.63,6.73,6.73,0,0,1-4.6-1.57,15.91,15.91,0,0,1-4.24-6.36A30.39,30.39,0,0,1,61.49,98a28,28,0,0,1,1.14-9.92,20.71,20.71,0,0,1,3.74-7.16A7.71,7.71,0,0,1,70.81,78,5.57,5.57,0,0,1,75,79a8,8,0,0,1,3,3.54A5.58,5.58,0,0,1,78.17,87a3.13,3.13,0,0,1-1.53,1.73,5.61,5.61,0,0,1-2.09.42l-.55,0h-.53c-.43,0-.78.05-1,.08a2.91,2.91,0,0,0-1.66.63,1.92,1.92,0,0,0-.51,1,2.72,2.72,0,0,0,0,1.17c.24.91.78,1.24,1.62,1a2.88,2.88,0,0,1,2.64.42,3.28,3.28,0,0,1,1.28,2.41,3.61,3.61,0,0,1-.68,2.74,4.16,4.16,0,0,1-3,1.32,1.05,1.05,0,0,0-1,.74,2,2,0,0,0,0,1.4,1.91,1.91,0,0,0,.91,1.1A1.82,1.82,0,0,0,73.84,103ZM69.7,80.26a5.1,5.1,0,0,0-1.49.71,8,8,0,0,0-1.51,1.34,10.26,10.26,0,0,0-1.26,2,22.43,22.43,0,0,0-1.65,4.53,24.46,24.46,0,0,0-.47,2.53,8,8,0,0,0-.18,2.27,2,2,0,0,0,.15-.73A9.65,9.65,0,0,1,63.67,91c.15-.61.22-1.21.34-1.83a11.32,11.32,0,0,1,1.58-3.53A13.23,13.23,0,0,1,69.91,81a14.8,14.8,0,0,0,1.41-.81c-.35-.22-1.15,0-1.54.08Zm2.36,14.55-.29.11-.3.11a1.63,1.63,0,0,0,.66.14,1.47,1.47,0,0,0,.33,0h.14l.15,0a5.22,5.22,0,0,1,.58,0,2.09,2.09,0,0,1,.62.11,1.09,1.09,0,0,0-.6-.49,1.46,1.46,0,0,0-1,0l-.13,0Zm3.3,10a16.21,16.21,0,0,1,2.21-.76,3.15,3.15,0,0,0-1.23,0,4.84,4.84,0,0,0-1.16.32,2.69,2.69,0,0,0-.54.27l-.25.12-.25.15a5.62,5.62,0,0,1-1.09.38,2.21,2.21,0,0,0,1.22,0,3.1,3.1,0,0,0,.54-.2l.28-.12Z" style="fill:#2b5d80"/><path d="M106.56,105.81a4.36,4.36,0,0,1,3,2.78,9,9,0,0,1,.49,4.74,8,8,0,0,1-1.92,4.42,4.2,4.2,0,0,1-4.12,1.42,4.65,4.65,0,0,1-2.27-1.13,5.61,5.61,0,0,1-.65-.8l-.29-.4-.25-.4a5.09,5.09,0,0,0-1.11-1.37,2.45,2.45,0,0,0-1.82-.41l-1.8.22-.78.09-.72.09a15.57,15.57,0,0,1-2.27.17c-1.29,0-2.24-.66-3.67-1.74a12.85,12.85,0,0,1-3.94-5.22,27.85,27.85,0,0,1-1.94-11.33,31.88,31.88,0,0,1,2.54-12.53c1.66-3.79,3.66-6,5.5-6s2.7,1.24,3.13,3.59a22.78,22.78,0,0,1-.48,8.79c-1.46,6.55-1.19,9.36.48,9.3,1.49-.05,2.51-3.46,3.23-11.6a19.62,19.62,0,0,1,1.62-6.86c.76-1.46,1.58-1.87,2.62-1.23,1.42.88,2.45,3.39,3.07,7.15A89,89,0,0,1,105,99.25c0,.3,0,.66,0,1.07s0,.64,0,1.07a17.53,17.53,0,0,0,0,2C105.16,104.75,105.66,105.58,106.56,105.81ZM89.33,81.31a2.82,2.82,0,0,1,1.07-.58,1.82,1.82,0,0,0-1.13.3,4.87,4.87,0,0,0-1,1,12.44,12.44,0,0,0-1.58,2.56A19.38,19.38,0,0,0,85,90.15l.45-1.33c.19-.54.28-.81.48-1.36.4-1.07.78-2,1.11-2.65a14.5,14.5,0,0,1,1.44-2.49A5.89,5.89,0,0,1,89.33,81.31Zm6.07,20a4,4,0,0,0,1-2c-.13.16-.19.25-.32.42l-.31.42a5.1,5.1,0,0,1-.62.74,4.9,4.9,0,0,1-.7.58,5.13,5.13,0,0,1-.78.39,1.38,1.38,0,0,0,.87,0A2.51,2.51,0,0,0,95.4,101.26Zm4-18a1.74,1.74,0,0,1,.87-1c-.37-.13-.71.11-1,.72a7.27,7.27,0,0,0-.65,1.75,14.39,14.39,0,0,0-.32,1.93,16.36,16.36,0,0,0-.09,1.92c.13-.72.2-1.08.34-1.82s.26-1.42.36-1.81A9.74,9.74,0,0,1,99.4,83.29Z" style="fill:#2b5d80"/><path d="M122.8,102c2-1.11,3.62-1.42,4.89-.92s1.92,1.59,2.1,3.38a6.27,6.27,0,0,1-1.22,4.14A11.76,11.76,0,0,1,125,112a10.66,10.66,0,0,1-4.59,1.72,5.46,5.46,0,0,1-4.17-1.18c-1.17-.95-2.12-2.83-3.21-5.54a49,49,0,0,1-2.54-8.64,37.92,37.92,0,0,1-.74-9.33c.17-3.2.88-5.71,2.12-7.3a8.19,8.19,0,0,1,4.89-3.16,7.25,7.25,0,0,1,4.75.72,8.8,8.8,0,0,1,3.46,3.12,5.28,5.28,0,0,1,.93,4.09,2.73,2.73,0,0,1-1.14,1.75,4.9,4.9,0,0,1-1.82.6l-.51.07-.49,0c-.4.06-.72.12-1,.17a2.91,2.91,0,0,0-1.53.77,1.76,1.76,0,0,0-.4,1,2.55,2.55,0,0,0,.13,1.1,1.14,1.14,0,0,0,1.67.78,2.68,2.68,0,0,1,2.49.14,2.93,2.93,0,0,1,1.3,2.15,3.36,3.36,0,0,1-.54,2.64,4.12,4.12,0,0,1-2.77,1.5,1.15,1.15,0,0,0-.93.77,1.85,1.85,0,0,0,0,1.29,1.5,1.5,0,0,0,.83.95A1.84,1.84,0,0,0,122.8,102Zm-6.46-20.92a7,7,0,0,1,1.73-.45,5.15,5.15,0,0,0-1.79.21,5.67,5.67,0,0,0-1.74.82A7,7,0,0,0,113,83.1a8.05,8.05,0,0,0-1,2,15.22,15.22,0,0,0-.77,4.51,26.72,26.72,0,0,0,.24,4.51c0-.45,0-.67,0-1.12s0-.8,0-1.11c0-.76,0-1.51.08-2.21a18.9,18.9,0,0,1,.87-4.35,7.25,7.25,0,0,1,1-1.89,7.46,7.46,0,0,1,1.4-1.48A6.33,6.33,0,0,1,116.34,81.07Zm4.72,13.41-.26.13-.29.13a1.52,1.52,0,0,0,.64.07,1.48,1.48,0,0,0,.31-.07l.13,0,.14,0a4.48,4.48,0,0,1,.55-.1,1.66,1.66,0,0,1,.57,0,1,1,0,0,0-.57-.41,1.31,1.31,0,0,0-.65,0l-.3.11-.13.06Zm3.13,9a21.12,21.12,0,0,1,2.15-.87,3.25,3.25,0,0,0-1.18.07,5.38,5.38,0,0,0-1.12.39,3.28,3.28,0,0,0-.53.29l-.25.13-.25.15a5.84,5.84,0,0,1-1.07.43,2.13,2.13,0,0,0,1.18-.11,3,3,0,0,0,.54-.21l.27-.13Z" style="fill:#2b5d80"/><path d="M149.25,84.14a48.56,48.56,0,0,1,2.89,7.48,41.62,41.62,0,0,1,1.61,8,18.88,18.88,0,0,1-.35,6.66c-.54,1.93-1.44,3.08-2.63,3.4a3,3,0,0,1-3.46-1.3c-1.18-1.69-1.95-4.88-2.38-9.54a20,20,0,0,0-1.07-5.16c-.55-1.42-1.18-2-1.89-1.84-1.26.38-1.46,2.58-.42,6.42,1.31,4.85,1.92,8.26,1.78,10.33-.13,1.83-.91,3-2.37,3.4-1,.3-2.19-.16-3.47-1.39a18.36,18.36,0,0,1-3.43-5,37.25,37.25,0,0,1-3.89-15.49,12.12,12.12,0,0,1,2.25-7.89A12,12,0,0,1,138.79,78a7,7,0,0,1,5.88.51A12.66,12.66,0,0,1,149.25,84.14Zm-12.36-3a8.67,8.67,0,0,1,.88-.49l.44-.21.44-.21A10.46,10.46,0,0,0,135,82a8.59,8.59,0,0,0-1.49,1.49l-.15.24-.17.21a4.4,4.4,0,0,0-.27.45l-.26.47c-.1.2-.15.3-.24.5a10.1,10.1,0,0,0-.81,4.4,24.68,24.68,0,0,0,.55,4.45c0-.44-.06-.66-.11-1.1s-.05-.78-.06-1.11,0-.66-.07-1.11a10.07,10.07,0,0,1,0-1.1,10.35,10.35,0,0,1,.86-4.18,8.78,8.78,0,0,1,1-1.78,8.18,8.18,0,0,1,1.39-1.5,3,3,0,0,1,.4-.36l.44-.3.44-.28C136.61,81.29,136.76,81.2,136.89,81.12Z" style="fill:#2b5d80"/><path d="M161.3,75a26.51,26.51,0,0,1,10.23.8,7.86,7.86,0,0,1,3.17,1.73,3.29,3.29,0,0,1,1,2.66,2.56,2.56,0,0,1-1,1.91,5.43,5.43,0,0,1-2.14.86l-.6.15-.6.1-1.11.22a2.64,2.64,0,0,0-1.51.72c-.35.46-.25,1.85.27,4.14a76.12,76.12,0,0,0,2.3,7.64c2,5.58,1.55,9-.53,10-1.14.54-2.34.24-3.73-.83a10,10,0,0,1-3.22-4.45A38.77,38.77,0,0,1,162.54,96c-.29-1.26-.58-2.8-.88-4.6a35.16,35.16,0,0,0-1.2-5.79,2.36,2.36,0,0,0-2-.85,10.39,10.39,0,0,0-1.33,0l-.63,0-.63,0a4.63,4.63,0,0,1-2.31-.34,3.26,3.26,0,0,1-1.53-2.23,4.57,4.57,0,0,1,1.46-5C155,76,157.8,75.28,161.3,75Zm-3.55,2.57c.71-.22,1.51-.45,2.4-.67A12,12,0,0,0,155.3,78a4.58,4.58,0,0,0-1.67,1.44,3.17,3.17,0,0,0-.48,1.14,2.53,2.53,0,0,0,.15,1.38,2.53,2.53,0,0,1,0-1.29,3,3,0,0,1,.52-1,5,5,0,0,1,1.66-1.29A13.82,13.82,0,0,1,157.75,77.53Z" style="fill:#2b5d80"/><path d="M193.69,80.29a11.06,11.06,0,0,1,7.07,1.44,6.36,6.36,0,0,1,2.91,4.43,7.85,7.85,0,0,1-1.38,5.77,16.48,16.48,0,0,1-7.3,5.72c-3.65,1.63-7.19,2.23-9.18,1.28a9.75,9.75,0,0,1-4.38-4.8,21.19,21.19,0,0,1-1.94-7.44,24.49,24.49,0,0,1,.54-7.87,16,16,0,0,1,2.44-5.77,5.94,5.94,0,0,1,3-2.38,3.9,3.9,0,0,1,2.94.27,4.6,4.6,0,0,1,2.13,2.2,8.18,8.18,0,0,1,.66,2.56c0,.3.06.72.08,1.24l.05.56c0,.21,0,.4,0,.55a3.1,3.1,0,0,0,.52,1.7A2,2,0,0,0,193.69,80.29Zm-8.39-7.66a3.58,3.58,0,0,1,.92-.54,3.37,3.37,0,0,0-1.93,1.08A8.67,8.67,0,0,0,183,75,11.32,11.32,0,0,0,182.1,77a14.56,14.56,0,0,0-.47,2.12l.37-1c.15-.41.29-.74.41-1a14.5,14.5,0,0,1,.93-2,13.05,13.05,0,0,1,1.18-1.8A6.34,6.34,0,0,1,185.3,72.63Zm6.17,15.54a1.9,1.9,0,0,0,1.25.43,1.68,1.68,0,0,0,1.17-.4,1.13,1.13,0,0,0,.43-1,1.35,1.35,0,0,0-.55-1,2,2,0,0,0-1.22-.43,1.75,1.75,0,0,0-1.18.36,1.19,1.19,0,0,0-.43,1A1.37,1.37,0,0,0,191.47,88.17Zm4.79-.23a2.18,2.18,0,0,0,.15-1.27,1.88,1.88,0,0,0-.56-1,4.12,4.12,0,0,1,.21,1.13,2.51,2.51,0,0,1-.25,1.14,4.17,4.17,0,0,1-2,2,3.69,3.69,0,0,0,1.49-.75A3.16,3.16,0,0,0,196.26,87.94Zm10.81-19.22c1.1,1.08,1.84,2.86,2.36,5.29a56.41,56.41,0,0,1,1,7.13,39.12,39.12,0,0,1,.22,6.12c-.14,1.79-.64,2.78-1.84,3a1.58,1.58,0,0,1-1.58-.46,6.73,6.73,0,0,1-1-2.15c-.07-.2-.16-.47-.24-.79s-.08-.26-.14-.43-.08-.26-.13-.44c-.22-.77-.42-1.43-.61-2a33,33,0,0,0-2-4.9,15,15,0,0,0-1.58-2.31l-.47-.56-.48-.58a14.56,14.56,0,0,1-.92-1.16c-1.45-1.85-2.07-3.45-1.8-4.69A2.93,2.93,0,0,1,199,68.13a5.61,5.61,0,0,1,2.41-1,7.19,7.19,0,0,1,3,.07A5.58,5.58,0,0,1,207.07,68.72Zm-7.24.87a3.15,3.15,0,0,1,1.6-1.08,3.07,3.07,0,0,0-1.88.93,1.52,1.52,0,0,0-.39.92,3,3,0,0,0,.1.94,5.23,5.23,0,0,0,.91,1.66,11.55,11.55,0,0,0,1.25,1.42l-.49-.78-.5-.77a7,7,0,0,1-.77-1.62,2.56,2.56,0,0,1-.11-.84A1.3,1.3,0,0,1,199.83,69.59Z" style="fill:#2b5d80"/></g></svg>