<svg id="Слой_1" xmlns="http://www.w3.org/2000/svg" viewBox="0 0 50 50"><title>page_books</title><path d="M44.5,31.23a1.41,1.41,0,0,0-.73-1.34l-4.91-3.27-4.34-2.89a2.34,2.34,0,0,1-1.16-2.12c0-2.13,0-4.25,0-6.38V3.77c0-.44-.11-1.17-.91-1.17a1.63,1.63,0,0,0-.51.08l-3.38,1q-6.64,2-13.28,4.06a5.36,5.36,0,0,1-1.6.27,3.83,3.83,0,0,1-1.94-.51l-.1,0a.64.64,0,0,1-.49-.6c0-.49.44-.59.72-.65l5-1.54,9.37-2.85c.56-.17.81-.41.87-.83a.93.93,0,0,0-.19-.74.9.9,0,0,0-.7-.28,1.72,1.72,0,0,0-.48.08L7.46,5.65c-.91.28-1.06.48-1.07,1.47v9.22q0,6.39,0,12.77v.11a.77.77,0,0,1-.4.85,1,1,0,0,0-.46,1v1.23c0,1.64,0,3.34,0,5a2,2,0,0,0,.92,1.84c4.26,3.25,8.68,6.65,13.49,10.4a1.63,1.63,0,0,0,1,.42,1.78,1.78,0,0,0,.86-.27c2.32-1.33,4.66-2.63,7-3.93l15-8.39a1.19,1.19,0,0,0,.67-1.16C44.47,34.77,44.46,33,44.5,31.23Zm-7.28-3.49,2.89,1.92.31.21c.33.24.63.51.61.87s-.37.59-.74.79L24.8,39.66l-1.95,1a2.69,2.69,0,0,1-1,.31,2.33,2.33,0,0,1-1.21-.51L9.49,32c-.25-.19-.58-.49-.53-.87s.42-.59.71-.72l11.38-5.06,1.82-.81,4.57-2a2.42,2.42,0,0,1,1-.23,2.37,2.37,0,0,1,1.32.44ZM11.8,21.28A4.09,4.09,0,0,1,11,21c-.4-.16-.79-.32-1.18-.5A5.14,5.14,0,0,1,8.87,20c-.08-.06-.39-.36-.59-.54a.22.22,0,0,1,0-.08c0-2.12,0-4.23,0-6.37a.72.72,0,0,1,.15-.55l.06,0a6,6,0,0,0,.49.36,6,6,0,0,0,2.83,1l.11,0a2.38,2.38,0,0,1,.38,0h.14a1,1,0,0,1,.1.47c0,.78,0,1.55,0,2.33v.59h0v1.26c0,.78,0,1.56,0,2.35a1.13,1.13,0,0,1,0,.31A1.07,1.07,0,0,1,11.8,21.28ZM8.28,22.67V20.49c.06.06.11.13.17.18s.16.1.23.16a6.88,6.88,0,0,0,1.14.6,10.29,10.29,0,0,0,1.2.47,4.86,4.86,0,0,0,.84.19l.56,0a.67.67,0,0,1,.09.38c0,.68,0,1.35,0,2v1.56a1.48,1.48,0,0,1-.94,1.37c-.66.29-1.32.57-2,.82a1.51,1.51,0,0,1-.51.11h0c-.23,0-.77-.1-.77-1C8.28,25.83,8.28,24.27,8.28,22.67ZM16,9.47,29.77,5.28l.3-.08a2,2,0,0,1,.57-.1c.87,0,.87.91.87,1.21V20a.94.94,0,0,1-.38.94.65.65,0,0,1-.36.1,1,1,0,0,1-.57-.25,1.1,1.1,0,0,0-.14-.09,2.05,2.05,0,0,1-.36-.24,1.42,1.42,0,0,0-1-.41,2.37,2.37,0,0,0-.94.24c-2.88,1.31-5.77,2.59-8.67,3.88l-3.19,1.41a2.07,2.07,0,0,1-.83.25c-.71,0-.71-.83-.71-1.27V11.65C14.39,10.17,14.59,9.9,16,9.47ZM8.3,9.14a.78.78,0,0,1,.75-.65,1,1,0,0,1,.37.07c.74.3,1.49.63,2.29,1a1.38,1.38,0,0,1,.79,1.26v.61h0V12c0,.56,0,.91-.22,1.13a1.25,1.25,0,0,1-.19,0L11.82,13a3.14,3.14,0,0,1-.76-.19c-.25-.08-.5-.17-.74-.27a3.5,3.5,0,0,1-1.22-.76,4.12,4.12,0,0,1-.8-.71A3.49,3.49,0,0,1,8.3,9.14ZM41.12,36.83C36,39.66,30.74,42.58,25.69,45.4l-3.6,2a2,2,0,0,1-1,.28,1.9,1.9,0,0,1-1.17-.44l-2.81-2.16q-4.29-3.33-8.6-6.62a3,3,0,0,1-1.16-3V35c0-.3,0-.56,0-.81.06-.7.42-.8.63-.8a1.07,1.07,0,0,1,.64.27c.68.5,1.35,1,2,1.53l3.48,2.67L20.81,43a1.27,1.27,0,0,0,.75.29,1.53,1.53,0,0,0,.71-.21q7.35-3.89,14.7-7.73l3.84-2,.49-.25a1.45,1.45,0,0,1,.6-.16c.44,0,.7.32.76,1A2.69,2.69,0,0,1,41.12,36.83Z"/><path d="M37.56,30.05c0,.25-.18.34-.35.44-1.34.76-2.7,1.51-4,2.3-.37.21-.61.05-.88-.13l-5.6-3.85-3.17-2.19c-.2-.13-.45-.25-.44-.53s.29-.4.53-.5c1.49-.61,3-1.2,4.45-1.83a.83.83,0,0,1,.88.12l8.23,5.67C37.37,29.67,37.58,29.78,37.56,30.05Zm-13.1-3.9a.7.7,0,0,0,0,.11l8.11,5.61a.38.38,0,0,0,.44,0l3.28-1.86c0-.09,0-.14-.08-.16l-7.53-5.18c-.16-.1-.3-.2-.5-.11Z"/></svg>
