<svg id="Слой_1" data-name="Слой 1" xmlns="http://www.w3.org/2000/svg" viewBox="0 0 50 50"><title>page_contacts</title><path d="M7.45,50A7.13,7.13,0,0,1,0,42.55v-35A7.12,7.12,0,0,1,7.52,0h35A7.13,7.13,0,0,1,50,7.45v35.1A7.13,7.13,0,0,1,42.55,50H7.45ZM7.51,1.81a5.3,5.3,0,0,0-5.7,5.71v34.9C1.81,46,4,48.19,7.59,48.19h34.9a5.35,5.35,0,0,0,5.7-5.71v-35a5.3,5.3,0,0,0-5.71-5.71h-35Z"/><path d="M24.94,39A14,14,0,0,1,25,11,14,14,0,0,1,39,25.08,14,14,0,0,1,25,39ZM25,12.83a12.16,12.16,0,0,0-8.61,20.75A12,12,0,0,0,25,37.17,12.2,12.2,0,0,0,37.17,25,12.21,12.21,0,0,0,25,12.83Z"/><path d="M40.15,14.2a4.35,4.35,0,1,1,3.09-1.3,4.29,4.29,0,0,1-3.05,1.3Zm0-6.88a2.52,2.52,0,1,0,2.55,2.52,2.54,2.54,0,0,0-2.55-2.52h0Z"/></svg>