<svg id="Слой_1" data-name="Слой 1" xmlns="http://www.w3.org/2000/svg" viewBox="0 0 50 50"><title>page_collections</title><path d="M25,50H3.46A3.42,3.42,0,0,1,0,46.57V21.26a4,4,0,0,1,.31-1.18c.35-1.18.73-2.36,1.1-3.54s.73-2.31,1.09-3.47.72-2.33,1.08-3.49.73-2.29,1.09-3.45L5.75,2.66c.13-.42.25-.84.39-1.25a2.14,2.14,0,0,1,2-1.4h.51Q25.06,0,41.51,0A2.34,2.34,0,0,1,44,1.92c.33,1.18.72,2.34,1.08,3.51l1.23,3.94c.35,1.14.71,2.27,1.06,3.4.42,1.31.82,2.63,1.23,3.94s.82,2.57,1.22,3.86a3.17,3.17,0,0,1,.16.92Q50,34,50,46.43A3.45,3.45,0,0,1,46.43,50Zm0-1.77H46.24a2.3,2.3,0,0,0,.82-.09,1.68,1.68,0,0,0,1.16-1.74V22.46c0-.38,0-.38-.39-.38H34a1.73,1.73,0,0,0-1.18.42c-.4.36-.79.73-1.17,1.1a3.29,3.29,0,0,1-2.38,1c-2.86,0-5.73,0-8.6,0A3.22,3.22,0,0,1,19,24.14a8.48,8.48,0,0,1-1.62-1.43A2,2,0,0,0,16,22.08H2.13c-.37,0-.38,0-.38.38V46.38a1.73,1.73,0,0,0,1.86,1.85ZM25,1.76H8.58c-.11,0-.22,0-.34,0a.48.48,0,0,0-.46.36c-.13.44-.28.88-.42,1.32-.52,1.65-1,3.31-1.54,5l-1.56,5q-.79,2.52-1.58,5.06L2.18,20c-.07.23,0,.35.24.32H16.08a3.35,3.35,0,0,1,2.38.94l.82.79a2.21,2.21,0,0,0,1.61.8h8.2a1.85,1.85,0,0,0,1.36-.57c.26-.27.54-.51.8-.77a3.85,3.85,0,0,1,2.94-1.2c4.43,0,8.86,0,13.29,0,.41,0,.42,0,.29-.39-.21-.65-.41-1.31-.61-2q-.82-2.67-1.66-5.34c-.55-1.77-1.12-3.55-1.67-5.32l-1.56-5c-.16-.51-.23-.55-.77-.55Z"/><path d="M25,37.29H18.65a2.11,2.11,0,0,1-2.16-2.12c0-1.25,0-2.51,0-3.77a.89.89,0,1,1,1.77,0V35c0,.42.13.56.54.56H31.17c.41,0,.57-.16.57-.57V31.4a.81.81,0,0,1,.85-.92.83.83,0,0,1,.89.89c0,1.28,0,2.55,0,3.83a2.09,2.09,0,0,1-2.15,2.09Z"/><path d="M25,15.66H43.31a.89.89,0,0,1,.15,1.77H6.66a.89.89,0,0,1-.92-.69.88.88,0,0,1,.58-1.05,1.2,1.2,0,0,1,.42,0Z"/><path d="M25,10.14H41.86a1.52,1.52,0,0,1,.56.08A.81.81,0,0,1,43,11a.82.82,0,0,1-.58.83A1.26,1.26,0,0,1,42,12H8.07c-.67,0-1.05-.3-1.08-.84a.85.85,0,0,1,.74-.93,2,2,0,0,1,.42,0Z"/><path d="M25,6.43H9.18a.88.88,0,0,1-.88-.59.9.9,0,0,1,.32-1,.92.92,0,0,1,.53-.16H40.61a1.37,1.37,0,0,1,.69.13.88.88,0,0,1,.41,1,.89.89,0,0,1-.85.64H25Z"/></svg>