<svg id="Слой_1" data-name="Слой 1" xmlns="http://www.w3.org/2000/svg" viewBox="0 0 50 50"><title>page_products_DB</title><path d="M24.71,49.82a23.48,23.48,0,0,1-11.22-3c-5.62-3-8.56-8-8.73-14.72A1.15,1.15,0,0,1,5,31.26l0,0-.24.06a4.26,4.26,0,0,1-.86.09A3.53,3.53,0,0,1,1.12,30a3.6,3.6,0,0,1-.65-3.76.61.61,0,0,0,0-.57,3.57,3.57,0,0,1,.33-3.9A3.64,3.64,0,0,1,4.3,20.26h.1s0-.05,0-.11a3.79,3.79,0,0,1,3.16-3,3.64,3.64,0,0,1,.57,0,3.77,3.77,0,0,1,3.35,2.07l0,.06.07,0A3.47,3.47,0,0,1,12.83,19a3,3,0,0,1,2.75,4.24,3.14,3.14,0,0,1-1.77,1.64l-.12.05a.3.3,0,0,1,0,.11c.33,1,.64,2,.95,3,.21.7.43,1.39.65,2.08a2.08,2.08,0,0,1,.14.9H34.4l-.19,0c-1-.12-2-.25-3-.39l-1.3-.17a1,1,0,0,1-.92-.71.92.92,0,0,1,.55-1L30.58,28c.79-.46,1.57-.93,2.37-1.37a.53.53,0,0,0,.32-.62,23.23,23.23,0,0,1,.45-6.77,11.07,11.07,0,0,1,6.11-7.69A21.72,21.72,0,0,1,47.41,9.4l.41,0c.63,0,.8.38,1,.94a20.38,20.38,0,0,1,1,9.36,10.7,10.7,0,0,1-4.13,7,23.46,23.46,0,0,1-6.09,3.34,1.1,1.1,0,0,0-.51.95h4.56a1,1,0,0,1,1.19,1.21c-.23,7.15-3.5,12.26-9.73,15.17A24.4,24.4,0,0,1,24.71,49.82ZM7.09,36.43a14.9,14.9,0,0,0,9.62,10.11A22.27,22.27,0,0,0,24.6,48a27.21,27.21,0,0,0,5.07-.5,16.84,16.84,0,0,0,9.23-4.74,14.21,14.21,0,0,0,3.68-6.56H7C7,36.24,7.06,36.34,7.09,36.43Zm.47-3.7a3.07,3.07,0,0,0-1,.07,3.16,3.16,0,0,0,0,1c0,.12,0,.21,0,.3s0,.24.06.27.11.08.36.08q14.19,0,28.38,0h6.15c1.49,0,1.49,0,1.55-1.49a.85.85,0,0,0,0-.17H43c-1.61,0-3.21,0-4.81,0H24.54v0ZM32.62,29c.66.09,1.31.18,2,.25a1.66,1.66,0,0,1,1.55,1,3.53,3.53,0,0,0,.39.62.32.32,0,0,0,.31.15l.29,0,.27,0v0a.76.76,0,0,1,0-.26c.05-.31.08-.63.1-.95a1.11,1.11,0,0,1,.82-1.07,22.59,22.59,0,0,0,5.56-2.78,9.22,9.22,0,0,0,4-5.5.56.56,0,0,0,0-.19.65.65,0,0,0-.17-.09,23.87,23.87,0,0,1-8.82-5.7c-.09-.09-.13-.11-.14-.11a.49.49,0,0,0-.17.11,8.88,8.88,0,0,0-3.17,5.09,21.33,21.33,0,0,0-.42,7,1.36,1.36,0,0,1-.81,1.47c-.58.31-1.14.65-1.7,1l-.1.06Zm-25.48.73A4.16,4.16,0,0,1,5.63,31H8.11Zm-.21-2.65a1,1,0,0,1,.81.53c.66.89,1.33,1.77,2,2.65l.45.6c.11.14.12.15.14.15h.89L9.65,27.9c-.4-.81-.07-1.19.29-1.37a.94.94,0,0,1,.42-.11c.52,0,.77.51.85.67.44.89.89,1.77,1.34,2.66l.37.72s.07.15.08.16a.91.91,0,0,1,.35-.16.71.71,0,0,0,.21-.08.34.34,0,0,0,0-.16c-.3-.93-.58-1.86-.87-2.8s-.54-1.74-.82-2.61c-.16-.51-.22-.86,0-1.14s.54-.36,1-.4a1.32,1.32,0,0,0,1.19-1,1.25,1.25,0,0,0-.62-1.4,1.37,1.37,0,0,0-.65-.17,1.24,1.24,0,0,0-.9.39,1.19,1.19,0,0,1-.82.44.77.77,0,0,1-.32-.07,1,1,0,0,1-.58-.89,2.08,2.08,0,0,0-2-1.8,1.23,1.23,0,0,0-.27,0,2.15,2.15,0,0,0-1.43.85,2,2,0,0,0-.35,1.46,1,1,0,0,1-.32,1.09.84.84,0,0,1-.51.18,1.46,1.46,0,0,1-.56-.16,2.1,2.1,0,0,0-.9-.21A2.07,2.07,0,0,0,2,23.08a1.81,1.81,0,0,0,.12,2,1,1,0,0,1,.16,1.45A1.84,1.84,0,0,0,2,28.08a2.06,2.06,0,0,0,2,1.57A2,2,0,0,0,6,28a1,1,0,0,1,.73-.9A.75.75,0,0,1,6.93,27.07ZM40.31,13.31A21.88,21.88,0,0,0,48.2,18.4a19.85,19.85,0,0,0-.83-6.88c-.09-.32-.17-.32-.28-.32l-.17,0a24.88,24.88,0,0,0-4.46,1.12A13.45,13.45,0,0,0,40.31,13.31Z"/><path d="M24.72,30a1.52,1.52,0,0,1-.55-.1,1.59,1.59,0,0,1-.9-.76l-2.1-3.64c-1.61-2.79-3.23-5.58-4.82-8.39A4,4,0,0,1,17.26,12l.07-.06,0,0C15.52,10.23,15,8.08,15.65,5.15a.92.92,0,0,1,.78-.81h.13a1,1,0,0,1,.85.65l1.23,2.57L18.35,5c0-.16,0-.31-.05-.46a.87.87,0,0,1,.87-1,.87.87,0,0,1,.63.28c2.09,2.05,2.85,4.2,2.3,6.56,0,0,0,.07,0,.09l.12,0a4.09,4.09,0,0,1,3.62,4.09c.08,1.68.13,3.36.19,5l.14,4.14c.05,1.47.1,2.95.14,4.42a1.74,1.74,0,0,1-.48,1.32A1.52,1.52,0,0,1,24.72,30Zm-2.53-6.26,1.38,2.38.95,1.64c0-1.27-.16-5-.16-5l-.05-1.48c0-1.33-.1-2.65-.13-4v-.05h0c-.46.15-.93.28-1.4.4a1,1,0,0,1-.3,0,.79.79,0,0,1-.8-.64A.85.85,0,0,1,22.28,16l.85-.24c1-.28,1-.28.93-1.31a2.32,2.32,0,0,0-2.31-2.21,2.48,2.48,0,0,0-.54.06c-.67.17-1.32.37-2.08.63a2.32,2.32,0,0,0-1.53,2.61v0c.3-.1.53-.16.76-.22l.24-.06a1,1,0,0,1,.28,0,.79.79,0,0,1,.79.59A.83.83,0,0,1,19.15,17c-.26.09-.51.19-.76.25l1.08,1.88.07.1.09,0a10,10,0,0,1,1.2-.33.93.93,0,0,1,.23,0,.86.86,0,0,1,.26,1.67,7.25,7.25,0,0,1-.87.27c.28.48.53.89.75,1.33.05.11.08.11.1.11l.15,0c.44-.15.89-.28,1.34-.39a1.08,1.08,0,0,1,.3,0,.78.78,0,0,1,.8.64.85.85,0,0,1-.65,1.08l-.32.1c-.25.07-.5.15-.75.2Z"/><path d="M30,18.6a2.59,2.59,0,0,1-1.1-.24,2.47,2.47,0,0,1-1.39-2.79c0-.22,0-.26,0-.35a7.78,7.78,0,0,1-1.24-7.5A8,8,0,0,1,30.53,2.5c.07,0,.09-.08.15-.24A3.15,3.15,0,0,1,33.55.18a3,3,0,0,1,1,.17,3.11,3.11,0,0,1,2,3.94c-.05.15,0,.23.09.43a8.57,8.57,0,0,1-2.46,11,2.58,2.58,0,0,1-.58.36,2.75,2.75,0,0,0-1.73,1.43A2,2,0,0,1,30,18.6ZM33.65,1.93a1.58,1.58,0,0,0-.42.06,1.2,1.2,0,0,0-1,1.1,1,1,0,0,1-.62.84,6,6,0,0,0-3.77,4.41c-.73,2.69-.29,4.66,1.38,6.18a.85.85,0,0,1,.08,1.21.61.61,0,0,0,0,.84.67.67,0,0,0,.52.29.63.63,0,0,0,.26-.05.67.67,0,0,0,.51-.74.93.93,0,0,1,.91-1,3.64,3.64,0,0,0,1.86-.88A7.05,7.05,0,0,0,36,9.1a6.84,6.84,0,0,0-1-3.9,1.26,1.26,0,0,1-.09-1.33,1.2,1.2,0,0,0-.18-1.45A1.25,1.25,0,0,0,33.65,1.93Z"/><path d="M14.63,19.24a.71.71,0,0,1-.54-.37,36.74,36.74,0,0,1-2.43-4,1.52,1.52,0,0,0-.62-.66,9,9,0,0,1-3.8-3.71A6.61,6.61,0,0,1,7.24,5a10.63,10.63,0,0,1,1.18-2.3c.24-.35.45-.35.52-.35a.51.51,0,0,1,.26.07,9.44,9.44,0,0,1,4.58,4.12,5.45,5.45,0,0,1,.59,2.66,9.46,9.46,0,0,1-1.5,4.77.68.68,0,0,0,0,.79A36.4,36.4,0,0,0,15,18.18c.18.26.29.45.18.7a.5.5,0,0,1-.45.35ZM9.55,6.83c.1,0,.39,0,.54.58s.24,1,.38,1.43a30.28,30.28,0,0,0,1.32,3.68.34.34,0,0,0,.28.19h0a.31.31,0,0,0,.27-.17,4.72,4.72,0,0,0,.27-.61c1.05-2.61.82-4.59-.72-6.27A10.46,10.46,0,0,0,9.5,3.75l-.1,0a.28.28,0,0,0-.13,0l-.11,0A.29.29,0,0,0,9,3.87a11.27,11.27,0,0,0-.88,2,5.22,5.22,0,0,0,1.56,5.94.34.34,0,0,0,.21.08.34.34,0,0,0,.17-.05.31.31,0,0,0,.12-.37A37,37,0,0,1,9,7.69c-.12-.46,0-.73.37-.83A.57.57,0,0,1,9.55,6.83Z"/><path d="M4,16.29A2.17,2.17,0,0,1,2.48,12.6a2.14,2.14,0,0,1,3.05,0,2.1,2.1,0,0,1,.64,1.52A2.2,2.2,0,0,1,4,16.29Zm0-3.2a1,1,0,1,0,0,2.06,1.06,1.06,0,0,0,1.06-1,1,1,0,0,0-.28-.74A1,1,0,0,0,4,13.09Z"/><path d="M29.8,24.61A2.09,2.09,0,0,1,28.29,24a2.16,2.16,0,1,1,3.05-3.05,2.16,2.16,0,0,1-1.54,3.68Zm0-3.2a1.08,1.08,0,0,0-1,1,1,1,0,0,0,.28.75,1.06,1.06,0,0,0,.74.33h0a1,1,0,0,0,1.07-1,1.08,1.08,0,0,0-1-1.07Z"/><path d="M41.85,7.41a2.16,2.16,0,0,1,.08-4.32,2.12,2.12,0,0,1,1.57.71,2.14,2.14,0,0,1-1.58,3.61Zm0-3.2a1.07,1.07,0,0,0-.73.34A1,1,0,0,0,42.68,6,1.05,1.05,0,0,0,43,5.24a1.09,1.09,0,0,0-1-1h0Z"/><path d="M18.41,29.2A2.16,2.16,0,1,1,20,25.54a2.11,2.11,0,0,1,.61,1.52,2.18,2.18,0,0,1-2.17,2.14Zm0-3.2a1,1,0,0,0-.72.32,1,1,0,0,0-.29.75,1.05,1.05,0,0,0,1,1,1,1,0,0,0,.74-.32,1,1,0,0,0,.31-.73,1.07,1.07,0,0,0-1.05-1h0Z"/><path d="M18.78,45.34a1.08,1.08,0,0,1-.4-.11,18.82,18.82,0,0,1-5-3.23c-.5-.45-.39-.72-.21-.93a.57.57,0,0,1,.36-.21h0a.9.9,0,0,1,.59.29,16.29,16.29,0,0,0,4.65,3,1.66,1.66,0,0,1,.4.2.53.53,0,0,1,.21.57.54.54,0,0,1-.51.42Z"/><path d="M11.48,39.59a.48.48,0,0,1-.38-.21,9.92,9.92,0,0,1-.63-1,.48.48,0,0,1,.15-.63.51.51,0,0,1,.36-.15.41.41,0,0,1,.24.08,3.13,3.13,0,0,1,.85,1.29c0,.39-.18.52-.34.59A.61.61,0,0,1,11.48,39.59Z"/><path d="M36.73,24.21a.47.47,0,0,1-.36-.16,1,1,0,0,1-.11-.72A14.38,14.38,0,0,1,38,17c.14-.25.31-.47.57-.47a.54.54,0,0,1,.26.07.53.53,0,0,1,.31.33.68.68,0,0,1-.12.55,13.39,13.39,0,0,0-1.68,5.92c-.05.61-.2.82-.56.83Z"/><path d="M5.71,26.66a2.67,2.67,0,0,1-2.23-1.5.78.78,0,0,1-.11-.58.52.52,0,0,1,.29-.31.54.54,0,0,1,.27-.07c.07,0,.3,0,.53.39a1.71,1.71,0,0,0,1.43.95,1.84,1.84,0,0,0,1.34-.69.72.72,0,0,1,.5-.29.58.58,0,0,1,.35.14c.27.23.28.52,0,.88a2.89,2.89,0,0,1-2.38,1.08Z"/><path d="M43.53,14.7a.86.86,0,0,1-.86-.81.89.89,0,0,1,.25-.6.84.84,0,0,1,.6-.27.87.87,0,0,1,.84.85.82.82,0,0,1-.82.83Z"/><path d="M28.94,13.1c-.31,0-.5-.22-.54-.64S28.26,11,28.26,11a9.1,9.1,0,0,1,2.09-5.68A.77.77,0,0,1,30.89,5a.58.58,0,0,1,.35.14.49.49,0,0,1,.21.35.78.78,0,0,1-.22.56,7.77,7.77,0,0,0-1.71,6.23.78.78,0,0,1-.09.59.54.54,0,0,1-.37.2Z"/></svg>