<svg id="Слой_1" data-name="Слой 1" xmlns="http://www.w3.org/2000/svg" viewBox="0 0 50 50"><title>page_recipes</title><path d="M46.57,21.61c0,6.57,0,13.14,0,19.7a2.51,2.51,0,0,1-.92,2.2c-.68.56-1.25,1.24-1.89,1.86-.24.22-.23.36,0,.59.76.73,1.49,1.49,2.24,2.22.38.36.69.73.46,1.29s-.72.53-1.21.53H11.12A11,11,0,0,1,5.5,48.56a3.85,3.85,0,0,1-2.06-2.63,6.64,6.64,0,0,1,0-1.41q0-16.85,0-33.68c0-2,0-4,0-6A3.43,3.43,0,0,1,5.06,1.72,9.8,9.8,0,0,1,10.41.05c3.67-.07,7.33,0,11,0H44.94c1.53,0,1.64.11,1.63,1.64Zm-1.79-.07V2.63c0-1,.09-.84-.81-.84H12.83c-.53,0-.68.12-.68.67q0,19.1,0,38.19c0,.51.08.69.66.69q15.63,0,31.26,0c.54,0,.73-.11.72-.7C44.77,34.27,44.78,27.9,44.78,21.54ZM5.25,42.85A10.88,10.88,0,0,1,9.7,41.41c.55,0,.62-.29.62-.78q0-15.23,0-30.45c0-2.59,0-5.18,0-7.78,0-.42-.07-.58-.54-.53a9.56,9.56,0,0,0-3.31.92A2.15,2.15,0,0,0,5.23,4.87c0,9.23,0,18.45,0,27.67Zm38.25.34-.63,0q-13.68,0-27.36,0a45.53,45.53,0,0,0-6.29.13,5.94,5.94,0,0,0-3.44,1.35,1.3,1.3,0,0,0,0,2.09,4.44,4.44,0,0,0,1.61.88,13.31,13.31,0,0,0,4.39.59h31a.69.69,0,0,0,.6-.14c-.57-.55-1.13-1.08-1.68-1.63s-.56-1,0-1.54S42.82,43.84,43.5,43.19Z"/><path d="M28.42,16.26a6.55,6.55,0,0,1-5.72-5.55c-.45-2.19,2.37-1.24,3.5-.86a7.35,7.35,0,0,1,2.3,1.21,6.54,6.54,0,0,1,1.76,2.68,5.48,5.48,0,0,1,3-.88,2.22,2.22,0,0,1,1.2.14A1,1,0,0,1,35,14c-.1.6-.8.78-1.33.8a11.8,11.8,0,0,0-1.33,0c-.49.06-1.13.37-1.11.93A11.12,11.12,0,0,1,33.5,16a5.51,5.51,0,0,1,1.89.83,7.11,7.11,0,0,1,2.48,3.36,10.23,10.23,0,0,1,.26,5.8c-.84,3.4-3.65,9.38-8,7.4a3.44,3.44,0,0,0-3,0C21.57,35.78,18.39,27,18.49,23a7.41,7.41,0,0,1,2.69-5.92,6.17,6.17,0,0,1,3.73-1.22C25.6,15.85,28.18,16.91,28.42,16.26Zm8.13,7.16a11,11,0,0,0-.16-1.72c-.32-1.77-1.89-3.87-3.74-4a5.29,5.29,0,0,0-2.52.45,4.27,4.27,0,0,1-3.58,0,4.19,4.19,0,0,0-1.67-.41,4.43,4.43,0,0,0-4.3,3.73c-.75,3.89.73,7.1,3.28,9.91a1.64,1.64,0,0,0,2,.4c.33-.16.69-.26,1-.4a4.76,4.76,0,0,1,4,.27,1.68,1.68,0,0,0,2.42-.43A12.57,12.57,0,0,0,36.55,23.42ZM28.31,14.3A3.46,3.46,0,0,0,25,11.56,3.58,3.58,0,0,0,28.31,14.3Z"/></svg>